<svg xmlns="http://www.w3.org/2000/svg" viewBox="0 0 33.22 46.22"><defs><style>.cls-1{fill:#19181c;}</style></defs><title>certification</title><g id="Layer_2" data-name="Layer 2"><g id="Layer_1-2" data-name="Layer 1"><circle class="cls-1" cx="8.67" cy="15.17" r="1.44"/><circle class="cls-1" cx="8.67" cy="20.94" r="1.44"/><circle class="cls-1" cx="8.67" cy="26.72" r="1.44"/><path class="cls-1" d="M13,16.61H24.55a1.44,1.44,0,1,0,0-2.89H13a1.44,1.44,0,1,0,0,2.89Z"/><path class="cls-1" d="M13,22.39H24.55a1.44,1.44,0,1,0,0-2.89H13a1.44,1.44,0,1,0,0,2.89Z"/><path class="cls-1" d="M26,26.72a1.45,1.45,0,0,0-1.45-1.45H13a1.44,1.44,0,1,0,0,2.89H24.55A1.44,1.44,0,0,0,26,26.72Z"/><path class="cls-1" d="M23.53,33.64h0l-3.87,3.87-1.93-1.93h0a1.44,1.44,0,1,0-2,2h0l3,3h0a1.44,1.44,0,0,0,2,0l4.89-4.89h0a1.44,1.44,0,0,0-2-2Z"/><path class="cls-1" d="M28.89,2.89H25.28V1.44A1.45,1.45,0,0,0,23.83,0H9.39A1.44,1.44,0,0,0,7.95,1.44V2.89H4.33A4.35,4.35,0,0,0,0,7.22V41.89a4.34,4.34,0,0,0,4.33,4.33H28.89a4.34,4.34,0,0,0,4.33-4.33V7.22A4.35,4.35,0,0,0,28.89,2.89Zm-18.06,0H22.39V5.78H10.83Zm19.5,39a1.45,1.45,0,0,1-1.44,1.44H4.33a1.45,1.45,0,0,1-1.44-1.44V7.22A1.45,1.45,0,0,1,4.33,5.78H7.95V7.22A1.44,1.44,0,0,0,9.39,8.67H23.83a1.44,1.44,0,0,0,1.45-1.44V5.78h3.61a1.45,1.45,0,0,1,1.44,1.44Z"/></g></g></svg>