<svg xmlns="http://www.w3.org/2000/svg" xmlns:xlink="http://www.w3.org/1999/xlink" viewBox="0 0 46.07 55.67"><defs><style>.cls-1{fill:none;}.cls-2{clip-path:url(#clip-path);}</style><clipPath id="clip-path"><rect class="cls-1" width="46.01" height="55.93"/></clipPath></defs><title>fair</title><g id="Layer_2" data-name="Layer 2"><g id="Layer_2-2" data-name="Layer 2"><g class="cls-2"><path d="M44.35,30.78a8.75,8.75,0,0,0,1.27-8,6.19,6.19,0,0,0-6.07-4.31H27.83a.12.12,0,0,1-.12-.07.12.12,0,0,1,0-.14,46.74,46.74,0,0,0,3.57-8.8,7.55,7.55,0,0,0-1-6.81A6.56,6.56,0,0,0,25.07,0a7.36,7.36,0,0,0-6.14,3.65c-1.17,1.82-2.19,3.7-3.17,5.51-1.53,2.82-3,5.48-4.53,7a66.82,66.82,0,0,1-7.16,5c-.79.51-1.5,1-2,1.29-.91.61-2.06,1.37-2.06,3v19.1a4,4,0,0,0,3.38,3.92l6.51,1c6.3,4.08,12.39,6.23,17.63,6.23a17.24,17.24,0,0,0,4.16-.49c3.1-.78,5.32-2.23,6.58-4.33a7.73,7.73,0,0,0,1.1-3.75A6.17,6.17,0,0,0,42,44.23a8.8,8.8,0,0,0,.45-5.67,8,8,0,0,0,1.89-7.78Zm-4.49,6.13a1.09,1.09,0,0,0-.5,1.42c.91,1.88.77,5.77-2.08,6.53a1.09,1.09,0,0,0-.81,1.2c.22,1.71-.12,5-5.47,6.33a14.21,14.21,0,0,1-3.46.41c-4.57,0-10.16-1.89-16.37-6a1.09,1.09,0,0,0-.43-.17L3.82,45.61a1.11,1.11,0,0,1-.95-1.08V25.43c0-.29,8-4.94,10.33-7.21,3-2.88,5.1-8.3,8.13-13a4.5,4.5,0,0,1,3.73-2.34c2.42,0,4.51,2.46,3.47,5.77A43.63,43.63,0,0,1,25.2,16.9a3,3,0,0,0,2.63,4.47H39.55c4.51,0,4.38,6.3,2,8.14a1.07,1.07,0,0,0-.28,1.33c.84,1.57.68,4.92-1.45,6.07Zm0,0"/></g></g></g></svg>