<svg xmlns="http://www.w3.org/2000/svg" viewBox="0 0 28.89 46.22"><defs><style>.cls-1{fill:#19181c;}</style></defs><title>frige</title><g id="Layer_2" data-name="Layer 2"><g id="Layer_1-2" data-name="Layer 1"><path class="cls-1" d="M24.55,0H4.33A4.35,4.35,0,0,0,0,4.33V39a4.34,4.34,0,0,0,4.33,4.33v1.45a1.45,1.45,0,0,0,2.89,0V43.33H21.67v1.45a1.44,1.44,0,0,0,2.89,0V43.33A4.34,4.34,0,0,0,28.89,39V4.33A4.35,4.35,0,0,0,24.55,0ZM4.33,2.89H24.55A1.45,1.45,0,0,1,26,4.33V14.45H23.11V10.83a1.44,1.44,0,0,0-2.89,0v3.61H2.89V4.33A1.45,1.45,0,0,1,4.33,2.89ZM24.55,40.44H4.33A1.45,1.45,0,0,1,2.89,39V17.33H20.22v3.61a1.44,1.44,0,1,0,2.89,0V17.33H26V39A1.45,1.45,0,0,1,24.55,40.44Z"/></g></g></svg>