<svg xmlns="http://www.w3.org/2000/svg" viewBox="0 0 53.55 53.54"><defs><style>.cls-1{fill:#fff;}</style></defs><title>google-plus</title><g id="Layer_2" data-name="Layer 2"><g id="Layer_1-2" data-name="Layer 1"><path id="Google_" data-name="Google+" class="cls-1" d="M28.19,43a4.9,4.9,0,0,0-.16-1.3c-.1-.42-.19-.8-.29-1.15a4,4,0,0,0-.57-1.12c-.26-.39-.48-.72-.67-1a7.86,7.86,0,0,0-.85-1l-.88-.82-1-.84c-.49-.36-.81-.6-1-.71l-1.09-.76c-.5-.35-.82-.59-1-.66a12,12,0,0,0-1.6-.08,26.19,26.19,0,0,0-3.42.23,19.51,19.51,0,0,0-3.46.81A13.13,13.13,0,0,0,9,36.15a7.5,7.5,0,0,0-2.19,2.41A6.73,6.73,0,0,0,6,42,6.64,6.64,0,0,0,7.1,45.92a8.12,8.12,0,0,0,3,2.71A16.11,16.11,0,0,0,14,50.09a17.64,17.64,0,0,0,4.09.49,16,16,0,0,0,3.59-.4,12.47,12.47,0,0,0,3.25-1.26,6.33,6.33,0,0,0,2.42-2.37A7,7,0,0,0,28.19,43M24.34,15.28a16.85,16.85,0,0,0-.55-4.1A21.29,21.29,0,0,0,22.27,7a9.14,9.14,0,0,0-2.71-3.36A6.12,6.12,0,0,0,15.72,2.3a5.47,5.47,0,0,0-4.64,2.22A8.66,8.66,0,0,0,9.45,9.83,15.89,15.89,0,0,0,9.81,13,17.08,17.08,0,0,0,11,16.37a15.34,15.34,0,0,0,1.8,3,8.72,8.72,0,0,0,2.52,2.19,6.52,6.52,0,0,0,3.15.83,5.14,5.14,0,0,0,4.5-1.95,8.59,8.59,0,0,0,1.42-5.16M20.09,0H34.17L29.83,2.54H25.47a9.41,9.41,0,0,1,3.55,4A12.58,12.58,0,0,1,30.26,12a11.57,11.57,0,0,1-.73,4.23,8.86,8.86,0,0,1-1.8,3,29.33,29.33,0,0,1-2.12,2.09,10.72,10.72,0,0,0-1.79,2,3.41,3.41,0,0,0-.75,2.17,2.93,2.93,0,0,0,.51,1.63A7.7,7.7,0,0,0,25,28.63c.58.49,1.19,1,1.9,1.55s1.35,1.13,2,1.78a14.25,14.25,0,0,1,1.86,2.12,8.69,8.69,0,0,1,1.39,2.73,11,11,0,0,1,.53,3.45c0,3.42-1.48,6.44-4.51,9.07-3.23,2.8-7.76,4.22-13.51,4.22a23.86,23.86,0,0,1-3.85-.33,19.34,19.34,0,0,1-3.91-1.08,15,15,0,0,1-3.51-1.86A8.61,8.61,0,0,1,1,47.41,7.87,7.87,0,0,1,0,43.5a10.35,10.35,0,0,1,4.28-7.9,15.82,15.82,0,0,1,4.65-2.29,37.22,37.22,0,0,1,5-1.16,38.84,38.84,0,0,1,4.82-.43,8.17,8.17,0,0,1-2.08-4.8,3.06,3.06,0,0,1,.08-.75,2,2,0,0,1,.17-.62c.07-.17.13-.42.25-.7a3.3,3.3,0,0,0,.22-.69,16.68,16.68,0,0,1-2.25.16,11.68,11.68,0,0,1-8.21-3.16,10.31,10.31,0,0,1-3.41-7.89A12.05,12.05,0,0,1,6.57,5.18,13.45,13.45,0,0,1,14.08.64a28.15,28.15,0,0,1,6-.64M53.55,8.23v4.11H45.29v8.25H41.16V12.34H33V8.23h8.2V0h4.13V8.23Z"/></g></g></svg>