<svg xmlns="http://www.w3.org/2000/svg" viewBox="0 0 46.22 46.22"><defs><style>.cls-1{fill:#19181c;}</style></defs><title>grave</title><g id="Layer_2" data-name="Layer 2"><g id="Layer_1-2" data-name="Layer 1"><path class="cls-1" d="M24.55,26H21.67a1.44,1.44,0,0,0,0,2.89h2.89a1.44,1.44,0,1,0,0-2.89Z"/><path class="cls-1" d="M24.55,11.56H21.67a1.44,1.44,0,0,0,0,2.89h2.89a1.44,1.44,0,1,0,0-2.89Z"/><path class="cls-1" d="M41.89,0H4.33A4.35,4.35,0,0,0,0,4.33V36.11a4.35,4.35,0,0,0,4.33,4.33H41.89a4.34,4.34,0,0,0,4.33-4.33V4.33A4.35,4.35,0,0,0,41.89,0Zm0,37.55H33.94V35.39a1.44,1.44,0,1,0-2.89,0v2.17H15.17V35.39a1.44,1.44,0,1,0-2.89,0v2.17H4.33a1.45,1.45,0,0,1-1.45-1.44V28.89H5.06a1.44,1.44,0,1,0,0-2.89H2.89V14.45H5.06a1.44,1.44,0,0,0,0-2.89H2.89V4.33A1.45,1.45,0,0,1,4.33,2.89h7.94V5.06a1.44,1.44,0,1,0,2.89,0V2.89H31.05V5.06a1.44,1.44,0,1,0,2.89,0V2.89h7.95a1.45,1.45,0,0,1,1.44,1.44v7.22H40.44a1.44,1.44,0,0,0,0,2.89h2.89V26H40.44a1.44,1.44,0,0,0,0,2.89h2.89v7.22A1.45,1.45,0,0,1,41.89,37.55Z"/><path class="cls-1" d="M13.72,7.95A5.05,5.05,0,1,0,18.78,13,5.06,5.06,0,0,0,13.72,7.95Zm0,7.22A2.17,2.17,0,1,1,15.89,13,2.17,2.17,0,0,1,13.72,15.17Z"/><path class="cls-1" d="M13.72,22.39a5.06,5.06,0,1,0,5.05,5.05A5.06,5.06,0,0,0,13.72,22.39Zm0,7.22a2.17,2.17,0,1,1,2.17-2.17A2.17,2.17,0,0,1,13.72,29.61Z"/><path class="cls-1" d="M32.5,7.95A5.05,5.05,0,1,0,37.55,13,5.06,5.06,0,0,0,32.5,7.95Zm0,7.22A2.17,2.17,0,1,1,34.67,13,2.17,2.17,0,0,1,32.5,15.17Z"/><path class="cls-1" d="M32.5,23.11a4.33,4.33,0,1,0,4.33,4.33A4.34,4.34,0,0,0,32.5,23.11Zm0,5.78a1.44,1.44,0,1,1,1.44-1.45A1.45,1.45,0,0,1,32.5,28.89Z"/><circle class="cls-1" cx="10.11" cy="44.05" r="2.17"/><circle class="cls-1" cx="18.78" cy="44.05" r="2.17"/><circle class="cls-1" cx="27.44" cy="44.05" r="2.17"/><circle class="cls-1" cx="36.11" cy="44.05" r="2.17"/></g></g></svg>