<svg xmlns="http://www.w3.org/2000/svg" viewBox="0 0 46.22 31.78"><defs><style>.cls-1{fill:#231f20;}</style></defs><title>mail</title><g id="Layer_2" data-name="Layer 2"><g id="Layer_1-2" data-name="Layer 1"><path class="cls-1" d="M41.89,0H4.33A4.34,4.34,0,0,0,0,4.33V27.44a4.34,4.34,0,0,0,4.33,4.33H41.89a4.34,4.34,0,0,0,4.33-4.33V4.33A4.34,4.34,0,0,0,41.89,0ZM23.36,16.75a.53.53,0,0,1-.49,0L5.23,2.89H41ZM2.89,4.73l12.39,9.73L2.89,26.85ZM17.56,16.26,21.08,19a3.36,3.36,0,0,0,4.06,0l3.52-2.77L41.29,28.89H4.93Zm13.38-1.8L43.33,4.73V26.85Z"/></g></g></svg>