<svg xmlns="http://www.w3.org/2000/svg" viewBox="0 0 28.89 46.22"><defs><style>.cls-1{fill:#231f20;}</style></defs><title>arker</title><g id="Layer_2" data-name="Layer 2"><g id="Layer_1-2" data-name="Layer 1"><path class="cls-1" d="M14.44,8.67a5.78,5.78,0,1,0,5.78,5.78A5.78,5.78,0,0,0,14.44,8.67Zm0,8.67a2.89,2.89,0,1,1,2.89-2.89A2.89,2.89,0,0,1,14.44,17.33Z"/><path class="cls-1" d="M14.44,0A14.46,14.46,0,0,0,0,14.44C0,25.59,12.7,44.77,13.24,45.58a1.44,1.44,0,0,0,2.4,0c.54-.81,13.24-20,13.24-31.13A14.46,14.46,0,0,0,14.44,0Zm0,42.1C11.27,37,2.89,22.81,2.89,14.44a11.56,11.56,0,0,1,23.11,0C26,22.81,17.62,37,14.44,42.1Z"/></g></g></svg>