<svg xmlns="http://www.w3.org/2000/svg" viewBox="0 0 46.22 46.22"><defs><style>.cls-1{fill:#231f20;}</style></defs><title>phone</title><g id="Layer_2" data-name="Layer 2"><g id="Layer_1-2" data-name="Layer 1"><path class="cls-1" d="M11.29,45.62l7.22-10.11a1.45,1.45,0,0,0-.15-1.86l-2.1-2.1a2.28,2.28,0,0,1,0-2.42L29.13,16.26a2.18,2.18,0,0,1,2.42,0l2.1,2.1a1.44,1.44,0,0,0,1.86.15l10.11-7.22a1.45,1.45,0,0,0,.61-1.17V5.79a1.44,1.44,0,0,0-.42-1L44.35,3.32A11,11,0,0,0,36.17,0a11.4,11.4,0,0,0-7.58,3.32L3.32,28.59A10.84,10.84,0,0,0,0,36.38a11.37,11.37,0,0,0,3.32,8L4.77,45.8a1.45,1.45,0,0,0,1,.42h4.33A1.44,1.44,0,0,0,11.29,45.62ZM6.38,43.33l-1-1a8.47,8.47,0,0,1-2.47-5.94,8,8,0,0,1,2.47-5.74L30.63,5.36a8.47,8.47,0,0,1,5.63-2.47,8,8,0,0,1,6,2.47l1,1v3l-8.51,6.08-1.3-1.3-.12-.1a5.06,5.06,0,0,0-6.14,0l-.12.1-13,13-.11.12a5.05,5.05,0,0,0,0,6.14l.11.12,1.3,1.3L9.37,43.33Z"/></g></g></svg>