<svg xmlns="http://www.w3.org/2000/svg" viewBox="0 0 43.25 46.22"><defs><style>.cls-1{fill:#19181c;}</style></defs><title>staff</title><g id="Layer_2" data-name="Layer 2"><g id="Layer_1-2" data-name="Layer 1"><path class="cls-1" d="M15.89,15.89A7.94,7.94,0,1,0,7.95,7.94,8,8,0,0,0,15.89,15.89Zm0-13a5.06,5.06,0,1,1-5.06,5.06A5.06,5.06,0,0,1,15.89,2.89Z"/><path class="cls-1" d="M27.36,13a5.19,5.19,0,0,1-1.05-.11,1.44,1.44,0,1,0-.6,2.82A7.94,7.94,0,1,0,25.7.18,1.44,1.44,0,1,0,26.3,3a5.19,5.19,0,0,1,1.05-.11,5.06,5.06,0,1,1,0,10.11Z"/><path class="cls-1" d="M31.78,33.22A15.89,15.89,0,1,0,0,33.22a1.44,1.44,0,0,0,1.45,1.44H7.22V44.78a1.44,1.44,0,0,0,1.45,1.44H23.11a1.44,1.44,0,0,0,1.45-1.44V34.67h5.78A1.44,1.44,0,0,0,31.78,33.22Zm-8.67-1.45a1.44,1.44,0,0,0-1.44,1.45V43.33H10.11V33.22a1.44,1.44,0,0,0-1.44-1.45H3a13,13,0,0,1,25.84,0Z"/><path class="cls-1" d="M29.69,17.52a1.44,1.44,0,0,0-.42,2.86,12.88,12.88,0,0,1,11,11.4h-5.7a1.45,1.45,0,0,0-1.45,1.45V43.33H28.8a1.44,1.44,0,1,0,0,2.89h5.78A1.44,1.44,0,0,0,36,44.78V34.67H41.8a1.45,1.45,0,0,0,1.45-1.44A15.76,15.76,0,0,0,29.69,17.52Z"/></g></g></svg>