<svg xmlns="http://www.w3.org/2000/svg" viewBox="0 0 46.26 42.61"><defs><style>.cls-1{fill:#231f20;}</style></defs><title>twenty-four</title><g id="Layer_2" data-name="Layer 2"><g id="Layer_2-2" data-name="Layer 2"><path class="cls-1" d="M45.84,19.92a1.44,1.44,0,0,0-2,0l-1.14,1.39h0a21.29,21.29,0,1,0-3.2,11.24A1.44,1.44,0,1,0,37,31a18.42,18.42,0,1,1,2.76-9.75l-1.11-1.34h0a1.44,1.44,0,1,0-2,2h0l3.59,3.84h0A1.44,1.44,0,0,0,42,26a1.54,1.54,0,0,0,.27-.21L45.84,22A1.44,1.44,0,0,0,45.84,19.92Z"/><path class="cls-1" d="M15.67,20.34q-.4.5-1.69,1.85l-3,3.05v2.2h9V24.68H15.26V24.6q2.06-1.85,2.69-2.51a8.39,8.39,0,0,0,1-1.26,4.48,4.48,0,0,0,.74-2.56,3.11,3.11,0,0,0-.52-1.76,3.37,3.37,0,0,0-1.46-1.21,5.21,5.21,0,0,0-2.15-.42,7,7,0,0,0-1.72.19,5.82,5.82,0,0,0-1.42.56,9.79,9.79,0,0,0-1.61,1.22L12.66,19A8.53,8.53,0,0,1,14,18a2.39,2.39,0,0,1,1.18-.33,1.28,1.28,0,0,1,.88.28,1,1,0,0,1,.31.76,1.85,1.85,0,0,1-.15.75A4.1,4.1,0,0,1,15.67,20.34Z"/><path class="cls-1" d="M29.89,27.44V25h1.36v-2.5H29.89V15.07H26.8l-5.14,7.52V25h4.93v2.4Zm-5.34-4.89,1.37-2a8.85,8.85,0,0,0,.65-1.22h.09s0,.26,0,.72,0,.83,0,1.1v1.44Z"/></g></g></svg>