<svg xmlns="http://www.w3.org/2000/svg" viewBox="0 0 53.55 43.52"><defs><style>.cls-1{fill:#fff;}</style></defs><title>twitter</title><g id="Layer_2" data-name="Layer 2"><g id="Layer_1-2" data-name="Layer 1"><path id="Twitter" class="cls-1" d="M53.55,5.15a22,22,0,0,1-6.31,1.73A11,11,0,0,0,52.07.8a21.94,21.94,0,0,1-7,2.67,11,11,0,0,0-18.72,10A31.18,31.18,0,0,1,3.73,2a11,11,0,0,0,3.4,14.67,10.94,10.94,0,0,1-5-1.37s0,.09,0,.14A11,11,0,0,0,11,26.21a11,11,0,0,1-5,.19A11,11,0,0,0,16.26,34a22,22,0,0,1-13.64,4.7A22.32,22.32,0,0,1,0,38.58a31.09,31.09,0,0,0,16.84,4.94C37,43.52,48.1,26.78,48.1,12.26q0-.71,0-1.42A22.34,22.34,0,0,0,53.55,5.15Z"/></g></g></svg>