<svg xmlns="http://www.w3.org/2000/svg" viewBox="0 0 39 46.22"><defs><style>.cls-1{fill:#19181c;}</style></defs><title>wardrobe</title><g id="Layer_2" data-name="Layer 2"><g id="Layer_1-2" data-name="Layer 1"><circle class="cls-1" cx="19.5" cy="37.55" r="1.44"/><path class="cls-1" d="M23.83,20.22a1.44,1.44,0,0,0,1.44-1.44V15.89a1.44,1.44,0,1,0-2.89,0v2.89A1.44,1.44,0,0,0,23.83,20.22Z"/><path class="cls-1" d="M15.17,20.22a1.44,1.44,0,0,0,1.44-1.44V15.89a1.44,1.44,0,1,0-2.89,0v2.89A1.44,1.44,0,0,0,15.17,20.22Z"/><path class="cls-1" d="M37.55,0H1.45A1.45,1.45,0,0,0,0,1.44V41.89a1.45,1.45,0,0,0,1.45,1.45H4.33v1.44a1.44,1.44,0,0,0,2.89,0V43.33H31.05v1.44a1.45,1.45,0,0,0,2.89,0V43.33h3.61A1.44,1.44,0,0,0,39,41.89V1.44A1.44,1.44,0,0,0,37.55,0ZM36.11,31.78H20.95V2.89H36.11ZM18.05,2.89V31.78H2.89V2.89ZM2.89,40.44V34.67H36.11v5.78Z"/></g></g></svg>