<svg version="1.1" xmlns="http://www.w3.org/2000/svg" xmlns:xlink="http://www.w3.org/1999/xlink" x="0px" y="0px"	 viewBox="0 0 234.69 177.14"><title>coupe_sides</title>
<g class="st-elem-detail"><path class="st--elem" d="M134.69,4.87l33,16.58s-.88,1.43-1.43,1.43-13.14-1.08-13.14-1.08l-19.41-7.89L122.81,6V5.35Z"/></g>
<g class="st-elem-detail"><polygon class="st--elem" points="66.06 4.68 28.33 18.21 38.79 19.41 66.06 9.17 73.98 5.46 66.06 4.68"/></g>
<g class="st-elem-detail"><path class="st--elem" d="M25.5,56.75l2.72,2.14L69.41,60,70,52.58s-3-19.66-16.26-19.77-14.58-1.28-19,3.55-6.42,7.07-7.19,10.42S25.5,56.75,25.5,56.75Z"/></g>
<g class="st-elem-detail"><path class="st--elem" d="M159.73,56.19l2.07,4.48H202l3.66-4.19s-4.64-24.28-17.9-24.39-14.52-1.36-19,3.48-6.4,7.18-7.16,10.53S159.73,56.19,159.73,56.19Z"/></g>
<g class="st-elem-detail"><path class="st--elem" d="M68,60.67l-1.45-1.76s2-23.62-18.67-23.62S28.58,58.53,28.58,58.53l-.36.4a107.31,107.31,0,0,0-12.6-2.82c-4.79-.58-10.73-.61-11.31-1.77s1.32-4.23,1.32-4.23-3-1.31-3.92-2.62S.55,38,.55,38l7.7-3.34s.44-5.74,1-7.34S11.9,25,11.38,23.52L9.7,18.67H38l35.16-13L66.06,4.8S86.54.51,98.46.5c14.38,0,31.42,2.58,32.83,3s3.78,1.41,3.78,1.41l-11,.2s10.62,5.18,14.31,7.19,14.31,8.43,14.31,8.43,25.24.87,38.5,2.76,22,4,26.87,6.14,6.7,3.27,8.86,4.9a29.67,29.67,0,0,1,5.9,5.28c2,2.32,1.25,2.47,1.36,4a6.77,6.77,0,0,1-1,3.34,5.52,5.52,0,0,0-2.47-.29c-.65.29-2.69,5.81-2.33,6.54s1.89.58,1.89.58a.85.85,0,0,1-.29,1.31,23.43,23.43,0,0,1-5.66,2.62c-2.54.69-21.94.94-21.94.94s-.22-23.15-19.9-23.15c-21.5,0-18.89,24.93-18.89,24.93Z"/></g>
<g class="st-elem-detail"><path class="st--elem" d="M125,5.46s-9.26-3.52-25.46-3.52S73.18,5.46,73.18,5.46"/></g>
<g class="st-elem-detail"><path class="st--elem" d="M8.25,34.7"/></g>
<g class="st-elem-detail"><line class="st--elem" x1="163.44" y1="57.19" x2="66.61" y2="56.13"/></g>
<g class="st-elem-detail"><path class="st--elem" d="M202,55.66s11.18.4,16.62.08A81.74,81.74,0,0,0,230.22,54"/></g>
<g class="st-elem-detail"><path class="st--elem" d="M216.71,29.12s-8,0-10.47,1.69,0,4,2.51,4.52,20.62,1.14,20.62,1.14"/></g>
<g class="st-elem-detail"><circle class="st--elem" cx="47.5" cy="53.76" r="16.57"/></g>
<g class="st-elem-detail"><circle class="st--elem" cx="47.5" cy="53.76" r="11.79"/></g>
<g class="st-elem-detail"><path class="st--elem" d="M55.18,44.82a12.13,12.13,0,0,0-6.05-2.74l.17,7.28s-.05,1,.52,1.29a2.38,2.38,0,0,0,1.47.1l6.69-2A9.14,9.14,0,0,0,55.18,44.82Z"/></g>
<g class="st-elem-detail"><path class="st--elem" d="M39.69,44.82a12.14,12.14,0,0,1,6.05-2.74l-.16,7.06s.05,1-.52,1.29a2.37,2.37,0,0,1-1.48.1l-6.7-1.78A9.13,9.13,0,0,1,39.69,44.82Z"/></g>
<g class="st-elem-detail"><path class="st--elem" d="M48.15,65.54a14.55,14.55,0,0,1-7.24-2l5-5.07s.55-.79,1.2-.7a2.37,2.37,0,0,1,1.23.82l4.42,5.56A9.15,9.15,0,0,1,48.15,65.54Z"/></g>
<g class="st-elem-detail"><path class="st--elem" d="M35.92,56.5c1.05,3.76,2.62,5,2.62,5L43.2,56s.59-.76.31-1.36a2.36,2.36,0,0,0-1.15-.93l-6.49-2.09A9.2,9.2,0,0,0,35.92,56.5Z"/></g>
<g class="st-elem-detail"><path class="st--elem" d="M58.94,56.5a12.13,12.13,0,0,1-3.4,5.71l-3.87-5.54s-.59-.76-.31-1.36a2.37,2.37,0,0,1,1.15-.93L59,51.67A9.16,9.16,0,0,1,58.94,56.5Z"/></g>
<g class="st-elem-detail"><circle class="st--elem" cx="47.24" cy="53.63" r="1.48"/></g>
<g class="st-elem-detail"><circle class="st--elem" cx="182.3" cy="54.38" r="16.57"/></g>
<g class="st-elem-detail"><circle class="st--elem" cx="182.3" cy="54.38" r="11.79"/></g>
<g class="st-elem-detail"><path class="st--elem" d="M190,45.44a12.15,12.15,0,0,0-6.05-2.74L184.1,50s-.05,1,.52,1.29a2.38,2.38,0,0,0,1.47.1l6.69-2A9.14,9.14,0,0,0,190,45.44Z"/></g>
<g class="st-elem-detail"><path class="st--elem" d="M174.49,45.44a12.16,12.16,0,0,1,6.05-2.74l-.16,7.06s.05,1-.52,1.29a2.37,2.37,0,0,1-1.47.1l-6.7-1.78A9.14,9.14,0,0,1,174.49,45.44Z"/></g>
<g class="st-elem-detail"><path class="st--elem" d="M183,66.17a14.56,14.56,0,0,1-7.24-2l5-5.07s.55-.79,1.2-.7a2.38,2.38,0,0,1,1.23.82l4.42,5.57A9.15,9.15,0,0,1,183,66.17Z"/></g>
<g class="st-elem-detail"><path class="st--elem" d="M170.72,57.13c1.06,3.76,2.62,5,2.62,5L178,56.67s.59-.76.31-1.36a2.37,2.37,0,0,0-1.15-.93l-6.49-2.09A9.19,9.19,0,0,0,170.72,57.13Z"/></g>
<g class="st-elem-detail"><path class="st--elem" d="M193.75,57.13a12.13,12.13,0,0,1-3.4,5.71l-3.87-5.54s-.59-.76-.32-1.36a2.39,2.39,0,0,1,1.15-.93l6.47-2.71A9.15,9.15,0,0,1,193.75,57.13Z"/></g>
<g class="st-elem-detail"><circle class="st--elem" cx="182.04" cy="54.26" r="1.48"/></g>
<g class="st-elem-detail"><path class="st--elem" d="M89.81,5.79V18.87l-1.38,1.56s-4.06,1.81-3.74,5.63,1,7.3,1.83,14.05,2.64,13,3.15,13.65a2,2,0,0,0,1.34,1,14.94,14.94,0,0,0,4.23.35c1.78.06,58.49,1,58.49,1S156,33,156.57,31s.22-2.83-.87-4.79a10,10,0,0,0-3.81-3.28s-16.08-10.5-22.33-13.06-12.24-5-24.77-5S89.81,5.79,89.81,5.79Z"/></g>
<g class="st-elem-detail"><path class="st--elem" d="M151.19,20.67s-6.87-4.15-14.27-8.23c-6.94-3.82-15-7.12-23.5-7.91A108.27,108.27,0,0,0,70,9.42c-9.59,3.05-4.25,6.9-2,7.66s14.93,3.32,30.62,3.54,30.18,0,35.84,0Z"/></g>
<g class="st-elem-detail"><path class="st--elem" d="M232.83,47.87s-1.69-.65-2-.25-2,5.15-2,5.15,0,.46.33.57a8,8,0,0,0,1.63,0Z"/></g>
<g class="st-elem-detail"><path class="st--elem" d="M9.7,18.21s13.18,6.54,13.07,8.28-6.86,7.3-9.7,7.63-4.83.58-4.83.58-1-6.1,1.11-8.24,2.64-3.12,1.33-5.19S9.7,18.21,9.7,18.21Z"/></g>
<g class="st-elem-detail"><path class="st--elem" d="M206.8,30.5s-70.08-4.94-87.06-5.31-97,1.31-97,1.31"/></g>
<g class="st-elem-detail"><path class="st--elem" d="M8.25,34.7.55,38s-.34,6.59.8,8.42,4.28,3.65,4.28,3.65-2.5,4.27-.64,4.7,11.67,1.49,14.53,1.94a82.34,82.34,0,0,1,8.9,2.14s.18-7.27,1.92-11.6A20.24,20.24,0,0,1,34.79,40a13.47,13.47,0,0,1,3.87-2.81Z"/></g>
<g class="st-elem-detail"><path class="st--elem" d="M88.81,5.79V18.43l-.93,1s-8.47-1.29-10.63-1.58c-1.63-.22-8.55-1.25-10.19-2.51s-1.47-2.41-.49-3.28,4.58-2.26,9.32-3.58C81.34,6.94,88.81,5.79,88.81,5.79Z"/></g>
<g class="st-elem-detail"><path class="st--elem" d="M89.07,19.41s12.66.46,24.86.69c9.59.18,34,.24,34,.24"/></g>
<g class="st-elem-detail"><rect class="st--elem" x="89.81" y="23.67" width="7" height="4" rx="1.53" ry="1.53"/></g>
<g class="st-elem-detail"><path class="st--elem" d="M136.77,14.07s-1.89-.41-1.95,1,0,3.91,0,3.91a1.55,1.55,0,0,0,.9,1.14c.82.38,3.08.48,3.08,1.08v2.89s0,1.25,1.9,1.25,2-.82,2.21-1.36a31.26,31.26,0,0,0-.1-4.52,6,6,0,0,0-2.77-3.87A25.71,25.71,0,0,0,136.77,14.07Z"/></g>
<g class="st-elem-detail"><path class="st--elem" d="M99.58,110.56,67.12,127.14s1,1.43,1.55,1.43,13.1-1.08,13.1-1.08l18.73-7.89,10.31-7.9V111Z"/></g>
<g class="st-elem-detail"><polygon class="st--elem" points="168.2 110.37 205.62 123.9 195.25 125.1 168.2 114.86 160.35 111.15 168.2 110.37"/></g>
<g class="st-elem-detail"><path class="st--elem" d="M208.43,162.44l-2.7,2.14-40.84,1.16-.54-7.46s3-19.67,16.13-19.77,14.46-1.28,18.88,3.56,6.37,7.07,7.13,10.42S208.43,162.44,208.43,162.44Z"/></g>
<g class="st-elem-detail"><path class="st--elem" d="M75.31,161.53l-2.05,4.14H33.34l-3.63-3.84s4.6-24.11,17.75-24.22,14.4-1.27,18.83,3.56,6.34,7.05,7.1,10.41S75.31,161.53,75.31,161.53Z"/></g>
<g class="st-elem-detail"><path class="st--elem" d="M166.25,165.67l1.44-1.42s-1.95-23.44,18.51-23.44,19.16,23.32,19.16,23.32l.36.44a107.25,107.25,0,0,1,12.5-2.79c4.75-.58,10.64-.6,11.22-1.76s-1.3-4.22-1.3-4.22,3-1.31,3.88-2.62,1.15-9.44,1.15-9.44l-7.64-3.34s-.43-5.74-1-7.34-2.62-2.67-2.1-4.18c.7-2,1.67-5.2,1.67-5.2H196L161.14,111l7.06-.72s-20.31-4.2-32.13-4.21c-14.26,0-31.16,2.62-32.56,3.07s-3.75,1.43-3.75,1.43l10.95.21S100.18,116,96.53,118s-14.19,8.43-14.19,8.43-25,.87-38.18,2.76-21.8,4-26.65,6.14-6.65,3.27-8.79,4.9a29.49,29.49,0,0,0-5.85,5.28c-2,2.32-1.24,2.47-1.35,4a6.82,6.82,0,0,0,1,3.34A5.45,5.45,0,0,1,5,152.59c.65.29,2.67,5.81,2.31,6.54s-1.87.58-1.87.58A.85.85,0,0,0,5.69,161a23.14,23.14,0,0,0,5.62,2.62c2.52.69,21.75.94,21.75.94s.21-23.49,19.73-23.49c21.32,0,18.73,24.59,18.73,24.59Z"/></g>
<g class="st-elem-detail"><path class="st--elem" d="M109.74,111.15s9.18-3.52,25.25-3.52,26.15,3.52,26.15,3.52"/></g>
<g class="st-elem-detail"><path class="st--elem" d="M225.54,140.39"/></g>
<g class="st-elem-detail"><line class="st--elem" x1="71.63" y1="162.88" x2="167.66" y2="161.81"/></g>
<g class="st-elem-detail"><path class="st--elem" d="M33.34,161.34s-11.09.4-16.48.08A80.71,80.71,0,0,1,5.4,159.71"/></g>
<g class="st-elem-detail"><path class="st--elem" d="M18.79,134.8s7.89,0,10.38,1.69,0,4-2.49,4.52-20.45,1.14-20.45,1.14"/></g>
<g class="st-elem-detail"><ellipse class="st--elem" cx="186.62" cy="159.45" rx="16.44" ry="16.58"/></g>
<g class="st-elem-detail"><ellipse class="st--elem" cx="186.62" cy="159.45" rx="11.69" ry="11.79"/></g>
<g class="st-elem-detail"><path class="st--elem" d="M179,150.51a12,12,0,0,1,6-2.74l-.17,7.28s.05,1-.51,1.29a2.34,2.34,0,0,1-1.46.1l-6.64-2A9.15,9.15,0,0,1,179,150.51Z"/></g>
<g class="st-elem-detail"><path class="st--elem" d="M194.36,150.51a12,12,0,0,0-6-2.74l.16,7.06s-.05,1,.51,1.29a2.33,2.33,0,0,0,1.46.1l6.64-1.78A9.14,9.14,0,0,0,194.36,150.51Z"/></g>
<g class="st-elem-detail"><path class="st--elem" d="M186,171.23a14.35,14.35,0,0,0,7.18-2l-5-5.07s-.55-.79-1.19-.7a2.36,2.36,0,0,0-1.22.82l-4.39,5.56A9,9,0,0,0,186,171.23Z"/></g>
<g class="st-elem-detail"><path class="st--elem" d="M198.11,162.19c-1,3.76-2.6,5-2.6,5l-4.62-5.42s-.59-.76-.31-1.36a2.34,2.34,0,0,1,1.14-.93l6.43-2.09A9.25,9.25,0,0,1,198.11,162.19Z"/></g>
<g class="st-elem-detail"><path class="st--elem" d="M175.27,162.19a12.13,12.13,0,0,0,3.37,5.71l3.84-5.54s.59-.76.31-1.36a2.38,2.38,0,0,0-1.14-.93l-6.42-2.71A9.22,9.22,0,0,0,175.27,162.19Z"/></g>
<g class="st-elem-detail"><ellipse class="st--elem" cx="186.87" cy="159.32" rx="1.47" ry="1.48"/></g>
<g class="st-elem-detail"><ellipse class="st--elem" cx="52.93" cy="160.07" rx="16.44" ry="16.57"/></g>
<g class="st-elem-detail"><ellipse class="st--elem" cx="52.93" cy="160.07" rx="11.69" ry="11.79"/></g>
<g class="st-elem-detail"><path class="st--elem" d="M45.31,151.13a12,12,0,0,1,6-2.74l-.17,7.28s.05,1-.51,1.29a2.34,2.34,0,0,1-1.46.1l-6.64-2A9.15,9.15,0,0,1,45.31,151.13Z"/></g>
<g class="st-elem-detail"><path class="st--elem" d="M60.68,151.13a12,12,0,0,0-6-2.74l.16,7.06s-.05,1,.51,1.29a2.33,2.33,0,0,0,1.46.1l6.64-1.78A9.13,9.13,0,0,0,60.68,151.13Z"/></g>
<g class="st-elem-detail"><path class="st--elem" d="M52.29,171.85a14.35,14.35,0,0,0,7.18-2l-5-5.07s-.55-.79-1.19-.7a2.36,2.36,0,0,0-1.22.82l-4.39,5.57A9,9,0,0,0,52.29,171.85Z"/></g>
<g class="st-elem-detail"><path class="st--elem" d="M64.42,162.82c-1,3.76-2.6,5-2.6,5l-4.62-5.42s-.59-.76-.31-1.36a2.35,2.35,0,0,1,1.14-.93L64.46,158A9.24,9.24,0,0,1,64.42,162.82Z"/></g>
<g class="st-elem-detail"><path class="st--elem" d="M41.58,162.82a12.13,12.13,0,0,0,3.37,5.7L48.79,163s.59-.76.31-1.35A2.38,2.38,0,0,0,48,160.7L41.54,158A9.21,9.21,0,0,0,41.58,162.82Z"/></g>
<g class="st-elem-detail"><ellipse class="st--elem" cx="53.19" cy="159.94" rx="1.47" ry="1.48"/></g>
<g class="st-elem-detail"><path class="st--elem" d="M144.81,111.48v13.07l1.29,1.56s4,1.82,3.67,5.63-1,7.3-1.84,14.06-2.63,13-3.14,13.65a2,2,0,0,1-1.33,1,14.67,14.67,0,0,1-4.2.35c-1.77.06-58,1-58,1s-2.27-23.1-2.81-25.17-.21-2.83.87-4.79a9.92,9.92,0,0,1,3.78-3.28s15.94-10.5,22.15-13.06,12.22-5,24.65-5S144.81,111.48,144.81,111.48Z"/></g>
<g class="st-elem-detail"><path class="st--elem" d="M83.78,126.67s6.81-4.3,14.15-8.38c6.88-3.82,14.88-7.2,23.3-8a106.63,106.63,0,0,1,43.11,4.85c9.51,3,4.21,6.88,1.94,7.64s-14.8,3.46-30.36,3.68-29.93.2-35.55.2Z"/></g>
<g class="st-elem-detail"><path class="st--elem" d="M2.81,153.56s1.67-.66,1.95-.25,1.94,5.15,1.94,5.15,0,.46-.32.57a7.88,7.88,0,0,1-1.62,0Z"/></g>
<g class="st-elem-detail"><path class="st--elem" d="M224.1,123.9s-13.07,6.54-13,8.28,6.81,7.3,9.62,7.63,4.79.58,4.79.58,1-6.1-1.1-8.24-2.61-3.12-1.32-5.19S224.1,123.9,224.1,123.9Z"/></g>
<g class="st-elem-detail"><path class="st--elem" d="M28.62,136.19s69.5-4.94,86.34-5.31,96.16,1.31,96.16,1.31"/></g>
<g class="st-elem-detail"><path class="st--elem" d="M225.54,140.39l7.64,3.34s.33,6.59-.79,8.42-4.24,3.65-4.24,3.65,2.48,4.27.64,4.7-11.58,1.49-14.41,1.94a80.81,80.81,0,0,0-8.83,2.14s-.18-7.27-1.91-11.6a20.24,20.24,0,0,0-4.43-7.29,13.36,13.36,0,0,0-3.84-2.81Z"/></g>
<g class="st-elem-detail"><path class="st--elem" d="M145.81,111.48v12.64l.84,1s8.36-1.29,10.5-1.58c1.62-.22,8.46-1.25,10.08-2.51s1.45-2.41.48-3.28-4.46-2.26-9.16-3.59C153.14,112.62,145.81,111.48,145.81,111.48Z"/></g>
<g class="st-elem-detail"><path class="st--elem" d="M145.38,125.1s-12.55.46-24.65.69C111.22,126,87,126,87,126"/></g>
<g class="st-elem-detail"><path class="st--elem" d="M137,131.17a1.5,1.5,0,0,0,1.51,1.5h4.32a1.5,1.5,0,0,0,1.51-1.5h0a1.5,1.5,0,0,0-1.51-1.5h-4.32a1.5,1.5,0,0,0-1.51,1.5Z"/></g>
<g class="st-elem-detail"><rect class="st--elem" x="182.81" y="127.67" width="11" height="7" rx="1.31" ry="1.31"/></g>
<g class="st-elem-detail"><path class="st--elem" d="M100.21,118.45s1.81-.41,1.86,1,0,3.91,0,3.91.7.76-.08,1.14-2.17.48-2.17,1.08v2.89a3.09,3.09,0,0,1-2.6,1.25c-1.83,0-2.35-.82-2.5-1.36a32.61,32.61,0,0,1-.1-4.52A5.76,5.76,0,0,1,97.16,120,27.81,27.81,0,0,1,100.21,118.45Z"/></g></svg>