<svg version="1.1" xmlns="http://www.w3.org/2000/svg" xmlns:xlink="http://www.w3.org/1999/xlink" x="0px" y="0px"	 viewBox="0 0 105.38 177.38"><title>coupe_front_back</title>
<g class="st-elem-detail"><rect class="st--elem" x="85.53" y="48.04" width="11.57" height="23.72" rx="1.48" ry="1.48"/></g>
<g class="st-elem-detail"><rect class="st--elem" x="8.34" y="48.04" width="11.57" height="23.72" rx="1.48" ry="1.48"/></g>
<g class="st-elem-detail"><path class="st--elem" d="M52.72,37.09c4.2,0,16.8.45,16.8.45l-2.82,4.3A13.54,13.54,0,0,1,65.93,43a5.73,5.73,0,0,1-1.19,1,24.07,24.07,0,0,1-5.24,1.31c-1.72.31-6.94.77-6.94.77s-6-.77-8-1.16a29.65,29.65,0,0,1-4.05-1,8.55,8.55,0,0,1-1.64-1,8.45,8.45,0,0,1-1.27-1.4,44.8,44.8,0,0,1-2.14-4.43S48.42,37,52.72,37.09Z"/></g>
<g class="st-elem-detail"><path class="st--elem" d="M96.93,32.5a27.31,27.31,0,0,0,0-3.94,11.55,11.55,0,0,0-1.09-2C95,25,92.06,21.13,92.06,21.13S87.94,12.71,86.38,10c-.77-1.34-2.3-4-3.19-5.28A14.08,14.08,0,0,0,81.3,2.65a6.36,6.36,0,0,0-1.71-.9.7.7,0,0,0-.35,0L81,5.44s3.47,5.11,4.59,7.22c1,1.9,4,8.79,4,8.79h.35s3.25,4.63,4,6.19A29.34,29.34,0,0,0,95,30.36,23.83,23.83,0,0,0,96.93,32.5Z"/></g>
<g class="st-elem-detail"><path class="st--elem" d="M96.93,32.38l-1.16-3.6-1.13-2.07-3.7-5.16s-3-6.67-4.08-8.67a75.77,75.77,0,0,0-4.18-7l-2.94-4"/></g>
<g class="st-elem-detail"><path class="st--elem" d="M8.34,32.5a27.38,27.38,0,0,1,0-3.94,11.55,11.55,0,0,1,1.09-2c.85-1.55,3.78-5.46,3.78-5.46S17.34,12.71,18.9,10c.77-1.34,2.3-4,3.19-5.28A14.15,14.15,0,0,1,24,2.65a6.42,6.42,0,0,1,1.71-.9.69.69,0,0,1,.35,0l-1.74,3.7s-3.47,5.11-4.6,7.22c-1,1.9-4,8.79-4,8.79h-.35a73.29,73.29,0,0,0-4,6.19,29.63,29.63,0,0,1-1.19,2.72A23.7,23.7,0,0,1,8.34,32.5Z"/></g>
<g class="st-elem-detail"><path class="st--elem" d="M8.34,32.38l1.16-3.6,1.13-2.07,3.7-5.16s3-6.67,4.08-8.67a75.38,75.38,0,0,1,4.17-7l2.94-4"/></g>
<g class="st-elem-detail"><polygon class="st--elem" points="26.03 1.75 24.29 5.44 29.6 4.98 52.62 4.49 72.89 4.87 81.01 5.31 79.38 1.75 54.45 0.5 26.03 1.75"/></g>
<g class="st-elem-detail"><path class="st--elem" d="M34.21,43,31,36.67,17.23,33.26A15.92,15.92,0,0,0,14.67,33a3.92,3.92,0,0,0-1.23.43,3.23,3.23,0,0,0-.72.76,5.45,5.45,0,0,0-.29.82l-.09,5.06a8.66,8.66,0,0,0,.8.84,10,10,0,0,0,1.22.61Z"/></g>
<g class="st-elem-detail"><path class="st--elem" d="M71.33,43l3.07-6.35L88.3,33.26A15.89,15.89,0,0,1,90.86,33a3.92,3.92,0,0,1,1.23.43,3.21,3.21,0,0,1,.72.76,5.28,5.28,0,0,1,.29.82l.09,5.06a8.73,8.73,0,0,1-.8.84,10.09,10.09,0,0,1-1.22.61Z"/></g>
<g class="st-elem-detail"><path class="st--elem" d="M8.25,40.19l.21,8.49s1,5.24,1.48,7c.28,1.08,1,4.28,2.35,5.66a6.3,6.3,0,0,0,3.48,1.57H90.14a4.05,4.05,0,0,0,3.3-1.65,15.05,15.05,0,0,0,1.74-5.13c.48-2,1.91-8,1.91-8V40.5H92.84l-1.22.69-1.22.44-19,1.22,3-6.18-4.87.87s-2,3.48-2.79,4.52a9.05,9.05,0,0,1-2,2C62,45.49,52.56,46.15,52.56,46.15s-9.18-1-12-2.17a8.37,8.37,0,0,1-2.35-1.57c-1-1.09-2.7-5.22-2.7-5.22l-4.35-.52,3,6.35L14.37,41.54l-1.22-.61-.86-.79Z"/></g>
<g class="st-elem-detail"><path class="st--elem" d="M30.87,51.52H74.69A7.05,7.05,0,0,1,73,55.58c-1.51,1.45-5.28,2.09-5.28,2.09H37.83s-3.68-.52-5.19-2A7.69,7.69,0,0,1,30.87,51.52Z"/></g>
<g class="st-elem-detail"><path class="st--elem" d="M75,36.67a13.39,13.39,0,0,1,2.81-4.26,40.08,40.08,0,0,1,6.71-5.9,32.35,32.35,0,0,1,4.6-3l.61-2.09h.56s2.66,3.77,3.26,5a42.85,42.85,0,0,0,1.91,4.26A18.77,18.77,0,0,0,97.1,32.5v8h-4L93,35.11a2.29,2.29,0,0,0-1.3-1.83,5.28,5.28,0,0,0-3-.09C85.08,33.58,75,36.67,75,36.67Z"/></g>
<g class="st-elem-detail"><path class="st--elem" d="M31,36.67a41.51,41.51,0,0,0-3.39-4.26A40.16,40.16,0,0,0,21,26.51a32.37,32.37,0,0,0-4.6-3l-.61-2.09h-.35a53.81,53.81,0,0,0-3.48,5A42.19,42.19,0,0,1,10,30.76,18.65,18.65,0,0,1,8.34,32.5v8h4l.09-5.39a2.29,2.29,0,0,1,1.31-1.83,5.27,5.27,0,0,1,3-.09C20.37,33.58,31,36.67,31,36.67Z"/></g>
<g class="st-elem-detail"><path class="st--elem" d="M16.55,23.53s16.67-.6,36.74-.6,35.53.6,35.53.6l-.09.23-3,1.84L82.54,28l-3.16,2.73-2.61,2.86L74.4,36.67l-4.87.87s-12.6-.41-16.8-.45-17.21.1-17.21.1L31,36.67s-3.61-4.58-5-5.94A59.34,59.34,0,0,0,21,26.51c-1-.74-4-2.58-4.52-2.92C16.38,23.56,16.55,23.53,16.55,23.53Z"/></g>
<g class="st-elem-detail"><path class="st--elem" d="M24.29,5.44s5.83-1,26.53-1S81,5.31,81,5.31s1.11.93,4.57,7.35c3.56,6.61,4.13,8.79,4.13,8.79l-.61,2.09s-20-.61-38.19-.61-34.56.61-34.56.61l-.61-2.09a76.29,76.29,0,0,1,4-8.79A41.27,41.27,0,0,1,24.29,5.44Z"/></g>
<g class="st-elem-detail"><path class="st--elem" d="M29.6,1.27a6,6,0,0,0,.78.78,8.29,8.29,0,0,0,3,.7c4.72.45,7.46,0,19,0s15.37.47,20.45,0a6.5,6.5,0,0,0,2.17-.52,8.56,8.56,0,0,0,1-1S64,.5,52.21.5,29.6,1.27,29.6,1.27Z"/></g>
<g class="st-elem-detail"><path class="st--elem" d="M95.49,18.93h7.39s2,1.3,2,3a4.11,4.11,0,0,1-1.48,2.87l-5.65,1.61-4.07.41-3.41-5.37,2.18.43,2.09,1-.09-2.68a3.8,3.8,0,0,1,.39-.91A2.89,2.89,0,0,1,95.49,18.93Z"/></g>
<g class="st-elem-detail"><polyline class="st--elem" points="94.53 22.87 95.14 24.71 95.53 25.23 97.71 25.23 98.2 26.28"/></g>
<g class="st-elem-detail"><path class="st--elem" d="M9.9,18.93H2.5s-2,1.3-2,3A4.11,4.11,0,0,0,2,24.8l5.66,1.61,4.07.41,3.68-5.37-2.45.43-2.09,1,.09-2.68a3.81,3.81,0,0,0-.39-.91A2.89,2.89,0,0,0,9.9,18.93Z"/></g>
<g class="st-elem-detail"><polyline class="st--elem" points="7.19 26.28 7.68 25.23 9.96 25.33 10.38 25.17 10.85 22.87"/></g>
<g class="st-elem-detail"><polygon class="st--elem" points="66.63 165.78 85.94 169.43 85.94 156.09 20.35 156.09 20.32 169.43 39.43 165.78 66.63 165.78"/></g>
<g class="st-elem-detail"><rect class="st--elem" x="85.94" y="153.15" width="11.57" height="23.72" rx="1.48" ry="1.48"/></g>
<g class="st-elem-detail"><rect class="st--elem" x="8.75" y="153.15" width="11.57" height="23.72" rx="1.48" ry="1.48"/></g>
<g class="st-elem-detail"><path class="st--elem" d="M27.83,110.11c1.48-.53,4.7-.46,6.26-.61a180.72,180.72,0,0,1,18.27-.87c8.34,0,15,.27,19.92.74,1.49.14,4.53.18,5.92.74a4.82,4.82,0,0,1,1.39,1C81.5,113.48,84.81,122,84.81,122v.78H21.06s-.09,0-.07-.09c.31-.93,3.08-9.12,5-11.38A5.78,5.78,0,0,1,27.83,110.11Z"/></g>
<g class="st-elem-detail"><path class="st--elem" d="M83.76,125.42l1-2.26-31.93-.35H21.06l0,.12,1.08,2.48.09,3.74L33.4,142.29a10.79,10.79,0,0,0,1.39.52H71a17.19,17.19,0,0,0,2-.78l10.67-12.44Z"/></g>
<g class="st-elem-detail"><path class="st--elem" d="M22.09,125.42s4.18-.87,30.79-.87,30.88.87,30.88.87"/></g>
<g class="st-elem-detail"><path class="st--elem" d="M63.32,139.6a4.43,4.43,0,0,1-2.52,1.48h-16a4.38,4.38,0,0,1-2.52-1.48c-1.58-2-4.87-8.78-4.87-8.78a1.48,1.48,0,0,1,1.48-1.48H67.06a1.48,1.48,0,0,1,1.48,1.48S65,137.64,63.32,139.6Z"/></g>
<g class="st-elem-detail"><path class="st--elem" d="M8.23,144.5l4.29-.73,2.18-3.83,1.13.43,16.2.32,1.37,1.6,1.83.52H71l2-.78,1.33-1.34L87,140.44l3.51-.1.31-.4,2.07,3.8,4.29.8v7.31s-1,8.54-2.35,11a4.61,4.61,0,0,1-1.39,1.48,4.88,4.88,0,0,1-2.79.44c-.83-.28-1.74-2-2.44-2.52a9,9,0,0,0-1.91-1,14,14,0,0,0-1.91-.26l-9.68.35H31l-9.57-.17a6.51,6.51,0,0,0-1,0,7.74,7.74,0,0,0-2.76,1.09c-.58.4-2.15,2.29-2.8,2.56a4.24,4.24,0,0,1-2.52,0,4,4,0,0,1-1.22-1.48c-.62-1.24-2.7-11-2.7-11Z"/></g>
<g class="st-elem-detail"><path class="st--elem" d="M27.83,110.11l-1.39-3.72a178.38,178.38,0,0,1,23.75-1.29c15.13,0,28.44,1.46,28.44,1.46L77.77,110s-10.8-.73-27.24-.73S27.83,110.11,27.83,110.11Z"/></g>
<g class="st-elem-detail"><path class="st--elem" d="M14.69,139.95a4,4,0,0,1-.78-1.31,9.17,9.17,0,0,1-.22-1.3v-4.52a8,8,0,0,1,.5-1.35,5.61,5.61,0,0,1,1.28-1.17,13.79,13.79,0,0,1,1.78-.7h5.29L32,140.69l-16.2-.32A4.85,4.85,0,0,1,14.69,139.95Z"/></g>
<g class="st-elem-detail"><path class="st--elem" d="M90.8,139.95a4,4,0,0,0,.78-1.31,9.27,9.27,0,0,0,.22-1.3v-4.52a7.82,7.82,0,0,0-.5-1.35A5.55,5.55,0,0,0,90,130.29a13.7,13.7,0,0,0-1.78-.7H83.15l-9,11.1,15.51-.32A4.82,4.82,0,0,0,90.8,139.95Z"/></g>
<g class="st-elem-detail"><path class="st--elem" d="M26.44,106.39a8.06,8.06,0,0,0-2,.41,6.74,6.74,0,0,0-1.1,1.34v1.68s-3.83,6.17-5,8.29C17.27,120,14.43,126,14.43,126a20.85,20.85,0,0,1,4.29.52,21.94,21.94,0,0,1,3.6,2.81l-.23-3.78L21,123l.06-.16c.32-.92,1.92-5.51,2.61-7.1A30.89,30.89,0,0,1,25.5,112a6.63,6.63,0,0,1,.94-1.07,13.15,13.15,0,0,1,1.39-.81Z"/></g>
<g class="st-elem-detail"><path class="st--elem" d="M13.35,126.24a83.24,83.24,0,0,1,4.31-9.06c2.84-4.84,5.66-9.05,5.66-9.05v1.68s-3.09,5.05-4.85,8-4,8.14-4,8.14Z"/></g>
<g class="st-elem-detail"><path class="st--elem" d="M8.23,144.5v-8.88a21.2,21.2,0,0,1,.58-3.07c.14-.35.74-1.82.93-2.15.55-1,1.85-3.19,1.85-3.19s1-.51,1.39-.64a9,9,0,0,1,1.45-.33,18.74,18.74,0,0,1,3.06,0,5,5,0,0,1,1.23.28,26.8,26.8,0,0,1,3.6,2.81l.23.26H17.26l-1.78.7-1.28,1.17-.5,1.35.1,5.33.43,1.18.46.63-2.18,3.83Z"/></g>
<g class="st-elem-detail"><path class="st--elem" d="M8.91,123.68H2.56c-.68,0-2,1.3-2,3A4.12,4.12,0,0,0,2,129.55l5.65,1.61,1.52.41L12,127.12h0l-1.07.51S11,126.56,11,126a1.92,1.92,0,0,0-.39-1.26A2.17,2.17,0,0,0,8.91,123.68Z"/></g>
<g class="st-elem-detail"><path class="st--elem" d="M79,106.37a8,8,0,0,1,2,.42,6.68,6.68,0,0,1,1.1,1.33v1.68s3.83,6.17,5,8.29C88.12,120,91,126,91,126a20.75,20.75,0,0,0-4.29.52,22.07,22.07,0,0,0-3.6,2.81l.23-3.78L84.43,123l-.06-.16c-.32-.92-1.92-5.51-2.61-7.1A29.9,29.9,0,0,0,79.89,112a6.66,6.66,0,0,0-.94-1.07,12.68,12.68,0,0,0-1.39-.81Z"/></g>
<g class="st-elem-detail"><path class="st--elem" d="M92,126.22a83.17,83.17,0,0,0-4.31-9.05c-2.85-4.84-5.65-9.05-5.65-9.05v1.68s3.09,5.05,4.85,8S91,126,91,126Z"/></g>
<g class="st-elem-detail"><path class="st--elem" d="M97.16,144.48V135.6a21.43,21.43,0,0,0-.58-3.07c-.14-.35-.74-1.82-.93-2.15-.55-1-1.85-3.19-1.85-3.19s-1-.52-1.39-.64a9.42,9.42,0,0,0-1.45-.33,18.41,18.41,0,0,0-3.06,0,5.1,5.1,0,0,0-1.23.28,26.82,26.82,0,0,0-3.6,2.81l-.08.26h5.14a13.32,13.32,0,0,1,1.78.7,5.56,5.56,0,0,1,1.28,1.17,4.59,4.59,0,0,1,.5,1.35,20.3,20.3,0,0,1-.1,5.33,5.49,5.49,0,0,1-.43,1.18,6.86,6.86,0,0,1-.46.62l2.18,3.83Z"/></g>
<g class="st-elem-detail"><path class="st--elem" d="M96.48,123.66h6.35c.68,0,2,1.3,2,3a4.12,4.12,0,0,1-1.48,2.87l-5.65,1.61-1.52.41-2.77-4.45h0l1.07.5s-.09-1.06-.09-1.64a1.93,1.93,0,0,1,.39-1.26A2.17,2.17,0,0,1,96.48,123.66Z"/></g>
<g class="st-elem-detail"><path class="st--elem" d="M12,132.76c.65-1.67,1.91-2.86,1.36-3s-1.22.33-2.2,2.55c-.64,1.45-.87,3.34-.32,3.51S11.33,134.37,12,132.76Z"/></g></svg>