<svg version="1.1" xmlns="http://www.w3.org/2000/svg" xmlns:xlink="http://www.w3.org/1999/xlink" x="0px" y="0px" viewBox="0 0 219.8 173.1" style="enable-background:new 0 0 219.8 173.1;" xml:space="preserve"><title>kvadro_front</title>
<g class="st-elem-detail"><path class="st--elem" d="M37.2,89.7c-1.4-0.6-6.3-1.7-7.3-1.8C20.6,86.4,9.4,95,3.8,108.6c-6.2,15-3.3,30.5,6.5,34.6	c1.4,0.6,6.1,1.6,7,1.8c9.4,1.7,20.7-6.9,26.4-20.6C50,109.3,47,93.8,37.2,89.7z"/></g>
<g class="st-elem-detail"><ellipse transform="matrix(0.383 -0.9237 0.9237 0.383 -90.4101 100.3757)" class="st--elem" cx="29.9" cy="117.9" rx="22.4" ry="14.6"/></g>
<g class="st-elem-detail"><path class="st--elem" d="M205.2,73.3c-1.5-0.6-11.7-3.7-12.8-3.8c-10.3-1.6-22.6,7.8-28.8,22.8c-6.9,16.6-3.7,33.7,7.2,38.2	c1.5,0.6,11.5,3.6,12.5,3.8c10.4,1.8,22.8-7.7,29.1-22.8C219.2,94.9,216,77.8,205.2,73.3z"/></g>	
<g class="st-elem-detail"><ellipse transform="matrix(0.383 -0.9237 0.9237 0.383 25.2834 246.5001)" class="st--elem" cx="197.2" cy="104.3" rx="24.6" ry="16.1"/></g>	
<g class="st-elem-detail"><ellipse transform="matrix(0.383 -0.9237 0.9237 0.383 25.2834 246.5001)" class="st--elem" cx="197.2" cy="104.3" rx="16.3" ry="10.7"/></g>
<g class="st-elem-detail"><path class="st--elem" d="M168.5,117.6c0,0,1.6-14.2,16.3-35.9c4.5-6.6,9.4-12,14.1-16.3c2.2-2,7.2-2.1,9.2-3.6	c7.9-6.2,11.2-9.6,11.2-9.6v-2.9c0-1.6-0.9-3.1-2.3-3.9l-0.3-0.2c-6.1-3.4-12.5-6-19.2-7.7l-1-0.3c-1.7-0.4-3.4-0.3-5,0.5	c-5.9,3-21.3,12-35.7,29.9c-18.3,22.7-24,41.4-24,41.4l5.7,2.7c1.7,0.8,3.4,1.4,5.1,1.9c5.4,1.5,10,3.1,15.8,3.6l3.1,0.3	c0.3,0,0.6,0.3,0.6,0.7v1.9L168.5,117.6z"/></g>
<g class="st-elem-detail"><path class="st--elem" d="M122.4,129.8l-0.1-2.9l12.2-4.9c3.6-1.3,7.3-2,11.1-2.4l15.8-2c0.4,0,0.7,0.3,0.7,0.6v1.8L146,122	c-3.8,0.4-7.6,1.4-11.1,2.8L122.4,129.8z"/></g>
<g class="st-elem-detail"><path class="st--elem" d="M158.4,117.3c-5.9-0.6-10.4-2.1-15.8-3.6c-1.8-0.5-3.5-1.2-5.1-1.9l-5.7-2.7l-9.8,5.1l0.4,12.8l12.2-4.9	c3.6-1.3,8.8-2.2,12.6-2.6l14.3-1.8C161.4,117.4,158.4,117.3,158.4,117.3z"/></g>
<g class="st-elem-detail"><path class="st--elem" d="M183.8,27.1l-13.6-7.2c-1.1-0.6-2.4-0.9-3.6-0.8l-27.2,3c1.3,0.3,2.5,0.7,3.7,1.2l15.7,7	c2.3,1,4.3,2.4,6.1,4.1l1.1,1.1c1.8,1.8,2.9,4.3,2.9,6.8v1.6l1,0.7L184.2,30C185.1,29.1,184.9,27.7,183.8,27.1z"/></g>
<g class="st-elem-detail"><polygon class="st--elem" points="161.1,14.6 160.4,17.8 163,18.9 164.1,13.9"/></g>
<g class="st-elem-detail"><path class="st--elem" d="M164.8,34.5l1.1,1.1c1.8,1.8,2.9,4.3,2.9,6.8v1.6l-14.5,13.1c-0.7,0.6-1.5,1-2.4,1.1l-1.3,0.1	c-5.8,0.6-11.5,2.3-16.7,5l-3.7,1.9c-1.4,0.7-3.1,0.7-4.4-0.1l-16-9.9c-1.6-1-2.6-2.6-2.7-4.4l-0.4-4.6c-0.2-1.9,0.5-3.8,1.8-5.3	l12.1-13.4c1.2-1.4,2.7-2.5,4.3-3.4l0.6-0.3c3.4-1.8,7.3-2.6,11.1-2.2l0.3,0c2.1,0.2,4.2,0.8,6.1,1.7l15.7,7	C161,31.4,163,32.8,164.8,34.5z"/></g>
<g class="st-elem-detail"><path class="st--elem" d="M161.5,36c0,0-10.4,18.2-35.1,18.2c-10.8-0.6-19.6-9.7-19.6-9.7"/></g>
<g class="st-elem-detail"><path class="st--elem" d="M117.7,103.5l-0.6-7.6c-0.4-4.6-5.5-7.3-9.5-5l-20.1,11.3c-4.5,2.5-8.3,6-11.3,10.2l-4.3,6	c-1.5,2.2-3.9,3.5-6.6,3.5l-9.7,0.2c-1.9,0-3.3-1.9-2.7-3.7l4.5-13.2l-13-5.8l1.3-2.2c1.6-2.8,3.7-5.2,6.3-7	c10.2-7.2,24.3-11.4,36-14.6l3.4-0.9c4.4-1.2,9-1,13.2,0.7l2,0.9c5.4,2.1,7.9,5.2,10.6,10.3l0,0c2.7,5,4.1,10.6,4.3,16.3	L117.7,103.5z"/></g>
<g class="st-elem-detail"><path class="st--elem" d="M104.8,75.3l2,0.9c2.6,1,4.4,2.2,6,3.7l21.1-16.6l-3.7,1.9c-1.4,0.7-3.1,0.7-4.4-0.1l-16-9.9	c-1.2-0.8-2.1-2-2.5-3.4c-0.3,3.5-1.6,6.9-3.8,9.8c0,0,0,0.1-0.1,0.1L94,73.9l-0.3,0.3C97.4,73.6,101.3,74,104.8,75.3z"/></g>
<g class="st-elem-detail"><path class="st--elem" d="M117.7,103.5l-8.5-1.6c-3.9-0.7-7.7-1.3-11.7-1.6l-5.7-0.4l-4.2,2.4c-3.2,1.8-6.1,4.1-8.5,6.8l5.3,18.9	l2.8-1.1c7.9-3.3,16.6-3.8,24.8-1.4l6.5,1.9L117.7,103.5z"/></g>
<g class="st-elem-detail"><path class="st--elem" d="M97.5,100.3c3.9,0.3,7.8,0.8,11.7,1.6l8.5,1.6l-0.1-2.1l-0.5-5.5c-0.4-4.6-5.5-7.3-9.5-5l-15.9,9L97.5,100.3z"/></g>
<g class="st-elem-detail"><polygon class="st--elem" points="78.3,131.2 73.8,116 79,109 84.4,128"/></g>
<g class="st-elem-detail"><path class="st--elem" d="M121.7,102.8l-4,0.7v0l1,33l0.9-1.3c0.9-1.2,1.6-2.6,2.2-4l0.6-1.4L121.7,102.8z"/></g>
<g class="st-elem-detail"><path class="st--elem" d="M184.2,30l-14.4,14.8l-1-0.7l-14.5,13.1c-0.7,0.6-1.5,1-2.4,1.1l-1.3,0.1c-5.8,0.6-11.5,2.3-16.7,5l-21.1,16.6	l0,0c1.8,1.7,3.1,3.8,4.6,6.5c2.7,5,4.1,10.6,4.3,16.3l0.3,11.3l9.8-5.1c0,0,5.6-18.7,24-41.4c14.4-17.9,29.8-26.9,35.7-29.9	c1.5-0.8,3.3-1,5-0.5l1,0.3c0.7,0.2,1.4,0.4,2,0.6l0.6-0.2L184.2,30z"/></g>
<g class="st-elem-detail"><path class="st--elem" d="M102.2,117.1c-1.4-0.6-6.3-1.7-7.3-1.8c-9.4-1.5-20.5,7.1-26.2,20.7c-6.2,15-3.3,30.5,6.5,34.6	c1.4,0.6,6.1,1.6,7,1.8c9.4,1.7,20.7-6.9,26.4-20.6C115,136.7,112.1,121.2,102.2,117.1z"/></g>
<g class="st-elem-detail"><ellipse transform="matrix(0.383 -0.9237 0.9237 0.383 -75.5454 177.3156)" class="st--elem" cx="95" cy="145.2" rx="22.4" ry="14.6"/></g>
<g class="st-elem-detail"><ellipse transform="matrix(0.383 -0.9237 0.9237 0.383 -75.5454 177.3156)" class="st--elem" cx="95" cy="145.2" rx="14.8" ry="9.7"/></g>
<g class="st-elem-detail"><path class="st--elem" d="M133.9,5.6l-8.5,2.7c-5.8,1.9-11.1,5-15.2,9.5c-0.4,0.4-0.7,0.8-1.1,1.3L87.1,46L77,54.2l8.1,3.4l4.7-2.6	c4.7-2.6,9-5.6,13-9.1l5.6-4.9l12.1-13.4c1.2-1.4,2.7-2.5,4.3-3.4l0.6-0.3c3.4-1.8,7.3-2.6,11.1-2.2l0.3,0c0.8,0.1,1.6,0.2,2.4,0.4	l16.6-1.8l1.6-2.2c0.9-1.2,0.4-2.9-1-3.5L133.9,5.6z"/></g>
<g class="st-elem-detail"><path class="st--elem" d="M213.4,30.3L196,21.8c-0.4-0.2-0.7-0.6-0.7-1.1l-0.2-1.9c-0.1-2.2-1-3.6-2.7-4.4L170.6,4.2	c-0.9-0.4-2.5-0.7-4.1-0.1l-2.4,1.2c-1,0.6-2.2,1-3.2,0.7l-18.8-5.2c-2.4-0.7-4.9-0.4-7.1,0.8l-17.1,9.1c-1.8,1-2.1,2.1-1.1,2.6	l14.8,7c1.7,0.9,3.9,0.8,5.7,0.2l1.4-0.5c0.4-0.1,0.9,0.1,1,0.5l0.4,1.5l2.9-0.3l-0.5-1.8c-0.1-0.5,0.1-1,0.6-1.1l7.3-1.5	c1.2-0.3,2.5-0.1,3.6,0.4l22.9,10c1,0.4,1.4,1.7,0.8,2.6l-4.4,6.5c-0.6,1-1.1,2.1-1.2,3.2l-0.3,2.5c0,0.1-0.1,0.5-0.1,0.5l3.5-2.6	l0.1-0.3c0.1-0.2,0.3-0.3,0.5-0.2l11.9,5.2c2.9,1.3,6.2,1.2,9-0.2l16.7-8.1C216.1,35.5,216.1,31.6,213.4,30.3z M167.5,6.1	c0.8-0.4,1.9-0.3,2.5,0l21.6,10.2c1,0.5,1.4,1.4,1.4,2.5l0,1.3L165.6,7.3L167.5,6.1z M147.6,15.2l-12.5,3.6c-0.7,0.2-1.4,0.1-2-0.2	l-12.8-6c-0.4-0.2-0.4-0.8,0-1l8.4-4.2c0.5-0.3,1.1-0.3,1.6-0.1l17.4,7.4C147.9,14.9,147.9,15.2,147.6,15.2z M153.5,13.9	c-1,0.2-1.9,0.1-2.8-0.3l-17.9-7.8c-0.4-0.2-0.4-0.7,0-0.9l3.9-1.9c1.6-0.8,3.3-0.9,5-0.4L161.5,9c0.5,0.2,0.8,0.6,0.7,1.1	l-0.4,1.9l2.1-0.5l1.1-0.2l0.2,0l0.2-0.7c0,0,0.3-0.4,0.4-0.4c0.4,0.1,1.1,0.4,1.3,0.5c0.3,0.1,0,0.2,0,0.2l-1.9,0.4l0,0l-1.3,0.3	l-1.4,0.3L153.5,13.9z M156.2,15.9c-0.1,0-0.1-0.2,0-0.2l13-3c1.1-0.2,2.2-0.1,3.2,0.4l13,5.8c0.5,0.2,0.6,0.9,0.3,1.3l-4.3,5.2	c-0.6,0.7-1.6,1-2.5,0.6L156.2,15.9z M202,39.6l-7.5,3.4c-1,0.4-2.1,0.5-3.1,0.1l-13.8-5.6c-0.6-0.3-0.9-1.1-0.5-1.6l4-5.6	c0.4-0.5,1-0.7,1.6-0.4l19.3,8.8C202.4,38.9,202.4,39.4,202,39.6z M212.4,34.1l-5.7,2.8c-0.9,0.4-1.9,0.5-2.8,0.1l-12.7-5.7l0,0	l-2.4-1.1l0,0l-4.6-2.1c-0.6-0.3-0.8-1-0.4-1.5l4.4-5.4c0.3-0.4,0.9-0.5,1.3-0.3l1.6,0.8c0.6,0.3,0.8,1,0.6,1.6l-2.9,6.8l2.4,1.1	l3.1-7c0.2-0.4,0.7-0.6,1.1-0.4l17,8.3C213,32.6,213.1,33.6,212.4,34.1z"/></g>	
<g class="st-elem-detail"><path class="st--elem" d="M107.1,50.9l-0.4-4.6c-0.2-1.9,0.5-3.8,1.8-5.3l-5.6,4.9c-4,3.5-8.4,6.6-13,9.1l-4.7,2.6l2.6,2L78,78.5l0,0		c3.5-1.1,6.9-2.1,10.1-2.9l3.4-0.9c0.7-0.2,1.5-0.3,2.2-0.5c0,0,0,0,0,0l0.3-0.3l9.5-12.1c0,0,0-0.1,0.1-0.1		c2.2-2.8,3.5-6.2,3.8-9.8c0,0-0.1,0.6,0,0.3C107.3,51.9,107.1,51.3,107.1,50.9z"/></g>	
<g class="st-elem-detail"><path class="st--elem" d="M108.9,54.6c0,0,0.1,0.1,0.1,0.1C109,54.7,109,54.6,108.9,54.6z"/></g>
<g class="st-elem-detail"><path class="st--elem" d="M92.4,59.6l4.6-2.6c0.4-0.2,1-0.2,1.4,0.1l1.5,1.3c0.6,0.6,0.5,1.6-0.2,2l-5,2.6c-0.5,0.3-1.1,0.1-1.5-0.3	L92,61.5C91.5,60.9,91.7,60,92.4,59.6z"/></g>
<g class="st-elem-detail"><path class="st--elem" d="M99.5,51c1.7,0,2.9,0.3,3,2.6c0,1.9-1.3,2.4-2.2,2.4s-1.3,0-1.3,0l-0.4,5l-2.7,1.4c0,0,0.5-4.4,0.6-5.8	c0.1-1.2,0.1-2.6,0.4-3.5C97,51.9,98,51,99.5,51z"/></g>
<g class="st-elem-detail"><polygon class="st--elem" points="70.2,132.8 54.4,128 54.4,131.2 57.6,136.5 67.6,139.2"/></g>
<g class="st-elem-detail"><path class="st--elem" d="M39.6,133.2l-7.5-19.1c-1.8-5.1-1.1-8.9,0.7-12.5l7.9-15.5L36,85.4l-6.9,14.2c-2.2,4.9-2.3,10.5-0.1,15.4	l7,16.3L39.6,133.2z"/></g>
<g class="st-elem-detail"><path class="st--elem" d="M8.1,80.5l-1.8,7.5l2.8,1.5c0,0.7-1.8,6.2-2.1,6.8l0,0c-0.4,0.7-1.3,0.9-1.9,0.5c-1.2-0.8-1.7-2.1-2-3.8l-1-6	c-0.1-3.9,0.5-7.8,1.7-11.6l1-2.1c1.9-3.9,4.5-7.4,7.7-10.2l10.1-8.9l8.4-6.1c1.9-1.3,4.2-1.9,6.4-1.6l1.3,0.2	c2.3,0.3,4.4,1.1,6.3,2.4l3.5,2.3c0.6,0.4,1.2,0.9,1.8,1.4l2.1,2c0,0-22.5,10.1-35.9,30.7L8.1,80.5z"/></g>
<g class="st-elem-detail"><polygon class="st--elem" points="14.4,93 16.7,85.5 8.1,80.5 6.3,88.1"/></g>
<g class="st-elem-detail"><path class="st--elem" d="M18.7,78.1L11.8,95c-1.1,3-0.7,6.2,0.8,8.9l13.7,22.9l-3.8-1.7l-11.9-17.6c-3.1-4.8-3.8-10.8-1.8-16.2	l5.9-15.9L18.7,78.1z"/></g>
<g class="st-elem-detail"><path class="st--elem" d="M47.3,74.5L85,57.7c0.1,0,0.1-0.1,0-0.2L59.3,47.1L40.2,70.5c-0.8,1-0.9,2.3-0.3,3.4v0c0.5,1,1.5,1.6,2.6,1.6	h0.7C44.3,75.4,46.2,75,47.3,74.5z"/></g>
<g class="st-elem-detail"><path class="st--elem" d="M85,57.6c0.1,0,0.1,0.1,0,0.2L47.3,74.5c-1.1,0.5-3,0.9-4.2,0.9h-0.7c-1.1,0-2.1-0.6-2.6-1.6	c-0.6-1.1-0.5-2.4,0.3-3.4l12.7-15.6l-0.3-0.2c0,0-17.9,8-31.2,24.4L36,85.4l4.7,0.7l15.4,1.6l0,0c6.7-3.9,14.4-6.8,21.9-9.2	l9.8-18.9L85,57.6z"/></g>	
<g class="st-elem-detail"><path class="st--elem" d="M86.7,74l-15.3-6.7c-2.1-0.9-4.5-1.1-6.8-0.6L47.3,71l-5-2.4l2.3-7.6c1-4.6-1.2-6.3-3.5-7.1l-9.6-4.1		c-2.1-1-4.5-0.9-6.5,0.3L8.1,59.7c-2.5,1.4-3,4.8-1.1,6.9l7.8,8.8l3.3,2.2L36,85.4l26.1,3c1.3,0.2,2.7-0.1,3.9-0.6l20.8-9.3		C88.7,77.7,88.7,74.9,86.7,74z M51.9,75.8c0.4,0.2,0.4,0.8,0,1l-6.6,2.4l-22.7-9.8l3.5-4.4c0.3-0.4,0.9-0.6,1.4-0.3L51.9,75.8z		 M24.7,53c1.7-1,3-1.7,4.8-0.9l11.6,5c0.8,0.3,1.2,1.5,0.9,2.2l-2.4,8.2l-22.5-9.8L24.7,53z M9,62.7l4.7-3.2		c0.4-0.3,1-0.3,1.5-0.1l7.9,3.5c0.4,0.2,0.5,0.7,0.2,1l-3.5,4.3l-3-1.3c-0.9-0.4-1.9-0.2-2.6,0.5l-1.9,1.9l-3.7-4.5		C8.2,64.1,8.3,63.1,9,62.7z M16.9,71.7c-0.7,0.8-1.9,0.8-2.6,0l-0.3-0.4l1.6-1.6c0.2-0.2,0.6-0.3,0.9-0.2l1.6,0.7L16.9,71.7z		 M35.6,82l-16.1-7c-0.5-0.2-0.7-0.9-0.3-1.3l1.8-2.2l20.8,9.1l-4.3,1.6C36.9,82.3,36.2,82.3,35.6,82z M42.8,82.9		c0,0,0.9-0.5,1-0.4c0.1,0,0,1.3,0,1.3L43,83.7C42.5,83.6,42.4,83,42.8,82.9z M64.6,85.3c-1,0.4-2.2,0.6-3.3,0.5L47,84.1v-2.5		c0-0.1,0-0.3-0.1-0.4l7.6-3c0.5-0.2,1-0.2,1.5,0l12.7,5.2L64.6,85.3z M84.9,76.6l-13.2,5.8l-20.9-9.7l13.6-3.1		c2.1-0.5,4.3-0.3,6.3,0.5l14.1,5.8C85.3,76,85.3,76.5,84.9,76.6z"/></g>	
<g class="st-elem-detail"><line class="st--elem" x1="18.1" y1="70.2" x2="21" y2="71.4"/></g>	
<g class="st-elem-detail"><line class="st--elem" x1="19.8" y1="68.2" x2="22.6" y2="69.4"/></g>	
<g class="st-elem-detail"><path class="st--elem" d="M41.8,80.5c0,0,1.2,0.3,1.8,0.9c0.5,0.5,0.3,2.4,0.3,2.4"/></g>	
<g class="st-elem-detail"><path class="st--elem" d="M45.3,79.2c0,0,0.5,0.2,1.1,0.9c0.4,0.5,0.6,1.2,0.6,1.2"/></g>	
<g class="st-elem-detail"><path class="st--elem" d="M29,115c-2.1-4.9-2.1-10.5,0.1-15.4L36,85.4L21.2,79l-4.5,6.5L14.4,93L13,92.2L11.8,95		c-1.1,3-0.7,6.2,0.8,8.9l13.7,22.9l9.6,4.4L29,115z"/></g>
<g class="st-elem-detail"><polygon class="st--elem" points="41.9,109 44.6,99.4 57.6,105.2 54.2,115.1"/></g>
<g class="st-elem-detail"><path class="st--elem" d="M73.8,116l-1.7,2.4c-1.5,2.2-3.9,3.5-6.6,3.5l-9.7,0.2c-1.9,0-3.3-1.9-2.7-3.7l1.1-3.3l-12.4-6l2.7-9.6	l1.3-2.2c1.6-2.8,3.7-5.2,6.3-7c1.2-0.9,2.5-1.7,3.9-2.5l0,0l-15.4-1.6l-7.9,15.5c-1.8,3.6-2.5,7.4-0.7,12.5l7.5,19.1l2.8,1.2	l13.6-0.6h0l-1.6-2.6V128l12,3.7l5.1-1.1l4.6-6.8L73.8,116z"/></g>
<g class="st-elem-detail"><path class="st--elem" d="M11.3,99.4l7.7,5.3l8.4,1.1l0,3.1l-8.1-0.8l-5.7-2.9c0,0-1.4-2.4-1.9-3.9C11.2,100.3,11.3,99.4,11.3,99.4z"/></g>
<g class="st-elem-detail"><polygon class="st--elem" points="15.8,109 18.3,113.3 21.8,114.4 29,115 28,112.1 20.7,111.3"/></g>
<g class="st-elem-detail"><polygon class="st--elem" points="20.2,116.5 21.8,119.1 24.6,120.1 31.5,120.8 30.5,118.6 23.2,117.3"/></g>
<g class="st-elem-detail"><polygon class="st--elem" points="24.8,124.1 29.7,120.6 31.5,120.8 34.8,128.5 25.2,124.8"/></g>
<g class="st-elem-detail"><circle class="st--elem" cx="57.2" cy="7.4" r="3.6"/></g>
<g class="st-elem-detail"><polygon class="st--elem" points="26.4,126.8 25.2,124.8 34.8,128.5 36,131.2"/></g>
<g class="st-elem-detail"><path class="st--elem" d="M60.5,15.3l-4.8-6.1c-0.8-1-0.5-2.6,0.6-3.2l0.3-0.2c1-0.6,2.3-0.4,3,0.6l4.9,6.2L60.5,15.3z"/></g>
<g class="st-elem-detail"><path class="st--elem" d="M29.1,99.6l0.2-0.5L20,96.6l-6.1-6.4l-1.8,4.2l7,6.8l8.6,1.8C27.9,101.7,28.5,100.9,29.1,99.6z"/></g>
<g class="st-elem-detail"><path class="st--elem" d="M69.6,16l-0.9-0.8c-0.2-0.4-1.4-1.8-1.8-2.1l0,0h0c-0.7-0.7-1.8-1.2-2.9-1.2c-2.3,0-4.1,1.8-4.1,4.1	c0,0.5,0.1,1,0.3,1.5l0,0l0,0c0.2,0.6,0.6,1.1,1,1.5l1.8,1.9L69.6,16z"/></g>
<g class="st-elem-detail"><circle class="st--elem" cx="66.7" cy="18.9" r="4.1"/></g>
<g class="st-elem-detail"><path class="st--elem" d="M67.5,35.5l3.3-10.9c0.2-0.9,0.1-1.8-0.5-2.5l-1.8-2.4c-0.5-0.6-1.4-0.7-2-0.2v0c-0.4,0.4-0.4,1-0.1,1.4	l1.5,1.9c0.5,0.7,0.6,1.6,0.3,2.5l-4.1,12.7L67.5,35.5z"/></g>
<g class="st-elem-detail"><path class="st--elem" d="M72.6,35l17.8,6.9c0,0,0.1,3.1,0,0l-11.2,0.3c-0.1,0.1-0.2,0.1-0.3,0l-16.6-7.4c-0.1,0-0.1,0.1,0,0L72.6,35	C72.7,34.9,72.6,34.9,72.6,35z"/></g>
<g class="st-elem-detail"><path class="st--elem" d="M62,44l16.8,7l11.6-4.5v-4.6c0,0,0,0,0,0L79,42.3l-16.8-7.5C62.1,34.7,62,44,62,44z"/></g>
<g class="st-elem-detail"><path class="st--elem" d="M84.9,47.8c0.1,0.5,0.6,0.6,1.1,0.6c1,0,2-0.1,2.9-0.3c0.9-0.3,2.3-1,2.9-1.7l4.5-5.8c0.7-0.8,1.7-1.2,2.7-1.2	h2.4v-2.8l-3,0c-1.5,0.3-2.9,1.1-3.9,2.3L90,44.4c-0.8,1-1.3,1.2-2.7,1.3l-1.2,0.1c-0.7,0-1.1,0.1-1.2,0.8V47.8z"/></g>
<g class="st-elem-detail"><path class="st--elem" d="M101.5,33.6c-0.6,0-1.1,2-1.1,4.4c0,2.4,0.5,4.4,1.1,4.4h9c0.2,0,0.4-0.2,0.4-0.4v-8c0-0.2-0.2-0.4-0.4-0.4	H101.5z"/></g>
<g class="st-elem-detail"><path class="st--elem" d="M112,38c0,2.4-0.5,4.4-1.1,4.4s-1.3-2-1.3-4.4c0-2.4,0.7-4.4,1.3-4.4S112,35.6,112,38z"/></g>
<g class="st-elem-detail"><path class="st--elem" d="M125.5,35.3h-13.8c-0.4,0-0.7,1.2-0.7,2.7c0,1.5,0.3,2.7,0.7,2.7c0.1,0,0.6,0,0.6,0l13.1-0.1L125.5,35.3z"/></g>
<g class="st-elem-detail"><ellipse class="st--elem" cx="125.9" cy="38" rx="0.8" ry="3.2"/></g>
<g class="st-elem-detail"><polygon class="st--elem" points="62,48.2 63,44.4 78.9,51 81.4,50 80.7,55.8"/></g></svg>