<svg version="1.1" xmlns="http://www.w3.org/2000/svg" xmlns:xlink="http://www.w3.org/1999/xlink" x="0px" y="0px"	 viewBox="0 0 231 178.7" style="enable-background:new 0 0 231 178.7;" xml:space="preserve"><title>kvadro_back</title>	<style type="text/css">.st0{fill:#FFFFFF;stroke:#242122;stroke-miterlimit:10;}.st1{fill:#FFFFFF;stroke:#242122;stroke-linecap:round;stroke-miterlimit:10;}.st2{fill:#FFFFFF;stroke:#242122;stroke-linecap:round;stroke-miterlimit:10;}	</style>	
<g class="st-elem-detail"><path class="st--elem" d="M66.8,36l-1.5-6.8l-1.2-4.3L78,19.2h10l4.1-0.4c0,0,1.9,3,1.3,5.9c-0.6,3-1,5.2-1,5.2L81,35.1l-4.8,1.8l-7,2.3L66.8,36z"/></g>
<g class="st-elem-detail"><polygon class="st--elem" points="112.9,117.1 145.6,133.9 168.5,122.6 147.9,106.2 115.2,100.6"/></g>
<g class="st-elem-detail"><path class="st--elem" d="M212,107.4c-7.5-15.2-21.5-23.6-31.2-18.8c-0.1,0.1-0.3,0.2-0.4,0.2l-10.7,5.2c-9.7,4.8-11.5,21-4,36.2c7.5,15.2,21.5,23.6,31.2,18.8l11-5.5C217.7,138.8,219.5,122.6,212,107.4z"/></g>
<g class="st-elem-detail"><ellipse transform="matrix(0.8964 -0.4433 0.4433 0.8964 -35.6615 92.5728)" class="st--elem" cx="180.2" cy="122.6" rx="15" ry="23.4"/></g>
<g class="st-elem-detail"><ellipse transform="matrix(0.8964 -0.4433 0.4433 0.8964 -35.0522 93.1177)" class="st--elem" cx="181.7" cy="121.5" rx="9.6" ry="14.2"/></g>
<g class="st-elem-detail"><ellipse transform="matrix(0.9445 -0.3286 0.3286 0.9445 -32.9404 60.2366)" class="st--elem" cx="161.8" cy="127.6" rx="7" ry="9"/></g>
<g class="st-elem-detail"><path class="st--elem" d="M156.7,117.8l14.5,6.4v-10c0,0-7.7,2.1-10.3,2.7C159.9,117.2,156.7,117.8,156.7,117.8z"/></g>
<g class="st-elem-detail"><ellipse transform="matrix(0.5771 -0.8167 0.8167 0.5771 -21.4513 192.08)" class="st--elem" cx="174.7" cy="116.8" rx="8.6" ry="5.9"/></g>
<g class="st-elem-detail"><path class="st--elem" d="M181.8,113c0,0-2-1.2-2.1-1.3c-1.6-1.1-4.2-0.2-5.8,2.1c-1.5,2.2-1.6,4.8-0.2,6l0.4,0.3l2,1.2l1-0.5l0.7-1.2c0.7-0.4,1.3-1,1.9-1.8c0.8-1.1,1.2-2.3,1.2-3.3L181.8,113z"/></g>
<g class="st-elem-detail"><ellipse transform="matrix(0.5771 -0.8167 0.8167 0.5771 -19.9461 195.6496)" class="st--elem" cx="178.9" cy="117.1" rx="5" ry="3.5"/></g>
<g class="st-elem-detail"><path class="st--elem" d="M228.3,75.6c-2.6-4.2-8.6-9.9-8.6-9.9s-14.4-4.6-25.7-5.5c-11.4-0.9-21.8,2.7-21.8,2.7v0c0.5,0.2,0.9,0.5,1.2,0.9l0.6,0.6l2.1,3.4c1.4,2.7,1.4,2.7,0.5,4c0,0,0.4,0.1,1.1,0.4l16.3,5.8c4.5,2,6.9,4.7,8,7.7c6,4.9,10.5,9.8,10.5,9.8c1.4,1,3.3,0.9,4.6-0.2l13.5-12.5C230.5,82.7,230.9,79.8,228.3,75.6z"/></g>
<g class="st-elem-detail"><path class="st--elem" d="M184.8,91.1l-29.5-8.4c-2,0.9-4,1.5-6.1,1.9l33.1,9.7c1.1,0.3,1.9,1.4,1.8,2.6l-1,17.4l2.7,0.9c0.4,0.1,0.8-0.1,0.9-0.6l1.3-19.2C188,93.4,186.7,91.6,184.8,91.1z"/></g>
<g class="st-elem-detail"><path class="st--elem" d="M193.9,77.9l-17.4-6.2c-0.8,0.7-19.7,10.3-19.7,10.3c-0.5,0.3-1,0.5-1.6,0.7l29.5,8.4c1.9,0.6,3.2,2.4,3.1,4.4l-1.3,19.8c0,0.1,0.1,0.2,0.2,0.2l1.7,0.2c1.4,0.1,2.6-0.5,3.8-1.1c1.7-0.9,3.6-1.8,4.4-5.5l5.7-17.5C203.2,86.6,201.4,81.2,193.9,77.9z"/></g>
<g class="st-elem-detail"><path class="st--elem" d="M198,92.2l0.8-0.7c0.6-0.5,0.9-1.2,0.8-2l-0.5-4.1c-0.1-0.9-1-1.4-1.8-1l-10.1,4.4c-0.9,0.4-1.3,1.5-0.9,2.5l1.6,3.1c0.4,0.8,1.3,1.2,2.1,1l2.9-0.7C194.8,94.3,196.5,93.4,198,92.2z"/></g>
<g class="st-elem-detail"><path class="st--elem" d="M182.3,94.4l-33.1-9.7c-0.4,0.1-0.8,0.2-1.2,0.2l0,0c0,0,15.5,8.4,20.2,11.9c1.7,1.2,4,3.4,6.2,5.6l0,0	l4.8-2.5l2.7,1.2L184,99l0.1-2C184.2,95.8,183.4,94.7,182.3,94.4z"/></g>
<g class="st-elem-detail"><path class="st--elem" d="M178.9,107.4c-2.3-3-7.7-8.4-10.7-10.6c-4.7-3.5-20.2-11.9-20.2-11.9l0,0c-1.9,0.3-3.9,0.5-5.9,0.4l-17.4-0.5c-1.2,0-2.4-0.2-3.6-0.6l-0.1,0c0,0-11.4-0.4-21.6,3c-21.9,8.2-17.1,50.4-17.1,50.4l2.5,3.2l1.2-28.1c1.2-7,7.3-12.1,14.4-12.1l13.2,2.9c0,0,9.1,2.3,14.9,4.1c3.2,1,13.6,8.1,13.6,8.1c6.3,3.7,11.5,2.9,18.7,1.3l20.4-5.4C181.2,111.7,179.7,108.3,178.9,107.4z"/></g>
<g class="st-elem-detail"><path class="st--elem" d="M178.9,107.4c-2.3-3-7.7-8.4-10.7-10.6c-4.7-3.5-20.2-11.9-20.2-11.9l0,0c-1.9,0.3-3.9,0.5-5.9,0.4l-17.4-0.5c-1.2,0-2.4-0.2-3.6-0.6l-0.1,0c0,0-11.4-0.4-21.6,3c-21.9,8.2-17.1,50.4-17.1,50.4l2.5,3.2l1.2-28.1c1.2-7,7.3-12.1,14.4-12.1l13.2,2.9c0,0,9.1,2.3,14.9,4.1c3.2,1,13.6,8.1,13.6,8.1c6.3,3.7,11.5,2.9,18.7,1.3l20.4-5.4C181.2,111.7,179.7,108.3,178.9,107.4z"/></g>
<g class="st-elem-detail"><path class="st--elem" d="M97.8,55.2l-0.1-0.5c-0.1-0.6,0-1.3,0.4-1.8l0.8-1c1-1.2,3.6-3,5.6-3.5l6.9-2c0.9-0.3,3-0.5,3.8-0.2l0.6,0.2l8.3,6.6c5.7,3.7,12.2,5.5,18.8,6.4l27.6,2.9c1.1,0.1,2.1,0.6,2.8,1.3l0.6,0.6l2.1,3.4c1.4,2.7,1.4,2.7,0.5,4c-0.3,0.5-19.8,10.3-19.8,10.3c-4.6,2.3-9.7,3.4-14.8,3.3l-17.4-0.5c-2.9-0.1-5.6-1-8-2.5l0,0c-3.1-2-5.6-4.8-7.3-8c0,0-3.8-6.2-5.1-8.2c-1.2-2-5.1-7.8-5.1-7.8C98.5,57.2,98,56.3,97.8,55.2z"/></g>
<g class="st-elem-detail"><path class="st--elem" d="M102.2,53.5c0,0,8.3,9.5,17.7,15.7c9.4,6.2,25.4,5,28.1,3.7c1.4-0.7,7.1-3.9,12.2-5.9c4.7-1.9,8.8-2.6,8.8-2.6"/></g>
<g class="st-elem-detail"><path class="st--elem" d="M109.3,74.2c0,0-3.8-6.2-5.1-8.2c-1.2-2-5.1-7.8-5.1-7.8c-0.6-0.9-1-1.9-1.3-2.9l-0.1-0.5c-0.1-0.6,0-1.3,0.4-1.8c0,0-9.8,1.3-18,3.1c-4.5,1-8,2.7-9.6,3.9c-1.3,1-1.9,2.7-1.5,4.2v0c0.4,1.5,1.3,2.8,2.5,3.7c0,0,4.8,3.9,6.4,5.2c2.1,1.6,5.9,4.3,8.8,5.8c1.4,0.7,4.1,2,5.5,2.5c5.3,1.8,8.4,1.7,12.7,1.9l5.6-0.1l4.9-1.7l0,0C112.9,79.4,110.8,77,109.3,74.2z"/></g>
<g class="st-elem-detail"><path class="st--elem" d="M113.7,103.5l-13.2-2.9c-7.1-0.1-13.2,5.1-14.4,12.1l-1,23.9l4.2-3.2c4.2-3.2,9.1-5.5,14.3-6.7l8.4-1.9l2.6-21C114,103.5,113.7,103.5,113.7,103.5z"/></g>
<g class="st-elem-detail"><path class="st--elem" d="M146.3,135.2c-7.5-15.2-21.5-23.6-31.2-18.8c-0.1,0.1-0.3,0.2-0.4,0.2l-10.7,5.2c-9.7,4.8-11.5,21-4,36.2c7.5,15.2,21.5,23.6,31.2,18.8l11-5.5C152,166.5,153.8,150.3,146.3,135.2z"/></g>
<g class="st-elem-detail"><ellipse transform="matrix(0.8964 -0.4433 0.4433 0.8964 -54.7691 66.3408)" class="st--elem" cx="114.5" cy="150.3" rx="15" ry="23.4"/></g>
<g class="st-elem-detail"><ellipse transform="matrix(0.8964 -0.4433 0.4433 0.8964 -54.1598 66.8856)" class="st--elem" cx="116" cy="149.3" rx="9.6" ry="14.2"/></g>
<g class="st-elem-detail"><path class="st--elem" d="M47.1,87.6c-7.1-14.4-21-19.4-32-16.5c-0.1,0-4.7,2.8-4.7,2.8c-9.2,4.5-10.9,19.9-3.8,34.2s20.3,22.3,29.5,17.8l7.2-4C52.5,117.3,54.2,102,47.1,87.6z"/></g>
<g class="st-elem-detail"><ellipse transform="matrix(0.8964 -0.4433 0.4433 0.8964 -42.6154 19.4164)" class="st--elem" cx="20.2" cy="100.9" rx="14.2" ry="22.1"/></g>
<g class="st-elem-detail"><ellipse transform="matrix(0.8964 -0.4433 0.4433 0.8964 -42.0389 19.9319)" class="st--elem" cx="21.6" cy="99.9" rx="9.1" ry="13.4"/></g>
<g class="st-elem-detail"><path class="st--elem" d="M61.8,81.1c0,0-3.9,1.8-12.9,2.7c-12.5,1.2-17.9-3.1-17.9-3.1l0.5,1.3c0.2,0.4,0.4,0.9,0.6,1.3l13,34.4l1.2,0.4c0.2,0.1,0.5,0.1,0.7,0.2c1.6,0.4,3.2,0.6,4.9,0.5l3-0.3v-2l19.8-8.7L61.8,81.1z"/></g>
<g class="st-elem-detail"><path class="st--elem" d="M54.7,118.6c0,0,1,0,1.3,0c1.2,0.1,2.3,0.2,3.4,0.7l16.2,7.4c0.7,0.3,3,1.6,3.9,2.7c1.4,1.6,2.4,2.8,2.4,2.8v-3.5c0,0-1.5-1.5-2.2-2.1c-0.9-0.8-2.9-2-4-2.4l-16.1-7.1c-1.2-0.3-2.6-0.4-3.6-0.5c-0.3,0-1-0.1-1.2,0c-0.1,0-0.1,0.2-0.1,0.2V118.6z"/></g>
<g class="st-elem-detail"><path class="st--elem" d="M54.8,116.5L54.8,116.5l-0.1,0.1C54.7,116.6,54.7,116.5,54.8,116.5z"/></g>
<g class="st-elem-detail"><path class="st--elem" d="M74.5,107.9l-19.7,8.6c0.2-0.1,0.9,0,1.2,0c1.1,0.1,2.4,0.2,3.6,0.5l16.1,7.1c1.1,0.5,3,1.7,4,2.4	c0.7,0.6,2.2,2.1,2.2,2.1s-0.1-3.5,0.2-7.1c0.3-3.6,1.2-9.9,1.2-9.9L74.5,107.9z"/></g>
<g class="st-elem-detail"><path class="st--elem" d="M30.9,80.7c0,0,5.4,4.4,17.9,3.1c9-0.9,12.9-2.7,12.9-2.7s0,0-2.2-4.5c-1.7-3.4,0.3-10.1-1.8-12.8	c-1.7-2.2-3.4-4-5.4-5.5c-10.5-8-18.6-13.2-25.7-13c0,0-4.5-0.3-10.7-0.2c-6,0-9.6,1.4-11.3,2.7c-1.3,1-4.7,4.4-4.2,8.3	c0.2,1.5,0.8,5.2,0.8,5.2L3,61.5l-0.6-4.8c0,0,0,0,0,0c-0.2-1.7,1.4-3.1,3.1-2.8l2.3,0.3C16.8,57.6,20.2,55.9,30.9,80.7L30.9,80.7	z"/></g>
<g class="st-elem-detail"><path class="st--elem" d="M109.3,74.2c0,0-3.8-6.2-5.1-8.2c-1.2-2-5.1-7.8-5.1-7.8c-0.6-0.9-1-1.9-1.3-2.9l-0.1-0.5c-0.1-0.6,0-1.3,0.4-1.8c0,0-9.8,1.3-18,3.1c-4.5,1-8,2.7-9.6,3.9c-1.3,1-1.9,2.7-1.5,4.2v0c0.4,1.5,1.3,2.8,2.5,3.7c0,0,4.8,3.9,6.4,5.2c2.1,1.6,5.9,4.3,8.8,5.8c1.4,0.7,4.1,2,5.5,2.5c5.3,1.8,8.4,1.7,12.7,1.9l2.1-0.1c2.3-0.1,4.6-0.5,6.7-1.3l1.6-0.6l0,0C112.9,79.4,110.8,77,109.3,74.2z"/></g>
<g class="st-elem-detail"><path class="st--elem" d="M115.5,81.4L115.5,81.4l-1.6,0.6c-2.2,0.8-4.4,1.2-6.7,1.3l-2.1,0.1c-4.3-0.2-7.5-0.2-12.7-1.9c-1.4-0.5-4.2-1.8-5.5-2.5c-3-1.5-6.7-4.2-8.8-5.8c-1.6-1.3-6.4-5.2-6.4-5.2c-1.2-1-2.1-2.3-2.5-3.7v0c-0.1-0.3-0.1-0.6-0.1-1l-11.3,0.2c0.1,0.1,0.2,0.3,0.3,0.4c2.1,2.7,0.1,9.4,1.8,12.8c2.2,4.5,2.2,4.5,2.2,4.5l12.7,26.7l8.8,3.8c2.1-10.8,5.6-20.5,16.2-24.5c10.2-3.3,21.6-3,21.6-3l0,0C121,84.2,117.2,82.8,115.5,81.4z"/></g>
<g class="st-elem-detail"><path class="st--elem" d="M98.9,52c1-1.2,3.6-3,5.6-3.5l6.9-2c0.9-0.3,3-0.5,3.8-0.2c0,0,0.1-1.4-0.9-3.8c-1-2.4-4.6-5.3-11.4-8.8c-7.5-3.9-10.8-3.9-10.8-3.9s-3.6,0-8.1,1.7c-3.8,1.5-6.4,4.8-6.4,4.8s-1.3,0.5-6.3,0.4c-3.2-0.1-4.6-0.7-4.6-0.7s-22.6,8-23.9,12.4c-0.6,1.9-0.5,2.7-0.5,2.7c2.9,1.9,6.7,4.6,10,7.2c1.8,1.4,3.5,3.1,5.1,5.1l0,0h11.3c-0.1-1.3,0.5-2.7,1.6-3.5c1.7-1.2,5.2-2.9,9.6-3.9c8.2-1.7,18-3.1,18-3.1L98.9,52z"/></g>
<g class="st-elem-detail"><path class="st--elem" d="M75.3,38.2c0,0,3.1-0.2,11.5,3.3S98,48.1,98,48.1"/></g>
<g class="st-elem-detail"><path class="st--elem" d="M99.3,33.3c0-0.3-0.3-0.6-0.6-0.6h-8.4c-0.4,0-0.7,0.3-0.7,0.7v1.9c0,0.1,0,0.4,0,0.5c0,1.1,2.2,2,4.9,2c2.7,0,4.9-0.9,4.9-2c0-0.1,0-0.4,0-0.5V33.3z"/></g>
<g class="st-elem-detail"><ellipse class="st--elem" cx="94.5" cy="33" rx="4.9" ry="2"/></g>
<g class="st-elem-detail"><ellipse transform="matrix(0.9445 -0.3286 0.3286 0.9445 -33.2728 58.6828)" class="st--elem" cx="157" cy="127.8" rx="7" ry="9.8"/></g>
<g class="st-elem-detail"><path class="st--elem" d="M144.7,132.1l3.8-14l2.2,0.2c0.8,0.1,1.6,0.1,2.4,0l2.2-0.2l-5.3,20h-2.3L144.7,132.1z"/></g>
<g class="st-elem-detail"><polygon class="st--elem" points="159,118.8 159,142.1 161.5,140.8 161.5,120"/></g>
<g class="st-elem-detail"><polygon class="st--elem" points="152.4,128.7 159,124.3 159,128 151.3,133.1"/></g>
<g class="st-elem-detail"><polygon class="st--elem" points="150,145.2 159,138.8 159,142.1 150.6,148.3"/></g>
<g class="st-elem-detail"><polygon class="st--elem" points="171.6,124.6 174.2,124.3 172.9,137.3 170.1,138"/></g>
<g class="st-elem-detail"><polygon class="st--elem" points="184.3,134.9 172.9,137.3 173.1,134.6 179.7,133.3 182.8,130.5 185.6,130.5"/></g>
<g class="st-elem-detail"><path class="st--elem" d="M189.6,123.8l-13.2-0.7l0.3-1.5l4.1-0.9l8.8,0.5c0,0,1,0.2,1,1.4C190.6,123.6,189.6,123.8,189.6,123.8z"/></g>
<g class="st-elem-detail"><path class="st--elem" d="M176.2,123.4l1.7,4.4c0.2,0.6,0.6,1,1.2,1.3l0.8,0.3l1.4,2.5l1.5-1.5h1.4l-1.3-2.6l0.1-0.5c0.2-0.7,0.2-1.5-0.1-2.2l-1.7-5.4l-0.6,0.5c-0.9,0.8-2,1.2-3.2,1.3l-0.2,0L176.2,123.4z"/></g>
<g class="st-elem-detail"><path class="st--elem" d="M161.5,140.8l7.1,5l6.2-3.4l-0.2-2.3l-0.1-0.1c-0.2,0.1-5.9,3.3-5.9,3.3l-7.1-4.9V140.8z"/></g>
<g class="st-elem-detail"><path class="st--elem" d="M161.5,137.3l5.9-2.9l7.1,5.3c0.1,0.1,0.1,0.2,0,0.3l-5.9,3.3l-7.1-4.9V137.3z"/></g>
<g class="st-elem-detail"><path class="st--elem" d="M5.4,53.9c-1.7-0.2-3.1,1.2-2.9,2.9l0,0L3,61.2c0,0.2,0.2,0.3,0.4,0.3l5-1.3l-0.5-5.6c0-0.2-0.2-0.4-0.5-0.5L5.4,53.9z"/></g>
<g class="st-elem-detail"><path class="st--elem" d="M21.4,62.5c0,0-6.7,0-9.6,0s-3.4-2.3-3.4-2.3l-0.6-5.5c0-0.2,0.2-0.4,0.4-0.4c0.6,0.2,1.9,0.6,4.5,1.5C18.7,57.8,21.4,62.5,21.4,62.5z"/></g>
<g class="st-elem-detail"><path class="st--elem" d="M26.7,45.2l24.9-11.3l12.7-8.8l0.1,0.2L66.8,36l-7.7,3l-8.2,3.6c-1.9,0.9-3.8,1.9-5.4,3.2h0c-1.1,0.9-2.2,1.8-2.6,3.2l-0.4,2.1l-4.4-2.4c-2.1-1.2-6.7-2.8-9-3.3L26.7,45.2z"/></g>
<g class="st-elem-detail"><path class="st--elem" d="M74.6,14.5L61,14.8l-1.3-1.2c-2.5-1.7-5-1.5-5-1.5c-1.2,0.3-2.6,0.7-3.4,1l-20.8,8.6c-0.6,0.2-1.1,0.6-1.5,1.1c-1.4,1.7-2.3,3.7-2.7,5.8l-0.3,1.7l-7.9,4.8C17,36,15.7,37.7,15.9,39c0.2,0.9,0.8,1.6,1.6,1.9l8.9,3.2c2.9,1.1,6.2,1,9.1-0.2l12.8-5.1c1.6-0.6,2.8-1.9,3.3-3.5l0.1-0.2c0.2-0.7,0.1-1.4-0.2-2.1l-1.8-2.9l17.5-9L74.6,14.5z M30.4,25.9c0.5-0.8,1.3-1.5,2.2-1.9l20.7-8.8c1.2-0.5,3-0.6,4.1,0l0.4,0.3c0.4,0.2,0.1,0.3-0.2,0.5c0,0-26.8,11.4-28,12C28.8,28.4,30.4,25.9,30.4,25.9z M23.7,39.6c-0.4,0.2-0.8,0.2-1.1,0l-3.2-1.2c-0.3-0.1-0.3-0.4-0.1-0.6l13.1-7.7c0.4-0.2,0.9-0.1,1.1,0.3l2.3,3.7L23.7,39.6z M48.2,35.5l-14.7,6.3c-0.8,0.4-1.8,0.5-2.7,0.3l-3.8-0.8c-0.2,0-0.3-0.4,0-0.5L46,32.5c0.4-0.2,0.9-0.1,1.2,0.3l1.2,1.5C48.8,34.7,48.6,35.3,48.2,35.5z M38.6,33l-3.2-4.3c-0.2-0.2-0.1-0.5,0.2-0.6L58.2,18c0.3-0.2,0.8-0.1,1,0.2l3.2,3.3L38.6,33z"/></g>
<g class="st-elem-detail"><path class="st--elem" d="M113.8,46.1c-0.9,0-1.9,0.2-2.5,0.4l-2.2,0.6l0,0l2.2-0.6C111.9,46.3,112.9,46.1,113.8,46.1z"/></g>
<g class="st-elem-detail"><path class="st--elem" d="M114.3,42.5c1,2.4,0.9,3.8,0.9,3.8v0l0.6,0.2l3.5,2.8c-0.1-1-0.2-2.1-0.2-2.7c-0.2-1.6-0.9-6.5-0.9-6.5	c-2.2-7.4-5.3-12.9-11.2-17.9l-2.6-1.5c-2.1-1.3-4.6-1.9-7.1-1.9h-5V21c0,1.3-0.6,2.6-1.7,3.4l-1,1.1l-0.3,1.3l2.9,3	c0,0,3.2-0.1,10.8,3.9C109.7,37.2,113.3,40.1,114.3,42.5z"/></g>
<g class="st-elem-detail"><polygon class="st--elem" points="67.5,24.5 74.4,30.9 88.5,23.6 89.5,19.5 82.7,11.6 67.5,17.6"/></g>
<g class="st-elem-detail"><polygon class="st--elem" points="82.7,11.6 89.5,19.5 75.1,27.3 66.8,17.9"/></g>
<g class="st-elem-detail"><path class="st--elem" d="M59.6,22.3l4.3-5.2c0,0,2.4-1.3,4.8,0.3c2.7,1.8,2.5,4.4,2.4,4.6l-2.5,4.8L67,28.8L59.6,22.3z"/></g>
<g class="st-elem-detail"><ellipse transform="matrix(0.5 -0.866 0.866 0.5 10.5542 67.6689)" class="st--elem" cx="63.9" cy="24.7" rx="4.6" ry="5.2"/></g>
<g class="st-elem-detail"><path class="st--elem" d="M59.1,35.2l6.7-9.3c0,0,0.3-1.2-1.9-2.3s-2.7,0-2.7,0l-6.3,8.3L59.1,35.2z"/></g>
<g class="st-elem-detail"><ellipse class="st--elem" cx="124.2" cy="5" rx="2" ry="3.9"/></g>
<g class="st-elem-detail"><ellipse transform="matrix(0.5 -0.866 0.866 0.5 -1.2067 65.967)" class="st--elem" cx="56.5" cy="34" rx="3" ry="3.4"/></g>
<g class="st-elem-detail"><path class="st--elem" d="M123.4,2.3l-11.7,0.2l0.4,3l-0.6,2.3l12.1-0.2c0,0,0.9,0.2,0.9-2.7C124.4,2.4,123.4,2.3,123.4,2.3z"/></g>
<g class="st-elem-detail"><path class="st--elem" d="M109.9,0.5h-6.2c-0.2,0-0.4,0.2-0.4,0.4v8.2c0,0.2,0.2,0.4,0.4,0.4l6.6,0c0.9,0,1.8-2,1.8-4.5S110.8,0.5,109.9,0.5z"/></g>
<g class="st-elem-detail"><ellipse class="st--elem" cx="103.3" cy="5" rx="1.6" ry="4.5"/></g>
<g class="st-elem-detail"><path class="st--elem" d="M87.6,17.2l5.4-8c1-1.4,2.4-2.5,4.1-3.1l5.8-2.2c0.7-0.2,0.5,1.4,0.5,1.8c-0.1,1-0.3,2.3-0.9,2.3l-3.9,1.6c-1.1,0.3-2,1-2.6,2l-3.5,5.7c-0.5,0.7-1,1.4-1.7,2L89.1,21l0.4-1.5L87.6,17.2z"/></g>
<g class="st-elem-detail"><path class="st--elem" d="M179.2,99.8l3.8,1.7c0.5,0.2,1.2,0,1.4-0.5l6-11.2l3.5-0.6l-7.1,13.1c-0.9,1.6-2.9,2.2-4.6,1.6l-6-2.6	L179.2,99.8z"/></g>
<g class="st-elem-detail"><path class="st--elem" d="M202.1,92.5l1,0.5c0.5,0.2,1.2,0,1.4-0.5l6-11.2l3.5-0.6L207,93.8c-0.9,1.6-2.9,2.2-4.6,1.6l-1-0.5	L202.1,92.5z"/></g>
<g class="st-elem-detail"><path class="st--elem" d="M226,64.2l-20.6-6c-1.9-0.5-3.8-0.4-5.6,0.3l-12.1,4.9c-1.9,0.8-2.1,3.3-0.3,4.4l7.6,4.7l-27,11.5l-19.8-2.2	c-1.3-0.1-2.6,0-3.8,0.5l-11.7,4.8c-1.9,0.8-3.6,3.8,0,5.3l14.2,5.5c4.8,1.5,12.4,0.8,17.3-0.3l23.9-5.7c2.8-0.6,5.5-1.5,8-2.6	l15.4-6.7c1.9-0.8,3.7-2,5.2-3.4l10.5-9.9C229,67.8,228.3,64.8,226,64.2z M189.4,66.1c-0.3-0.2-0.4-0.7,0-0.8c0,0,10.9-4.7,12-5	c0.5-0.1,1.1-0.2,1.7-0.1c1.6,0.2,12.2,3.9,12.2,3.9l-17.5,6.8L189.4,66.1z M197.9,74l5.3,2.9l-13,5.5c-1.6,0.7-2.9,1.8-3.9,3.3	l-0.7,1l-13.2-1.9L197.9,74z M144.3,93.8l-9.8-3.1c-0.8-0.2-0.9-1.3-0.1-1.7l10-4.3c1.7-0.7,3.6-1,5.4-0.7l13.1,2.1L144.3,93.8z	 M165.5,95.1l-5.9,1.1c-2.8,0.4-5.8,0.3-8.6-0.4l-2.9-0.7l19.7-8.3l16.4,2.3l0,0l3.1,0.4L165.5,95.1z M193.2,87.9l-4.4-0.7	c1-1.4,1.2-1.8,3-2.5l14.3-6.2l4.1,2.2L193.2,87.9z M209.4,77.1l4.3-1.9c0.5-0.2,1.2-0.4,1.1-0.1l-0.8,2.8l-1.2,1L209.4,77.1z	 M225.5,68.1l-7.4,6.4c0.2-0.9,0.2-1.8-0.1-2.4c-0.5-0.8-1.7-0.8-2.1-0.7l-9.5,4.1l-5.4-3l18.6-7.5l5.8,2.2	C225.7,67.5,225.8,67.9,225.5,68.1z"/></g>	</svg>