<svg version="1.1" id="slide_5" xmlns="http://www.w3.org/2000/svg" xmlns:xlink="http://www.w3.org/1999/xlink" x="0px" y="0px" viewBox="0 0 228.333 223.333" enable-background="new 0 0 228.333 223.333" xml:space="preserve">
    <g class="st-elem-detail g-elem__300" data-id="g-elem__300" data-el-name="" data-wrap=".defect-list-nav-motor"><ellipse transform="matrix(0.8607 -0.509 0.509 0.8607 -40.9077 34.1797)" class="st--elem" cx="42.015" cy="91.855" rx="30.796" ry="43.507"></ellipse></g>
    <g class="st-elem-detail g-elem__301" data-id="g-elem__301" data-el-name="" data-wrap=".defect-list-nav-motor"><ellipse transform="matrix(0.8607 -0.509 0.509 0.8607 -43.749 31.0653)" class="st--elem" cx="34.904" cy="95.493" rx="20.297" ry="35.874"></ellipse></g>
    <g class="st-elem-detail g-elem__302" data-id="g-elem__302" data-el-name="" data-wrap=".defect-list-nav-motor"><ellipse transform="matrix(0.8607 -0.509 0.509 0.8607 -43.8885 30.5566)" class="st--elem" cx="33.904" cy="95.493" rx="17.711" ry="31.303"></ellipse></g>
    <g class="st-elem-detail g-elem__303" data-id="g-elem__303" data-el-name="" data-wrap=".defect-list-nav-motor"><path class="st--elem" d="M35.688,105.198c-2.478-0.904-4.783-2.616-6.492-5.038
      c-3.015-4.275-3.325-9.558-1.196-13.472"></path></g>
    <g class="st-elem-detail g-elem__304" data-id="g-elem__304" data-el-name="" data-wrap=".defect-list-nav-motor"><path class="st--elem" d="M43.598,105.242c-0.49,0.188-0.992,0.338-1.502,0.449"></path></g>
    <g class="st-elem-detail g-elem__305" data-id="g-elem__305" data-el-name="" data-wrap=".defect-list-nav-motor"><ellipse transform="matrix(0.7754 -0.6315 0.6315 0.7754 -52.0845 42.8001)" class="st--elem" cx="34.122" cy="94.615" rx="4.406" ry="5.368"></ellipse></g>
    <g class="st-elem-detail g-elem__306" data-id="g-elem__306" data-el-name="" data-wrap=".defect-list-nav-motor"><path class="st--elem" d="M27.696,96.144c0,0,0.026,0.088,1.485,1.796
      c1.459,1.709,1.738,2.729,1.738,2.729s4.088-3.044,4.516-3.416c0.518-0.447,0.741-1.761-0.855-3.588
      c-1.234-1.413-3.401-0.423-3.848,0.068L27.696,96.144z"></path></g>
    <g class="st-elem-detail g-elem__307" data-id="g-elem__307" data-el-name="" data-wrap=".defect-list-nav-motor"><path class="st--elem st--none" d="M30.732,90.453c0,0-8.955-13.694-12.283-15.396
      c-0.5-0.255-2.242,0-2.242,0"></path></g>
    <g class="st-elem-detail g-elem__308" data-id="g-elem__308" data-el-name="" data-wrap=".defect-list-nav-motor"><path class="st--elem st--none" d="M36.555,83.906c0,0-7.73-9.468-8.775-13.009
      c-0.187-0.632,0-2.638,0-2.638"></path></g>
    <g class="st-elem-detail g-elem__309" data-id="g-elem__309" data-el-name="" data-wrap=".defect-list-nav-motor"><path class="st--elem st--none" d="M36.469,99.622c0,0-1.322,11.668-3.024,12.904
      c-0.533,0.388-2.639,0-2.639,0"></path></g>
    <g class="st-elem-detail g-elem__310" data-id="g-elem__310" data-el-name="" data-wrap=".defect-list-nav-motor"><path class="st--elem st--none" d="M42.015,103.024c0,0,0.405,8.767,1.282,12.666
      c0.336,1.5,1.563,1.774,1.563,1.774"></path></g>
    <g class="st-elem-detail g-elem__311" data-id="g-elem__311" data-el-name="" data-wrap=".defect-list-nav-motor"><path class="st--elem st--none" d="M42.989,114.024c3.271,1.332,12.005-1.325,12.933-3.953"></path></g>
    <g class="st-elem-detail g-elem__312" data-id="g-elem__312" data-el-name="" data-wrap=".defect-list-nav-motor"><path class="st--elem st--none" d="M20.291,76.561c-4.88,14.327,9.944,33.834,13.67,35.406"></path></g>
    <g class="st-elem-detail g-elem__313" data-id="g-elem__313" data-el-name="" data-wrap=".defect-list-nav-motor"><path class="st--elem st--none" d="M33.303,69.916c-1.852,0.473-3.581,1.279-5.114,2.432"></path></g>
    <g class="st-elem-detail g-elem__314" data-id="g-elem__314" data-el-name="" data-wrap=".defect-list-nav-motor"><line class="st--elem st--none" x1="45.445" y1="86.607" x2="48.245" y2="85.002"></line></g>
    <g class="st-elem-detail g-elem__315" data-id="g-elem__315" data-el-name="" data-wrap=".defect-list-nav-motor"><line class="st--elem st--none" x1="48.245" y1="91.976" x2="51.496" y2="90.888"></line></g>
    <g class="st-elem-detail g-elem__316" data-id="g-elem__316" data-el-name="" data-wrap=".defect-list-nav-motor"><ellipse transform="matrix(0.8607 -0.5091 0.5091 0.8607 -65.151 116.4838)" class="st--elem" cx="180.313" cy="177.314" rx="30.796" ry="43.507"></ellipse></g>
    <g class="st-elem-detail g-elem__317" data-id="g-elem__317" data-el-name="" data-wrap=".defect-list-nav-motor"><ellipse transform="matrix(0.8608 -0.509 0.509 0.8608 -67.991 113.3622)" class="st--elem" cx="173.202" cy="180.952" rx="20.298" ry="35.875"></ellipse></g>
    <g class="st-elem-detail g-elem__318" data-id="g-elem__318" data-el-name="" data-wrap=".defect-list-nav-motor"><ellipse transform="matrix(0.8607 -0.509 0.509 0.8607 -68.1302 112.8534)" class="st--elem" cx="172.202" cy="180.951" rx="17.711" ry="31.303"></ellipse></g>
    <g class="st-elem-detail g-elem__319" data-id="g-elem__319" data-el-name="" data-wrap=".defect-list-nav-motor"><path class="st--elem" d="M184.951,173.619c2.771,4.221,2.5,9.295-0.605,11.334
      c-0.51,0.335-3.857,2.863-4.441,2.999c-2.969,0.691-3.885-3.419-6.201-6.945c-1.974-3.005-5.753-6.549-3.744-8.318
      c1.619-1.425,3.457-2.429,4.351-3.016C177.416,167.633,182.18,169.401,184.951,173.619z"></path></g>
    <g class="st-elem-detail g-elem__320" data-id="g-elem__320" data-el-name="" data-wrap=".defect-list-nav-motor"><ellipse transform="matrix(0.8358 -0.549 0.549 0.8358 -70.0509 125.8364)" class="st--elem" cx="175.365" cy="180.039" rx="6.728" ry="9.14"></ellipse></g>
    <g class="st-elem-detail g-elem__321" data-id="g-elem__321" data-el-name="" data-wrap=".defect-list-nav-motor"><path class="st--elem" d="M171.578,180.534l1.893,1.973l0.221,2.348
      c0,0,3.165-2.503,3.594-2.874c0.518-0.447,0.845-1.109,0.845-1.848c0-1.349-1.094-2.442-2.442-2.442c-0.717,0-1.361,0.309-1.808,0.8
      L171.578,180.534z"></path></g>
    <g class="st-elem-detail g-elem__322" data-id="g-elem__322" data-el-name="" data-wrap=".defect-list-nav-motor"><path class="st--elem" d="M99.119,44.191c7.114,3.756,24.904,21.737,24.904,21.737
      c0.097,0.718-1.726,1.048-2.363,1.513c-0.483,0.353-1.955,0.955-2.666,1c-10.619,0.669-31.891-3.551-42-6.868
      c-1.269-0.417-3.76-1.919-4.56-2.786c-0.887-0.959-2-2.462-1.69-3.346c0,0,13.323-10.03,18.5-11.875
      c1.22-0.435,3.938-0.452,5.166-0.375C95.654,43.269,98.055,43.629,99.119,44.191z"></path></g>
    <g class="st-elem-detail g-elem__323" data-id="g-elem__323" data-el-name="" data-wrap=".defect-list-nav-motor"><ellipse class="st--elem" cx="99.555" cy="57.948" rx="6.5" ry="4.5"></ellipse></g>
    <g class="st-elem-detail g-elem__324" data-id="g-elem__324" data-el-name="" data-wrap=".defect-list-nav-motor"><ellipse class="st--elem" cx="99.555" cy="57.073" rx="5.375" ry="3.625"></ellipse></g>
    <g class="st-elem-detail g-elem__325" data-id="g-elem__325" data-el-name="" data-wrap=".defect-list-nav-motor"><path class="st--elem" d="M128.744,72.441c0,0-0.886,1.643-2,2.416
      c-0.941,0.654-3.322,2.441-4.438,2.709c-1.396,0.336-2.38,1.18-3.816,1.112c-10.198-0.481-31.184-0.958-41.933-1.465
      c-0.878-0.042-4.901-0.129-5.501-0.772c-0.36-0.386-1.915-1.938-2.178-2.396c-0.33-0.576-1.083-4.947-1.178-5.604
      c-0.09-0.619,0.793-11.916,0.793-11.916l2.25-1.083c0,0,0.165,1.154,0.324,1.505c0.236,0.522,0.955,1.44,1.365,1.841
      c0.578,0.566,1.932,1.478,2.637,1.875c0.643,0.361,2.012,0.93,2.711,1.164c4.022,1.345,12.322,3.187,16.48,4.022
      c3.154,0.633,9.514,1.641,12.709,2.011c2.184,0.253,6.572,0.587,8.771,0.646c0.813,0.022,2.454,0.089,3.253-0.064
      c0.699-0.134,2.049-0.645,2.666-1c0.515-0.295,1.587-0.963,1.839-1.5c0.079-0.168,0.524-0.013,0.524-0.013L128.744,72.441z"></path></g>
    <g class="st-elem-detail g-elem__326" data-id="g-elem__326" data-el-name="" data-wrap=".defect-list-nav-motor"><polygon class="st--elem" points="68.879,74.502 68.879,78.441 89.744,102.274 
      127.994,103.024 141.994,94.941 128.744,72.441 127.994,73.587 126.744,74.857 124.027,76.717 120.882,78.076 118.49,78.678 
      71.784,77.046 "></polygon></g>
    <g class="st-elem-detail g-elem__327" data-id="g-elem__327" data-el-name="" data-wrap=".defect-list-nav-motor"><polygon class="st--elem" points="196.244,135.191 193.432,132.261 187.244,125.816 
      155.01,111.195 151.494,122.941 148.244,122.941 127.994,108.524 128.769,106.191 144.494,96.191 141.994,94.941 127.994,103.024 
      89.744,102.274 115.244,135.191 154.994,136.441 "></polygon></g>
    <g class="st-elem-detail g-elem__328" data-id="g-elem__328" data-el-name="" data-wrap=".defect-list-nav-motor"><polygon class="st--elem" points="160.486,98.179 150.244,92.941 130.069,105.364 
      130.069,106.941 139.994,113.191 148.994,118.691 152.828,103.441 "></polygon></g>
    <g class="st-elem-detail g-elem__329" data-id="g-elem__329" data-el-name="" data-wrap=".defect-list-nav-motor"><polygon class="st--elem" points="127.994,108.524 128.769,106.191 130.069,105.364 
      130.069,106.941 148.994,118.691 152.828,103.441 171.994,90.274 173.869,89.816 176.738,91.241 156.869,104.982 151.494,122.941 
      148.244,122.941 "></polygon></g>
    <g class="st-elem-detail g-elem__330" data-id="g-elem__330" data-el-name="" data-wrap=".defect-list-nav-motor"><path class="st--elem" d="M121.746,135.395l0.666,1.046l7.657,12l8.675,7.5l32.25,28.5
      l2.25-2.25l-33.75-30.75c0,0-1.825-4.571,1.589-8.536c3.917-4.549,7.23-2.294,7.23-2.294l5.359,2.768l2.701-2.329l-8.879-4.844
      L121.746,135.395z"></path></g>
    <g class="st-elem-detail g-elem__331" data-id="g-elem__331" data-el-name="" data-wrap=".defect-list-nav-motor"><path class="st--elem" d="M171.578,190.523l-0.584-6.082l-37.913-33.396
      c0,0,0.054,1.612,0,2.146c-0.053,0.524-0.324,1.603-0.671,2c-0.429,0.493-2.341,1.166-2.341,1.166l17.426,16.167L171.578,190.523z"></path></g>
    <g class="st-elem-detail g-elem__332" data-id="g-elem__332" data-el-name="" data-wrap=".defect-list-nav-motor"><polygon class="st--elem" points="68.455,73.307 45.869,76.066 84.244,114.024 
      95.138,109.236 89.744,102.274 82.773,94.311 72.125,82.149 68.879,78.441 "></polygon></g>
    <g class="st-elem-detail g-elem__333" data-id="g-elem__333" data-el-name="" data-wrap=".defect-list-nav-motor"><polygon class="st--elem" points="115.244,135.191 109.078,143.523 98.911,131.689 
      92.411,124.023 84.244,114.024 95.138,109.236 "></polygon></g>
    <g class="st-elem-detail g-elem__334" data-id="g-elem__334" data-el-name="" data-wrap=".defect-list-nav-motor"><polygon class="st--elem" points="32.244,74.502 37.578,86.524 43.91,95.691 53.91,107.524 
      84.244,114.024 45.869,76.066 "></polygon></g>
    <g class="st-elem-detail g-elem__335" data-id="g-elem__335" data-el-name="" data-wrap=".defect-list-nav-motor"><path class="st--elem" d="M109.078,143.523l-3.642,3.831l9.808,10.667l6.502,6.833
      l4.998,4.333c0,0-21.525-15.592-28.541-21c-4.781-3.686-14.257-11.181-18.793-15.166c-3.896-3.423-11.347-10.648-15-14.33
      c-2.698-2.721-10.5-11.166-10.5-11.166s12.445,2.667,16.594,3.556c3.435,0.736,13.74,2.944,13.74,2.944l14.807,17.827
      L109.078,143.523z"></path></g>
    <g class="st-elem-detail g-elem__336" data-id="g-elem__336" data-el-name="" data-wrap=".defect-list-nav-motor"><path class="st--elem" d="M44.411,106.378l9.499,1.146l8.992,9.612l7.131,7.094l9.377,8.791
      c0,0,8.905,7.375,8.701,7.211c-0.204-0.164,9.488,7.488,9.488,7.488l12.387,9.245l16.164,11.791l11.533-5.336l0.774,0.718
      l-11.714,8.551l-40.833-29.852l-26.167-22.981L44.411,106.378z"></path></g>
    <g class="st-elem-detail g-elem__337" data-id="g-elem__337" data-el-name="" data-wrap=".defect-list-nav-motor"><polygon class="st--elem" points="196.244,135.191 187.244,125.816 195.773,127.118 
      215.672,113.962 220.953,122.471 204.912,133.858 201.244,135.191 "></polygon></g>
    <g class="st-elem-detail g-elem__338" data-id="g-elem__338" data-el-name="" data-wrap=".defect-list-nav-motor"><path class="st--elem" d="M214.91,117.493l-12.916,8.322c-0.1,1.659,4.666,4.374,5.25,4.083
      c0.584-0.291,8.207-5.572,8.875-5.989C216.785,123.492,216.398,118.162,214.91,117.493z"></path></g>
    <g class="st-elem-detail g-elem__339" data-id="g-elem__339" data-el-name="" data-wrap=".defect-list-nav-motor"><polygon class="st--elem" points="176.738,91.241 179.661,92.941 159.494,106.378 
      159.494,108.857 189.328,122.941 206.994,110.607 215.672,113.962 197.994,125.816 195.773,127.118 187.244,125.816 155.01,111.195 
      156.869,104.982 "></polygon></g>
    <g class="st-elem-detail g-elem__340" data-id="g-elem__340" data-el-name="" data-wrap=".defect-list-nav-motor"><polygon class="st--elem" points="179.661,92.941 205.662,108.357 188.744,119.274 
      160.033,106.615 159.927,106.09 "></polygon></g>
    <g class="st-elem-detail g-elem__341" data-id="g-elem__341" data-el-name="" data-wrap=".defect-list-nav-motor"><polygon class="st--elem" points="159.494,108.857 159.494,106.774 160.03,106.614 
      188.744,119.274 205.662,108.357 207.385,110.758 189.328,122.941 "></polygon></g>
    <g class="st-elem-detail g-elem__342" data-id="g-elem__342" data-el-name="" data-wrap=".defect-list-nav-motor"><path class="st--elem" d="M44.411,106.378c0,0-3.941-4.506-5.104-6.125
      c-1.967-2.738-5.496-8.505-7.063-11.49c-1.343-2.558-4.07-7.746-4.666-10.572c-0.215-1.014,0-4.146,0-4.146l4.666,0.457
      c0,0,4.68,9.588,6.417,12.688c1.222,2.179,3.783,6.478,5.249,8.5c2.274,3.136,10,11.834,10,11.834L44.411,106.378z"></path></g>
    <g class="st-elem-detail g-elem__343" data-id="g-elem__343" data-el-name="" data-wrap=".defect-list-nav-motor"><polygon class="st--elem" points="45.869,76.066 33.744,67.784 28.869,64.066 32.244,60.816 
      43.869,65.198 53.91,67.784 67.701,68.441 67.869,70.441 68.455,73.307 "></polygon></g>
    <g class="st-elem-detail g-elem__344" data-id="g-elem__344" data-el-name="" data-wrap=".defect-list-nav-motor"><path class="st--elem" d="M62.244,31.357c0,0-1.246-4.799,5.131-9.545
      c3.752-2.792,8.352-4.533,11.503-5.493c2.204-0.672,3.7-0.962,3.7-0.962s-11.851-1.749-15.834-2
      c-1.663-0.104-4.732,0.056-6.375,0.333c-2.001,0.338-6.113,1.488-7.958,2.333c-2.495,1.144-7.29,3.873-9.5,5.5
      c-1.733,1.276-6.333,5.833-6.333,5.833s2.032,1.885,2.833,2.333c1.114,0.625,5.011,1.472,6.271,1.683
      c2.753,0.462,8.145-0.016,10.937-0.016C58.327,31.357,62.244,31.357,62.244,31.357z"></path></g>
    <g class="st-elem-detail g-elem__345" data-id="g-elem__345" data-el-name="" data-wrap=".defect-list-nav-motor"><path class="st--elem" d="M22.578,40.524c0,0,2.857-3.999,4-5.167
      c1.049-1.074,3.682-3.385,4.854-4.323c1.327-1.063,5.146-3.677,5.146-3.677s2.021,1.905,2.833,2.333
      c1.11,0.586,3.587,1.166,4.819,1.398c1.319,0.248,4.006,0.443,5.348,0.483c1.761,0.053,5.28-0.187,7.041-0.214
      c1.406-0.021,5.625,0,5.625,0v2.584c0,0-1.931,1.339-2.666,1.583c-0.756,0.251-2.373,0.282-3.167,0.333
      c-1.706,0.11-6.833,0.167-6.833,0.167l-4.667,2.333l-4.214,2.167c0,0-4.203-0.932-5.619-0.833c-0.737,0.051-2.104,0.728-2.834,0.833
      c-0.835,0.12-2.531,0-3.375,0C27.297,40.524,22.578,40.524,22.578,40.524z"></path></g>
    <g class="st-elem-detail g-elem__346" data-id="g-elem__346" data-el-name="" data-wrap=".defect-list-nav-motor"><polygon class="st--elem" points="68.113,61.573 51.619,60.816 42.996,59.948 40.277,63.844 
      53.91,67.784 67.701,68.441 "></polygon></g>
    <g class="st-elem-detail g-elem__347" data-id="g-elem__347" data-el-name="" data-wrap=".defect-list-nav-motor"><polygon class="st--elem" points="36.088,62.264 32.244,60.816 35.307,57.003 38.978,58.287 
      "></polygon></g>
    <g class="st-elem-detail g-elem__348" data-id="g-elem__348" data-el-name="" data-wrap=".defect-list-nav-motor"><path class="st--elem" d="M32.244,40.524c0,0-5.229,3.355-6.75,4.75
      c-1.144,1.049-3.072,3.505-4,4.75c-0.994,1.333-3.451,5.203-4.039,6.131c-0.082,0.13-0.117,0.132-0.1,0.005
      c0.14-0.954,0.761-5.118,1.295-6.972c0.383-1.331,0.762-3.484,1.438-4.693c1.038-1.858,1.06-1.733,2.49-3.971H32.244z"></path></g>
    <g class="st-elem-detail g-elem__349" data-id="g-elem__349" data-el-name="" data-wrap=".defect-list-nav-motor"><path class="st--elem" d="M85.16,15.774c0,0,3.908-3.938,5.342-5.021
      c1.34-1.011,4.083-2.547,5.576-3.312c1.094-0.561,3.219-1.889,4.416-2.167c1.056-0.245,3.358-0.469,4.334,0
      c0.721,0.347,2.257,2.093,2,2.5c-0.221,0.349-1.19-0.38-1.604-0.404c-0.987-0.058-3.73,1.321-3.73,1.321l-5.916,3.167l-1.451,0.999
      l-1.25,0.833l-4.383,3.5L85.16,15.774z"></path></g>
    <g class="st-elem-detail g-elem__350" data-id="g-elem__350" data-el-name="" data-wrap=".defect-list-nav-motor"><path class="st--elem" d="M88.807,16.969c0,0,5.487,1.854,6.271,2.055
      c0.791,0.202,2.469-0.091,3.25-0.333c0.748-0.232,2.102-1.059,2.75-1.5c1.1-0.75,3.24-2.386,4.082-3.417
      c0.602-0.736,1.453-2.491,1.668-3.416c0.126-0.548,0-1.688,0-2.25c0-0.084,0.051-0.268,0-0.334
      c-0.254-0.326-1.191-0.423-1.604-0.404c-0.988,0.046-2.826,0.921-3.73,1.321c-1.141,0.504-3.299,1.766-4.398,2.355
      c-1.066,0.57-2.302,1.353-4.219,2.645C92.07,14.233,88.807,16.969,88.807,16.969z"></path></g>
    <g class="st-elem-detail g-elem__351" data-id="g-elem__351" data-el-name="" data-wrap=".defect-list-nav-motor"><path class="st--elem" d="M44.078,48.441l3.5-1.5c0,0,1.883,0.206,3.082,1.795
      c1.084,1.435,0.805,3.348,0.805,3.348l-0.367,0.653c0,0-1.805,1.149-2.375,1.104c-0.308-0.024-1.041-0.188-1.041-0.188l-3.029-1.563
      c0,0-1.211-1.621-1.305-2.042c-0.128-0.572,0.953-2.14,0.953-2.14L44.078,48.441z"></path></g>
    <g class="st-elem-detail g-elem__352" data-id="g-elem__352" data-el-name="" data-wrap=".defect-list-nav-motor"><path class="st--elem" d="M45.488,50.136L34.869,63.941c0,0,0.387,0.999,0.625,1.257
      c0.39,0.422,1.396,1.133,1.969,1.181c0.385,0.032,1.438-0.563,1.438-0.563l10.046-13.412c0,0-0.168-1.054-0.375-1.33
      c-0.266-0.354-1.074-0.815-1.5-0.938C46.69,50.028,45.488,50.136,45.488,50.136z"></path></g>
    <g class="st-elem-detail g-elem__353" data-id="g-elem__353" data-el-name="" data-wrap=".defect-list-nav-motor"><path class="st--elem" d="M119.619,161.066c0,0-1.62,0.321-2.453-1.938
      c-0.736-2,0.328-2.813,0.328-2.813l10.5-5.75c0,0,1.666,0.306,2.402,1.837c0.738,1.531-0.327,2.913-0.327,2.913L119.619,161.066z"></path></g>
    <g class="st-elem-detail g-elem__354" data-id="g-elem__354" data-el-name="" data-wrap=".defect-list-nav-motor"><path class="st--elem" d="M130.167,148.525l2.914,2.52c0,0,0.345,1.429,0.351,1.997
      c0.016,1.571-0.52,2.262-1.458,2.914c-0.52,0.362-1.904,0.4-1.904,0.4l-0.505-0.763c0,0,0.723-0.716,0.832-1.027
      c0.147-0.412,0.199-1.36,0-1.75c-0.127-0.251-0.409-0.957-0.616-1.147c-0.292-0.27-0.887-0.713-1.243-0.821
      c-0.348-0.105-1.449-0.094-1.449-0.094l0.438-1.156c0,0,0.93-0.926,1.26-1.072C129.168,148.355,130.167,148.525,130.167,148.525z"></path></g>
    <g class="st-elem-detail g-elem__355" data-id="g-elem__355" data-el-name="" data-wrap=".defect-list-nav-motor"><ellipse transform="matrix(0.9338 -0.3577 0.3577 0.9338 -48.8653 52.9895)" class="st--elem st--none" cx="118.798" cy="158.578" rx="1.766" ry="2.594"></ellipse></g>
    <g class="st-elem-detail g-elem__356" data-id="g-elem__356" data-el-name="" data-wrap=".defect-list-nav-motor"><path class="st--elem" d="M137.684,163.42l-11.533,5.336c0,0-3.088-2.645-4.051-3.596
      c-0.98-0.969-3.71-4.079-3.71-4.079l1.335-0.081l0.703-0.38l9.137-5.027L137.684,163.42z"></path></g>
    <g class="st-elem-detail g-elem__357" data-id="g-elem__357" data-el-name="" data-wrap=".defect-list-nav-motor"><path class="st--elem" d="M109.078,143.523l0.252-0.145l14.144,9.663
      c0,0-5.084,2.784-6.024,3.314c-0.302,0.17-0.508,0.928-0.543,1.272c-0.049,0.479,0.25,1.424,0.381,1.887
      c0.076,0.271,0.385,1.058,0.385,1.058l-12.235-13.219L109.078,143.523z"></path></g>
    <g class="st-elem-detail g-elem__358" data-id="g-elem__358" data-el-name="" data-wrap=".defect-list-nav-motor"><path class="st--elem" d="M30.947,55.833c0,0-10.602-2.125-12.023-1.393
      c-1.421,0.732,10.509,5.927,10.509,5.927l2.81-3.364L30.947,55.833z"></path></g>
    <g class="st-elem-detail g-elem__359" data-id="g-elem__359" data-el-name="" data-wrap=".defect-list-nav-motor"><path class="st--elem" d="M29.502,64.548c0,0-6.754-3.331-7.842-4.19
      c-1.156-0.914-4.332-4-4.332-4l1.192-1.873c0,0,1.966,1.428,2.651,1.873c0.593,0.386,1.896,0.958,2.529,1.273
      c1.389,0.69,9.461,3.531,9.461,3.531L29.502,64.548z"></path></g>
    <g class="st-elem-detail g-elem__360" data-id="g-elem__360" data-el-name="" data-wrap=".defect-list-nav-motor"><path class="st--elem" d="M59.078,51.452c-1.266,1.218-3.172,2.21-5.156,0.893
      c-1.984-1.317-2.805-3.571-1.834-5.034c0.971-1.463,2.588-4.354,4.572-3.037C58.644,45.591,62.153,48.492,59.078,51.452z"></path></g>
    <g class="st-elem-detail g-elem__361" data-id="g-elem__361" data-el-name="" data-wrap=".defect-list-nav-motor"><ellipse transform="matrix(0.5531 -0.8331 0.8331 0.5531 -13.9076 68.6968)" class="st--elem" cx="57.075" cy="47.311" rx="3.18" ry="4.312"></ellipse></g>
    <g class="st-elem-detail g-elem__362" data-id="g-elem__362" data-el-name="" data-wrap=".defect-list-nav-motor"><ellipse transform="matrix(0.553 -0.8332 0.8332 0.553 4.9751 80.4511)" class="st--elem" cx="77.467" cy="35.589" rx="3.18" ry="4.313"></ellipse></g>
    <g class="st-elem-detail g-elem__363" data-id="g-elem__363" data-el-name="" data-wrap=".defect-list-nav-motor"><path class="st--elem" d="M43.274,59.976l4.595-6.134c0,0,1.739-0.218,2.224-0.521
      c0.669-0.418,1.991-2.446,1.991-2.446s1.309,1.214,1.838,1.469c0.638,0.307,2.061,0.732,2.76,0.625
      c0.75-0.114,2.625-1.518,2.625-1.518l-7.037,9.363L43.274,59.976z"></path></g>
    <g class="st-elem-detail g-elem__364" data-id="g-elem__364" data-el-name="" data-wrap=".defect-list-nav-motor"><path class="st--elem" d="M57.287,43.939c0,0,6.358-2.253,8.269-3.415
      c2.254-1.371,8.065-6.808,8.065-6.808s-0.182,1.691,0,2.214c0.182,0.526,0.959,1.385,1.377,1.753
      c0.539,0.474,1.766,1.323,2.469,1.47c0.643,0.134,2.605-0.326,2.605-0.326s-6.529,5.56-8.953,7.059
      c-2.776,1.717-11.812,5.566-11.812,5.566s1.129-1.252,1.361-1.756c0.195-0.422,0.427-1.359,0.377-1.821
      c-0.058-0.54-0.566-1.546-0.883-1.989c-0.264-0.367-0.953-0.973-1.328-1.225C58.48,44.424,57.287,43.939,57.287,43.939z"></path></g>
    <g class="st-elem-detail g-elem__365" data-id="g-elem__365" data-el-name="" data-wrap=".defect-list-nav-motor"><path class="st--elem" d="M52.269,60.816l7.037-9.363c0,0,7.831-3.151,11.197-5.207
      c3.365-2.055,5.758-4.254,5.758-4.254l6.127,5.319l-11.645,8.13l-2.25,1.083l-0.381,1.968v3.081L52.269,60.816z"></path></g>
    <g class="st-elem-detail g-elem__366" data-id="g-elem__366" data-el-name="" data-wrap=".defect-list-nav-motor"><path class="st--elem" d="M51.717,49.194h-0.766l-2.944-2.253c0,0,1.405-1.097,1.855-1.484
      c0.422-0.364,1.325-1.051,1.632-1.516c0.24-0.363,0.537-1.207,0.59-1.639c0.136-1.107-0.455-4.439-0.455-4.439
      s1.881-0.692,2.444-1.046c0.394-0.248,1.403-1.227,1.403-1.227l4.102,0.342l-5.786,4.647l2.716,3.202c0,0-1.443,0.048-1.883,0.227
      c-0.452,0.184-1.257,0.795-1.551,1.184c-0.572,0.76-1.391,3.545-1.391,3.545L51.717,49.194z"></path></g>
    <g class="st-elem-detail g-elem__367" data-id="g-elem__367" data-el-name="" data-wrap=".defect-list-nav-motor"><path class="st--elem" d="M39.572,38.781c0,0-2.303,1.447-2.975,2.05
      c-0.434,0.387-1.316,1.213-1.518,1.757c-0.293,0.786-0.269,2.56,0,3.354c0.296,0.879,1.414,2.543,2.246,2.955
      c0.678,0.336,2.416,0.449,3.025,0c0.487-0.359-0.092-1.743,0-2.342c0.123-0.81,0.363-2.51,0.719-3.249
      c0.276-0.576,1.473-1.232,1.996-1.598c2.51-1.751,10.477-6.331,10.477-6.331L54.169,35l2.497-0.958l0.705-1.131l-6.45,0.12
      L39.572,38.781z"></path></g>
    <g class="st-elem-detail g-elem__368" data-id="g-elem__368" data-el-name="" data-wrap=".defect-list-nav-motor"><path class="st--elem" d="M54.115,40.378c-0.053,0.715-0.346,2.174-0.745,2.769
      c-0.878,1.309-3.645,3.038-5.005,3.833c-1.051,0.614-3.281,1.672-4.473,1.917c-0.867,0.178-3.541,0-3.541,0s-0.092-1.743,0-2.342
      c0.123-0.81,0.363-2.51,0.719-3.249c0.276-0.576,1.473-1.232,1.996-1.598c1.162-0.81,3.635-2.196,4.846-2.928
      c1.408-0.851,5.631-3.402,5.631-3.402S54.209,39.123,54.115,40.378z"></path></g>
    <g class="st-elem-detail g-elem__369" data-id="g-elem__369" data-el-name="" data-wrap=".defect-list-nav-motor"><path class="st--elem" d="M80.072,28.64l18.522-0.782c0,0,0.834,0.458,0.875,2.083
      s-1.25,2.084-1.25,2.084l-18.147,0.782V28.64z"></path></g>
    <g class="st-elem-detail g-elem__370" data-id="g-elem__370" data-el-name="" data-wrap=".defect-list-nav-motor"><path class="st--elem" d="M54.096,40.577l2.412,3.202l0.863,0.129l0.797-0.288
      c0,0,5.266-1.567,7.297-3.043c2.031-1.477,7.799-6.53,7.799-6.53l-7.52-4.357l-3.5,1.667v2.584l-2.906,1.648L54.096,40.577z"></path></g>
    <g class="st-elem-detail g-elem__371" data-id="g-elem__371" data-el-name="" data-wrap=".defect-list-nav-motor"><path class="st--elem" d="M65.744,29.691l1.585-2.333l5.935-2.667l4.203,1.339l2.605,2.724
      l0.318,5.214c0,0-1.775-1.434-2.484-1.675c-0.582-0.198-1.861-0.318-2.454-0.157c-0.46,0.125-1.266,0.709-1.579,1.068
      c-0.094,0.107-0.252,0.512-0.252,0.512L65.744,29.691z"></path></g>
    <g class="st-elem-detail g-elem__372" data-id="g-elem__372" data-el-name="" data-wrap=".defect-list-nav-motor"><path class="st--elem" d="M21.966,65.804c0.937-2.227,2.812-3.564,4.188-2.986
      c0.646,0.272,4.185,1.891,4.304,2.15c0.403,0.878-3.01,1.75-3.505,2.931c-0.644,1.531,0.723,4.494-0.342,4.851
      c-0.483,0.162-3.416-1.684-3.846-1.865C21.389,70.307,21.03,68.032,21.966,65.804z"></path></g>
    <g class="st-elem-detail g-elem__373" data-id="g-elem__373" data-el-name="" data-wrap=".defect-list-nav-motor"><ellipse transform="matrix(0.3873 -0.9219 0.9219 0.3873 -46.0106 68.1976)" class="st--elem" cx="28.306" cy="68.717" rx="4.375" ry="2.704"></ellipse></g>
    <g class="st-elem-detail g-elem__374" data-id="g-elem__374" data-el-name="" data-wrap=".defect-list-nav-motor"><polygon class="st--elem" points="171.578,190.523 170.994,184.441 173.108,182.326 
      173.471,182.507 174.098,189.191 172.143,190.853 "></polygon></g>
    <g class="st-elem-detail g-elem__375" data-id="g-elem__375" data-el-name="" data-wrap=".defect-list-nav-motor"><path class="st--elem st--none" d="M170.348,172.399c0,0-6.533-10.125-9.861-11.826
      c-0.499-0.255-2.242,0-2.242,0"></path></g>
    <g class="st-elem-detail g-elem__376" data-id="g-elem__376" data-el-name="" data-wrap=".defect-list-nav-motor"><path class="st--elem st--none" d="M174.853,169.365c0,0-7.73-9.468-8.775-13.009
      c-0.188-0.632,0-2.638,0-2.638"></path></g>
    <g class="st-elem-detail g-elem__377" data-id="g-elem__377" data-el-name="" data-wrap=".defect-list-nav-motor"><path class="st--elem st--none" d="M178.13,188.528c0,0,0.308,7.094-1.392,8.33
      c-0.534,0.388-2.641,0-2.641,0"></path></g>
    <g class="st-elem-detail g-elem__378" data-id="g-elem__378" data-el-name="" data-wrap=".defect-list-nav-motor"><path class="st--elem st--none" d="M183.798,185.342c0,0,0.32,9.324,1.196,13.224
      c0.337,1.5,1.563,1.774,1.563,1.774"></path></g>
    <g class="st-elem-detail g-elem__379" data-id="g-elem__379" data-el-name="" data-wrap=".defect-list-nav-motor"><path class="st--elem st--none" d="M184.754,197.288c2.615,0.465,6.438-0.279,9.467-1.759"></path></g>
    <g class="st-elem-detail g-elem__380" data-id="g-elem__380" data-el-name="" data-wrap=".defect-list-nav-motor"><path class="st--elem st--none" d="M166.937,187.055c0.124,0.147,0.115,0.25,0.242,0.396
      c3.041,3.489,7.027,6.506,10.753,8.078"></path></g>
    <g class="st-elem-detail g-elem__381" data-id="g-elem__381" data-el-name="" data-wrap=".defect-list-nav-motor"><path class="st--elem st--none" d="M162.64,162.234c-1.378,2.478-2.052,5.381-2.042,8.457"></path></g>
    <g class="st-elem-detail g-elem__382" data-id="g-elem__382" data-el-name="" data-wrap=".defect-list-nav-motor"><path class="st--elem st--none" d="M171.602,155.374c-1.852,0.473-3.582,1.279-5.115,2.432"></path></g>
    <g class="st-elem-detail g-elem__383" data-id="g-elem__383" data-el-name="" data-wrap=".defect-list-nav-motor"><line class="st--elem st--none" x1="183.744" y1="172.066" x2="186.543" y2="170.46"></line></g>
    <g class="st-elem-detail g-elem__384" data-id="g-elem__384" data-el-name="" data-wrap=".defect-list-nav-motor"><line class="st--elem st--none" x1="186.543" y1="177.435" x2="189.795" y2="176.347"></line></g>
    <g class="st-elem-detail g-elem__385" data-id="g-elem__385" data-el-name="" data-wrap=".defect-list-nav-motor"><ellipse transform="matrix(0.8352 -0.5499 0.5499 0.8352 -49.7761 32.0328)" class="st--elem" cx="28.567" cy="99.08" rx="1.964" ry="3.066"></ellipse></g>
    <g class="st-elem-detail g-elem__386" data-id="g-elem__386" data-el-name="" data-wrap=".defect-list-nav-motor"><path class="st--elem st--none" d="M178.251,192.244c-2.134-0.039-4.263-0.616-6.198-1.669"></path></g>
    <g class="st-elem-detail g-elem__387" data-id="g-elem__387" data-el-name="" data-wrap=".defect-list-nav-motor"><path class="st--elem st--none" d="M190.83,178.578c0.264,4.903-1.991,9.62-6.281,12.069
      c-0.131,0.074-0.264,0.146-0.396,0.217"></path></g>
    <g class="st-elem-detail g-elem__388" data-id="g-elem__388" data-el-name="" data-wrap=".defect-list-nav-motor"><path class="st--elem st--none" d="M171.933,165.548c4.089-1.709,8.404-1.275,12.114,1.301"></path></g>
    <g class="st-elem-detail g-elem__389" data-id="g-elem__389" data-el-name="" data-wrap=".defect-list-nav-motor"><path class="st--elem st--none" d="M164.635,174.428c0.507-2.258,1.577-4.341,3.153-6.013"></path></g>
    <g class="st-elem-detail g-elem__390" data-id="g-elem__390" data-el-name="" data-wrap=".defect-list-nav-motor"><path class="st--elem" d="M18.52,54.484c0,0,1.737-2.734,2.371-3.608
      c0.919-1.269,2.877-3.719,3.906-4.9c0.64-0.734,1.909-2.233,2.684-2.821c0.865-0.655,2.858-1.563,3.838-2.03
      c0.687-0.329,2.067-0.998,2.802-1.199c0.412-0.113,1.269-0.22,1.697-0.22c0.492,0,1.953,0.253,1.953,0.253s-2.052,1.497-2.458,2.218
      c-0.268,0.474-0.432,1.594-0.411,2.138c0.025,0.679,0.26,2.114,0.708,2.625c1.715,1.957,3.328,1.5,3.328,1.5l3.693,0.888
      l1.723,2.354c0,0-3.504,4.525-4.045,5.184c-0.794,0.967-4.223,5.397-4.223,5.397l-11.561-4.155l-3.082-1.57L18.52,54.484z"></path></g>
    <g class="st-elem-detail g-elem__391" data-id="g-elem__391" data-el-name="" data-wrap=".defect-list-nav-motor"><polyline class="st--elem" points="82.578,15.357 85.16,15.774 93.729,18.513 95.078,19.024 
      "></polyline></g>
    <g class="st-elem-detail g-elem__392" data-id="g-elem__392" data-el-name="" data-wrap=".defect-list-nav-motor"><path class="st--elem" d="M92.127,19.406c-2.735-0.333-16.239-2.049-15.849-2.216
      s6.3-1.833,6.3-1.833l2.582,0.417l3.646,1.195l6.789,2.122C95.596,19.092,93.292,19.549,92.127,19.406z"></path></g>
    <g class="st-elem-detail g-elem__393" data-id="g-elem__393" data-el-name="" data-wrap=".defect-list-nav-motor"><polygon class="st--elem" points="115.244,135.191 121.746,135.395 130.167,148.525 
      128.785,148.525 127.525,149.597 127.088,151.062 123.474,153.041 109.33,143.378 "></polygon></g>
    <g class="st-elem-detail g-elem__394" data-id="g-elem__394" data-el-name="" data-wrap=".defect-list-nav-motor"><path class="st--elem" d="M26.784,72.591c0,0,1.825,0.17,2.875-0.996
      c0.584-0.649,1.396-2.287,1.499-3.154c0.162-1.369,0.162-2.505,0.162-2.505L45.148,75.94l-17.666-1.896L26.784,72.591z"></path></g>
</svg>