<svg version="1.1" id="side_2" xmlns="http://www.w3.org/2000/svg" xmlns:xlink="http://www.w3.org/1999/xlink" x="0px" y="0px" viewBox="0 0 104 179.3" style="enable-background:new 0 0 104 179.3;" xml:space="preserve">
  <g class="st-elem-detail g-elem__1" data-id="g-elem__1" data-el-name="" data-wrap=".defect-list-nav-car"><path class="st--elem" d="M83.2,68.4c0,0.8,0.6,1.4,1.4,1.4h8.2c0.8,0,1.4-0.6,1.4-1.4V48.7c0-0.8-0.6-1.4-1.4-1.4h-8.2
    c-0.8,0-1.4,0.6-1.4,1.4V68.4z"></path></g>
  <g class="st-elem-detail g-elem__2" data-id="g-elem__2" data-el-name="" data-wrap=".defect-list-nav-car"><path class="st--elem" d="M10,68.4c0,0.8,0.6,1.4,1.4,1.4h8.2c0.8,0,1.4-0.6,1.4-1.4V48.7c0-0.8-0.6-1.4-1.4-1.4h-8.2
    c-0.8,0-1.4,0.6-1.4,1.4V68.4z"></path></g>
  <g class="st-elem-detail g-elem__3" data-id="g-elem__3" data-el-name="" data-wrap=".defect-list-nav-car"><path class="st--elem" d="M52,37c4,0,15.9,0.4,15.9,0.4s-2,3.1-2.7,4.1c-0.2,0.3-0.5,0.9-0.7,1.1c-0.2,0.3-0.8,0.8-1.1,1
    c-1.1,0.6-3.7,1-5,1.2c-1.6,0.3-6.6,0.7-6.6,0.7s-5.7-0.7-7.5-1.1c-1-0.2-2.9-0.6-3.8-1c-0.4-0.2-1.2-0.6-1.6-0.9
    c-0.3-0.3-1-1-1.2-1.3c-0.7-1-2-4.2-2-4.2S48,36.9,52,37z"></path></g>
  <g class="st-elem-detail g-elem__4" data-id="g-elem__4" data-el-name="" data-wrap=".defect-list-nav-car"><path class="st--elem" d="M94,32.6c0,0,0.2-2.8,0-3.7c-0.1-0.4-0.8-1.5-1-1.9c-0.8-1.5-3.6-5.2-3.6-5.2s-3.9-8-5.4-10.6
    c-0.7-1.3-2.2-3.8-3-5c-0.4-0.5-1.3-1.5-1.8-2c-0.3-0.3-1.2-0.8-1.6-0.9c-0.2,0-0.3,0-0.3,0l1.6,3.5c0,0,3.3,4.8,4.4,6.8
    c1,1.8,3.8,8.3,3.8,8.3h0.3c0,0,3.1,4.4,3.8,5.9c0.3,0.6,0.7,2,1.1,2.6C92.5,31.1,94,32.6,94,32.6z"></path></g>
  <g class="st-elem-detail g-elem__5" data-id="g-elem__5" data-el-name="" data-wrap=".defect-list-nav-car"><path class="st--elem" d="M94,32.5l-1.1-3.4l-1.1-2l-3.5-4.9c0,0-2.8-6.3-3.9-8.2c-2.6-4.8-4-6.7-4-6.7l-2.8-3.8"></path></g>
  <g class="st-elem-detail g-elem__6" data-id="g-elem__6" data-el-name="" data-wrap=".defect-list-nav-car"><path class="st--elem" d="M10,32.6c0,0-0.2-2.8,0-3.7c0.1-0.4,0.8-1.5,1-1.9c0.8-1.5,3.6-5.2,3.6-5.2s3.9-8,5.4-10.6c0.7-1.3,2.2-3.8,3-5
    c0.4-0.5,1.3-1.5,1.8-2C25.1,4,26,3.5,26.4,3.4c0.2,0,0.3,0,0.3,0l-1.6,3.5c0,0-3.3,4.8-4.4,6.8c-1,1.8-3.8,8.3-3.8,8.3h-0.3
    c0,0-3.1,4.4-3.8,5.9c-0.3,0.6-0.8,2-1.1,2.6C11.4,31.1,10,32.6,10,32.6z"></path></g>
  <g class="st-elem-detail g-elem__7" data-id="g-elem__7" data-el-name="" data-wrap=".defect-list-nav-car"><path class="st--elem" d="M10,32.5l1.1-3.4l1.1-2l3.5-4.9c0,0,2.8-6.3,3.9-8.2c2.6-4.8,4-6.7,4-6.7l2.8-3.8"></path></g>
  <g class="st-elem-detail g-elem__8" data-id="g-elem__8" data-el-name="" data-wrap="defect-list-nav-car"><polygon class="st--elem" points="26.7,3.4 25.1,6.9 30.1,6.5 52,6 71.2,6.4 78.9,6.8 77.3,3.4 53.7,2.3 "></polygon></g>
  <g class="st-elem-detail g-elem__9" data-id="g-elem__9" data-el-name="" data-wrap=".defect-list-nav-car"><path class="st--elem" d="M34.5,42.6l-3-6l-13.1-3.2c0,0-1.8-0.3-2.4-0.2c-0.3,0-0.9,0.2-1.2,0.4c-0.2,0.1-0.6,0.5-0.7,0.7
    C14,34.4,13.9,35,13.9,35l-0.1,4.8c0,0,0.5,0.6,0.8,0.8c0.3,0.2,1.2,0.6,1.2,0.6L34.5,42.6z"></path></g>
  <g class="st-elem-detail g-elem__10" data-id="g-elem__10" data-el-name="" data-wrap=".defect-list-nav-car"><path class="st--elem" d="M69.7,42.6l2.9-6l13.2-3.2c0,0,1.8-0.3,2.4-0.2c0.3,0,0.9,0.2,1.2,0.4c0.2,0.1,0.6,0.5,0.7,0.7
    c0.1,0.2,0.3,0.8,0.3,0.8l0.1,4.8c0,0-0.5,0.6-0.8,0.8c-0.3,0.2-1.2,0.6-1.2,0.6L69.7,42.6z"></path></g>
  <g class="st-elem-detail g-elem__11" data-id="g-elem__11" data-el-name="" data-wrap=".defect-list-nav-car"><path class="st--elem" d="M9.9,39.9l0.2,8.1c0,0,1,5,1.4,6.6c0.3,1,0.9,4.1,2.2,5.4c1.3,1.3,3.3,1.5,3.3,1.5h70.5c0,0,2,0.1,3.1-1.6
    c1.1-1.6,1.4-3.8,1.6-4.9c0.5-1.9,1.8-7.6,1.8-7.6v-7.1h-4l-1.2,0.7l-1.2,0.4l-18,1.2l2.8-5.9L68,37.4c0,0-1.9,3.3-2.6,4.3
    c-0.4,0.5-1.3,1.6-1.9,1.9c-2.6,1.3-11.5,2-11.5,2s-8.7-1-11.4-2.1c-0.6-0.3-1.8-1-2.2-1.5c-0.9-1-2.6-4.9-2.6-4.9l-4.1-0.5l2.9,6
    l-18.8-1.4l-1.2-0.6l-0.8-0.7L9.9,39.9z"></path></g>
  <g class="st-elem-detail g-elem__12" data-id="g-elem__12" data-el-name="" data-wrap=".defect-list-nav-car"><path class="st--elem" d="M31.3,50.6h41.5c0,0-0.2,2.5-1.6,3.8c-1.4,1.4-5,2-5,2H37.9c0,0-3.5-0.5-4.9-1.9C31.6,53.2,31.3,50.6,31.3,50.6
    z"></path></g>
  <g class="st-elem-detail g-elem__13" data-id="g-elem__13" data-el-name="" data-wrap=".defect-list-nav-car"><path class="st--elem" d="M73.1,36.6c0,0,0.5-1.6,2.7-4c2.2-2.4,3.9-3.7,6.4-5.6c2.5-1.9,4.4-2.8,4.4-2.8l0.6-2h0.5c0,0,2.5,3.6,3.1,4.8
    c0.5,1,1.2,3.1,1.8,4c0.3,0.5,1.6,1.6,1.6,1.6v7.6h-3.8l-0.1-5.1c0,0,0-1.1-1.2-1.7c-0.9-0.5-2.1-0.2-2.8-0.1
    C82.7,33.6,73.1,36.6,73.1,36.6z"></path></g>
  <g class="st-elem-detail g-elem__14" data-id="g-elem__14" data-el-name="" data-wrap=".defect-list-nav-car"><path class="st--elem" d="M31.5,36.6c0,0-1-1.6-3.2-4c-2.2-2.4-3.9-3.7-6.4-5.6c-2.5-1.9-4.4-2.8-4.4-2.8l-0.6-2h-0.3
    c0,0-2.7,3.6-3.3,4.8c-0.5,1-1.2,3.1-1.8,4c-0.3,0.5-1.6,1.6-1.6,1.6v7.6h3.8l0.1-5.1c0,0,0-1.1,1.2-1.7c0.9-0.5,2.1-0.2,2.8-0.1
    C21.4,33.6,31.5,36.6,31.5,36.6z"></path></g>
  <g class="st-elem-detail g-elem__15" data-id="g-elem__15" data-el-name="" data-wrap=".defect-list-nav-car"><path class="st--elem" d="M17.8,24.1c0,0,15.8-0.6,34.8-0.6c19,0,33.7,0.6,33.7,0.6l-0.1,0.2l-2.8,1.7l-3,2.3l-3,2.6l-2.5,2.7l-2.3,2.9
    L68,37.4C68,37.4,56,37,52,37c-4.1,0-16.3,0.1-16.3,0.1l-4.2-0.5c0,0-3.4-4.3-4.7-5.6c-1.1-1.1-3.6-3.1-4.8-4
    c-1-0.7-3.8-2.4-4.3-2.8C17.6,24.1,17.8,24.1,17.8,24.1z"></path></g>
  <g class="st-elem-detail g-elem__16" data-id="g-elem__16" data-el-name="" data-wrap=".defect-list-nav-car"><path class="st--elem" d="M25.1,6.9c0,0,5.5-0.9,25.2-0.9s28.6,0.8,28.6,0.8s1.1,0.9,4.3,7c3.4,6.3,3.9,8.3,3.9,8.3l-0.6,2
    c0,0-19-0.6-36.2-0.6c-17.2,0-32.8,0.6-32.8,0.6l-0.6-2c0,0,1.3-3.7,3.8-8.3C23.2,9.2,25.1,6.9,25.1,6.9z"></path></g>
  <g class="st-elem-detail g-elem__17" data-id="g-elem__17" data-el-name="" data-wrap=".defect-list-nav-car"><path class="st--elem" d="M30.1,3c0,0,0.5,0.6,0.7,0.7c0.6,0.4,2.1,0.6,2.8,0.7c4.5,0.4,7.1,0,18,0c10.9,0,14.6,0.4,19.4,0
    c0.5-0.1,1.6-0.2,2.1-0.5c0.3-0.2,1-0.9,1-0.9S62.7,2.3,51.6,2.3C40.4,2.3,30.1,3,30.1,3z"></path></g>
  <g class="st-elem-detail g-elem__18" data-id="g-elem__18" data-el-name="" data-wrap=".defect-list-nav-car"><path class="st--elem" d="M92.6,19.7h7c0,0,1.9,1.2,1.9,2.8c0,1.6-1.4,2.7-1.4,2.7l-5.4,1.5l-3.9,0.4l-3.2-5.1l2.1,0.4l2,0.9l-0.1-2.5
    c0,0,0.2-0.7,0.4-0.9C92.1,19.9,92.6,19.7,92.6,19.7z"></path></g>
  <g class="st-elem-detail g-elem__19" data-id="g-elem__19" data-el-name=""><polyline class="st--elem" points="91.7,23.5 92.3,25.2 92.6,25.7 94.7,25.7 95.2,26.7 "></polyline></g>
  <g class="st-elem-detail g-elem__20" data-id="g-elem__20" data-el-name="" data-wrap=".defect-list-nav-car"><path class="st--elem" d="M11.4,19.7h-7c0,0-1.9,1.2-1.9,2.8c0,1.6,1.4,2.7,1.4,2.7l5.4,1.5l3.9,0.4l3.5-5.1l-2.3,0.4l-2,0.9l0.1-2.5
    c0,0-0.2-0.7-0.4-0.9C11.9,19.9,11.4,19.7,11.4,19.7z"></path></g>
  <g class="st-elem-detail g-elem__21" data-id="g-elem__21" data-el-name=""><polyline class="st--elem" points="8.9,26.7 9.3,25.7 11.5,25.8 11.9,25.7 12.4,23.5 "></polyline></g>
  <g class="st-elem-detail g-elem__22" data-id="g-elem__22" data-el-name="" data-wrap="defect-list-nav-car"><polygon class="st--elem" points="65.1,166 83.4,169.4 83.4,156.8 21.2,156.8 21.2,169.4 39.3,166 "></polygon></g>
  <g class="st-elem-detail g-elem__23" data-id="g-elem__23" data-el-name="" data-wrap=".defect-list-nav-car"><path class="st--elem" d="M79.6,163.4c0,0-2.8,2.1-3.8,2.5c-0.7,0.3-2.3,0.7-3.1,0.6c-0.9-0.1-2.8-0.8-3.6-1.3c-0.3-0.2-0.9-0.9-1-1.3
    c-0.1-0.4,0-1.1,0-1.5c0.1-0.7,0.4-2.7,0.4-2.7h3.7L79.6,163.4z"></path></g>
  <g class="st-elem-detail g-elem__24" data-id="g-elem__24" data-el-name="" data-wrap=".defect-list-nav-car"><path class="st--elem" d="M24.4,163.4c0,0,2.8,2.1,3.8,2.5c0.7,0.3,2.3,0.7,3.1,0.6c0.9-0.1,2.8-0.8,3.6-1.3c0.3-0.2,0.9-0.9,1-1.3
    c0.1-0.4,0-1.1,0-1.5c-0.1-0.7-0.4-2.7-0.4-2.7h-3.7L24.4,163.4z"></path></g>
  <g class="st-elem-detail g-elem__25" data-id="g-elem__25" data-el-name=""><ellipse class="st--elem" cx="77" cy="160.8" rx="5.1" ry="3.1"></ellipse></g>
  <g class="st-elem-detail g-elem__26" data-id="g-elem__26" data-el-name=""><ellipse class="st--elem" cx="77.5" cy="160.5" rx="3" ry="2.2"></ellipse></g>
  <g class="st-elem-detail g-elem__27" data-id="g-elem__27" data-el-name=""><ellipse class="st--elem" cx="27.3" cy="160.8" rx="5.1" ry="3.1"></ellipse></g>
  <g class="st-elem-detail g-elem__28" data-id="g-elem__28" data-el-name="" data-wrap=".defect-list-nav-car"><path class="st--elem" d="M83.4,175.1c0,0.8,0.6,1.4,1.4,1.4h8.2c0.8,0,1.4-0.6,1.4-1.4v-19.7c0-0.8-0.6-1.4-1.4-1.4h-8.2
    c-0.8,0-1.4,0.6-1.4,1.4V175.1z"></path></g>
  <g class="st-elem-detail g-elem__29" data-id="g-elem__29" data-el-name="" data-wrap=".defect-list-nav-car"><path class="st--elem" d="M10.2,175.1c0,0.8,0.6,1.4,1.4,1.4h8.2c0.8,0,1.4-0.6,1.4-1.4v-19.7c0-0.8-0.6-1.4-1.4-1.4h-8.2
    c-0.8,0-1.4,0.6-1.4,1.4V175.1z"></path></g>
  <g class="st-elem-detail g-elem__30" data-id="g-elem__30" data-el-name="" data-wrap=".defect-list-nav-car"><path class="st--elem" d="M28.3,113.2c1.4-0.5,4.5-0.4,5.9-0.6c4.3-0.4,9.4-0.8,17.3-0.8c7.9,0,14.2,0.3,18.9,0.7
    c1.4,0.1,4.3,0.2,5.6,0.7c0.4,0.2,1.1,0.7,1.3,1c1.8,2.2,4.9,10.3,4.9,10.3v0.7h-9.1c0,0-9.6,0-20.5,0c-10.9,0-21.1,0-21.1,0h-9.7
    c0,0-0.1,0-0.1-0.1c0.3-0.9,2.9-8.6,4.7-10.8C26.9,113.9,27.8,113.4,28.3,113.2z"></path></g>
  <g class="st-elem-detail g-elem__31" data-id="g-elem__31" data-el-name="" data-wrap=".defect-list-nav-car"><path class="st--elem" d="M81.3,127.7l1-2.1L52,125.2H21.9l0,0.1l1,2.4l0.1,3.5l10.6,12.5c0,0,1,0.4,1.3,0.5H51h18.2
    c0.5-0.1,1.9-0.7,1.9-0.7l10.1-11.8L81.3,127.7z"></path></g>
  <g class="st-elem-detail g-elem__32" data-id="g-elem__32" data-el-name="" data-wrap=".defect-list-nav-car"><path class="st--elem" d="M22.8,127.7c0,0,4-0.8,29.2-0.8c25.2,0,29.3,0.8,29.3,0.8"></path></g>
  <g class="st-elem-detail g-elem__33" data-id="g-elem__33" data-el-name="" data-wrap=".defect-list-nav-car"><path class="st--elem" d="M61.9,141.1c-0.4,0.5-1.6,1.4-2.4,1.4H44.4c-0.8,0-2-0.9-2.4-1.4c-1.5-1.8-4.6-8.3-4.6-8.3
    c0-0.8,0.6-1.4,1.4-1.4h26.7c0.8,0,1.4,0.6,1.4,1.4C66.9,132.8,63.5,139.3,61.9,141.1z"></path></g>
  <g class="st-elem-detail g-elem__34" data-id="g-elem__34" data-el-name=""><rect x="44.1" y="133.7" class="st--elem" width="15.9" height="6.9"></rect></g>
  <g class="st-elem-detail g-elem__35" data-id="g-elem__35" data-el-name="" data-wrap=".defect-list-nav-car"><path class="st--elem" d="M9.7,145.8l4.1-0.7l2.1-3.6l1.1,0.4l15.4,0.3l1.3,1.5l1.7,0.5h33.9l1.9-0.7l1.3-1.3l12-0.2l3.3-0.1l0.3-0.4
    l2,3.6l4.1,0.8v6.9c0,0-1,8.1-2.2,10.5c-0.2,0.4-0.9,1.2-1.3,1.4c-0.6,0.3-2,0.6-2.6,0.4c-0.8-0.3-1.6-1.9-2.3-2.4
    c-0.4-0.3-1.3-0.8-1.8-1c-0.4-0.1-1.8-0.2-1.8-0.2s-0.8-3.6-4.4-3.6c-3.6,0-4.8,4-4.8,4H31.3c0,0-0.5-4-4.8-4s-4.2,3.9-4.2,3.9
    s-0.7-0.1-1,0c-0.9,0.2-1.9,0.5-2.6,1c-0.5,0.4-2,2.2-2.7,2.4c-0.6,0.2-1.9,0.3-2.4,0c-0.4-0.2-1-1-1.2-1.4
    c-0.6-1.2-2.6-10.4-2.6-10.4L9.7,145.8z"></path></g>
  <g class="st-elem-detail g-elem__36" data-id="g-elem__36" data-el-name="" data-wrap=".defect-list-nav-car"><path class="st--elem" d="M28.3,113.2l-1.3-3.5c0,0,8.2-1.2,22.5-1.2c14.3,0,27,1.4,27,1.4l-0.8,3.2c0,0-10.2-0.7-25.8-0.7
    C34.2,112.4,28.3,113.2,28.3,113.2z"></path></g>
  <g class="st-elem-detail g-elem__37" data-id="g-elem__37" data-el-name="" data-wrap=".defect-list-nav-car"><path class="st--elem" d="M15.8,141.5c-0.3-0.2-0.6-0.9-0.7-1.2c-0.1-0.3-0.2-1.2-0.2-1.2v-4.3c0,0,0.3-1,0.5-1.3
    c0.2-0.3,0.9-0.9,1.2-1.1c0.4-0.2,1.7-0.7,1.7-0.7h4.4h0.6l9,10.5l-15.4-0.3C16.9,141.9,16,141.7,15.8,141.5z"></path></g>
  <g class="st-elem-detail g-elem__38" data-id="g-elem__38" data-el-name="" data-wrap=".defect-list-nav-car"><path class="st--elem" d="M88,141.5c0.3-0.2,0.6-0.9,0.7-1.2c0.1-0.3,0.2-1.2,0.2-1.2v-4.3c0,0-0.3-1-0.5-1.3c-0.2-0.3-0.9-0.9-1.2-1.1
    c-0.4-0.2-1.7-0.7-1.7-0.7h-3.8h-1.1l-8.5,10.5l14.7-0.3C86.9,141.9,87.8,141.7,88,141.5z"></path></g>
  <g class="st-elem-detail g-elem__39" data-id="g-elem__39" data-el-name="" data-wrap=".defect-list-nav-car"><path class="st--elem" d="M27,109.7c0,0-1.5,0.1-1.9,0.4c-0.4,0.2-1,1.3-1,1.3v1.6c0,0-3.6,5.8-4.7,7.9c-1,1.8-3.7,7.5-3.7,7.5
    s3.1,0.1,4.1,0.5c1,0.4,3.4,2.7,3.4,2.7l-0.2-3.6l-1.1-2.4c0,0,0-0.1,0.1-0.2c0.3-0.9,1.8-5.2,2.5-6.7c0.4-0.9,1.2-2.7,1.8-3.5
    c0.2-0.3,0.6-0.8,0.9-1c0.3-0.2,1.3-0.8,1.3-0.8L27,109.7z"></path></g>
  <g class="st-elem-detail g-elem__40" data-id="g-elem__40" data-el-name="" data-wrap=".defect-list-nav-car"><path class="st--elem" d="M14.6,128.5c0,0,2.1-5.2,4.1-8.6c2.7-4.6,5.4-8.6,5.4-8.6v1.6c0,0-2.9,4.8-4.6,7.6c-1.7,2.8-3.8,7.7-3.8,7.7
    L14.6,128.5z"></path></g>
  <g class="st-elem-detail g-elem__41" data-id="g-elem__41" data-el-name="" data-wrap=".defect-list-nav-car"><path class="st--elem" d="M9.7,145.8v-8.4c0,0,0.3-2.2,0.6-2.9c0.1-0.3,0.7-1.7,0.9-2c0.5-0.9,1.8-3,1.8-3s1-0.5,1.3-0.6
    c0.3-0.1,1-0.3,1.4-0.3c0.7-0.1,2.2-0.1,2.9,0c0.3,0,0.9,0.1,1.2,0.3c1,0.5,3.4,2.7,3.4,2.7l0.2,0.2h-5l-1.7,0.7l-1.2,1.1l-0.5,1.3
    l0.1,5l0.4,1.1l0.4,0.6l-2.1,3.6L9.7,145.8z"></path></g>
  <g class="st-elem-detail g-elem__42" data-id="g-elem__42" data-el-name="" data-wrap=".defect-list-nav-car"><path class="st--elem" d="M10.3,126c-0.6,0-5.4,0-6,0c-0.6,0-1.9,1.2-1.9,2.8c0,1.6,1.4,2.7,1.4,2.7l5.4,1.5l1.4,0.4l2.6-4.2l0,0l-1,0.5
    c0,0,0.1-1,0.1-1.6c0-0.5-0.1-0.9-0.4-1.2C11.7,126.5,10.9,126,10.3,126z"></path></g>
  <g class="st-elem-detail g-elem__43" data-id="g-elem__43" data-el-name="" data-wrap=".defect-list-nav-car"><path class="st--elem" d="M11.5,129.8c0,0.8-0.6,1.4-1.4,1.4H5.2c-0.8,0-1.4-0.6-1.4-1.4v-1.5c0-0.8,0.6-1.4,1.4-1.4h4.8
    c0.8,0,1.4,0.6,1.4,1.4V129.8z"></path></g>
  <g class="st-elem-detail g-elem__44" data-id="g-elem__44" data-el-name="" data-wrap=".defect-list-nav-car"><path class="st--elem" d="M76.8,109.6c0,0,1.5,0.1,1.9,0.4c0.4,0.2,1,1.3,1,1.3v1.6c0,0,3.6,5.8,4.7,7.9c1,1.8,3.7,7.5,3.7,7.5
    s-3.1,0.1-4.1,0.5c-1,0.4-3.4,2.7-3.4,2.7l0.2-3.6l1.1-2.4c0,0,0-0.1-0.1-0.2c-0.3-0.9-1.8-5.2-2.5-6.7c-0.4-0.9-1.2-2.7-1.8-3.5
    c-0.2-0.3-0.6-0.8-0.9-1c-0.3-0.2-1.3-0.8-1.3-0.8L76.8,109.6z"></path></g>
  <g class="st-elem-detail g-elem__45" data-id="g-elem__45" data-el-name="" data-wrap=".defect-list-nav-car"><path class="st--elem" d="M89.2,128.5c0,0-2.1-5.2-4.1-8.6c-2.7-4.6-5.4-8.6-5.4-8.6v1.6c0,0,2.9,4.8,4.6,7.6c1.7,2.8,3.8,7.7,3.8,7.7
    L89.2,128.5z"></path></g>
  <g class="st-elem-detail g-elem__46" data-id="g-elem__46" data-el-name="" data-wrap=".defect-list-nav-car"><path class="st--elem" d="M94,145.8v-8.4c0,0-0.3-2.2-0.5-2.9c-0.1-0.3-0.7-1.7-0.9-2c-0.5-0.9-1.8-3-1.8-3s-1-0.5-1.3-0.6
    c-0.3-0.1-1-0.3-1.4-0.3c-0.7-0.1-2.2-0.1-2.9,0c-0.3,0-0.9,0.1-1.2,0.3c-1,0.5-3.4,2.7-3.4,2.7l-0.1,0.2h4.9c0,0,1.3,0.4,1.7,0.7
    c0.4,0.2,1,0.8,1.2,1.1c0.2,0.3,0.4,0.9,0.5,1.3c0.2,1.2,0.1,3.8-0.1,5c-0.1,0.3-0.3,0.9-0.4,1.1c-0.1,0.2-0.4,0.6-0.4,0.6l2.1,3.6
    L94,145.8z"></path></g>
  <g class="st-elem-detail g-elem__47" data-id="g-elem__47" data-el-name="" data-wrap=".defect-list-nav-car"><path class="st--elem" d="M93.4,126c0.6,0,5.4,0,6,0c0.6,0,1.9,1.2,1.9,2.8c0,1.6-1.4,2.7-1.4,2.7l-5.4,1.5l-1.4,0.4l-2.6-4.2l0,0l1,0.5
    c0,0-0.1-1-0.1-1.6c0-0.5,0.1-0.9,0.4-1.2C92,126.5,92.8,126,93.4,126z"></path></g>
  <g class="st-elem-detail g-elem__48" data-id="g-elem__48" data-el-name="" data-wrap=".defect-list-nav-car"><path class="st--elem" d="M92.3,129.8c0,0.8,0.6,1.4,1.4,1.4h4.8c0.8,0,1.4-0.6,1.4-1.4v-1.5c0-0.8-0.6-1.4-1.4-1.4h-4.8
    c-0.8,0-1.4,0.6-1.4,1.4V129.8z"></path></g>
  <g class="st-elem-detail g-elem__49" data-id="g-elem__49" data-el-name="" data-wrap=".defect-list-nav-car"><path class="st--elem" d="M13.2,134.7c0.6-1.6,1.8-2.7,1.3-2.9c-0.5-0.2-1.2,0.3-2.1,2.4c-0.6,1.4-0.8,3.2-0.3,3.3
    C12.7,137.7,12.6,136.2,13.2,134.7z"></path></g>
  <g class="st-elem-detail g-elem__50" data-id="g-elem__50" data-el-name="" data-wrap=".defect-list-nav-car"><path class="st--elem" d="M34.9,165.2c0,0,2.4,2.1,3.4,2.5c0.4,0.2,1.4,0.3,1.9,0.4c0.9,0.1,2.7,0.2,3.6,0c0.5-0.1,1.5-0.6,2-0.9
    c0.2-0.1,0.9-0.5,0.9-0.5s0.6,0.4,0.8,0.4c2.3,0.6,7.2,0.8,9.3-0.1c0.2-0.1,1-0.5,1-0.5s1.6,1.3,2.3,1.5c1,0.3,3.3,0.3,4.3,0
    c0.4-0.1,1.1-0.6,1.5-0.8c0.8-0.5,3.1-2.3,3.1-2.3s-0.6-0.7-0.8-1c-0.1-0.3-0.1-1.2-0.1-1.2l-3.5,2.4H39.1l-3-2.4
    c0,0-0.2,1.1-0.3,1.4C35.7,164.5,34.9,165.2,34.9,165.2z"></path></g>
  <g class="st-elem-detail g-elem__51" data-id="g-elem__51" data-el-name=""><ellipse class="st--elem" cx="41.6" cy="165.3" rx="2.5" ry="0.7"></ellipse></g>
  <g class="st-elem-detail g-elem__52" data-id="g-elem__52" data-el-name=""><ellipse class="st--elem" cx="62.2" cy="165.3" rx="2.5" ry="0.7"></ellipse></g>
  <g class="st-elem-detail g-elem__53" data-id="g-elem__53" data-el-name=""><ellipse class="st--elem" cx="26.7" cy="160.5" rx="3" ry="2.2"></ellipse></g>
</svg>