<svg version="1.1" xmlns="http://www.w3.org/2000/svg" xmlns:xlink="http://www.w3.org/1999/xlink" x="0px" y="0px"  viewBox="0 0 114.63 203.8"  style="enable-background:new 0 0 114.63 203.8;">
<title>suv_front_back</title>
<g class="st-elem-detail"><path class="st--elem" d="M98,51.1h0a7.45,7.45,0,0,0-7.4,7.4V83.9A7.45,7.45,0,0,0,98,91.3h0a7.45,7.45,0,0,0,7.4-7.4V58.4A7.36,7.36,0,0,0,98,51.1Z"/></g>
<g class="st-elem-detail"><path class="st--elem" d="M14.57,51.1h0a7.45,7.45,0,0,0-7.4,7.4V83.9a7.45,7.45,0,0,0,7.4,7.4h0A7.45,7.45,0,0,0,22,83.9V58.4A7.49,7.49,0,0,0,14.57,51.1Z"/></g>
<g class="st-elem-detail"><path class="st--elem" d="M9.57,71.7l-1.2-9.2L7.17,48l3.8.2,13.4.7s3.1,2.1,4.8,3.1a15.08,15.08,0,0,0,8,2.1H72a60.09,60.09,0,0,0,6.7-.5c3.2-.6,4.1-1.4,4.1-1.4l5.6-3.3,17.2-.9-2.9,23.4Z"/></g>
<g class="st-elem-detail"><path class="st--elem" d="M13.67,67.8V62.4a1.58,1.58,0,0,1,1.6-1.6h6.8a5.83,5.83,0,0,1,2.6.6l5.5,2.8h52.1l6.8-3a6,6,0,0,1,2.4-.5h6A1.54,1.54,0,0,1,99,62.2v5.7a2.26,2.26,0,0,1-2.3,2.3H16.07A2.37,2.37,0,0,1,13.67,67.8Z"/></g>
<g class="st-elem-detail"><polygon class="st--elem" points="10.87 79.2 32.57 79.2 36.17 77 75.27 77 79.97 79.2 101.77 79.2 102.77 71.4 9.57 71.7 10.87 79.2"/></g>
<g class="st-elem-detail"><path class="st--elem" d="M28.07,67.3l.1-1.1a2.62,2.62,0,0,0-1-2.3s-3.7-2.1-4.9-2.1h-5.8A1.54,1.54,0,0,0,15,63.3v3.9a1.54,1.54,0,0,0,1.5,1.5h10.1A1.52,1.52,0,0,0,28.07,67.3Z"/></g>
<g class="st-elem-detail"><path class="st--elem" d="M84.87,67.3l-.1-1.1a2.62,2.62,0,0,1,1-2.3s4.4-2.1,5.5-2.1h5.1a1.54,1.54,0,0,1,1.5,1.5v3.9a1.54,1.54,0,0,1-1.5,1.5H86.27A1.37,1.37,0,0,1,84.87,67.3Z"/></g>
<g class="st-elem-detail"><path class="st--elem" d="M88.37,48.8s.3-4.2.4-7.5a17.42,17.42,0,0,1,.5-4.8,6,6,0,0,1,3.3-2.9l5.2-1.3c1.4-.4,2.6.4,3.2,1.9a8,8,0,0,1,.5,2l.3,11.9Z"/></g>
<g class="st-elem-detail"><path class="st--elem" d="M105.67,47.9V41.6l-3.1-11.1-1.7-3.2h-1.1l-.5-1.2-1.4.8,2.1,2.9-7.3,3.8s2.9-.7,5.2-1.3c2.6-.6,3.4,2.3,3.5,3a7,7,0,0,1,.2,1.6c0,1.9.3,11.1.3,11.1Z"/></g>
<g class="st-elem-detail"><path class="st--elem" d="M84.77,40.1h4.4s.4-4.1,1.1-4.9a9.35,9.35,0,0,1,2.4-1.6l7.3-3.8-2.1-2.9,1.5-.8h-3.9l-5.9,1.4-4.8-1.4s-10.8-1-28.6-1-28.7,1-28.7,1l-5.3,1.5-5.4-1.5h-3.6l1.8.8-2.1,2.9,7,3.7a10.94,10.94,0,0,1,3.1,2c1.1,1.4,1,4.5,1,4.5h4.1s3.7-2.7,6.9-2.7,39.8.2,42.9.2S84.77,40.1,84.77,40.1Z"/></g>
<g class="st-elem-detail"><path class="st--elem" d="M24.47,48.8s-.3-4.2-.4-7.5a17.42,17.42,0,0,0-.5-4.8,6,6,0,0,0-3.3-2.9l-5.2-1.3c-1.4-.4-2.6.4-3.2,1.9a8,8,0,0,0-.5,2l-.3,11.9Z"/></g>
<g class="st-elem-detail"><path class="st--elem" d="M7.17,47.9V41.6l3.1-11.1L12,27.3h1l.5-1.2,1.5.8-2.1,2.9,6.3,3.4s-1.9-.3-4.2-.8c-2.6-.6-3.4,2.3-3.5,3a7,7,0,0,0-.2,1.6c0,1.9-.3,11.1-.3,11.1Z"/></g>
<g class="st-elem-detail"><path class="st--elem" d="M84.77,40.1v8.7s-1.7,3.5-9.1,4c-6.6.5-29.6,0-37.6,0s-10-4-10-4V40.1s3.6-2.7,6.9-2.7,39.1.3,42.9.2C81.17,37.6,84.77,40.1,84.77,40.1Z"/></g>
<g class="st-elem-detail"><path class="st--elem" d="M28.07,40.1v8.7s2.1,4,10,4h35.7c9.3,0,11-4,11-4V40.1h4.4l-.7,8.7L82,52.7s-2.7,1.3-8.9,1.3H37.27c-3.1,0-5.2-.3-9.4-3-.9-.6-3.4-2.2-3.4-2.2l-.4-8.2v-.5Z"/></g>
<g class="st-elem-detail"><path class="st--elem" d="M16.87,26.2l5.8-17.5a6.37,6.37,0,0,0,.2-.7,2.77,2.77,0,0,1,1.8-1.7l.5-.1a16.5,16.5,0,0,1,2.9-4.8h-3.7a2.63,2.63,0,0,0-2.2,1.3,68.09,68.09,0,0,0-4.7,9.9l-4.3,10.6h1.3l-.9,3Z"/></g>
<g class="st-elem-detail"><path class="st--elem" d="M95.57,26.2,89.77,8.7a6.37,6.37,0,0,1-.2-.7,2.77,2.77,0,0,0-1.8-1.7l-.5-.1a17.58,17.58,0,0,0-2.9-4.8h3.7a2.63,2.63,0,0,1,2.2,1.3A68.09,68.09,0,0,1,95,12.6l4.3,10.6H98l1.3,3Z"/></g>
<g class="st-elem-detail"><path class="st--elem" d="M25.17,6.2s16.4-.6,31.3-.6,30.8.6,30.8.6A3,3,0,0,1,89.57,8c.6,1.6,6,18.1,6,18.1l-5.9,1.4-4.8-1.4s-15.3-.9-28.3-.9-28.9.9-28.9.9l-5.3,1.5L17,26.1s5.1-15,5.8-17.5S25.17,6.2,25.17,6.2Z"/></g>
<g class="st-elem-detail"><path class="st--elem" d="M28.07,1.4S35,.5,56.47.5s27.9.9,27.9.9,1.3,1.7,1.7,2.3a24.46,24.46,0,0,1,1.2,2.5s-17.9-.6-30.8-.6-31.3.6-31.3.6l1.2-2.4C26.77,3.2,28.07,1.4,28.07,1.4Z"/></g>
<g class="st-elem-detail"><path class="st--elem" d="M98,23.2h3.8l.9-3.2a.76.76,0,0,1,.8-.6l6.6.2a1.38,1.38,0,0,1,1.3,1l.7,2.3a2.92,2.92,0,0,1,.1,1.6v.3a1.06,1.06,0,0,1-.9.9l-10.4,1.7h-1.1Z"/></g>
<g class="st-elem-detail"><path class="st--elem" d="M14.77,23.2H11l-.9-3.2a.76.76,0,0,0-.8-.6l-6.6.2a1.38,1.38,0,0,0-1.3,1l-.7,2.3a2.92,2.92,0,0,0-.1,1.6v.3a1.06,1.06,0,0,0,.9.9l10.4,1.7H13Z"/></g>
<g class="st-elem-detail"><polygon class="st--elem" points="33.67 78.6 78.47 78.6 75.27 77 36.17 77 33.67 78.6"/></g>
<g class="st-elem-detail"><path class="st--elem" d="M99.87,163.1h0a7.45,7.45,0,0,0-7.4,7.4v25.4a7.45,7.45,0,0,0,7.4,7.4h0a7.45,7.45,0,0,0,7.4-7.4V170.5A7.38,7.38,0,0,0,99.87,163.1Z"/></g>
<g class="st-elem-detail"><path class="st--elem" d="M16.47,163.1h0a7.45,7.45,0,0,0-7.4,7.4v25.4a7.45,7.45,0,0,0,7.4,7.4h0a7.45,7.45,0,0,0,7.4-7.4V170.5A7.51,7.51,0,0,0,16.47,163.1Z"/></g>
<g class="st-elem-detail"><path class="st--elem" d="M99.87,135.4h3.8l.9-3.2a.76.76,0,0,1,.8-.6l6.6.2a1.38,1.38,0,0,1,1.3,1l.7,2.3a2.92,2.92,0,0,1,.1,1.6v.3a1.06,1.06,0,0,1-.9.9l-10.4,1.7h-1.1Z"/></g>
<g class="st-elem-detail"><path class="st--elem" d="M16.37,135.4h-3.8l-.9-3.2a.76.76,0,0,0-.8-.6l-6.5.2a1.22,1.22,0,0,0-1,.6,2,2,0,0,0-.4.8l-.5,1.4a5.66,5.66,0,0,0-.3,1.8v.6a1.06,1.06,0,0,0,.9.9l10.4,1.7h1.1Z"/></g>
<g class="st-elem-detail"><path class="st--elem" d="M21.37,138.7l-.6,19.1-.1,11a1.57,1.57,0,0,0,1.7,1.4l71.5-.1a1.58,1.58,0,0,0,1.6-1l-.1-11.3-.8-19-73.2-.1Z"/></g>
<g class="st-elem-detail"><path class="st--elem" d="M12.57,179.7l3.4-1.1a3.4,3.4,0,0,1,1.4-.2h81.5a5.9,5.9,0,0,1,1.4.2l3.4,1.1,2.4-6.4a15.49,15.49,0,0,0-6.1-1.8H16.47a17.48,17.48,0,0,0-6.6,1.6Z"/></g>
<g class="st-elem-detail"><path class="st--elem" d="M16.77,138.7h-1.7a2.08,2.08,0,0,0-1.9,1.1l-4.3,13.1a3.33,3.33,0,0,0-.2,1.7L10,173.2s2-.8,2.7-1a20.68,20.68,0,0,1,3.9-.6h83.5c2.5,0,6.1,1.8,6.1,1.8l1-19.6a4.68,4.68,0,0,0-.2-1.6l-3.8-11.7a8.27,8.27,0,0,0-.7-1.3c-.7-.7-1.2-.6-2.2-.6h-5.6v1h2.9a2.74,2.74,0,0,1,1.8.6c.7.6,1.6,3,1.8,4.6l.7,10.1s.4,2.9-2.2,2.9c-3,0-4.3-.1-4.3-.1l.1,11.3s-.1.9-1.6,1-69.9.1-71.5.1-1.7-1.4-1.7-1.4l.1-11-4.3.1a2.24,2.24,0,0,1-2.3-2.5c0-2,.6-8.5.8-11.1a6.64,6.64,0,0,1,.6-2l.8-1.5a2.14,2.14,0,0,1,1.9-1.1l3,.1v-1.1l-4.5.1Z"/></g>
<g class="st-elem-detail"><path class="st--elem" d="M43.27,149.5a2.27,2.27,0,0,1,.6-1.6,3.4,3.4,0,0,1,2.5-.9h22.4c2.3,0,2.9.4,3.3,1a2.5,2.5,0,0,1,.4,1.4,12.43,12.43,0,0,1-.6,2h-1.2l-1.5,8s-.4,1.9-4.1,1.9H50.17a6.33,6.33,0,0,1-3.8-1.3,2.28,2.28,0,0,1-.6-1.2l-1.5-7.4h-1C43.47,151.5,43.37,150,43.27,149.5Z"/></g>
<g class="st-elem-detail"><path class="st--elem" d="M21.27,139.7l-.5,18.1s-1.9.1-4.3.1a2.31,2.31,0,0,1-2.3-2.5l.8-11.1a6.45,6.45,0,0,1,.6-2c.5-1,.8-1.5.8-1.5a2.26,2.26,0,0,1,1.9-1.1A26.35,26.35,0,0,1,21.27,139.7Z"/></g>
<g class="st-elem-detail"><path class="st--elem" d="M94.67,139.6l.7,18.1s1.9.1,4.3.1a2.31,2.31,0,0,0,2.3-2.5l-.8-11.1s-.2-1-.4-1.7a6.68,6.68,0,0,0-.9-1.9,2.34,2.34,0,0,0-2.2-1.1C96.37,139.6,94.67,139.6,94.67,139.6Z"/></g>
<g class="st-elem-detail"><polygon class="st--elem" points="91.17 118.3 94.67 138.7 21.37 138.7 24.97 118.3 91.17 118.3"/></g>
<g class="st-elem-detail"><path class="st--elem" d="M13.17,139.7l9.4-23.4a3.89,3.89,0,0,0,1.1,1.5,2.23,2.23,0,0,0,1.3.5l-3.6,20.4h-6.2A2,2,0,0,0,13.17,139.7Z"/></g>
<g class="st-elem-detail"><path class="st--elem" d="M91.17,118.3H25a3.25,3.25,0,0,1-1.3-.4,3.38,3.38,0,0,1-1.1-1.6l.7-1.2a4.2,4.2,0,0,1,2.9-1.9c4.2-.4,15.2-1.4,32-1.4,16.6,0,26.9.7,31,1a4.32,4.32,0,0,1,3.3,1.7l.9,1.4c.1.2,0,.4,0,.6a7.44,7.44,0,0,1-.9,1.2A2.2,2.2,0,0,1,91.17,118.3Z"/></g>
<g class="st-elem-detail"><path class="st--elem" d="M102.77,139.7l-9.4-23.4a3.89,3.89,0,0,1-1.1,1.5,2.23,2.23,0,0,1-1.3.5l3.6,20.4h6.2A2.36,2.36,0,0,1,102.77,139.7Z"/></g>
<g class="st-elem-detail"><path class="st--elem" d="M8.77,137.1l2.9-1.5-.7-2.9c-.1-.3-.4-.6-.7-.5l-5.7.1a1.17,1.17,0,0,0-1.1.9s-.3,1-.6,1.7a4.24,4.24,0,0,0-.1,1.9c0,.1.1.4.3.4a17.55,17.55,0,0,0,3.5.6A3.81,3.81,0,0,0,8.77,137.1Z"/></g>
<g class="st-elem-detail"><path class="st--elem" d="M107.47,137.1l-2.9-1.5.7-2.9c.1-.3.4-.6.7-.5l5.7.1a1.17,1.17,0,0,1,1.1.9s.3,1,.6,1.7a4.24,4.24,0,0,1,.1,1.9c0,.1-.1.4-.3.4a17.55,17.55,0,0,1-3.5.6A3.6,3.6,0,0,1,107.47,137.1Z"/></g>
<g class="st-elem-detail"><path class="st--elem" d="M12.57,179.7l2.1,4,4.2-1.5a5.07,5.07,0,0,1,1.3-.2h76.2a3.19,3.19,0,0,1,1.4.3l3.7,1.5,2.3-4a17.8,17.8,0,0,0-4.6-1.3H17.57A17.47,17.47,0,0,0,12.57,179.7Z"/></g>
<g class="st-elem-detail"><path class="st--elem" d="M96.37,182H20.67a11,11,0,0,0-1.8.2l-4.1,1.5h86.5v-.1l-3.2-1.3A10.11,10.11,0,0,0,96.37,182Z"/></g>
<g class="st-elem-detail"><polygon class="st--elem" points="23.77 190.9 34.77 190.9 35.77 189.9 80.47 189.9 81.57 191 92.57 191 92.57 183.8 23.77 183.8 23.77 190.9"/></g></svg>