<svg xmlns="http://www.w3.org/2000/svg" viewBox="0 0 96.33 215.1"><title>van-1_front_back</title>
<g class="st-elem-detail"><polygon class="st--elem" points="48.13 92 58.23 92 62.03 92.7 63.93 93.1 64.23 92 66.03 92 68.53 93.1 70.83 93.8 71.63 93.4 76.53 93.8 78.03 93.8 78.03 90.5 18.43 90.5 18.43 93.8 19.93 93.8 24.83 93.4 25.63 93.8 27.93 93.1 30.33 92 32.23 92 32.53 93.1 38.23 92 48.13 92"/></g>
<g class="st-elem-detail"><path class="st--elem" d="M18.43,81.5c0-.5-.1-2.7-2-2.7H12c-2,0-2.1,2.2-2.1,2.7v18c0,.5.7,2.7,2.7,2.7h3.1c2.1,0,2.7-2.2,2.7-2.7Z"/></g>
<g class="st-elem-detail"><path class="st--elem" d="M86.53,81.5c0-.5-.1-2.7-2-2.7h-4.4c-2,0-2.1,2.2-2.1,2.7v18c0,.5.7,2.7,2.7,2.7h3.1c2.1,0,2.7-2.2,2.7-2.7Z"/></g>
<g class="st-elem-detail"><path class="st--elem" d="M87.53,80.3s-1.3,7.1-2.3,9.2a3.24,3.24,0,0,1-1.4,1.6,10.26,10.26,0,0,1-2.6.7s-7.1.4-7.8,0c-.4-.2-.3-1.1-.3-1.1s6-.2,7.8-.2c2,0,3.3-2.7,3.9-4.5a52.49,52.49,0,0,0,1.3-5.3Z"/></g>
<g class="st-elem-detail"><path class="st--elem" d="M18.33,19.5l2.5-12.2s5.1-.6,28.4-.6,26.3.6,26.3.6l1.6,12.2H18.33Z"/></g>
<g class="st-elem-detail"><path class="st--elem" d="M73.43.6l2.1,6.7s-1.6-.6-26.3-.6-28.4.6-28.4.6L22.53.6S30,0,49.43,0,73.43.6,73.43.6Z"/></g>
<g class="st-elem-detail"><path class="st--elem" d="M18.23,21.5c-.1,1-3.3,24.6-3.3,24.6h66.2s-3.2-23.3-3.3-24.6a2.12,2.12,0,0,0-1.7-2h-56S18.33,19.9,18.23,21.5Z"/></g>
<g class="st-elem-detail"><path class="st--elem" d="M14.83,46s5.2,11.7,7.5,16,3.8,7.8,3.8,7.8,3.4,4,7.4,4.2,3.1,0,14.6,0,9.7.3,14.2,0c4.3-.3,8.1-4.3,8.1-4.3s.3-1.8,3.7-7.8a174.26,174.26,0,0,0,7.7-16h-67Z"/></g>
<g class="st-elem-detail"><path class="st--elem" d="M28.23,62c1.6-.2,3.4-.6,19.8-.6s18.8.2,20.6.6,2,1.8,1.5,2.7-2.9,4.6-2.9,4.6a8.25,8.25,0,0,1-6.1,3c-4.1.2-1.9,0-13,0s-12,.4-13.9.1a9.19,9.19,0,0,1-5.6-3.7,19.5,19.5,0,0,1-2.2-4.3C25.93,63.2,26.73,62.1,28.23,62Z"/></g>
<g class="st-elem-detail"><path class="st--elem" d="M25.33,68a43.55,43.55,0,0,0-3.1-6c-1.7-3-4.1-3.2-7.5-4.2s-3.2.5-3.2,1.4a46.73,46.73,0,0,0,.3,5c.3,4.1,1.6,5.7,2.9,5.8s10.2.6,10.8.6S26.53,70.4,25.33,68Z"/></g>
<g class="st-elem-detail"><path class="st--elem" d="M71,68a55.79,55.79,0,0,1,3.1-6c1.6-2.6,3.5-3.1,7.5-4.2,3.4-1,3.1.7,3.2,1.5a26.51,26.51,0,0,1,0,4.9c-.4,4.1-1.8,5.6-3.2,5.7s-10.2.6-10.8.6S69.83,70.4,71,68Z"/></g>
<g class="st-elem-detail"><path class="st--elem" d="M13.13,46l1.7,11.7a44,44,0,0,1,4.8,1.6,5.83,5.83,0,0,1,2.3,2.1A50,50,0,0,1,26,69.8c.2.6-.2.8-.4.7-2.9-.2-10.3-.6-10.8-.6-1,0-2.3-1.8-2.3-1.8l-.2,4.7,17.8.5,3.3.8h28.7l3.6-.8,18.1-.2-.2-4.9a3.23,3.23,0,0,1-2.4,1.8c-1.8.2-8.1.5-10.7.6-.6,0-.5-.6-.4-.8.4-.7,2.4-6,3.7-7.8a8.18,8.18,0,0,1,4.4-3.3,22.49,22.49,0,0,0,3.1-1L82.93,46h-1.3s-5.5,12.1-7.7,16c-1.3,2.2-3.7,7.8-3.7,7.8s-3.6,4.3-8.1,4.3c-6,0-13.5.1-13.5.1s-10.7-.1-15.2-.1c-3.7,0-7.4-4.2-7.4-4.2s-3-6.4-4.1-8.4c-2.1-3.9-7.1-15.4-7.1-15.4l-1.7-.1Z"/></g>
<g class="st-elem-detail"><path class="st--elem" d="M96.33,44.5l-1-.8s.3-4.4-.2-5.8a3.48,3.48,0,0,0-1.5-1.9,10.18,10.18,0,0,0-4.6-.3,1.32,1.32,0,0,0-.9,1.4c-.1,1.3-.2,5.6-.2,5.6s-.6.1-.8.1a1.55,1.55,0,0,1-1-.7,28.74,28.74,0,0,1-1.8-4.2s.3,2.1.3,2.9c.1,1.5.4,2.8.6,5.2l.4,4.8s1.1-2.1,2-2.2c.7,0,1.2.6,2.2.7a16.15,16.15,0,0,0,2.2,0c.9-.1,3-.2,3.8-1.1C96.43,47.5,96.33,44.5,96.33,44.5Z"/></g>
<g class="st-elem-detail"><polygon class="st--elem" points="10.23 63.5 10.83 72.5 9.03 73.4 10.53 80.7 9.03 80.7 9.03 68.4 10.23 63.5"/></g>
<g class="st-elem-detail"><polygon class="st--elem" points="85.93 63.5 85.43 72.5 87.53 73.4 86.13 80.7 87.53 80.3 87.53 68.3 85.93 63.5"/></g>
<g class="st-elem-detail"><path class="st--elem" d="M84.43,57.9l2.3-6.8.6,16.2-1.2-3.6-.7,8.8L84,73l-.2-4.9a21.49,21.49,0,0,0,.7-2.4,22,22,0,0,0,.2-6.7A3.91,3.91,0,0,0,84.43,57.9Z"/></g>
<g class="st-elem-detail"><path class="st--elem" d="M81.53,57.8a7.76,7.76,0,0,1,1.9-.3,1.26,1.26,0,0,1,1,.4l2.3-7V49.5s-.4.3-.5.4a6.42,6.42,0,0,0-.6,1l-.4-4.8h-2.1Z"/></g>
<g class="st-elem-detail"><path class="st--elem" d="M73.43.7s1.3.2,1.7.3a2,2,0,0,1,1.6.9c2.3,4.7,3.5,12.2,4.2,15.9,1.4,7,3.3,28.2,3.3,28.2h-3.3L75.33,7.3l-1.8-5.7Z"/></g>
<g class="st-elem-detail"><path class="st--elem" d="M75.43,1a1.88,1.88,0,0,1,.8-.7c.7-.2,1.9,1.4,2.3,2a35,35,0,0,1,2,5.4c.6,2.4,2,9.5,2,9.5a5.07,5.07,0,0,0-.4,2.4c.8,5.2,2.4,21,2.4,21l.6,5.2h-.8s-1.7-17.8-2.6-23.7c-.3-2.5-1.9-10-1.9-10S78,3.9,76.73,1.9A2.51,2.51,0,0,0,75.43,1Z"/></g>
<g class="st-elem-detail"><path class="st--elem" d="M9,80.7s1.2,6.7,2.2,8.8a3.24,3.24,0,0,0,1.4,1.6,10.26,10.26,0,0,0,2.6.7s7.1.4,7.8,0c.4-.2.3-1.1.3-1.1s-6-.2-7.8-.2c-2,0-3.3-2.7-3.9-4.5a37.93,37.93,0,0,1-1.1-5.3Z"/></g>
<g class="st-elem-detail"><path class="st--elem" d="M0,44.5l1-.8s-.3-4.4.2-5.8A3.48,3.48,0,0,1,2.73,36a10.18,10.18,0,0,1,4.6-.3,1.32,1.32,0,0,1,.9,1.4c.1,1.3.2,5.6.2,5.6s.6.1.8.1a1.94,1.94,0,0,0,1.1-.8,21.48,21.48,0,0,0,1.5-4.1s-.3,2.1-.4,2.9c-.1,1.5,0,2.8-.3,5.3l-.4,4.8s-1.1-2.1-2-2.2c-.7,0-1.2.6-2.2.7a16.15,16.15,0,0,1-2.2,0c-.9-.1-3-.2-3.8-1.1S0,44.5,0,44.5Z"/></g>
<g class="st-elem-detail"><path class="st--elem" d="M11.93,57.9l-2.3-6.7-.4,16.1,1-3.9.6,9,1.6.3.2-4.7a12.25,12.25,0,0,1-.4-2c-.2-1.9-.5-6.1-.6-7.1A1.45,1.45,0,0,1,11.93,57.9Z"/></g>
<g class="st-elem-detail"><path class="st--elem" d="M14.83,57.8a7.76,7.76,0,0,0-1.9-.3,1.26,1.26,0,0,0-1,.4l-2.3-7V49.5a1.4,1.4,0,0,1,.5.4,6.42,6.42,0,0,1,.6,1l.4-4.8h2.1Z"/></g>
<g class="st-elem-detail"><path class="st--elem" d="M22.43.7a3.87,3.87,0,0,1-1.2.3,2,2,0,0,0-1.6.9c-2.3,4.7-3.5,12.2-4.2,15.9-1.4,7-4.2,28.2-4.2,28.2h3.7l3.5-26.6,2.5-12.2L22.63.7Z"/></g>
<g class="st-elem-detail"><path class="st--elem" d="M10,42.4c-.2,0,3.3-22.4,3.3-22.4a23.81,23.81,0,0,1,.5-2.6,7.05,7.05,0,0,1,1,2.6c-.4,4.9-1.7,13.4-2.4,17.4a12.54,12.54,0,0,1-1,3.4A13.06,13.06,0,0,1,10,42.4Z"/></g>
<g class="st-elem-detail"><path class="st--elem" d="M20.93,1a1.88,1.88,0,0,0-.8-.7c-.7-.2-1.9,1.4-2.3,2a35,35,0,0,0-2,5.4c-.6,2.4-2,9.5-2,9.5a7.81,7.81,0,0,1,1,3.1c-.8,5.2-2.9,20.3-2.9,20.3l-.8,5.3h0s2.6-17.8,3.4-23.7c.3-2.5,1.9-10,1.9-10S18.23,4,19.53,2A2.43,2.43,0,0,1,20.93,1Z"/></g>
<g class="st-elem-detail"><path class="st--elem" d="M86.33,42.4C86.43,42.5,83,20,83,20a23.81,23.81,0,0,0-.5-2.6,7.05,7.05,0,0,0-1,2.6c.4,4.9,1.7,13.4,2.4,17.4a9.93,9.93,0,0,0,.8,3A15.59,15.59,0,0,0,86.33,42.4Z"/></g>
<g class="st-elem-detail"><path class="st--elem" d="M10.83,72.5,9,73.4s.6,3.7,1.3,7.3c.5,2.4,1,4.7,1.4,5.9.6,1.6,2.1,3.9,3.3,3.9s29.6.6,34.3.7,31.8-.6,31.8-.6,2.3-.2,3.7-4.8c1.3-4.4,2.7-12.4,2.7-12.4l-2.1-.8-1.4.5-18.1.2s-2.7.7-3.6.8c-3,.1-22.4.3-28.7,0a17.49,17.49,0,0,1-3.3-.8l-17.6-.5Z"/></g>
<g class="st-elem-detail"><path class="st--elem" d="M31.43,76.3h33.4a.72.72,0,0,1,.7.9c-.4,1.5-3.1,3.6-4.4,3.6H34.73c-1.3,0-3.4-1.6-3.9-3.5C30.43,76.3,31.43,76.3,31.43,76.3Z"/></g>
<g class="st-elem-detail"><path class="st--elem" d="M75.53,75.9h5s1-.1,1,1.4-1.7,2.6-2.9,3-4.4.8-4.4.8a.68.68,0,0,1-.8-.7C73.33,79.2,75.53,75.9,75.53,75.9Z"/></g>
<g class="st-elem-detail"><path class="st--elem" d="M20.83,75.9h-5s-1-.1-1,1.4,1.7,2.6,2.9,3,4.4.8,4.4.8a.68.68,0,0,0,.8-.7C23,79.2,20.83,75.9,20.83,75.9Z"/></g>
<g class="st-elem-detail"><path class="st--elem" d="M95.13,156.7l-1-.8s.3-4.4-.2-5.7a3.56,3.56,0,0,0-1.4-1.8,9.65,9.65,0,0,0-4.5-.3,1.32,1.32,0,0,0-.9,1.4c-.1,1.3-.2,5.5-.2,5.5s-.6.1-.8.1c-.4-.1-.9-.8-.9-.8l.6,6.9a1.07,1.07,0,0,1,1.2-.3,10.56,10.56,0,0,0,1.9.6,13.57,13.57,0,0,0,3.5,0,2.84,2.84,0,0,0,2.3-1C95.33,159.7,95.13,156.7,95.13,156.7Z"/></g>
<g class="st-elem-detail"><path class="st--elem" d="M93.13,157.7h0a.86.86,0,0,1-.6.3h-3.9a.65.65,0,0,1-.6-.6v-8a.47.47,0,0,1,.5-.5h2.8a1.16,1.16,0,0,1,1,.4l.1.1a1.61,1.61,0,0,1,.6,1.3l.2,6.4C93.23,157.4,93.23,157.6,93.13,157.7Z"/></g>
<g class="st-elem-detail"><path class="st--elem" d="M87.93,159.1v.9a.47.47,0,0,0,.5.5l4.4.1c.4,0,.6-.3.6-.7v-.8a.65.65,0,0,0-.6-.6h-4.5C88.13,158.7,87.93,158.9,87.93,159.1Z"/></g>
<g class="st-elem-detail"><path class="st--elem" d="M.33,156.7l1-.8s-.3-4.4.2-5.7a3.56,3.56,0,0,1,1.4-1.8,9.65,9.65,0,0,1,4.5-.3,1.32,1.32,0,0,1,.9,1.4c.1,1.3.2,5.5.2,5.5s.6.1.8.1c.4-.1.9-.8.9-.8l-.6,6.9a1.07,1.07,0,0,0-1.2-.3,10.56,10.56,0,0,1-1.9.6,13.57,13.57,0,0,1-3.5,0,2.84,2.84,0,0,1-2.3-1C.23,159.7.33,156.7.33,156.7Z"/></g>
<g class="st-elem-detail"><path class="st--elem" d="M14.23,206.2l5.9.6,7-4.2h8.1v2.1l.5,1.6h2v-3.7h2.6l.5.9h1.6s.7,3.3,5.5,3.3,5.8-3.2,5.8-3.2h1.8v-1.1h1.4v3.8h2l.6-1.7v-2.1h8.9l8.4,4.2h3.5v-6.2l-66-.4v6.1h-.1Z"/></g>
<g class="st-elem-detail"><path class="st--elem" d="M17.83,194.7c0-.5-.1-2.7-2-2.7h-4.4c-2,0-2,2.2-2,2.7v17.7c0,.5.7,2.7,2.7,2.7h3c2,0,2.7-2.2,2.7-2.7Z"/></g>
<g class="st-elem-detail"><path class="st--elem" d="M86.13,194.7c0-.5-.1-2.7-2-2.7h-4.4c-2,0-2,2.2-2,2.7v17.7c0,.5.7,2.7,2.7,2.7h3c2,0,2.7-2.2,2.7-2.7Z"/></g>
<g class="st-elem-detail"><path class="st--elem" d="M27.23,194.7c0-.5-.1-2.7-2-2.7h-4.4c-2,0-2,2.2-2,2.7v17.7c0,.5.7,2.7,2.7,2.7h3c2,0,2.7-2.2,2.7-2.7Z"/></g>
<g class="st-elem-detail"><path class="st--elem" d="M76.73,194.7c0-.5-.1-2.7-2-2.7h-4.4c-2,0-2,2.2-2,2.7v17.7c0,.5.7,2.7,2.7,2.7h3c2,0,2.7-2.2,2.7-2.7Z"/></g>
<g class="st-elem-detail"><path class="st--elem" d="M47.83,115.9s-21.3.6-24.3.6a3.5,3.5,0,0,0-3.3,3A141.21,141.21,0,0,0,17,136.3c-.8,6.7-2.7,26.3-2.7,26.3l1.1.8-.1,23.6s.2,2.2.4,3c.3,1.2,1.4,3.6,3.6,3.6h28.5Z"/></g>
<g class="st-elem-detail"><path class="st--elem" d="M47.83,115.9s21.3.6,24.3.6a3.5,3.5,0,0,1,3.3,3,141.2,141.2,0,0,1,3.2,16.8c.8,6.7,2.7,26.3,2.7,26.3l-1.1.8.1,23.6s-.2,2.2-.4,3c-.3,1.2-1.4,3.6-3.6,3.6H47.83Z"/></g>
<g class="st-elem-detail"><circle class="st--elem" cx="54.93" cy="172.1" r="2.7"/></g>
<g class="st-elem-detail"><path class="st--elem" d="M49.83,171l8.8.3c.5,0,.5.1.5.5h0c0,.5-.1.5-.5.5l-8.8.3a.9.9,0,0,1-.9-.9h0A.89.89,0,0,1,49.83,171Z"/></g>
<g class="st-elem-detail"><path class="st--elem" d="M83.93,161.7a9.47,9.47,0,0,0-2.5,1l-1.1.8.1,24a36.5,36.5,0,0,0,5.3-.2,1.17,1.17,0,0,0,1.1-1.2c0-1-.7-24.6-.7-24.6A12.52,12.52,0,0,0,83.93,161.7Z"/></g>
<g class="st-elem-detail"><path class="st--elem" d="M11.73,161.7a9.47,9.47,0,0,1,2.5,1l1.1.8-.1,24a36.5,36.5,0,0,1-5.3-.2,1.17,1.17,0,0,1-1.1-1.2c0-1,.7-24.6.7-24.6A12.52,12.52,0,0,1,11.73,161.7Z"/></g>
<g class="st-elem-detail"><path class="st--elem" d="M81.33,202.5h1.6l1.2-1.2,2.1-8.6.4-6.6s-.1,1.2-1.1,1.2-5.3.2-5.3.2l-.4,2.6s-.9,3.6-3.6,3.6H19.13c-2.8,0-3.6-3.6-3.6-3.6l-.3-2.6s-4.2-.2-5.3-.2-1.1-1.2-1.1-1.2v6.6l2.2,8.4,1.4,1h1.7v-2l67.1.4v2h.1Z"/></g>
<g class="st-elem-detail"><path class="st--elem" d="M11.73,161.7s1.5-19.5,3.2-29a115.53,115.53,0,0,1,3.8-15.2s1.1-2.3,3.2-2.3c1.1,0,13.5-.6,25.8-.6,11.5,0,22.9.6,24.7.6,3.6,0,4.1,2.1,4.1,2.1a76.87,76.87,0,0,1,4.1,16.2c1,7.5,3.3,28.3,3.3,28.3l-2.5,1s-2.2-22.5-3.1-29.2a126.71,126.71,0,0,0-3-14.3,3.23,3.23,0,0,0-3.2-2.6c-2.7-.1-24.3-.6-24.3-.6s-21.4.6-24.1.6a3.67,3.67,0,0,0-3.4,2.8,129.91,129.91,0,0,0-3.2,16.3c-1,7.7-2.8,27.1-2.8,27.1Z"/></g>
<g class="st-elem-detail"><path class="st--elem" d="M9.63,161.5s.9-10.9,1.4-14.7,1.6-12.3,2.4-16.2c.5-2.3,1.3-7,2-9.2,1-3.5,2-6.4,3.6-7.7a4.35,4.35,0,0,1,1.5-.6s.2,1.3.5,1.4a8.25,8.25,0,0,0,1.6,0l1.3-1.3h48.2l1,.9a2.8,2.8,0,0,0,1.4.1,3.65,3.65,0,0,0,.7-1,3.8,3.8,0,0,1,1.6.8c1.4,1.7,2,2.2,3.4,7.6a194.9,194.9,0,0,1,4.2,25.1c.5,5.2,1.7,14.7,1.7,14.7l-2.1.1-1.5-13.6s-1.6-14.1-2.4-18.1a74.85,74.85,0,0,0-3.5-13c-.2-.5-.7-1.8-4-1.8l-24.7-.6s-24,.6-24.7.6a4.56,4.56,0,0,0-4.5,3,108.58,108.58,0,0,0-4.2,17.7c-1.4,10-2.7,25.8-2.7,25.8Z"/></g>
<g class="st-elem-detail"><path class="st--elem" d="M2.43,157.7h0a.86.86,0,0,0,.6.3h3.9a.65.65,0,0,0,.6-.6v-8a.47.47,0,0,0-.5-.5H4.23a1.16,1.16,0,0,0-1,.4l-.1.1a1.61,1.61,0,0,0-.6,1.3l-.2,6.4C2.23,157.4,2.23,157.6,2.43,157.7Z"/></g>
<g class="st-elem-detail"><path class="st--elem" d="M7.53,159.1v.9a.47.47,0,0,1-.5.5l-4.4.1c-.4,0-.6-.3-.6-.7v-.8a.65.65,0,0,1,.6-.6h4.5C7.33,158.7,7.53,158.9,7.53,159.1Z"/></g></svg>