<svg version="1.1" xmlns="http://www.w3.org/2000/svg" xmlns:xlink="http://www.w3.org/1999/xlink" x="0px" y="0px"	 viewBox="0 0 97.33 216.1"><title>van-2_front_back</title>
<g class="st-elem-detail"><path class="st--elem" d="M95.63,157.2l-1-.8s.3-4.4-.2-5.7a3.56,3.56,0,0,0-1.4-1.8,9.65,9.65,0,0,0-4.5-.3,1.32,1.32,0,0,0-.9,1.4c-.1,1.3-.2,5.5-.2,5.5s-.6.1-.8.1c-.4-.1-.9-.8-.9-.8l.6,6.9a1.07,1.07,0,0,1,1.2-.3,10.56,10.56,0,0,0,1.9.6,13.57,13.57,0,0,0,3.5,0,2.84,2.84,0,0,0,2.3-1C95.83,160.2,95.63,157.2,95.63,157.2Z"/></g>
<g class="st-elem-detail"><path class="st--elem" d="M93.63,158.2h0a.86.86,0,0,1-.6.3h-3.9a.65.65,0,0,1-.6-.6v-8a.47.47,0,0,1,.5-.5h2.8a1.16,1.16,0,0,1,1,.4l.1.1a1.61,1.61,0,0,1,.6,1.3l.2,6.4C93.73,157.9,93.73,158.1,93.63,158.2Z"/></g>
<g class="st-elem-detail"><path class="st--elem" d="M88.43,159.6v.9a.47.47,0,0,0,.5.5l4.4.1c.4,0,.6-.3.6-.7v-.8a.65.65,0,0,0-.6-.6h-4.5C88.63,159.2,88.43,159.4,88.43,159.6Z"/></g>
<g class="st-elem-detail"><path class="st--elem" d="M.83,157.2l1-.8s-.3-4.4.2-5.7a3.56,3.56,0,0,1,1.4-1.8,9.65,9.65,0,0,1,4.5-.3,1.32,1.32,0,0,1,.9,1.4c.1,1.3.2,5.5.2,5.5s.6.1.8.1c.4-.1.9-.8.9-.8l-.6,6.9a1.07,1.07,0,0,0-1.2-.3A10.56,10.56,0,0,1,7,162a13.57,13.57,0,0,1-3.5,0,2.84,2.84,0,0,1-2.3-1C.73,160.2.83,157.2.83,157.2Z"/></g>
<g class="st-elem-detail"><path class="st--elem" d="M14.73,206.7l5.9.6,7-4.2h8.1v2.1l.5,1.6h2v-3.7h2.6l.5.9h1.6s.7,3.3,5.5,3.3,5.8-3.2,5.8-3.2H56V203h1.4v3.8h2l.6-1.7V203h8.9l8.4,4.2h3.5V201l-66-.4v6.1h-.1Z"/></g>
<g class="st-elem-detail"><path class="st--elem" d="M18.33,195.2c0-.5-.1-2.7-2-2.7h-4.4c-2,0-2,2.2-2,2.7v17.7c0,.5.7,2.7,2.7,2.7h3c2,0,2.7-2.2,2.7-2.7Z"/></g>
<g class="st-elem-detail"><path class="st--elem" d="M86.63,195.2c0-.5-.1-2.7-2-2.7h-4.4c-2,0-2,2.2-2,2.7v17.7c0,.5.7,2.7,2.7,2.7h3c2,0,2.7-2.2,2.7-2.7Z"/></g>
<g class="st-elem-detail"><path class="st--elem" d="M27.73,195.2c0-.5-.1-2.7-2-2.7h-4.4c-2,0-2,2.2-2,2.7v17.7c0,.5.7,2.7,2.7,2.7h3c2,0,2.7-2.2,2.7-2.7Z"/></g>
<g class="st-elem-detail"><path class="st--elem" d="M77.23,195.2c0-.5-.1-2.7-2-2.7h-4.4c-2,0-2,2.2-2,2.7v17.7c0,.5.7,2.7,2.7,2.7h3c2,0,2.7-2.2,2.7-2.7Z"/></g>
<g class="st-elem-detail"><path class="st--elem" d="M48.33,116.4S27,117,24,117a3.5,3.5,0,0,0-3.3,3,141.2,141.2,0,0,0-3.2,16.8c-.8,6.7-2.7,26.3-2.7,26.3l1.1.8-.1,23.6s.2,2.2.4,3c.3,1.2,1.4,3.6,3.6,3.6h28.5Z"/></g>
<g class="st-elem-detail"><path class="st--elem" d="M48.33,116.4s21.3.6,24.3.6a3.5,3.5,0,0,1,3.3,3,141.2,141.2,0,0,1,3.2,16.8c.8,6.7,2.7,26.3,2.7,26.3l-1.1.8.1,23.6s-.2,2.2-.4,3c-.3,1.2-1.4,3.6-3.6,3.6H48.33Z"/></g>
<g class="st-elem-detail"><path class="st--elem" d="M48.33,131.1l26.5.6a2.53,2.53,0,0,1,2.5,2.6c.1,1.7,2.3,22.1,2.3,22.1a3.4,3.4,0,0,1-1.9,3.3,50.64,50.64,0,0,1-19.6,3.8h-9.9l.1-32.4Z"/></g>
<g class="st-elem-detail"><path class="st--elem" d="M48.33,131.1l-26.5.6a2.53,2.53,0,0,0-2.5,2.6c-.1,1.7-2.3,22.1-2.3,22.1a3.4,3.4,0,0,0,1.9,3.3,50.64,50.64,0,0,0,19.6,3.8h9.9l-.1-32.4Z"/></g>
<g class="st-elem-detail"><circle class="st--elem" cx="55.43" cy="172.6" r="2.7"/></g>
<g class="st-elem-detail"><path class="st--elem" d="M50.33,171.5l8.8.3c.5,0,.5.1.5.5h0c0,.5-.1.5-.5.5l-8.8.3a.9.9,0,0,1-.9-.9h0A.89.89,0,0,1,50.33,171.5Z"/></g>
<g class="st-elem-detail"><path class="st--elem" d="M84.43,162.2a9.47,9.47,0,0,0-2.5,1l-1.1.8.1,24a36.5,36.5,0,0,0,5.3-.2,1.17,1.17,0,0,0,1.1-1.2c0-1-.7-24.6-.7-24.6A12.52,12.52,0,0,0,84.43,162.2Z"/></g>
<g class="st-elem-detail"><path class="st--elem" d="M12.23,162.2a9.47,9.47,0,0,1,2.5,1l1.1.8-.1,24a36.5,36.5,0,0,1-5.3-.2,1.17,1.17,0,0,1-1.1-1.2c0-1,.7-24.6.7-24.6A12.52,12.52,0,0,1,12.23,162.2Z"/></g>
<g class="st-elem-detail"><path class="st--elem" d="M81.83,203h1.6l1.2-1.2,2.1-8.6.4-6.6s-.1,1.2-1.1,1.2-5.3.2-5.3.2l-.4,2.6s-.9,3.6-3.6,3.6H19.63c-2.8,0-3.6-3.6-3.6-3.6l-.3-2.6s-4.2-.2-5.3-.2-1.1-1.2-1.1-1.2v6.6l2.2,8.4,1.4,1h1.7v-2l67.1.4v2h.1Z"/></g>
<g class="st-elem-detail"><path class="st--elem" d="M12.23,162.2s1.5-19.5,3.2-29a115.53,115.53,0,0,1,3.8-15.2s1.1-2.3,3.2-2.3c1.1,0,13.5-.6,25.8-.6,11.5,0,22.9.6,24.7.6,3.6,0,4.1,2.1,4.1,2.1a76.87,76.87,0,0,1,4.1,16.2c1,7.5,3.3,28.3,3.3,28.3l-2.5,1s-2.2-22.5-3.1-29.2a126.71,126.71,0,0,0-3-14.3,3.23,3.23,0,0,0-3.2-2.6c-2.7-.1-24.3-.6-24.3-.6s-21.4.6-24.1.6a3.67,3.67,0,0,0-3.4,2.8,129.91,129.91,0,0,0-3.2,16.3c-1,7.7-2.8,27.1-2.8,27.1Z"/></g>
<g class="st-elem-detail"><path class="st--elem" d="M10.13,162s.9-10.9,1.4-14.7,1.6-12.3,2.4-16.2c.5-2.3,1.3-7,2-9.2,1-3.5,2-6.4,3.6-7.7a4.35,4.35,0,0,1,1.5-.6s.2,1.3.5,1.4a8.25,8.25,0,0,0,1.6,0l1.3-1.3h48.2l1,.9a2.8,2.8,0,0,0,1.4.1,3.65,3.65,0,0,0,.7-1,3.8,3.8,0,0,1,1.6.8c1.4,1.7,2,2.2,3.4,7.6a194.9,194.9,0,0,1,4.2,25.1c.5,5.2,1.7,14.7,1.7,14.7l-2.1.1L83,148.4s-1.6-14.1-2.4-18.1a74.85,74.85,0,0,0-3.5-13c-.2-.5-.7-1.8-4-1.8l-24.7-.6s-24,.6-24.7.6a4.56,4.56,0,0,0-4.5,3A108.58,108.58,0,0,0,15,136.2c-1.4,10-2.7,25.8-2.7,25.8Z"/></g>
<g class="st-elem-detail"><path class="st--elem" d="M2.93,158.2h0a.86.86,0,0,0,.6.3h3.9a.65.65,0,0,0,.6-.6v-8a.47.47,0,0,0-.5-.5H4.73a1.16,1.16,0,0,0-1,.4l-.1.1a1.61,1.61,0,0,0-.6,1.3l-.2,6.4C2.73,157.9,2.73,158.1,2.93,158.2Z"/></g>
<g class="st-elem-detail"><path class="st--elem" d="M8,159.6v.9a.47.47,0,0,1-.5.5l-4.4.1c-.4,0-.6-.3-.6-.7v-.8a.65.65,0,0,1,.6-.6h4.5C7.83,159.2,8,159.4,8,159.6Z"/></g>
<g class="st-elem-detail"><polygon class="st--elem" points="48.63 92.5 58.73 92.5 62.53 93.2 64.43 93.6 64.73 92.5 66.53 92.5 69.03 93.6 71.33 94.3 72.13 93.9 77.03 94.3 78.53 94.3 78.53 91 18.93 91 18.93 94.3 20.43 94.3 25.33 93.9 26.13 94.3 28.43 93.6 30.83 92.5 32.73 92.5 33.03 93.6 38.73 92.5 48.63 92.5"/></g>
<g class="st-elem-detail"><path class="st--elem" d="M18.93,82c0-.5-.1-2.7-2-2.7h-4.4c-2,0-2.1,2.2-2.1,2.7v18c0,.5.7,2.7,2.7,2.7h3.1c2.1,0,2.7-2.2,2.7-2.7Z"/></g>
<g class="st-elem-detail"><path class="st--elem" d="M87,82c0-.5-.1-2.7-2-2.7h-4.4c-2,0-2.1,2.2-2.1,2.7v18c0,.5.7,2.7,2.7,2.7h3.1c2.1,0,2.7-2.2,2.7-2.7Z"/></g>
<g class="st-elem-detail"><path class="st--elem" d="M88,80.8s-1.3,7.1-2.3,9.2a3.24,3.24,0,0,1-1.4,1.6,10.26,10.26,0,0,1-2.6.7s-7.1.4-7.8,0c-.4-.2-.3-1.1-.3-1.1s6-.2,7.8-.2c2,0,3.3-2.7,3.9-4.5a52.49,52.49,0,0,0,1.3-5.3Z"/></g>
<g class="st-elem-detail"><path class="st--elem" d="M18.83,20l2.5-12.2s5.1-.6,28.4-.6S76,7.8,76,7.8L77.63,20H18.83Z"/></g>
<g class="st-elem-detail"><path class="st--elem" d="M73.93,1.1,76,7.8s-1.6-.6-26.3-.6-28.4.6-28.4.6L23,1.1s7.5-.6,26.9-.6S73.93,1.1,73.93,1.1Z"/></g>
<g class="st-elem-detail"><path class="st--elem" d="M18.73,22c-.1,1-3.3,24.6-3.3,24.6h66.2s-3.2-23.3-3.3-24.6a2.12,2.12,0,0,0-1.7-2h-56S18.83,20.4,18.73,22Z"/></g>
<g class="st-elem-detail"><path class="st--elem" d="M15.33,46.5s5.2,11.7,7.5,16,3.8,7.8,3.8,7.8,3.4,4,7.4,4.2,3.1,0,14.6,0,9.7.3,14.2,0c4.3-.3,8.1-4.3,8.1-4.3s.3-1.8,3.7-7.8a174.26,174.26,0,0,0,7.7-16h-67Z"/></g>
<g class="st-elem-detail"><path class="st--elem" d="M28.73,62.5c1.6-.2,3.4-.6,19.8-.6s18.8.2,20.6.6,2,1.8,1.5,2.7-2.9,4.6-2.9,4.6a8.25,8.25,0,0,1-6.1,3c-4.1.2-1.9,0-13,0s-12,.4-13.9.1a9.19,9.19,0,0,1-5.6-3.7,19.5,19.5,0,0,1-2.2-4.3C26.43,63.7,27.23,62.6,28.73,62.5Z"/></g>
<g class="st-elem-detail"><path class="st--elem" d="M25.83,68.5a43.55,43.55,0,0,0-3.1-6c-1.7-3-4.1-3.2-7.5-4.2s-3.2.5-3.2,1.4a46.73,46.73,0,0,0,.3,5c.3,4.1,1.6,5.7,2.9,5.8s10.2.6,10.8.6S27,70.9,25.83,68.5Z"/></g>
<g class="st-elem-detail"><path class="st--elem" d="M71.53,68.5a55.79,55.79,0,0,1,3.1-6c1.6-2.6,3.5-3.1,7.5-4.2,3.4-1,3.1.7,3.2,1.5a26.51,26.51,0,0,1,0,4.9c-.4,4.1-1.8,5.6-3.2,5.7s-10.2.6-10.8.6S70.33,70.9,71.53,68.5Z"/></g>
<g class="st-elem-detail"><path class="st--elem" d="M13.63,46.5l1.7,11.7a44,44,0,0,1,4.8,1.6,5.83,5.83,0,0,1,2.3,2.1,50,50,0,0,1,4.1,8.4c.2.6-.2.8-.4.7-2.9-.2-10.3-.6-10.8-.6-1,0-2.3-1.8-2.3-1.8l-.2,4.7,17.8.5,3.3.8h28.7l3.6-.8,18.1-.2-.2-4.9a3.23,3.23,0,0,1-2.4,1.8c-1.8.2-8.1.5-10.7.6-.6,0-.5-.6-.4-.8.4-.7,2.4-6,3.7-7.8a8.18,8.18,0,0,1,4.4-3.3,22.49,22.49,0,0,0,3.1-1l1.6-11.7h-1.3s-5.5,12.1-7.7,16c-1.3,2.2-3.7,7.8-3.7,7.8s-3.6,4.3-8.1,4.3c-6,0-13.5.1-13.5.1s-10.7-.1-15.2-.1c-3.7,0-7.4-4.2-7.4-4.2s-3-6.4-4.1-8.4c-2.1-3.9-7.1-15.4-7.1-15.4l-1.7-.1Z"/></g>
<g class="st-elem-detail"><path class="st--elem" d="M96.83,45l-1-.8s.3-4.4-.2-5.8a3.48,3.48,0,0,0-1.5-1.9,10.18,10.18,0,0,0-4.6-.3,1.32,1.32,0,0,0-.9,1.4c-.1,1.3-.2,5.6-.2,5.6s-.6.1-.8.1a1.55,1.55,0,0,1-1-.7,28.74,28.74,0,0,1-1.8-4.2s.3,2.1.3,2.9c.1,1.5.4,2.8.6,5.2l.4,4.8s1.1-2.1,2-2.2c.7,0,1.2.6,2.2.7a16.15,16.15,0,0,0,2.2,0c.9-.1,3-.2,3.8-1.1C96.93,48,96.83,45,96.83,45Z"/></g>
<g class="st-elem-detail"><polygon class="st--elem" points="10.73 64 11.33 73 9.53 73.9 11.03 81.2 9.53 81.2 9.53 68.9 10.73 64"/></g>
<g class="st-elem-detail"><polygon class="st--elem" points="86.43 64 85.93 73 88.03 73.9 86.63 81.2 88.03 80.8 88.03 68.8 86.43 64"/></g>
<g class="st-elem-detail"><path class="st--elem" d="M84.93,58.4l2.3-6.8.6,16.2-1.2-3.6-.7,8.8-1.4.5-.2-4.9a21.49,21.49,0,0,0,.7-2.4,22,22,0,0,0,.2-6.7A3.91,3.91,0,0,0,84.93,58.4Z"/></g>
<g class="st-elem-detail"><path class="st--elem" d="M82,58.3a7.76,7.76,0,0,1,1.9-.3,1.26,1.26,0,0,1,1,.4l2.3-7V50s-.4.3-.5.4a6.42,6.42,0,0,0-.6,1l-.4-4.8h-2.1Z"/></g>
<g class="st-elem-detail"><path class="st--elem" d="M73.93,1.2s1.3.2,1.7.3a2,2,0,0,1,1.6.9c2.3,4.7,3.5,12.2,4.2,15.9,1.4,7,3.3,28.2,3.3,28.2h-3.3L75.83,7.8,74,2.1Z"/></g>
<g class="st-elem-detail"><path class="st--elem" d="M75.93,1.5a1.88,1.88,0,0,1,.8-.7c.7-.2,1.9,1.4,2.3,2a35,35,0,0,1,2,5.4c.6,2.4,2,9.5,2,9.5a5.07,5.07,0,0,0-.4,2.4c.8,5.2,2.4,21,2.4,21l.6,5.2h-.8s-1.7-17.8-2.6-23.7c-.3-2.5-1.9-10-1.9-10s-1.8-8.2-3.1-10.2A2.51,2.51,0,0,0,75.93,1.5Z"/></g>
<g class="st-elem-detail"><path class="st--elem" d="M9.53,81.2s1.2,6.7,2.2,8.8a3.24,3.24,0,0,0,1.4,1.6,10.26,10.26,0,0,0,2.6.7s7.1.4,7.8,0c.4-.2.3-1.1.3-1.1s-6-.2-7.8-.2c-2,0-3.3-2.7-3.9-4.5A37.93,37.93,0,0,1,11,81.2Z"/></g>
<g class="st-elem-detail"><path class="st--elem" d="M.53,45l1-.8s-.3-4.4.2-5.8a3.48,3.48,0,0,1,1.5-1.9,10.18,10.18,0,0,1,4.6-.3,1.32,1.32,0,0,1,.9,1.4c.1,1.3.2,5.6.2,5.6s.6.1.8.1a1.94,1.94,0,0,0,1.1-.8,21.48,21.48,0,0,0,1.5-4.1s-.3,2.1-.4,2.9c-.1,1.5,0,2.8-.3,5.3l-.4,4.8s-1.1-2.1-2-2.2c-.7,0-1.2.6-2.2.7a16.15,16.15,0,0,1-2.2,0c-.9-.1-3-.2-3.8-1.1S.53,45,.53,45Z"/></g>
<g class="st-elem-detail"><path class="st--elem" d="M12.43,58.4l-2.3-6.7-.4,16.1,1-3.9.6,9,1.6.3.2-4.7a12.25,12.25,0,0,1-.4-2c-.2-1.9-.5-6.1-.6-7.1A1.45,1.45,0,0,1,12.43,58.4Z"/></g>
<g class="st-elem-detail"><path class="st--elem" d="M15.33,58.3a7.76,7.76,0,0,0-1.9-.3,1.26,1.26,0,0,0-1,.4l-2.3-7V50a1.4,1.4,0,0,1,.5.4,6.42,6.42,0,0,1,.6,1l.4-4.8h2.1Z"/></g>
<g class="st-elem-detail"><path class="st--elem" d="M22.93,1.2a3.87,3.87,0,0,1-1.2.3,2,2,0,0,0-1.6.9c-2.3,4.7-3.5,12.2-4.2,15.9-1.4,7-4.2,28.2-4.2,28.2h3.7l3.5-26.6,2.5-12.2,1.7-6.5Z"/></g>
<g class="st-elem-detail"><path class="st--elem" d="M10.53,42.9c-.2,0,3.3-22.4,3.3-22.4a23.81,23.81,0,0,1,.5-2.6,7.05,7.05,0,0,1,1,2.6c-.4,4.9-1.7,13.4-2.4,17.4a12.54,12.54,0,0,1-1,3.4A13.06,13.06,0,0,1,10.53,42.9Z"/></g>
<g class="st-elem-detail"><path class="st--elem" d="M21.43,1.5a1.88,1.88,0,0,0-.8-.7c-.7-.2-1.9,1.4-2.3,2a35,35,0,0,0-2,5.4c-.6,2.4-2,9.5-2,9.5a7.81,7.81,0,0,1,1,3.1c-.8,5.2-2.9,20.3-2.9,20.3l-.8,5.3h0s2.6-17.8,3.4-23.7c.3-2.5,1.9-10,1.9-10S18.73,4.5,20,2.5A2.43,2.43,0,0,1,21.43,1.5Z"/></g>
<g class="st-elem-detail"><path class="st--elem" d="M86.83,42.9c.1.1-3.3-22.4-3.3-22.4a23.81,23.81,0,0,0-.5-2.6,7.05,7.05,0,0,0-1,2.6c.4,4.9,1.7,13.4,2.4,17.4a9.93,9.93,0,0,0,.8,3A15.59,15.59,0,0,0,86.83,42.9Z"/></g>
<g class="st-elem-detail"><path class="st--elem" d="M11.33,73l-1.8.9s.6,3.7,1.3,7.3c.5,2.4,1,4.7,1.4,5.9.6,1.6,2.1,3.9,3.3,3.9s29.6.6,34.3.7,31.8-.6,31.8-.6,2.3-.2,3.7-4.8c1.3-4.4,2.7-12.4,2.7-12.4l-2.1-.8-1.4.5-18.1.2s-2.7.7-3.6.8c-3,.1-22.4.3-28.7,0a17.49,17.49,0,0,1-3.3-.8l-17.6-.5Z"/></g>
<g class="st-elem-detail"><path class="st--elem" d="M31.93,76.8h33.4a.72.72,0,0,1,.7.9c-.4,1.5-3.1,3.6-4.4,3.6H35.23c-1.3,0-3.4-1.6-3.9-3.5C30.93,76.8,31.93,76.8,31.93,76.8Z"/></g>
<g class="st-elem-detail"><path class="st--elem" d="M76,76.4h5s1-.1,1,1.4-1.7,2.6-2.9,3-4.4.8-4.4.8a.68.68,0,0,1-.8-.7C73.83,79.7,76,76.4,76,76.4Z"/></g>
<g class="st-elem-detail"><path class="st--elem" d="M21.33,76.4h-5s-1-.1-1,1.4,1.7,2.6,2.9,3,4.4.8,4.4.8a.68.68,0,0,0,.8-.7C23.53,79.7,21.33,76.4,21.33,76.4Z"/></g></svg>