<svg version="1.1" xmlns="http://www.w3.org/2000/svg" xmlns:xlink="http://www.w3.org/1999/xlink" x="0px" y="0px" viewBox="0 0 224.9 192.1" style="enable-background:new 0 0 224.9 192.1;" xml:space="preserve"><title>van-1_sides</title>
<g class="st-elem-detail"><path class="st--elem" d="M18.6,71.8H21h26.2c0,0,0.1-1.1-0.7-3.9c-0.8-2.9-3.3-11.2-13.6-11.4c-9.5-0.2-12.8,8.3-13.1,9.6	C19.5,67.5,18.6,71.8,18.6,71.8z"/></g>
<g class="st-elem-detail"><path class="st--elem" d="M186.4,72.6h-28.6c0,0,0.4-3.5,1.3-6s4.3-9.4,13.5-8.9c9.2,0.4,11.1,6.1,11.9,7.7	C185.3,67,186.4,72.6,186.4,72.6z"/></g>
<g class="st-elem-detail"><circle class="st--elem" cx="32.8" cy="71.1" r="11.8"/></g>
<g class="st-elem-detail"><circle class="st--elem" cx="32.8" cy="71.1" r="7.3"/></g>	
<g class="st-elem-detail"><line class="st--elem" x1="37.9" y1="66" x2="27.7" y2="76.2"/></g>	
<g class="st-elem-detail"><line class="st--elem" x1="37.9" y1="76.2" x2="27.7" y2="66"/></g>	
<g class="st-elem-detail"><line class="st--elem" x1="32.8" y1="63.8" x2="32.8" y2="78.3"/></g>	
<g class="st-elem-detail"><line class="st--elem" x1="40.1" y1="71.1" x2="25.6" y2="71.1"/></g>	
<g class="st-elem-detail"><circle class="st--elem" cx="32.8" cy="71.1" r="2.4"/></g>
<g class="st-elem-detail"><circle class="st--elem" cx="171.9" cy="71.1" r="11.8"/></g>
<g class="st-elem-detail"><circle class="st--elem" cx="171.9" cy="71.1" r="7.3"/></g>	
<g class="st-elem-detail"><line class="st--elem" x1="177.1" y1="66" x2="166.8" y2="76.2"/></g>	
<g class="st-elem-detail"><line class="st--elem" x1="177.1" y1="76.2" x2="166.8" y2="66"/></g>	
<g class="st-elem-detail"><line class="st--elem" x1="171.9" y1="63.8" x2="171.9" y2="78.3"/></g>	
<g class="st-elem-detail"><line class="st--elem" x1="179.2" y1="71.1" x2="164.7" y2="71.1"/></g>	
<g class="st-elem-detail"><circle class="st--elem" cx="171.9" cy="71.1" r="2.4"/></g>
<g class="st-elem-detail"><path class="st--elem" d="M32.8,37.6l20.5-21.8l-3.4-0.4c0,0-6.5,5.9-12.7,11.9c-5.5,5.3-8.9,9.5-8.9,9.5L32.8,37.6z"/></g>
<g class="st-elem-detail"><path class="st--elem" d="M17.5,47.5c0,0-3.7-1-6-0.4s-4.7,3.7-5.7,5.7s-1.5,4.4-1.5,4.4s5-0.9,7.6-2.6C14.6,53.1,17.5,47.5,17.5,47.5z"/></g>
<g class="st-elem-detail"><path class="st--elem" d="M77.9,0.6c0,0-8.6,0.2-17.4,6.1c-4.4,3-10.7,8.8-10.7,8.8l3.4,0.4c0,0,6.1-4.8,7.8-6.3C68.5,2.9,77.8,1,77.8,1	V0.6H77.9z"/></g>
<g class="st-elem-detail"><path class="st--elem" d="M32.5,37.6l4.4,0.4l4.8-6.5c0,0-0.1-1.4,0.5-2c0.4-0.4,1.5-1.1,1.5-1.1l11.8-12.2c0,0,3.8-4,9.3-8	s13.1-5.9,13.1-5.9V0.8c0,0-8,1.2-14.4,5.9c-5.2,3.9-10.2,9-10.2,9L32.5,37.6z"/></g>
<g class="st-elem-detail"><path class="st--elem" d="M11.5,47.2l20.9-9.6l4.8,0.5c0,0-2.7,3-3.3,4c-0.1,0.2,0,0.7,0,0.7l-16.5,4.7c0,0-0.9-0.4-2.7-0.6	C13.3,46.8,11.5,47.2,11.5,47.2z"/></g>
<g class="st-elem-detail"><path class="st--elem" d="M10.5,55.5l1,3.6h8.2c0,0,4.4-6.1,12-6.3c6.2-0.1,9.4,2,9.4,2V41.4l-7.2,1.4l-16.5,4.7l-3,4.6	C14.5,52.1,12.9,54.6,10.5,55.5z"/></g>
<g class="st-elem-detail"><path class="st--elem" d="M24.1,59.5c0,0,4.5-4,10.7-2.9c8.4,1.5,10.8,8.1,11.5,10.6c0.7,2.6,1.2,7,1.2,7L78.2,74l2-60.5h-3.6l-1.3,35.3	l-1.2,2.1c0,0-1.8,19.6-1.8,20.2c-0.1,1.4-1.5,1.4-1.5,1.4l-20.2,0.2c0,0-0.4-4-1.1-7.2c-0.7-3.1-3.3-8.5-8.2-10.7	c-3.3-1.5-4.2-2.2-9.9-2c-7.1,0.3-11.5,6.3-11.5,6.3L24.1,59.5z"/></g>
<g class="st-elem-detail"><polygon class="st--elem" points="41.2,41.4 41.7,31.6 36.8,38 34,42.1 34,42.8"/></g>
<g class="st-elem-detail"><path class="st--elem" d="M43.8,28.5c2.3-2.9,10.3-10.7,10.3-10.7s2-1.6,2.8-1.9c2.2-0.9,7.1-1.4,9.5-1.6c2.6-0.2,10.2-0.7,10.2-0.7	l-1.3,35.2l-1.2,2.1l-1.8,19.4c0,0-0.1,1.2-0.2,1.3c-0.3,0.8-1.4,0.8-1.4,0.8l-20.2,0.2c0,0-0.2-1.6-0.3-2.6	c-0.1-0.8-0.4-5.9-3.5-10.5c-2.4-3.7-5.5-4.8-5.5-4.8V41.4l0.5-9.9C41.7,31.6,43.2,29.2,43.8,28.5z"/></g>
<g class="st-elem-detail"><path class="st--elem" d="M43.9,40.2l2.3-1.3l-0.5-7.1c0,0-0.2-1.9-0.9-2.6c-0.6-0.7-1.3-0.5-1.7-0.3c-0.3,0.1-0.8,0.4-1,0.7	c-0.6,0.7-0.5,1.3-0.6,3.7c-0.2,2.7-0.3,5.2-0.3,5.2s0,1,0.7,1.3S43.9,40.2,43.9,40.2z"/></g>
<g class="st-elem-detail"><path class="st--elem" d="M54.4,38c0,0,2-18,2.1-18.7c0.1-0.6,0.7-1.2,1-1.2c6.2-1.2,8.1-1.1,14.3-1.6c1.7-0.1,1.9,1.4,1.9,1.4	S73,29,71.5,32.5c-1.2,2.6-3,3.5-3.9,3.7S54.4,38,54.4,38z"/></g>
<g class="st-elem-detail"><path class="st--elem" d="M44.7,29"/></g>
<g class="st-elem-detail"><path class="st--elem" d="M45.2,29.8c0,0,2.4-2.5,3.5-3.9c2.2-2.6,5.5-5.8,5.3-5.6c0,0,1.7-1.5,1.4,0.3c-0.3,1.8-2.1,17.6-2.1,17.6	l-7.9,1.5h-0.3v-9.9H45.2z"/></g>
<g class="st-elem-detail"><circle class="st--elem" cx="69.1" cy="43.7" r="2.2"/></g>
<g class="st-elem-detail"><path class="st--elem" d="M65.7,43.1l7.2-0.1c0,0,0.8,0.1,0.8,0.7s-0.8,0.7-0.8,0.7l-7.3-0.2c0,0-0.3-0.1-0.3-0.6S65.7,43.1,65.7,43.1z"/></g>
<g class="st-elem-detail"><path class="st--elem" d="M212.2,64.9c0,0,0.3-0.8,0.5-0.8c1.2,0.1,1.5-1,1.5-1l1-13.5v-9.7l-1.7-25.8L80.2,13.6l-2,51.7l81.4,0.7	c0,0,3.4-8.5,13.1-8.2c8.8,0.5,11.9,7.7,11.9,7.7s9.6,0.3,12.9,0.3C201.5,65.8,212.2,64.9,212.2,64.9z"/></g>
<g class="st-elem-detail"><path class="st--elem" d="M211.8,72.6l0.4-7.7c0,0-10,0.8-13.2,0.8c-3.8,0.1-14.5-0.3-14.5-0.3s1.7,4.4,2,7.7c0,0.3,0.1,1.2,0.6,1.2	s4.2-0.1,9.7-0.2C204.1,74,211.8,72.6,211.8,72.6z"/></g>
<g class="st-elem-detail"><path class="st--elem" d="M78.2,74.1c0,0,77.6,0.2,78.4,0.2s1.2-1.4,1.2-1.4s0.2-1.6,0.8-4.2c0.3-1.5,1.1-2.7,1.1-2.7l-81.5-0.7V74.1z"/></g>
<g class="st-elem-detail"><path class="st--elem" d="M155.8,66c0,0,3-12.1,16.3-12.1c13.4,0,15.2,11.7,15.2,11.7l-2.8-0.1c0,0-3.5-7.7-12.4-7.7	c-9.2,0-12.6,8.3-12.6,8.3h-3.7V66z"/></g>
<g class="st-elem-detail"><path class="st--elem" d="M77.9,2.4h134.7l1.1,11.7L78.2,13.6h-1.6c0,0-9.5,0.6-12.7,1c-1.3,0.1-3.8,0.5-5,0.7c-0.5,0.1-1.6,0.4-2,0.6	c-0.8,0.4-2.8,1.9-2.8,1.9l2.5-2.6l3.9-3.6c0,0,4.2-3.9,8.3-5.9C72.6,4,77.9,2.4,77.9,2.4z"/></g>
<g class="st-elem-detail"><polygon class="st--elem" points="77.9,0.6 184.9,0.6 212.4,0.6 212.5,2.4 77.9,2.4"/></g>
<g class="st-elem-detail"><path class="st--elem" d="M211.8,72.6l5.9-1.1h2.8l2.5-1.1l0.6-2.9l-1.8-1l0.4-5.8L223,60v-1.5l-1.9,0.4l-6.5-0.1c0,0-0.3,4.1-0.3,4.4	s-0.4,1-1.2,1c-0.1,0-0.3,0-0.3,0c-0.3,0-0.5,0.8-0.5,0.8L211.8,72.6z"/></g>
<g class="st-elem-detail"><polygon class="st--elem" points="221.4,14.8 219.4,15.3 220.8,37.4 223.1,41.4"/></g>
<g class="st-elem-detail"><path class="st--elem" d="M223,58.4l0.1-17l-2.3-4v3.4c0,0,0.5,0.3,0.5,1.6s0,13.5,0,13.5s0,1.7-0.1,2.1c-0.1,0.3-1,0.9-1,0.9h0.9	L223,58.4z"/></g>
<g class="st-elem-detail"><path class="st--elem" d="M215.3,40.2c0,0,3.5,0.1,4.7,0.3c0.2,0,0.6,0.2,0.8,0.3c0.2,0.1,0.4,0.8,0.4,0.8s0.1,16.1,0,16.3s-1,0.9-1,0.9	l-5.6-0.1l0.7-9.2V40.2z"/></g>
<g class="st-elem-detail"><path class="st--elem" d="M212.5,2.4c0,0,1.4-0.2,3.4,0.7c0.4,0.2,1.5,0.7,1.5,0.7l2,11.5l1.3,22.1v3.4l-0.8-0.3l-4.7-0.3l-0.8-12.1	l-0.9-13.9L212.5,2.4z"/></g>
<g class="st-elem-detail"><path class="st--elem" d="M212.4,0.6c0,0,2,0.2,2.9,0.5c0.9,0.4,1.4,0.7,1.4,0.7l0.8,1.9c0,0-0.6-0.2-1.5-0.7c-0.9-0.4-3.4-0.7-3.4-0.7	L212.4,0.6z"/></g>
<g class="st-elem-detail"><path class="st--elem" d="M221.4,14.8l-1.2-7.1c0,0-0.6-3.1-1.3-4.1c-0.6-1-2.2-1.7-2.2-1.7l0.8,1.9l0.8,4.6l1.2,6.9L221.4,14.8z"/></g>
<g class="st-elem-detail"><path class="st--elem" d="M24.1,59.5c0,0-3.4,2.8-4.3,6.6c-0.3,1.3-0.8,4.8-1.2,6c-0.1,0.4-0.7,1.1-1,1.3c-0.4,0.3-1.3,0.3-1.8,0.3	c-1.4,0-5.8,0-5.8,0l-0.8-1.1l-6.3-2c0,0-0.9-0.2-1.2-0.2c-0.6-0.2-0.5-0.8-0.6-1.1c-0.2-0.7,0-3,0-3L2,65.7L2.1,62l-1.6-0.2v-0.9	c0,0,0.7-0.5,0.9-0.6c0.4-0.2,1.1-0.6,1.5-0.7c2.1-0.5,8.7-0.5,8.7-0.5h8.2L24.1,59.5z"/></g>
<g class="st-elem-detail"><path class="st--elem" d="M30.7,37.3c0,0-10.4,4-15,6c-7.5,3.2-8.2,4.7-9.8,6.6c-0.6,0.7-1.3,2.4-1.3,2.4l-2.2,5.8l-1.2,0.7l-0.4,0.6	l0.3,0.9l1.5-0.7L5,59.3l6.3-0.2l-1-3.6l-1.9,0.7l-2.1,0.6L4,57.3c0,0,1.4-4.5,2.2-5.6c0.7-1,2.3-2.8,3.2-3.5c0.4-0.3,1.9-1,1.9-1	l6-3l15-6.6L30.7,37.3z"/></g>
<g class="st-elem-detail"><path class="st--elem" d="M0.9,57.8c0,0.3,0.4,1,0.4,1l1.2-0.7l2.2-5.8l0.7-1.4l-1.5-0.7c0,0-1.7,1.2-2.2,3C1.2,55,0.9,56.5,0.9,57.8z"/></g>
<g class="st-elem-detail"><path class="st--elem" d="M28.3,36.9c0,0-2.9,0.5-3.6,0.7c-3,0.8-8,2.8-10.7,4c-2,0.9-5.1,2.7-6.9,3.9c-0.8,0.6-2.6,2.2-2.9,2.8	c-0.4,0.6-0.9,1.4-0.9,1.4L3.8,50l2.6,1.6c0,0,0.8-1.2,1.5-1.9c2-2,3.6-2.7,3.6-2.7l20.9-9.6L28.3,36.9z"/></g>
<g class="st-elem-detail"><path class="st--elem" d="M206.3,180.5h-2.4h-26.1c0,0-0.1-1.1,0.7-3.9c0.8-2.9,3.3-11.2,13.6-11.4c9.5-0.2,12.8,8.3,13.1,9.6	C205.5,176.2,206.3,180.5,206.3,180.5z"/></g>
<g class="st-elem-detail"><path class="st--elem" d="M38.5,181.3h28.7c0,0-0.4-3.5-1.3-6s-4.3-9.4-13.5-8.9s-11.1,6.1-11.9,7.7C39.7,175.7,38.5,181.3,38.5,181.3z"/></g>
<g class="st-elem-detail"><circle class="st--elem" cx="192.1" cy="179.8" r="11.8"/></g>
<g class="st-elem-detail"><circle class="st--elem" cx="192.1" cy="179.8" r="7.3"/></g>	
<g class="st-elem-detail"><line class="st--elem" x1="187" y1="174.7" x2="197.3" y2="184.9"/></g>	
<g class="st-elem-detail"><line class="st--elem" x1="187" y1="184.9" x2="197.3" y2="174.7"/></g>	
<g class="st-elem-detail"><line class="st--elem" x1="192.1" y1="172.5" x2="192.1" y2="187"/></g>	
<g class="st-elem-detail"><line class="st--elem" x1="184.9" y1="179.8" x2="199.4" y2="179.8"/></g>	
<g class="st-elem-detail"><circle class="st--elem" cx="192.1" cy="179.8" r="2.4"/></g>
<g class="st-elem-detail"><circle class="st--elem" cx="53" cy="179.8" r="11.8"/></g>
<g class="st-elem-detail"><circle class="st--elem" cx="53" cy="179.8" r="7.3"/></g>	
<g class="st-elem-detail"><line class="st--elem" x1="47.9" y1="174.7" x2="58.2" y2="184.9"/></g>	
<g class="st-elem-detail"><line class="st--elem" x1="47.9" y1="184.9" x2="58.2" y2="174.7"/></g>	
<g class="st-elem-detail"><line class="st--elem" x1="53" y1="172.5" x2="53" y2="187"/></g>	
<g class="st-elem-detail"><line class="st--elem" x1="45.8" y1="179.8" x2="60.3" y2="179.8"/></g>	
<g class="st-elem-detail"><circle class="st--elem" cx="53" cy="179.8" r="2.4"/></g>
<g class="st-elem-detail"><path class="st--elem" d="M192.1,146.4l-20.4-21.8l3.4-0.4c0,0,6.5,5.9,12.7,11.9c5.5,5.3,8.9,9.5,8.9,9.5L192.1,146.4z"/></g>
<g class="st-elem-detail"><path class="st--elem" d="M207.4,156.3c0,0,3.7-1,6-0.4s4.7,3.7,5.7,5.7s1.5,4.4,1.5,4.4s-5-0.9-7.6-2.6	C210.4,161.8,207.4,156.3,207.4,156.3z"/></g>
<g class="st-elem-detail"><path class="st--elem" d="M147.1,109.3c0,0,8.6,0.2,17.4,6.1c4.4,3,10.7,8.8,10.7,8.8l-3.4,0.4c0,0-6.1-4.8-7.8-6.3	c-7.5-6.7-16.8-8.6-16.8-8.6v-0.4H147.1z"/></g>
<g class="st-elem-detail"><path class="st--elem" d="M192.5,146.3l-4.4,0.4l-4.8-6.5c0,0,0.1-1.4-0.5-2c-0.4-0.4-1.5-1.1-1.5-1.1l-11.8-12.2c0,0-3.8-4-9.3-8	s-13.1-5.9-13.1-5.9v-1.5c0,0,8,1.2,14.4,5.9c5.2,3.9,10.2,9,10.2,9L192.5,146.3z"/></g>
<g class="st-elem-detail"><path class="st--elem" d="M213.4,155.9l-20.9-9.6l-4.8,0.5c0,0,2.7,3,3.3,4c0.1,0.2,0,0.7,0,0.7l16.5,4.7c0,0,0.9-0.4,2.7-0.6	C211.7,155.5,213.4,155.9,213.4,155.9z"/></g>
<g class="st-elem-detail"><path class="st--elem" d="M214.4,164.2l-1,3.6h-8.2c0,0-4.4-6.1-12-6.3c-6.2-0.1-9.4,2-9.4,2v-13.3l7.2,1.4l16.5,4.7l3,4.6	C210.4,160.8,212,163.3,214.4,164.2z"/></g>
<g class="st-elem-detail"><path class="st--elem" d="M200.8,168.3c0,0-4.5-4-10.7-2.9c-8.4,1.5-10.8,8.1-11.5,10.6s-1.2,7-1.2,7l-30.7-0.2l-2-60.5h3.6l1.2,35.2	l1.2,2.1c0,0,1.8,19.6,1.8,20.2c0.1,1.4,1.5,1.4,1.5,1.4l20.2,0.2c0,0,0.4-4,1.1-7.2c0.7-3.1,3.3-8.5,8.2-10.7	c3.3-1.5,4.2-2.2,9.9-2c7.1,0.3,11.5,6.3,11.5,6.3L200.8,168.3z"/></g>
<g class="st-elem-detail"><polygon class="st--elem" points="183.8,150.1 183.3,140.3 188.1,146.7 190.9,150.8 190.9,151.5"/></g>
<g class="st-elem-detail"><path class="st--elem" d="M181.2,137.2c-2.3-2.9-10.3-10.7-10.3-10.7s-2-1.6-2.8-1.9c-2.2-0.9-7.1-1.4-9.5-1.6	c-2.6-0.2-10.2-0.7-10.2-0.7l1.2,35.2l1.2,2.1l1.8,19.4c0,0,0.1,1.2,0.2,1.3c0.3,0.8,1.4,0.8,1.4,0.8l20.2,0.2c0,0,0.2-1.6,0.3-2.6	c0.1-0.8,0.4-5.9,3.5-10.5c2.4-3.7,5.5-4.8,5.5-4.8v-13.3l-0.5-9.9C183.3,140.3,181.8,137.9,181.2,137.2z"/></g>
<g class="st-elem-detail"><path class="st--elem" d="M181,148.9l-2.3-1.3l0.5-7.1c0,0,0.2-1.9,0.9-2.6c0.6-0.7,1.3-0.5,1.7-0.3c0.3,0.1,0.8,0.4,1,0.7	c0.6,0.7,0.5,1.3,0.6,3.7c0.2,2.7,0.3,5.2,0.3,5.2s0,1-0.7,1.3C182.1,148.8,181,148.9,181,148.9z"/></g>
<g class="st-elem-detail"><path class="st--elem" d="M170.5,146.7c0,0-2-18-2.1-18.7c-0.1-0.6-0.7-1.2-1-1.2c-6.2-1.2-8.1-1.1-14.3-1.6c-1.7-0.1-1.9,1.4-1.9,1.4	s0.7,11.1,2.2,14.6c1.2,2.6,3,3.5,3.9,3.7C158.2,145.1,170.5,146.7,170.5,146.7z"/></g>
<g class="st-elem-detail"><path class="st--elem" d="M180.3,137.7"/></g>
<g class="st-elem-detail"><path class="st--elem" d="M179.7,138.5c0,0-2.4-2.5-3.5-3.9c-2.2-2.6-5.5-5.8-5.3-5.6c0,0-1.7-1.5-1.4,0.3c0.3,1.8,2.1,17.6,2.1,17.6	l7.9,1.5h0.3v-9.9H179.7z"/></g>
<g class="st-elem-detail"><circle class="st--elem" cx="155.8" cy="152.4" r="2.2"/></g>
<g class="st-elem-detail"><path class="st--elem" d="M159.2,151.8l-7.2-0.1c0,0-0.8,0.1-0.8,0.7c0,0.6,0.8,0.7,0.8,0.7l7.3-0.2c0,0,0.3-0.1,0.3-0.6	C159.6,151.9,159.2,151.8,159.2,151.8z"/></g>
<g class="st-elem-detail"><path class="st--elem" d="M12.7,173.6c0,0-0.3-0.8-0.5-0.8c-1.2,0.1-1.5-1-1.5-1l-1-13.5v-9.7l1.7-25.8l133.5-0.6l2,51.7l-81.4,0.7	c0,0-3.4-8.5-13.1-8.2c-8.8,0.5-11.9,7.7-11.9,7.7s-9.6,0.3-12.9,0.3C23.4,174.5,12.7,173.6,12.7,173.6z"/></g>
<g class="st-elem-detail"><path class="st--elem" d="M13.1,181.3l-0.4-7.7c0,0,10,0.8,13.2,0.8c3.8,0.1,14.5-0.3,14.5-0.3s-1.7,4.4-2,7.7c0,0.3-0.1,1.2-0.6,1.2	c-0.6,0-4.2-0.1-9.7-0.2C20.8,182.7,13.1,181.3,13.1,181.3z"/></g>
<g class="st-elem-detail"><path class="st--elem" d="M146.8,182.8c0,0-77.6,0.2-78.4,0.2s-1.2-1.4-1.2-1.4s-0.2-1.6-0.8-4.2c-0.3-1.5-1.1-2.7-1.1-2.7l81.4-0.7v8.8	H146.8z"/></g>
<g class="st-elem-detail"><path class="st--elem" d="M69.2,174.7c0,0-3-12.1-16.3-12.1c-13.4,0-15.2,11.7-15.2,11.7l2.8-0.1c0,0,3.5-7.7,12.4-7.7	c9.2,0,12.6,8.3,12.6,8.3L69.2,174.7L69.2,174.7z"/></g>
<g class="st-elem-detail"><path class="st--elem" d="M147.1,111.1H12.4l-1.1,11.7l135.5-0.6h1.6c0,0,9.5,0.6,12.7,1c1.3,0.1,3.8,0.5,5,0.7c0.5,0.1,1.6,0.4,2,0.6	c0.8,0.4,2.8,1.9,2.8,1.9l-2.5-2.6l-3.9-3.6c0,0-4.2-3.9-8.3-5.9C152.4,112.7,147.1,111.1,147.1,111.1z"/></g>
<g class="st-elem-detail"><polygon class="st--elem" points="147.1,109.3 40,109.3 12.6,109.3 12.4,111.1 147.1,111.1"/></g>
<g class="st-elem-detail"><path class="st--elem" d="M13.1,181.3l-5.9-1.1H4.4l-2.5-1.1l-0.6-2.9l1.8-1l-0.4-5.8l-0.8-0.7v-1.5l1.9,0.4l6.5-0.1	c0,0,0.3,4.1,0.3,4.4c0,0.3,0.4,1,1.2,1c0.1,0,0.3,0,0.3,0c0.3,0,0.5,0.8,0.5,0.8L13.1,181.3z"/></g>
<g class="st-elem-detail"><polygon class="st--elem" points="3.6,123.5 5.5,124 4.2,146.1 1.9,150.1"/></g>
<g class="st-elem-detail"><path class="st--elem" d="M2,167.1l-0.1-17l2.3-4v3.4c0,0-0.5,0.3-0.5,1.6s0,13.5,0,13.5s0,1.7,0.1,2.1c0.1,0.3,1,0.9,1,0.9H3.9L2,167.1	z"/></g>
<g class="st-elem-detail"><path class="st--elem" d="M9.7,148.9c0,0-3.5,0.1-4.7,0.3c-0.2,0-0.6,0.2-0.8,0.3c-0.2,0.1-0.4,0.8-0.4,0.8s-0.1,16.1,0,16.3	s1,0.9,1,0.9l5.6-0.1l-0.7-9.2V148.9z"/></g>
<g class="st-elem-detail"><path class="st--elem" d="M12.4,111.1c0,0-1.4-0.2-3.4,0.7c-0.4,0.2-1.5,0.7-1.5,0.7l-2,11.5l-1.3,22.1v3.4l0.8-0.3l4.7-0.3l0.8-12.1	l0.9-13.9L12.4,111.1z"/></g>
<g class="st-elem-detail"><path class="st--elem" d="M12.6,109.3c0,0-2,0.2-2.9,0.5c-0.9,0.4-1.4,0.7-1.4,0.7l-0.8,1.9c0,0,0.6-0.2,1.5-0.7s3.4-0.7,3.4-0.7	L12.6,109.3z"/></g>
<g class="st-elem-detail"><path class="st--elem" d="M3.6,123.5l1.2-7.1c0,0,0.6-3.1,1.3-4.1c0.6-1,2.2-1.7,2.2-1.7l-0.8,1.9l-0.8,4.6L5.5,124L3.6,123.5z"/></g>
<g class="st-elem-detail"><path class="st--elem" d="M200.8,168.3c0,0,3.4,2.8,4.3,6.6c0.3,1.3,0.8,4.8,1.2,6c0.1,0.4,0.7,1.1,1,1.3c0.4,0.3,1.3,0.3,1.8,0.3	c1.4,0,5.8,0,5.8,0l0.8-1.1l6.3-2c0,0,0.9-0.2,1.2-0.2c0.6-0.2,0.5-0.8,0.6-1.1c0.2-0.7,0-3,0-3l-0.9-0.6l-0.1-3.7l1.6-0.2v-0.9	c0,0-0.7-0.5-0.9-0.6c-0.4-0.2-1.1-0.6-1.5-0.7c-2.1-0.5-8.7-0.5-8.7-0.5h-8.1L200.8,168.3z"/></g>
<g class="st-elem-detail"><path class="st--elem" d="M194.3,146c0,0,10.4,4,15,6c7.5,3.2,8.2,4.7,9.8,6.6c0.6,0.7,1.3,2.4,1.3,2.4l2.2,5.8l1.2,0.7l0.4,0.6	l-0.3,0.9l-1.5-0.7L220,168l-6.3-0.2l1-3.6l1.9,0.7l2.1,0.6l2.3,0.5c0,0-1.4-4.5-2.2-5.6c-0.7-1-2.3-2.8-3.2-3.5	c-0.4-0.3-1.9-1-1.9-1l-6-3l-15-6.6L194.3,146z"/></g>
<g class="st-elem-detail"><path class="st--elem" d="M224,166.5c0,0.3-0.4,1-0.4,1l-1.2-0.7l-2.2-5.8l-0.7-1.4l1.5-0.7c0,0,1.7,1.2,2.2,3	C223.7,163.7,224.1,165.3,224,166.5z"/></g>
<g class="st-elem-detail"><path class="st--elem" d="M196.6,145.6c0,0,2.9,0.5,3.6,0.7c3,0.8,8,2.8,10.7,4c2,0.9,5.1,2.7,6.9,3.9c0.8,0.6,2.6,2.2,2.9,2.8	c0.4,0.6,0.9,1.4,0.9,1.4l-0.5,0.3l-2.6,1.6c0,0-0.8-1.2-1.5-1.9c-2-2-3.6-2.7-3.6-2.7l-20.9-9.6L196.6,145.6z"/></g>
<g class="st-elem-detail"><path class="st--elem" d="M95.6,122.2l49.2,0.1l1.9,58.4H94.4c0,0,0.2-26.1,0.4-38.2C95.1,130.5,95.6,122.2,95.6,122.2z"/></g>
<g class="st-elem-detail"><circle class="st--elem" cx="138.2" cy="152.4" r="2.2"/></g>
<g class="st-elem-detail"><path class="st--elem" d="M141.6,151.8l-7.2-0.1c0,0-0.8,0.1-0.8,0.7c0,0.6,0.8,0.7,0.8,0.7l7.3-0.2c0,0,0.3-0.1,0.3-0.6	C142,151.8,141.6,151.8,141.6,151.8z"/></g>
<g class="st-elem-detail"><polygon class="st--elem" points="96.5,111.1 144.8,111.1 144.5,122.2 95.6,122.2"/></g>
<g class="st-elem-detail"><path class="st--elem" d="M26.5,161.5h-9.6c-0.5,0-0.9-0.4-0.9-0.9V151c0-0.5,0.4-0.9,0.9-0.9h9.6c0.5,0,0.9,0.4,0.9,0.9v9.6	C27.3,161.1,26.9,161.5,26.5,161.5z"/></g>	</svg>