<svg version="1.1" xmlns="http://www.w3.org/2000/svg" xmlns:xlink="http://www.w3.org/1999/xlink" x="0px" y="0px"	 viewBox="0 0 88.59 198.58"><title>wagon_up</title>
<g class="st-elem-detail"><path class="st--elem" d="M13.42,5.87C16,4.45,27,.06,44.84.54S70.46,3.88,72.53,5s4.69,4.53,5.41,6.36A27.58,27.58,0,0,1,79.09,16l-1,4.09-17.5-3.2S32.19,13.08,32,13.25,19.15,16,19.15,16L9.84,19.79,8.69,17.6S9.92,7.77,13.42,5.87Z"/></g>
<g class="st-elem-detail"><path class="st--elem" d="M79.09,16s-.89-5.24-3-6.59-8.75-3.07-8.75-3.07V9l4.25,3.34,3.57,3,1.9,3.09s1.67,1.91,2.06,1.67S79.09,16,79.09,16Z"/></g>
<g class="st-elem-detail"><path class="st--elem" d="M80.61,177.13l1.19-4.46s.7-20.42,0-22.33a8.27,8.27,0,0,1-.43-3.66l.44-57.12-.43-27A90.49,90.49,0,0,0,82.12,51c-.2-4.06-.29-10.11-.73-13.3s-.77-7.32-.77-7.32l-1.91-16-.45,4s-2.13-5-4.22-6l-2.08-1-2.07,2.47-3.22,6.35-2.25,6.54s-.4,47.74,0,57.44,3.19,26.33,3.19,26.33S71.33,129,73.27,137.3s3.1,13.52,3.47,15.75-.38,9,0,10.4.48,14.37.48,14.37l1.07,1.81Z"/></g>
<g class="st-elem-detail"><path class="st--elem" d="M9.18,16s1.17-5.24,3.23-6.59,9-3.07,9-3.07V9l-4.49,3.34-3.68,3-2,3.09s-1.7,1.91-2.07,1.67S9.18,16,9.18,16Z"/></g>
<g class="st-elem-detail"><path class="st--elem" d="M7.24,177.13l-1.18-4.46s-.69-20.42,0-22.33a8.35,8.35,0,0,0,.43-3.66L6.05,89.56l.43-27a92,92,0,0,1-.83-11.2c.07-4,.53-10.42.82-13.62s.74-7.32.74-7.32L9,14.83l.5,3.61s2.14-5,4.22-6l2.08-1,2.06,2.47,3.22,6.35,2.27,6.54s.24,48.9,0,57.44-3.19,26.33-3.19,26.33S16.46,129,14.54,137.3,11.46,150.82,11.09,153s.37,9,0,10.4-.48,14.37-.48,14.37l-1.06,1.81Z"/></g>
<g class="st-elem-detail"><path class="st--elem" d="M6,172.67l3.77,5.74,1.27-1.92,13.2,15.14,14.22,3.42L54,194l6.36-2.08,9.87-4.19,4.45-3.86,1.06-2.7.88-4.19L78,178.4l3.72-5.3s.42,5.62-1.49,9.44-2.23,6-7.32,8.9-14.43,4.68-18.67,5.42-10.08,1.7-14.85,1-11.67-1.7-16-3.08-9.55-3.29-11.35-5.2A23.8,23.8,0,0,1,8.06,184,17.2,17.2,0,0,1,6.58,179C6.26,177.13,6,172.67,6,172.67Z"/></g>
<g class="st-elem-detail"><path class="st--elem" d="M12,140.44a43.71,43.71,0,0,1,.46-4.79c.32-1.59,2.26-10.19,3-13.22s3.45-11.71,3.45-11.71l.1-1.09s14.22,2.84,20.74,3.08,12.25.32,16.15-.4,11.3-2.15,11.3-2.15l.79.72s3.66,14,4.46,16.95a66.49,66.49,0,0,1,1.75,7.8,29.52,29.52,0,0,0,1.27,4.81s-13.29,6.4-18.38,7.76a44.15,44.15,0,0,1-9.31,1.51A29.46,29.46,0,0,1,35.53,149c-6.84-1.83-14.16-2-16.71-3.34S12.62,142,12.62,142Z"/></g>
<g class="st-elem-detail"><path class="st--elem" d="M63.55,190.48s7.52-1.26,10.17-3.59,4.1-4.24,4.44-5.94-.94-5.41-.94-5.41l-6.34,4.78-3.21,4.77s-2.86,3.08-3,3.39S63.55,190.48,63.55,190.48Z"/></g>
<g class="st-elem-detail"><path class="st--elem" d="M24.71,190.8s-7.8-1.26-10.55-3.59S9.9,183,9.55,181.27s1-5.41,1-5.41l6.58,4.77,3.33,4.77s3,3.08,3.08,3.39S24.71,190.8,24.71,190.8Z"/></g>
<g class="st-elem-detail"><path class="st--elem" d="M24.29,191.63s13.58,5.75,18.88,5.65,18.14-4.14,18.14-4.14L64,190.49s-15-3-16.12-2.76-15.59.74-16.23,1.06-5.73.64-6,.85A12,12,0,0,0,24.29,191.63Z"/></g>
<g class="st-elem-detail"><path class="st--elem" d="M10.61,178.15l13.68,14.17H25s-.74-1.38,1.48-1,13.68,2.8,16.87,2.8,18.35-3.27,18.35-3.27,1.8-.26,1.27.27-1.54,1.8-1.54,1.8a80.78,80.78,0,0,0,10.24-8.84,54.84,54.84,0,0,0,5.62-6.79L78,178.4s.21-3.71,0-8.49-.13-15.6.09-20.16a62.72,62.72,0,0,0,0-7.32s-2.22-2.86-2.75-2.86-15.49,8.17-31.5,8.17-31.61-8.17-31.61-8.17-.53-.21-1.06.64-1.59,2.23-1.59,2.23,0,7.74.11,14.75.11,11.24.32,14.64l-.15,6.76Z"/></g>
<g class="st-elem-detail"><path class="st--elem" d="M22.65,23.85l-1.11-.64s-6-10-5.89-11,.63-4,3.5-5.09S33.84,3.27,44.34,3.27,66.72,5.87,68,6.5a9,9,0,0,1,3.66,3.66c.64,1.43.48,1.59,0,3.34s-5.41,9.71-5.41,9.71-23.71,4.93-26.73,4.14A81,81,0,0,0,27.1,25.6C26.31,25.75,22.65,23.85,22.65,23.85Z"/></g>
<g class="st-elem-detail"><path class="st--elem" d="M19,110.05A83.63,83.63,0,0,0,43,113.75a145.66,145.66,0,0,0,25-2.87,234.58,234.58,0,0,1-2.7-42.32C66,48.52,65,24.64,65,24.64l1.27-1.43S59.17,17,43.85,17.64s-22.32,5.57-22.32,5.57l.67,2s-.35,20.11-.67,38.09-.64,28.64-1.11,34.05S19,110.05,19,110.05Z"/></g>
<g class="st-elem-detail"><path class="st--elem" d="M6.07,91.64,10.5,90s2.8-1.2,4-1.83,4.86-.77,4.86-.77.19-12.64.27-21.77,0-12.23,0-12.23-6.19-7.8-7.66-8S8.25,47.16,7.85,48a15.23,15.23,0,0,0-.72,2.63c-.32,1.11-1.47,3.44-1.35,5.1s.69,6.84.69,6.84-.13,8.27-.2,12.33-.12,7.48-.17,10.9S6.07,91.64,6.07,91.64Z"/></g>
<g class="st-elem-detail"><path class="st--elem" d="M6.43,139.55s2.35-.27,3.12-1.86,6.42-24,7.21-27.37S18.49,98.85,18.83,96c.37-3.16.6-9.55.6-9.55s-6.91.82-9.25,1.67a36.27,36.27,0,0,0-4.81,2.31v1.21s.49,18.68.55,26.64.25,10,.28,14.16S6.43,139.55,6.43,139.55Z"/></g>
<g class="st-elem-detail"><path class="st--elem" d="M13.74,12.39s-1.8,9.23-2.1,13.92c-.42,6.76-.93,36-1,52.8-.17,27.45-1.06,58.34-1.06,58.34"/></g>
<g class="st-elem-detail"><path class="st--elem" d="M10.55,86.3s2.43-.63,4.86-1.19c1.22-.28,4-.67,4-.67"/></g>
<g class="st-elem-detail"><line class="st--elem" x1="10.79" y1="62.28" x2="19.71" y2="59.93"/></g>
<g class="st-elem-detail"><line class="st--elem" x1="10.79" y1="63.22" x2="19.71" y2="61.11"/></g>
<g class="st-elem-detail"><path class="st--elem" d="M11,46.68s3.72,3.92,4.72,4.89,3.94,4.26,3.94,4.26"/></g>
<g class="st-elem-detail"><line class="st--elem" x1="19.3" y1="89.38" x2="10.45" y2="94.28"/></g>
<g class="st-elem-detail"><path class="st--elem" d="M13.63,122.61s-3.37,1.82-4.09,3.47a16.22,16.22,0,0,0-1,2.76,3.64,3.64,0,0,1,.64,1.33A28.58,28.58,0,0,0,9.89,133a3.87,3.87,0,0,0,.66,1.28Z"/></g>
<g class="st-elem-detail"><path class="st--elem" d="M2.49,125.31a7.78,7.78,0,0,1-1.7-2.52,5.12,5.12,0,0,1-.21-2.55,35.26,35.26,0,0,1,6.74,2.37c1.48.84,2.15.74,2.23,1.64a7.27,7.27,0,0,1,0,1.49,2,2,0,0,1,.9-.16,2,2,0,0,1,.35,2.33c-.58.88-1.22.86-2.55.54a13.69,13.69,0,0,1-4-1.68A12.74,12.74,0,0,1,2.49,125.31Z"/></g><g class="st-elem-detail"><ellipse class="st--elem" cx="7.58" cy="100.17" rx="4.03" ry="0.58" transform="translate(-92.87 99.67) rotate(-85.39)"/></g><g class="st-elem-detail"><ellipse class="st--elem" cx="8.22" cy="59.91" rx="4.03" ry="0.58" transform="translate(-52.22 61.91) rotate(-84.08)"/></g>
<g class="st-elem-detail"><path class="st--elem" d="M9.37,41.56c0,.26-.14.76-.4.76H7.9c-.26,0-.53-.5-.53-.76V35.46c0-.26.27-.14.53-.14H9c.26,0,.4-.13.4.14Z"/></g>
<g class="st-elem-detail"><path class="st--elem" d="M12.75,43.58l7,7.68s.25-23.91,0-25.74-5.57-7.67-6-7.3S12.75,43.58,12.75,43.58Z"/></g>
<g class="st-elem-detail"><path class="st--elem" d="M82.15,91.64,77.42,90s-3-1.2-4.32-1.83-5.18-.77-5.18-.77-.2-12.64-.28-21.77,0-12.23,0-12.23,6.6-7.8,8.17-8,4,1.67,4.46,2.47A14.49,14.49,0,0,1,81,50.58c.34,1.11,1.57,3.44,1.44,5.1s-.74,6.84-.74,6.84.14,8.27.21,12.33l.18,10.9C82.16,89.16,82.15,91.64,82.15,91.64Z"/></g>
<g class="st-elem-detail"><path class="st--elem" d="M81.77,139.55s-2.51-.27-3.33-1.86-6.85-24-7.7-27.37S68.89,98.85,68.53,96c-.4-3.16-.64-9.55-.64-9.55A71.09,71.09,0,0,1,77,88.13a17.85,17.85,0,0,1,4.37,2.31v1.21s.24,18.68.18,26.64.11,10,.08,14.16S81.77,139.55,81.77,139.55Z"/></g>
<g class="st-elem-detail"><path class="st--elem" d="M74,12.39s1.92,9.23,2.24,13.92c.45,6.76,1,36,1.1,52.8.19,27.45,1.13,58.34,1.13,58.34"/></g>
<g class="st-elem-detail"><path class="st--elem" d="M77.37,86.3s-2.59-.63-5.19-1.19c-1.3-.28-4.29-.67-4.29-.67"/></g>
<g class="st-elem-detail"><line class="st--elem" x1="77.11" y1="62.28" x2="67.59" y2="59.93"/></g>
<g class="st-elem-detail"><line class="st--elem" x1="77.11" y1="63.22" x2="67.59" y2="61.11"/></g>
<g class="st-elem-detail"><path class="st--elem" d="M76.84,46.68s-4,3.92-5,4.89-4.21,4.26-4.21,4.26"/></g>
<g class="st-elem-detail"><line class="st--elem" x1="68.03" y1="89.38" x2="77.47" y2="94.28"/></g>
<g class="st-elem-detail"><path class="st--elem" d="M74.08,122.61s3.6,1.82,4.36,3.47a15.45,15.45,0,0,1,1,2.76,3.57,3.57,0,0,0-.68,1.33,27.12,27.12,0,0,1-.71,2.84,3.8,3.8,0,0,1-.7,1.28Z"/></g>
<g class="st-elem-detail"><path class="st--elem" d="M86,125.31a7.78,7.78,0,0,0,1.81-2.52,4.81,4.81,0,0,0,.23-2.55,39.4,39.4,0,0,0-7.19,2.37c-1.58.84-2.29.74-2.38,1.64a6.89,6.89,0,0,0,0,1.49,2.24,2.24,0,0,0-1-.16,1.88,1.88,0,0,0-.37,2.33c.62.88,1.3.86,2.72.54a15.16,15.16,0,0,0,4.27-1.68A13.38,13.38,0,0,0,86,125.31Z"/></g>
<g class="st-elem-detail"><path class="st--elem" d="M80.19,96.15c-.34,0-.46,1.85-.27,4.06s.62,4,1,4,.47-1.85.27-4.06S80.53,96.12,80.19,96.15Z"/></g>
<g class="st-elem-detail"><path class="st--elem" d="M79.41,55.9c-.34,0-.42,1.86-.17,4.07s.72,4,1.06,3.95.42-1.85.17-4.07S79.75,55.87,79.41,55.9Z"/></g>
<g class="st-elem-detail"><path class="st--elem" d="M78.13,35.32c-.28,0,.24.12.24.38v5.73c0,.26-.52,1.89-.24,1.89h2c.28,0,.2-1.63.2-1.89V35.7c0-.26.08-.38-.2-.38Z"/></g>
<g class="st-elem-detail"><path class="st--elem" d="M75,43.58l-7.43,7.68s-.27-23.91,0-25.74,5.95-7.67,6.37-7.3S75,43.58,75,43.58Z"/></g>
<g class="st-elem-detail"><path class="st--elem" d="M21,10.75A53.09,53.09,0,0,1,43.89,5.87a72.73,72.73,0,0,1,22.75,4.37l-3,7.51a105.13,105.13,0,0,0-19-2.55c-8.59-.11-18.88,3.08-18.88,3.08a1.36,1.36,0,0,1-1.59-.74C23.65,16.47,21,10.75,21,10.75Z"/></g></svg>