<svg version="1.1" xmlns="http://www.w3.org/2000/svg" xmlns:xlink="http://www.w3.org/1999/xlink" x="0px" y="0px"	 viewBox="0 0 83.28 188.71"><title>coupe_up</title>
<g class="st-elem-detail"><path class="st--elem" d="M74.55,123.62l2.08,2.5,2.08,2.5v25.1s-2.08,11.41-4,17a23,23,0,0,1-15,14.57c-8.25,2.46-25.66,5.09-37.59,0S7.91,169.82,6,160.73c-2.22-10.29-1.44-18.31-1.44-22.35s3.88-13.8,3.88-13.8l1.4,1.29s.21,2.95,1.52,4.45c1.85,2.12,7.61,9.09,28.31,9.59,24.22.59,32.06-9.13,32.06-9.13a22.32,22.32,0,0,0,1.11-3.43,3.87,3.87,0,0,1,.64-1.72Z"/></g>
<g class="st-elem-detail"><path class="st--elem" d="M10.65,175.21s3.48,13,29.8,13c29.48,0,32.91-14.63,32.91-14.63"/></g>
<g class="st-elem-detail"><path class="st--elem" d="M73.36,172.43c-6.3,4.16-11.75,9.69-22.94,11-8.54,1-19,.77-25.53-1.33-4-1.27-7.13-3.78-9.83-5.26s-3.57-2.42-4.65-2"/></g>
<g class="st-elem-detail"><path class="st--elem" d="M71.68,130.78s-5.15,30.18-7,37-2.81,11.51-3.74,13.13S52,185.42,42,185.42s-18-1.95-18.49-2.67-12.9-53.64-12.9-53.64,4.13,10.82,31.3,10.82C65.37,139.93,71.68,130.78,71.68,130.78Z"/></g>
<g class="st-elem-detail"><path class="st--elem" d="M74.91,169.61s-.31.6-3.11,2.94-9.94,4.68-11.82,7.72-1.75,2.57,0,2.22a19.3,19.3,0,0,0,6.78-3c2.57-1.75,5.81-4.13,5.81-4.13"/></g>
<g class="st-elem-detail"><path class="st--elem" d="M8.27,169.61s.33.6,3.31,2.94,10.57,4.68,12.56,7.72,1.87,2.57,0,2.22a21.19,21.19,0,0,1-7.21-3c-2.74-1.75-6.17-4.13-6.17-4.13"/></g>
<g class="st-elem-detail"><path class="st--elem" d="M68.76,104.31s-.35-2-1.84-2c-.7,0-17.87.64-22.73.64s-27.38-.64-27.38-.64-1.93-.44-2.37,1-4.65,22.57-4.65,22.57a7.64,7.64,0,0,0,1.52,4.45,17.91,17.91,0,0,0,4.54,4.09s7.19,5.77,24.74,5.52,24.66-4.55,24.66-4.55a18,18,0,0,0,3.52-1.92,17.32,17.32,0,0,0,2.92-2.67,7.52,7.52,0,0,0,1.11-2.38,10.84,10.84,0,0,0,.41-2.38Z"/></g>
<g class="st-elem-detail"><path class="st--elem" d="M66.45,103.07a1.28,1.28,0,0,1,1.26,1.07c.12.71,4,19.48,4,19.48s.76,3.25-1,4.47-8.1,6.8-26,8.07c-21.7,1.55-32.11-7.72-32.11-7.72s-2.11-1.4-2-2.81S15.32,104,15.32,104s.26-1.05,2-.88c.91.09,13.5.82,25.89.79,11.6,0,23.43-.79,23.43-.79"/></g>
<g class="st-elem-detail"><path class="st--elem" d="M69.46,24.67s-1.61-9.48-27.79-9.48-28.25,9.56-28.25,9.56l2.3,30.37s14.37-.73,25.72-.73S67,55.46,67,55.46Z"/></g>
<g class="st-elem-detail"><path class="st--elem" d="M64.8,26.09a5.06,5.06,0,0,0-.48-2.94c-1-1.84-2-2.11-2-2.11a61.76,61.76,0,0,0-7.82-2.37,107.1,107.1,0,0,0-11.87-1s-6.14,0-10.61.44-11.27,2.59-11.93,3.16-2.28,1.4-2.19,5S19.8,48.25,19.8,48.25a2.71,2.71,0,0,0,2.9,2.81c1.49,0,9.74-.35,18.69-.35s18.6.35,18.6.35,2.81-.17,3-1.67,1.76-22.64,1.76-22.64Z"/></g>
<g class="st-elem-detail"><path class="st--elem" d="M4.49,139.44S4.7,76.27,4.7,70.3V58.6s-.27-15.79-.51-21.06a66.42,66.42,0,0,1,.69-13.45A65,65,0,0,1,8.39,12a18.68,18.68,0,0,1,2.9-4.57c1.84-2.06,5.59-3,5.59-3a49.42,49.42,0,0,0-2.47,8.26,61.8,61.8,0,0,0-1.13,10.12c0,2.07,3,34.08,3,34.08s.77,1.69,1.94,1.88A11.89,11.89,0,0,0,19.7,59v43.34s-4.05-.31-4.47.23c-.6.77-5.28,23-5.28,23l-.19.21-1.32-1.18s-2.16,5.61-2.82,8.14A62.64,62.64,0,0,0,4.49,139.44Z"/></g>
<g class="st-elem-detail"><path class="st--elem" d="M78.88,139.44S78.7,76.27,78.7,70.3V58.6s.23-15.79.49-21.06a64.28,64.28,0,0,0-.74-13.45,62.82,62.82,0,0,0-3.66-12A16.66,16.66,0,0,0,72,7.36C70.52,6,66.13,4.55,66.13,4.55a27.79,27.79,0,0,1,3.07,7.86c.82,4.22.35,8.35.35,10.42S66.8,56.92,66.8,56.92s-.6,1.64-1.65,1.84C63.94,59,63.7,59,63.7,59v43.34s3.88-.31,4.31.23c.62.77,5.32,23,5.32,23l.12.21,1.33-1.18s2.25,5.61,2.93,8.14A60.8,60.8,0,0,1,78.88,139.44Z"/></g>
<g class="st-elem-detail"><path class="st--elem" d="M62.24,59s4.24.63,4.64-2.47c.45-3.51,2.59-31.89,2.59-31.89s1.05-8.31,0-12a49.72,49.72,0,0,0-3.33-8.07S60.34,1.16,43.84.92s-27,3.39-27,3.39-2.93,5.5-3.29,9.74a75.27,75.27,0,0,0,.24,14.42c.56,4.54,2.41,27.85,2.41,27.85A2.67,2.67,0,0,0,19,59C22,59.07,62.24,59,62.24,59Z"/></g>
<g class="st-elem-detail"><path class="st--elem" d="M76.67,110.31a3,3,0,0,0-.95,2.2,3.73,3.73,0,0,0,1,2.55,4.21,4.21,0,0,0,.6-2,20,20,0,0,0,0-2.59"/></g>
<g class="st-elem-detail"><path class="st--elem" d="M5.1,127.74a42,42,0,0,0,5-10.71c2.46-7.55,4.45-21.18,4.74-28.37a310.75,310.75,0,0,0-.88-31.53C13.35,52,11.87,46,10.58,50.53S8.8,71.09,8.8,71.09L4.7,68.49l-.18,59.9Z"/></g>
<g class="st-elem-detail"><path class="st--elem" d="M9.27,71.21l.46.11,4.17-1.94s-.11-6.76-.24-9c-.23-3.8-1.85-11.58-2.22-10.38a38.44,38.44,0,0,0-1.37,9.08L9.59,70.91Z"/></g>
<g class="st-elem-detail"><path class="st--elem" d="M7.67,112.69c0,1-.84,3.08-1.37,2.69s-1.94.43-3.83-2-2.81-4.56-1-4.21A12.77,12.77,0,0,1,5,110.5s1.2-.5,1.8.09A3.82,3.82,0,0,1,7.67,112.69Z"/></g>
<g class="st-elem-detail"><path class="st--elem" d="M5.79,110.31a3.07,3.07,0,0,1,.89,2.2,3.83,3.83,0,0,1-1,2.55,4.4,4.4,0,0,1-.56-2,21.33,21.33,0,0,1,0-2.59"/></g>
<g class="st-elem-detail"><path class="st--elem" d="M14,70.18l-4.26,2L9,110.55H11.2s2.46-14,2.69-20.74,0-19.67,0-19.67"/></g>
<g class="st-elem-detail"><path class="st--elem" d="M11,111.55H9l-.66,8.06s.94-2.22,1.46-3.79S11,111.55,11,111.55Z"/></g>
<g class="st-elem-detail"><path class="st--elem" d="M8.8,71.09s-.23,36.12-.45,40.1l-.68,12"/></g>
<g class="st-elem-detail"><path class="st--elem" d="M75.22,14s.21,2.68-1,1.24S71,10.69,69.93,9.81a10.61,10.61,0,0,0-2-1.32l-1.79-4s4.21,1.63,5.55,2.83A7.42,7.42,0,0,1,74,10.41,17.42,17.42,0,0,1,75.22,14Z"/></g>
<g class="st-elem-detail"><path class="st--elem" d="M7.65,13.6s-.22,2.68,1.06,1.24,3.33-4.5,4.46-5.38A11.2,11.2,0,0,1,15.3,8.15l1.86-4S12.49,5.83,11.37,7a9.56,9.56,0,0,0-2.29,3A28.41,28.41,0,0,0,7.65,13.6Z"/></g>
<g class="st-elem-detail"><path class="st--elem" d="M66.61,5.81s-13.33-4-25-4-25.48,4-25.48,4l.71-1.44S26.3.25,41.61.51s24,3.86,24,3.86Z"/></g>
<g class="st-elem-detail"><path class="st--elem" d="M14.95,8.5s-3,2.6-4.22,22.37-1.5,31.3-1.5,31.3"/></g>
<g class="st-elem-detail"><path class="st--elem" d="M78,127.74A43.14,43.14,0,0,1,73.29,117C71,109.49,69.1,95.86,68.83,88.67c-.34-8.9.27-26.38.83-31.53s2-11.11,3.17-6.61S74.5,71.09,74.5,71.09l3.86-2.61.17,59.9Z"/></g>
<g class="st-elem-detail"><path class="st--elem" d="M74.06,71.21l-.43.11L69.7,69.37s.1-6.76.23-9C70.14,56.58,71.67,48.8,72,50a40.66,40.66,0,0,1,1.29,9.08l.44,11.84Z"/></g>
<g class="st-elem-detail"><path class="st--elem" d="M69.61,70.18l4,2,.68,38.34H72.24s-2.31-14-2.53-20.74,0-19.67,0-19.67"/></g>
<g class="st-elem-detail"><path class="st--elem" d="M74.5,71.09s.21,36.12.43,40.1l.64,12"/></g>
<g class="st-elem-detail"><path class="st--elem" d="M68.71,9s2.82,2.15,4,21.92,1.41,31.3,1.41,31.3"/></g>
<g class="st-elem-detail"><path class="st--elem" d="M75.61,112.69c0,1,.84,3.08,1.37,2.69s1.94.43,3.83-2,2.81-4.56,1-4.21a12.77,12.77,0,0,0-3.51,1.32s-1.2-.5-1.8.09A3.82,3.82,0,0,0,75.61,112.69Z"/></g>
<g class="st-elem-detail"><path class="st--elem" d="M77.49,110.31a3.07,3.07,0,0,0-.89,2.2,3.83,3.83,0,0,0,1,2.55,4.4,4.4,0,0,0,.56-2,21.33,21.33,0,0,0,0-2.59"/></g>
<g class="st-elem-detail"><rect class="st--elem" x="72.7" y="39.55" width="2" height="7" rx="0.88" ry="0.88"/></g>
<g class="st-elem-detail"><rect class="st--elem" x="7.7" y="73.55" width="1" height="7" rx="0.49" ry="0.49"/></g>
<g class="st-elem-detail"><rect class="st--elem" x="75.7" y="73.55" width="1" height="7" rx="0.49" ry="0.49"/></g>
<g class="st-elem-detail"><path class="st--elem" d="M69.46,24.38a44.41,44.41,0,0,0,.11-9.19,46,46,0,0,0-3-9.39S60.6,3,44.07,1.9c-16.32-1.08-28,3.91-28,3.91a37.71,37.71,0,0,0-1.15,4.06,76.77,76.77,0,0,0-1,7.71c-.41,5.08-.53,7.08-.53,7.08s2.67-9.46,30.76-9.46c20.66,0,25.27,9.19,25.27,9.19"/></g>
<g class="st-elem-detail"><path class="st--elem" d="M63.7,59.14v43.21s-11.08.61-20.74.58-23.7-.7-23.7-.7L19.33,59s18.07,0,24.53,0S63.7,59.14,63.7,59.14Z"/></g>
<g class="st-elem-detail"><path class="st--elem" d="M66.93,55.45s0,2.43-1.16,2.94a12.92,12.92,0,0,1-2.27.74L19.22,59s-2.48,0-2.86-1.69a6.4,6.4,0,0,1-.28-2.19s19-.69,28.76-.69S66.93,55.45,66.93,55.45Z"/></g></svg>