<svg version="1.1" xmlns="http://www.w3.org/2000/svg" xmlns:xlink="http://www.w3.org/1999/xlink" x="0px" y="0px"	 viewBox="0 0 226.41 189.65"><title>hatchback_sides</title>
<g class="st-elem-detail"><path class="st--elem" d="M26.49,69.18l.87,1.56,41.48,1.5,1-9.77s-4.35-16.28-4.67-16.6A116.41,116.41,0,0,0,52.3,41.69c-1.27-.08-10.11,0-11.55.39a60.46,60.46,0,0,0-7.22,3.25c-1,.55-4.51,5.3-5.54,6.61s-2,5.35-2.06,6.77,0,7.2,0,7.2Z"/></g>
<g class="st-elem-detail"><path class="st--elem" d="M164.48,68.47l.67,3.9,41.77-1.69.87-8.91s-4.35-16.28-4.67-16.59A116.24,116.24,0,0,0,190.29,41c-1.27-.08-10.11,0-11.55.4a60.59,60.59,0,0,0-7.21,3.25c-.95.55-4.51,5.3-5.54,6.61s-2,5.35-2.06,6.77,0,7.2,0,7.2Z"/></g>
<g class="st-elem-detail"><path class="st--elem" d="M58.39,27.24s7.33-4.33,10.66-6.18,15.5-8.25,20.16-10.3,9.35-4.21,9.35-4.21l.21-.09,5,.74L99,10.2l-11,5.25-4.63,2.26-10.6,7.57-5,2.76s-5.58.71-5.7.77-3.29-.48-3.29-.48l-.15-1.22"/></g>
<g class="st-elem-detail"><path class="st--elem" d="M207.38,25.36a2.33,2.33,0,0,0-.37-2L195.67,7.12l4-2.36S214.11,21.45,216.41,25s2.77,4.17,2.77,4.17h.71a21.65,21.65,0,0,1,.71,4.31c.16,2.45-.48,3.09-.48,3.09l-.28,11.27-2.65-1-2.93-5L212,36.19s-2.53-4.71-2.77-5.34a52,52,0,0,0-3.56-4.48Z"/></g>
<g class="st-elem-detail"><circle class="st--elem" cx="186.34" cy="64.78" r="18.23"/></g>
<g class="st-elem-detail"><circle class="st--elem" cx="186.34" cy="64.78" r="12.96"/></g>
<g class="st-elem-detail"><path class="st--elem" d="M194.78,55a13.34,13.34,0,0,0-6.65-3l.18,8s-.06,1.06.57,1.42a2.63,2.63,0,0,0,1.62.12l7.36-2.2A10.07,10.07,0,0,0,194.78,55Z"/></g>
<g class="st-elem-detail"><path class="st--elem" d="M177.75,55a13.35,13.35,0,0,1,6.66-3l-.18,7.76s.06,1.06-.57,1.42a2.6,2.6,0,0,1-1.62.11l-7.37-2A10.06,10.06,0,0,1,177.75,55Z"/></g>
<g class="st-elem-detail"><path class="st--elem" d="M187.05,77.74a16,16,0,0,1-8-2.21L184.62,70s.61-.87,1.32-.77a2.6,2.6,0,0,1,1.35.9l4.87,6.12A10.09,10.09,0,0,1,187.05,77.74Z"/></g>
<g class="st-elem-detail"><path class="st--elem" d="M173.6,67.8c1.16,4.13,2.88,5.46,2.88,5.46l5.12-6s.65-.84.34-1.49a2.6,2.6,0,0,0-1.26-1l-7.13-2.3A10.08,10.08,0,0,0,173.6,67.8Z"/></g>
<g class="st-elem-detail"><path class="st--elem" d="M198.92,67.8a13.33,13.33,0,0,1-3.73,6.27L190.93,68s-.65-.84-.35-1.49a2.63,2.63,0,0,1,1.27-1l7.11-3A10.06,10.06,0,0,1,198.92,67.8Z"/></g>
<g class="st-elem-detail"><circle class="st--elem" cx="186.05" cy="64.64" r="1.63"/></g>
<g class="st-elem-detail"><circle class="st--elem" cx="47.55" cy="64.78" r="18.23"/></g>
<g class="st-elem-detail"><circle class="st--elem" cx="47.55" cy="64.78" r="12.96"/></g>
<g class="st-elem-detail"><path class="st--elem" d="M56,55a13.35,13.35,0,0,0-6.65-3l.18,8s-.06,1.06.57,1.42a2.63,2.63,0,0,0,1.62.12l7.36-2.2A10.07,10.07,0,0,0,56,55Z"/></g>
<g class="st-elem-detail"><path class="st--elem" d="M39,55a13.35,13.35,0,0,1,6.65-3l-.18,7.76s.05,1.06-.57,1.42a2.6,2.6,0,0,1-1.62.11l-7.36-2A10.05,10.05,0,0,1,39,55Z"/></g>
<g class="st-elem-detail"><path class="st--elem" d="M48.26,77.74a16,16,0,0,1-8-2.21L45.82,70s.61-.87,1.33-.77a2.61,2.61,0,0,1,1.35.9l4.86,6.12A10.1,10.1,0,0,1,48.26,77.74Z"/></g>
<g class="st-elem-detail"><path class="st--elem" d="M34.81,67.8c1.16,4.13,2.88,5.46,2.88,5.46l5.12-6s.65-.84.35-1.49a2.62,2.62,0,0,0-1.26-1l-7.13-2.3A10.07,10.07,0,0,0,34.81,67.8Z"/></g>
<g class="st-elem-detail"><path class="st--elem" d="M60.13,67.8a13.32,13.32,0,0,1-3.74,6.27L52.15,68s-.65-.84-.34-1.49a2.59,2.59,0,0,1,1.26-1l7.12-3A10.06,10.06,0,0,1,60.13,67.8Z"/></g>
<g class="st-elem-detail"><circle class="st--elem" cx="47.27" cy="64.64" r="1.63"/></g>
<g class="st-elem-detail"><path class="st--elem" d="M27.76,69.22H4s-1.19.05-1.78-1.74S.74,58.58.74,58.58a44.08,44.08,0,0,1,0-5,42.4,42.4,0,0,1,1-4.82l-.36-.61,5-6.91h.48a30.18,30.18,0,0,1,5.4-3.6c3-1.54,22.33-6.83,22.33-6.83l17.13-3.57h6.67a13,13,0,0,0,4.51-.29c2.67-.59,4.51-1.42,14.9-7.36S99.48,8.24,101.32,7.65l1.84-.59-4.39-.59s6.06-2.2,8.79-2.79,1.72-.42,2.73-.59S115.1,2,118.72,1.59A153.38,153.38,0,0,1,139.26.52c9.2.18,19.53.24,19.53.24l24.58,1.13,9.8.54,8,.53s.83.24,0,.83-4,2.43-4,2.43l-1.54.89L207,23.38a8.27,8.27,0,0,1,0,4.81c-.83,2.31-9.32,19.83-9.32,19.83a23.16,23.16,0,0,0-11.87-3.74A22.69,22.69,0,0,0,172.28,49a30.57,30.57,0,0,0-3.45,4.89,25.11,25.11,0,0,0-2.14,5.4c-.79,2.77-.65,11.89-.65,11.89H67.89s2-13-3.83-19.74S52.69,43.64,48.3,43.64s-11.42,1.53-15.36,6.7a20.93,20.93,0,0,0-4.5,8.25C27.27,62.65,27.76,69.22,27.76,69.22Z"/></g>
<g class="st-elem-detail"><path class="st--elem" d="M1.75,48.8s8.83-.77,13.89-1.17,13-.08,16,0,3.83.19,3.83.19-6.09,4.77-7.13,11.4-.57,10-.57,10H4a2.06,2.06,0,0,1-1.78-1.74A73.09,73.09,0,0,1,.66,57.93a28.32,28.32,0,0,1,0-4.73A29.76,29.76,0,0,1,1.75,48.8Z"/></g>
<g class="st-elem-detail"><path class="st--elem" d="M7.4,48.31S5.49,47.85,7,46a31.3,31.3,0,0,1,8.85-7.12c3-1.42,5-2.19,6.12-2,1.4.28,1.84,1.7.95,4.1A14.08,14.08,0,0,1,21,44.94a18,18,0,0,1-2.08,2.5s-2.91.17-5.64.34S7.4,48.31,7.4,48.31Z"/></g>
<g class="st-elem-detail"><path class="st--elem" d="M6.86,41.22l-.16.95,3.7.42s-2.34,2.11-3,2.87a6.2,6.2,0,0,0-.93,1.31c-.09.36-.23.71,0,1a1.59,1.59,0,0,0,.89.55l-5.65.49-.31-.7,4.94-6.87Z"/></g>
<g class="st-elem-detail"><line class="st--elem" x1="4" y1="44.22" x2="8" y2="44.22"/></g>
<g class="st-elem-detail"><polyline class="st--elem" points="2.56 46.09 5.5 46.5 5.5 46.22 6 46.22"/></g>
<g class="st-elem-detail"><path class="st--elem" d="M20.69,36.88s19.06-5.36,25.47-6.79,12.23-2.85,12.23-2.85"/></g>
<g class="st-elem-detail"><path class="st--elem" d="M202.24,38.6l13.61.31s-.48,4.85,1.31,6.75,3.93,3.17,5.24,3.2c3.09.07,3.1,2.37,3.1,2.37V59s-.37,3.83-2.86,5.74a15,15,0,0,0-3.93,5.53H205.88s1.19-7.71-1.19-12.94a31.34,31.34,0,0,0-7-9.26Z"/></g>
<g class="st-elem-detail"><path class="st--elem" d="M207.38,25.34s7.09.83,8.67,2.53,3,4,2.3,7-.67,3.44-1.23,3.68a4.89,4.89,0,0,1-1.27.31l-13.61-.31s3.36-7.6,4-9.34A27.73,27.73,0,0,0,207.38,25.34Z"/></g>
<g class="st-elem-detail"><path class="st--elem" d="M202.62,8.22h-1.49a.84.84,0,0,0-.47,1.26c.42,1,5,8.55,5.52,9.5a7.32,7.32,0,0,0,4.51,3.51,38.38,38.38,0,0,0,4,.43Z"/></g>
<g class="st-elem-detail"><path class="st--elem" d="M82,19.6s-6,5.07-7.52,7.76a18.83,18.83,0,0,0-1.91,3.85,8.35,8.35,0,0,0-.22,1.14C72.09,34.09,72,66.63,72,66.63l56.68-.91,1-1.94,1.19-27.07,2.93-23.91.87-5.74-.36-2.5a104.71,104.71,0,0,0-24.9,2.93C97.84,10.41,85.39,16.64,82,19.6"/></g>
<g class="st-elem-detail"><path class="st--elem" d="M134.35,4.56s-4.73,22-5,35.25-.61,25.91-.61,25.91l24.22-.5s5.78.15,7.92-3,22.64-35.39,22.64-35.39a6,6,0,0,0,1.63-6.11c-1.07-3.88-4-11.92-4-11.92S180,5.58,175.4,5.34s-22-.91-27.79-.81S134.35,4.56,134.35,4.56Z"/></g>
<g class="st-elem-detail"><line class="st--elem" x1="72.41" y1="31.84" x2="130.12" y2="28.82"/></g>
<g class="st-elem-detail"><line class="st--elem" x1="130.12" y1="28.82" x2="183.85" y2="26.58"/></g>
<g class="st-elem-detail"><rect class="st--elem" x="116.5" y="35.22" width="8" height="4" rx="0.71" ry="0.71"/></g>
<g class="st-elem-detail"><rect class="st--elem" x="165.5" y="33.22" width="8" height="4" rx="0.71" ry="0.71"/></g>
<g class="st-elem-detail"><path class="st--elem" d="M137.16,5.51l-2,22.19,48-2s1.54-2,1.07-3.48c-.23-.71-1-3.79-2.2-7.5a33.11,33.11,0,0,0-2.86-6.64,7.13,7.13,0,0,0-3.65-1.85c-1.9-.16-14.41-.63-20.58-.71S137.16,5.51,137.16,5.51Z"/></g>
<g class="st-elem-detail"><line class="st--elem" x1="168.83" y1="5.91" x2="165.98" y2="26.41"/></g>
<g class="st-elem-detail"><line class="st--elem" x1="169.9" y1="5.95" x2="167.41" y2="26.35"/></g>
<g class="st-elem-detail"><path class="st--elem" d="M131.07,5.22S111.28,7,100,11.48c-11.72,4.67-14.57,6.59-19,10.14A25.88,25.88,0,0,0,77,25.48a22.6,22.6,0,0,0-3.35,5.35l56.44-3.26,4-22.34Z"/></g>
<g class="st-elem-detail"><line class="st--elem" x1="76.77" y1="25.81" x2="81.55" y2="30.33"/></g>
<g class="st-elem-detail"><line class="st--elem" x1="131.4" y1="5.39" x2="125.77" y2="27.87"/></g>
<g class="st-elem-detail"><path class="st--elem" d="M77.91,26.69s-1.46.87-1.07,1.31,2.15,2.25,4.22,2.33,3.7.28,4.17-.24,1-5.5-.16-6.81a4.14,4.14,0,0,0-3.79-1.58,4.05,4.05,0,0,0-2.89,2.45A18.43,18.43,0,0,0,77.91,26.69Z"/></g>
<g class="st-elem-detail"><path class="st--elem" d="M82.54,21.72a4.57,4.57,0,0,1,2.38,4.1c-.08,2.89-.24,3.72-.47,4a2.69,2.69,0,0,1-1,.58"/></g>
<g class="st-elem-detail"><path class="st--elem" d="M77.91,26.69A2.37,2.37,0,0,0,80,29.38a19,19,0,0,0,4.39.47"/></g>
<g class="st-elem-detail"><path class="st--elem" d="M60.83,25.81a6.5,6.5,0,0,0,3.19.27,11.69,11.69,0,0,0,2.59-.4"/></g>
<g class="st-elem-detail"><path class="st--elem" d="M199.88,175.33,199,176.9l-41.64,1.5-1-9.77s4.37-16.28,4.69-16.59a117.1,117.1,0,0,1,12.87-4.2c1.27-.08,10.15,0,11.59.4a61,61,0,0,1,7.24,3.25c1,.55,4.53,5.3,5.56,6.61s2,5.35,2.07,6.77,0,7.2,0,7.2Z"/></g>
<g class="st-elem-detail"><path class="st--elem" d="M61.37,174.62l-.68,3.9-41.92-1.7-.87-8.9s4.37-16.28,4.69-16.6a117.29,117.29,0,0,1,12.87-4.2c1.27-.08,10.15,0,11.59.4a60.63,60.63,0,0,1,7.24,3.25c1,.55,4.53,5.3,5.56,6.61s2,5.35,2.07,6.77,0,7.2,0,7.2Z"/></g>
<g class="st-elem-detail"><path class="st--elem" d="M167.86,133.39s-7.36-4.33-10.7-6.17-15.55-8.25-20.23-10.3-9.39-4.21-9.39-4.21l-.21-.09-5,.74,4.71,3,11,5.25,4.65,2.26,10.64,7.57,5.07,2.76s5.6.71,5.72.77,3.31-.48,3.31-.48l.15-1.22"/></g>
<g class="st-elem-detail"><path class="st--elem" d="M18.31,131.52a2.33,2.33,0,0,1,.37-2l11.38-16.27-4-2.36S11.55,128,9.24,131.63s-2.78,4.6-2.78,4.6H5.74A14.34,14.34,0,0,0,5,140.11c-.16,2.46.48,2.88.48,2.88l.28,11.17,2.66-1.07L11.39,148l2.3-5.66s2.54-4.72,2.78-5.35A52.22,52.22,0,0,1,20,132.52Z"/></g>
<g class="st-elem-detail"><ellipse class="st--elem" cx="39.43" cy="170.93" rx="18.29" ry="18.23"/></g>
<g class="st-elem-detail"><ellipse class="st--elem" cx="39.43" cy="170.93" rx="13.01" ry="12.96"/></g>
<g class="st-elem-detail"><path class="st--elem" d="M30.95,161.1a13.42,13.42,0,0,1,6.68-3l-.18,8s.06,1.06-.57,1.42a2.65,2.65,0,0,1-1.63.12l-7.39-2.2A10.07,10.07,0,0,1,30.95,161.1Z"/></g>
<g class="st-elem-detail"><path class="st--elem" d="M48,161.1a13.44,13.44,0,0,0-6.68-3l.18,7.76s-.06,1.06.57,1.42a2.62,2.62,0,0,0,1.63.11l7.39-2A10.06,10.06,0,0,0,48,161.1Z"/></g>
<g class="st-elem-detail"><path class="st--elem" d="M38.71,183.89a16.1,16.1,0,0,0,8-2.2l-5.55-5.57s-.61-.87-1.33-.77a2.62,2.62,0,0,0-1.35.9l-4.88,6.12A10.16,10.16,0,0,0,38.71,183.89Z"/></g>
<g class="st-elem-detail"><path class="st--elem" d="M52.21,173.95c-1.16,4.13-2.89,5.46-2.89,5.46l-5.14-6s-.66-.84-.35-1.49a2.62,2.62,0,0,1,1.26-1l7.16-2.29A10,10,0,0,1,52.21,173.95Z"/></g>
<g class="st-elem-detail"><path class="st--elem" d="M26.79,173.95a13.32,13.32,0,0,0,3.75,6.27l4.27-6.09s.66-.84.35-1.49a2.63,2.63,0,0,0-1.27-1l-7.14-3A10,10,0,0,0,26.79,173.95Z"/></g>
<g class="st-elem-detail"><ellipse class="st--elem" cx="39.71" cy="170.79" rx="1.64" ry="1.63"/></g>
<g class="st-elem-detail"><ellipse class="st--elem" cx="178.74" cy="170.93" rx="18.29" ry="18.23"/></g>
<g class="st-elem-detail"><ellipse class="st--elem" cx="178.74" cy="170.93" rx="13.01" ry="12.96"/></g>
<g class="st-elem-detail"><path class="st--elem" d="M170.26,161.1a13.44,13.44,0,0,1,6.68-3l-.18,8s.06,1.06-.57,1.42a2.64,2.64,0,0,1-1.63.12l-7.39-2.2A10.06,10.06,0,0,1,170.26,161.1Z"/></g>
<g class="st-elem-detail"><path class="st--elem" d="M187.36,161.1a13.44,13.44,0,0,0-6.68-3l.18,7.76s-.05,1.06.57,1.42a2.61,2.61,0,0,0,1.63.11l7.39-2A10.06,10.06,0,0,0,187.36,161.1Z"/></g>
<g class="st-elem-detail"><path class="st--elem" d="M178,183.89a16.1,16.1,0,0,0,8-2.2l-5.54-5.57s-.61-.87-1.33-.77a2.62,2.62,0,0,0-1.35.9l-4.88,6.12A10.17,10.17,0,0,0,178,183.89Z"/></g>
<g class="st-elem-detail"><path class="st--elem" d="M191.52,173.95c-1.17,4.13-2.89,5.46-2.89,5.46l-5.14-6s-.65-.84-.35-1.49a2.63,2.63,0,0,1,1.27-1l7.16-2.29A10,10,0,0,1,191.52,173.95Z"/></g>
<g class="st-elem-detail"><path class="st--elem" d="M166.11,173.95a13.31,13.31,0,0,0,3.75,6.27l4.27-6.09s.66-.84.34-1.49a2.6,2.6,0,0,0-1.27-1l-7.14-3A10,10,0,0,0,166.11,173.95Z"/></g>
<g class="st-elem-detail"><ellipse class="st--elem" cx="179.02" cy="170.79" rx="1.64" ry="1.63"/></g>
<g class="st-elem-detail"><path class="st--elem" d="M198.61,176.22h23.84a3.19,3.19,0,0,0,1.79-2.16c.6-1.79,1.49-9.12,1.49-9.12a45.73,45.73,0,0,0,0-5.12,44,44,0,0,0-1-4.87l.36-.72-5-7h-.48a32.48,32.48,0,0,0-5.42-3.53c-3-1.54-22.41-6.87-22.41-6.87l-17.2-3.6h-6.7a11.85,11.85,0,0,1-4.53-.21c-2.68-.59-4.53-1.38-15-7.32s-21.75-11.32-23.6-11.91l-1.85-.58,4.41-.59s-6.08-2.19-8.82-2.79-1.73-.42-2.74-.59-4.83-1.07-8.46-1.48a154.42,154.42,0,0,0-20.62-1.07c-9.24.18-19.61.24-19.61.24L42.4,108l-9.83.53-8,.54s-.83.24,0,.83,4,2.43,4,2.43l1.55.89L18.68,129.54a8.24,8.24,0,0,0,0,4.81c.83,2.31,9.36,19.83,9.36,19.83A23.3,23.3,0,0,1,40,150.44a22.82,22.82,0,0,1,13.59,4.75A30.56,30.56,0,0,1,57,160.07a29.63,29.63,0,0,1,2.15,5.83c.79,2.77.66,12.32.66,12.32h98.52s-2-13.46,3.84-20.17S173.58,150,178,150s11.47,1.43,15.42,6.59a23,23,0,0,1,4.52,8.62C199.1,169.28,198.61,176.22,198.61,176.22Z"/></g>
<g class="st-elem-detail"><path class="st--elem" d="M224.71,154.95s-8.86-.77-13.95-1.17-13-.08-16.05,0-3.84.19-3.84.19,6.11,5.2,7.16,11.82a41.08,41.08,0,0,1,.57,10.43h23.84a3.05,3.05,0,0,0,1.79-2.16,76.7,76.7,0,0,0,1.57-9.77,29.66,29.66,0,0,0,0-4.84A32.55,32.55,0,0,0,224.71,154.95Z"/></g>
<g class="st-elem-detail"><path class="st--elem" d="M219,154.46s1.92-.46.43-2.3a31.36,31.36,0,0,0-8.88-7.12c-3-1.42-5-2.19-6.14-2-1.41.28-1.85,1.7-1,4.1a14.08,14.08,0,0,0,1.91,3.92,18,18,0,0,0,2.09,2.5s2.92.17,5.67.34S219,154.46,219,154.46Z"/></g>
<g class="st-elem-detail"><path class="st--elem" d="M219.59,147.22l.16,1-3.72.46s2.35,2.13,3,2.89a6.29,6.29,0,0,1,.94,1.32c.09.36.23.71,0,1a1.61,1.61,0,0,1-.9.55l5.67.49.31-.78-5-6.95Z"/></g>
<g class="st-elem-detail"><line class="st--elem" x1="222" y1="150.22" x2="218" y2="150.22"/></g>
<g class="st-elem-detail"><polyline class="st--elem" points="223.46 152.17 220.5 152.65 220.5 152.22 220 152.22"/></g>
<g class="st-elem-detail"><path class="st--elem" d="M205.7,143s-19.13-5.36-25.57-6.79-12.28-2.85-12.28-2.85"/></g>
<g class="st-elem-detail"><path class="st--elem" d="M23.46,144.75l-13.66.31s.48,4.85-1.31,6.75S4.74,155,3.42,155c-3.1.07-2.92,2.37-2.92,2.37v7.72s.18,4.26,2.68,6.17,3.75,6,3.75,6H19.81s-1.19-8.14,1.19-13.36a34,34,0,0,1,7-9.47Z"/></g>
<g class="st-elem-detail"><path class="st--elem" d="M18.31,131.49s-7.12.83-8.71,2.53-3,4-2.31,7,.68,3.44,1.23,3.68a4.91,4.91,0,0,0,1.27.31l13.66-.31s-3.37-7.6-4-9.34A27.68,27.68,0,0,1,18.31,131.49Z"/></g>
<g class="st-elem-detail"><path class="st--elem" d="M23.08,115.22h1.5s.89-.18.48.83-5.07,8.34-5.54,9.3a7.25,7.25,0,0,1-4.53,3.4c-2.2.35-4,.81-4,.81Z"/></g>
<g class="st-elem-detail"><path class="st--elem" d="M144.17,125.76s6,5.07,7.55,7.76a18.81,18.81,0,0,1,1.92,3.85,8.31,8.31,0,0,1,.22,1.13c.24,1.74.32,34.28.32,34.28l-56.9-.91-1-1.94-1.19-27.08-2.94-23.91-.87-5.74.36-2.5a105.51,105.51,0,0,1,25,2.93c11.66,2.92,24.16,9.14,27.58,12.11"/></g>
<g class="st-elem-detail"><path class="st--elem" d="M91.61,110.71s4.75,21.88,5.07,35.18.62,26,.62,26L73,171.22s-5.8.22-7.95-2.91S42.3,133,42.3,133a5.9,5.9,0,0,1-1.64-6.09c1.08-3.88,4-11.91,4-11.91s1.09-3.23,5.7-3.46,22.09-.91,27.89-.81S91.61,110.71,91.61,110.71Z"/></g>
<g class="st-elem-detail"><line class="st--elem" x1="153.79" y1="137.99" x2="95.86" y2="134.97"/></g>
<g class="st-elem-detail"><line class="st--elem" x1="95.86" y1="134.97" x2="41.92" y2="132.73"/></g>
<g class="st-elem-detail"><rect class="st--elem" x="101.5" y="141.22" width="8" height="4" rx="0.71" ry="0.71"/></g>
<g class="st-elem-detail"><path class="st--elem" d="M60.5,139.65c0-.39-.35-.43-.74-.43h-7c-.39,0-.28,0-.28.43v2.78c0,.39-.12.79.28.79h7a.81.81,0,0,0,.74-.79Z"/></g>
<g class="st-elem-detail"><path class="st--elem" d="M88.79,111.66l2,22.19-48.19-2s-1.55-2-1.07-3.48c.23-.71,1-3.79,2.21-7.5a33,33,0,0,1,2.87-6.64,7.16,7.16,0,0,1,3.66-1.85c1.91-.16,14.46-.63,20.66-.71S88.79,111.66,88.79,111.66Z"/></g>
<g class="st-elem-detail"><line class="st--elem" x1="57" y1="112.06" x2="59.86" y2="132.56"/></g>
<g class="st-elem-detail"><line class="st--elem" x1="55.93" y1="112.1" x2="58.43" y2="132.5"/></g>
<g class="st-elem-detail"><path class="st--elem" d="M94.91,111.22s19.87,1.82,31.23,6.33c11.76,4.67,14.62,6.63,19.11,10.18a26,26,0,0,1,3.91,3.88,22.55,22.55,0,0,1,3.36,5.36l-56.66-3.33L91.8,111.22Z"/></g>
<g class="st-elem-detail"><line class="st--elem" x1="149.41" y1="131.96" x2="144.61" y2="136.48"/></g>
<g class="st-elem-detail"><line class="st--elem" x1="94.57" y1="111.55" x2="100.23" y2="134.02"/></g>
<g class="st-elem-detail"><path class="st--elem" d="M148.27,132.84s1.47.87,1.07,1.31-2.15,2.25-4.23,2.33-3.71.28-4.19-.24-1-5.5.16-6.81a4.17,4.17,0,0,1,3.81-1.58,4.07,4.07,0,0,1,2.9,2.45A18.32,18.32,0,0,1,148.27,132.84Z"/></g>
<g class="st-elem-detail"><path class="st--elem" d="M143.62,127.87a4.57,4.57,0,0,0-2.39,4.1c.08,2.89.24,3.72.48,4a2.69,2.69,0,0,0,1,.58"/></g>
<g class="st-elem-detail"><path class="st--elem" d="M148.27,132.84a2.37,2.37,0,0,1-2.15,2.69,19.15,19.15,0,0,1-4.41.47"/></g>
<g class="st-elem-detail"><path class="st--elem" d="M165.41,132a6.54,6.54,0,0,1-3.2.27,11.74,11.74,0,0,1-2.6-.4"/></g>
<g class="st-elem-detail"><rect class="st--elem" x="25.9" y="134.97" width="14.03" height="8.06" rx="3.15" ry="3.15"/></g></svg>