
<svg version="1.1" xmlns="http://www.w3.org/2000/svg" xmlns:xlink="http://www.w3.org/1999/xlink" x="0px" y="0px"	 viewBox="0 0 129.85 199.61"><title>hatchback_front_back</title>
<g class="st-elem-detail"><path class="st--elem" d="M113.35,133.95a1.21,1.21,0,0,0,1-1c.07-.9-.76-4.86,1.39-4.79s9.51.88,11.36,2.92,1.73,3.47,1.59,4.24-.48,2.92-3.67,3.06-6.37-.29-7.76,0a5.43,5.43,0,0,1-2.36,0Z"/></g>
<g class="st-elem-detail"><path class="st--elem" d="M117.64,129s-2.15-.4-1.94,1,1.59,6.95,1.59,6.95.07.42.9.49,6.48.35,8-.35a2.73,2.73,0,0,0,1.25-3.77,5.09,5.09,0,0,0-3-2.83c-1.32-.49-4.36-1.18-4.36-1.18Z"/></g>
<g class="st-elem-detail"><line class="st--elem" x1="17.98" y1="187.11" x2="110.98" y2="187.11"/></g>
<g class="st-elem-detail"><path class="st--elem" d="M16,133.95a1.22,1.22,0,0,1-1-1c-.07-.9.76-4.86-1.39-4.79S4,129,2.16,131,.42,134.5.56,135.27s.49,2.92,3.68,3.06,6.39-.29,7.78,0a5.46,5.46,0,0,0,2.36,0Z"/></g>
<g class="st-elem-detail"><rect class="st--elem" x="108.48" y="161.11" width="12" height="38" rx="0.83" ry="0.83"/></g>
<g class="st-elem-detail"><rect class="st--elem" x="8.48" y="161.11" width="12" height="38" rx="0.83" ry="0.83"/></g>
<g class="st-elem-detail"><path class="st--elem" d="M121,153.61s1.7,21.73-6.08,26.59-7.75,4.91-7.75,4.91H22.59s-7.26-2.73-10.74-8.29S8.48,161,8.48,161v-7.36A13.15,13.15,0,0,0,12,146.2c.44-3.51.36-6.79,1.07-8.36s2.34-4.31,2.34-4.31,3.32-9.31,5.82-14.17S27.32,108,27.32,108s3.61-2.92,7.08-3.2,23.62-1.25,32.1-1.11,30,1.53,30,1.53,4,0,6,3.06,11.08,23.89,11.08,23.89a12.13,12.13,0,0,0,2.05,4.08c1.3,1.32,2.15,5.59,2.15,5.59a51.45,51.45,0,0,0,1,7A20.69,20.69,0,0,0,121,153.61Z"/></g>
<g class="st-elem-detail"><path class="st--elem" d="M63.44,107.27s24.08.28,27,.65a23.76,23.76,0,0,1,4.63.74c1.57.46,3.71,1.3,3.71,1.3l3-2.7s-1.54-1.36-5.56-2.09C91.92,104.4,77,103.57,67,103.67s-25.06.57-29.26.89-6,.69-7.33,1.43-3.15,2-3.15,2a1.94,1.94,0,0,1,1.85,1.34,12.12,12.12,0,0,1,.56,2.22,6.91,6.91,0,0,1,5.47-3.15c4-.37,18.06-1.25,28.25-1.11"/></g>
<g class="st-elem-detail"><path class="st--elem" d="M98.48,110s5.59,8.43,7.63,13.89,1.45,7,3.49,9.08,5,3.52,5.87,6.3.94,6.76,1.5,8.62,1.4,5.19,2.14,6.85a27.2,27.2,0,0,0,2,3.52s.56,13.94-3.57,19.23a14.45,14.45,0,0,1-3.37,3.25c-3,2.21-6.95,4.42-6.95,4.42H22.59s-6.67-2.44-9.14-6.09a27.47,27.47,0,0,1-4.9-13.56c-.27-5.08-.27-11.77-.27-11.77a13.1,13.1,0,0,0,3.21-5.52c.63-2.94,1.24-8.38,2.44-10.6s2.46-2,4.12-3.54a15.42,15.42,0,0,0,3.61-5.65c1.2-3.43,4-10,5.1-12.13a48.85,48.85,0,0,1,3-4.72l1-3.34A240.28,240.28,0,0,1,64.32,106l27.05.46,7.1,1.67Z"/></g>
<g class="st-elem-detail"><path class="st--elem" d="M29.95,116.37s1.46-3.35,4.7-3.53,31.48,0,41.3,0,19.26-.09,19.26-.09,3,.45,4.07,2.86,4.72,9.91,4.72,9.91,1.3,2.53-1.85,3.08-25.38,1.51-28.07,1.51H69a5.69,5.69,0,0,0-4.16-1.58,6,6,0,0,0-4.36,1.85s-15.38-.28-22.32-.65-10.84-.91-10.84-.91-3.15-.92-1.39-4.34S29.95,116.37,29.95,116.37Z"/></g>
<g class="st-elem-detail"><path class="st--elem" d="M8.69,167.11h112s-.75,7.27-3.16,10.17a22.89,22.89,0,0,1-6.84,5.63c-2.42,1.43-3.48,2.2-3.48,2.2H22.59s-5.42-2.21-7.85-4.6a23.19,23.19,0,0,1-4.93-8.24A25.05,25.05,0,0,1,8.69,167.11Z"/></g>
<g class="st-elem-detail"><path class="st--elem" d="M20.72,130.47l-1.36,2.09,1.14,8s5.85,2.2,6.25,4.91,0,5,.56,7.66a8.36,8.36,0,0,0,8.34,6.95c5.7.14,55.58,0,55.58,0s8.55,1.25,10.46-6.11,3.71-16.54,4.55-17.92a22.86,22.86,0,0,1,3.05-3.47l-1.15-2.09S89,132.56,65.52,132.56,20.72,130.47,20.72,130.47Z"/></g>
<g class="st-elem-detail"><path class="st--elem" d="M109.28,132.56s-9.81,1.66-12.31,2.87S92.06,138,92.06,141s1.39,6.76,6.39,7,18.72.51,18.72.51-.78-4.66-1.24-7.36c-.49-2.85-1.71-4.9-3.78-6.1A14.67,14.67,0,0,1,109.28,132.56Z"/></g>
<g class="st-elem-detail"><path class="st--elem" d="M19.36,132.56s9.8,1.66,12.3,2.87,4.9,2.59,4.9,5.56-1.39,6.76-6.38,7-18.7.51-18.7.51.78-4.66,1.24-7.36c.49-2.85,1.55-4.89,3.78-6.1A12.91,12.91,0,0,0,19.36,132.56Z"/></g>
<g class="st-elem-detail"><path class="st--elem" d="M11.68,129s2.15-.4,1.95,1-1.6,6.95-1.6,6.95-.07.42-.9.49-6.5.35-8.06-.35a2.73,2.73,0,0,1-1.25-3.77,5.11,5.11,0,0,1,3.06-2.83c1.32-.49,4.38-1.18,4.38-1.18Z"/></g>
<g class="st-elem-detail"><path class="st--elem" d="M32.76,2,33,2A238.18,238.18,0,0,1,64,.52C82.57.73,97.5,2,97.5,2a7.64,7.64,0,0,1,2.64,1.67,18.76,18.76,0,0,1,2.91,4l-.77.35s-18.88-.69-37-.69-37.49.47-37.49.47l-.87-.33L29,4.75l2.16-2.27L32,2.19Z"/></g>
<g class="st-elem-detail"><rect class="st--elem" x="108.48" y="58.11" width="12" height="38" rx="0.83" ry="0.83"/></g>
<g class="st-elem-detail"><rect class="st--elem" x="8.48" y="58.11" width="12" height="38" rx="0.83" ry="0.83"/></g>
<g class="st-elem-detail"><path class="st--elem" d="M9.9,55.26s7.68.56,12.68.7,24.18,1.19,42,1.19S89,56.45,94.44,56.2s15.84-.66,17.79-.94a5.93,5.93,0,0,1,2.64,0l5.14-.12s-.14,10.78-1.25,14.94-3.2,12-3.2,12H14.14a43.51,43.51,0,0,1-3.06-12.73C10.47,62.14,9.9,55.26,9.9,55.26Z"/></g>
<g class="st-elem-detail"><path class="st--elem" d="M36.83,49.27l16.4-1.16H90.56l3.39,1.58,1.53,4.74v2.64s-17,.83-17.77,1-21.55.14-21.83,0-10.54-.32-11.66-.42S38,57,37.67,57.07a10.57,10.57,0,0,1-2.2-.61v-3Z"/></g>
<g class="st-elem-detail"><line class="st--elem" x1="38.98" y1="51.11" x2="91.98" y2="51.11"/></g>
<g class="st-elem-detail"><line class="st--elem" x1="38.31" y1="54.15" x2="91.95" y2="54.43"/></g>
<g class="st-elem-detail"><path class="st--elem" d="M30.2,6.4,27.08,7l-3.23,6.76-5,10.93-1.16,4.54,1.17,3.37s14.11,1.91,14.86,1.82,25.1-1.3,28.81-.93,29.83.09,30.66.28,15.47-1,15.47-1l3.86-1.59v-5l-5.05-10-3.89-7.37s-1.25-2.18-2.09-2.46S63.81,5.57,63,5.57s-15.67-.37-17.42,0-12.88.74-12.88.74Z"/></g>
<g class="st-elem-detail"><path class="st--elem" d="M9.61,55.3,8.48,63.46V50.4L11,45.54s1.38-9.87,2.63-12.37,3.12-6.11,5.48-11.12,5-11.32,6.77-14.24,2.31-3.8,3.7-4.58a10.2,10.2,0,0,1,2.74-1.05,13.68,13.68,0,0,0-2.39,2.45S28,6.7,25.67,12,21,23.37,20.25,25.6s-1.46,4.1-1.46,4.1-.28.21.28.59a18.68,18.68,0,0,0,1.67.94s-1.65.28-1.72,1.18S21.48,43,21.48,43v1L17.74,46.3s-.55,3.2-.69,3.75-.73,3.47-.73,3.47l-1,2.1Z"/></g>
<g class="st-elem-detail"><path class="st--elem" d="M20.74,31.22a23.63,23.63,0,0,0,8.41,1c4.86-.28,19.38-.47,36-.47s36.3.51,36.3.51a30.43,30.43,0,0,0,4.17,0,19.94,19.94,0,0,0,3.54-1l3.82.83-5.7,17.32s-8.34.65-9.73.56S92,49.77,92,49.77s-12.31-.4-27.22-.4-18.8,0-22,0a20.81,20.81,0,0,0-6.16,1.16l-8-1.95L21.5,45.54s-3.89-8.34-3.89-8.75.63-5,.63-5Z"/></g>
<g class="st-elem-detail"><path class="st--elem" d="M119.73,55.3l.74,8.16V50.4l-2.08-4.86s-1.18-9.87-2.41-12.37-3-6.11-5.33-11.12S105.8,10.73,104,7.81s-2.26-3.8-3.63-4.58a10.11,10.11,0,0,0-2.7-1.06,9.93,9.93,0,0,1,2.45,2.4,31.17,31.17,0,0,1,4.1,7.41c2.26,5.28,4.6,11.39,5.35,13.62S111,29.7,111,29.7s.19.23-.27.59a12,12,0,0,1-1.65.94s1.67.28,1.74,1.18S108.48,43,108.48,43v1l3.64,2.29s.52,3.2.66,3.75.71,3.47.71,3.47l.81,2.1Z"/></g>
<g class="st-elem-detail"><path class="st--elem" d="M15.38,56.62s-.13-8.28,2.09-10.22a7.35,7.35,0,0,1,6.32-2c2.15.28,7.68,2.69,9.8,3.68a14.9,14.9,0,0,1,4.31,3.27c.66.73.79,3.8,0,4.81a5.23,5.23,0,0,1-2.22,1.35s-3.34.18-9.1,0-9.66-.6-9.66-.6Z"/></g>
<g class="st-elem-detail"><path class="st--elem" d="M114.68,56.06s.13-8.28-2.11-10.22a7.44,7.44,0,0,0-6.37-2c-2.17.28-7.74,2.69-9.87,3.68A15,15,0,0,0,92,50.77c-.67.73-.8,3.8,0,4.81a5.27,5.27,0,0,0,2.24,1.35s3.37.18,9.18,0,9.74-.6,9.74-.6Z"/></g>
<g class="st-elem-detail"><path class="st--elem" d="M97.78,9.11H76.39l-1.95,1H55.27l-2-1H31.37S29.52,8.94,29,10.37L22.57,26.84A1.65,1.65,0,0,0,23.4,29C24.88,29.68,35,30.5,65,30.5s41-1.12,41-1.12,2.13-.47,1.48-2.41S101,11,101,11s-1-1.86-2.13-1.86Z"/></g>
<g class="st-elem-detail"><path class="st--elem" d="M114.06,30.77l1.41-.62V26.5s-.44-1.32,1.47-1.29a18.29,18.29,0,0,1,5.65.63c2.92.73,5.28,1.95,6,3.37a4.7,4.7,0,0,1,.64,3.44,3.35,3.35,0,0,1-1.54,2.22c-.62.28-1,.42-1,.42l-10.74.35a13.83,13.83,0,0,0-.86-3.41A10.53,10.53,0,0,0,114.06,30.77Z"/></g>
<g class="st-elem-detail"><path class="st--elem" d="M110.06,27a2.72,2.72,0,0,1,1.76,0c.87.34,2.53,2.76,2.53,2.76"/></g>
<g class="st-elem-detail"><path class="st--elem" d="M111.08,29.93a6.82,6.82,0,0,1,2.07.22c.31.24.75.63.75.63"/></g>
<g class="st-elem-detail"><path class="st--elem" d="M115.15,30.15a11,11,0,0,0,2.12,1.73c1.29.79,1.56.7,1.56.7l10.39.07"/></g>
<g class="st-elem-detail"><path class="st--elem" d="M16.37,30.77l-.89-.62V26.5s-.09-1.32-2-1.29a20,20,0,0,0-5.93.63c-2.93.73-5.42,1.95-6.15,3.37a4.78,4.78,0,0,0-.71,3.44A3.32,3.32,0,0,0,2.2,34.87c.63.28,1,.42,1,.42L14,35.64a19.15,19.15,0,0,1,1.12-3.41A5.4,5.4,0,0,1,16.37,30.77Z"/></g>
<g class="st-elem-detail"><path class="st--elem" d="M19.86,27a2.73,2.73,0,0,0-1.76,0c-.87.34-2.62,2.81-2.62,2.81"/></g>
<g class="st-elem-detail"><path class="st--elem" d="M18.83,29.93s-1.66-.22-2.26.22a2.09,2.09,0,0,0-.53.63"/></g>
<g class="st-elem-detail"><path class="st--elem" d="M14.83,30.15A11.31,11.31,0,0,0,12.45,32a3.09,3.09,0,0,1-1.39.59L.65,32.65"/></g></svg>