<svg version="1.1" xmlns="http://www.w3.org/2000/svg" xmlns:xlink="http://www.w3.org/1999/xlink" x="0px" y="0px"	 viewBox="0 0 103.74 211.08"><title>hatchback_up</title>
<g class="st-elem-detail"><path class="st--elem" d="M86.31,191.05s1.63-26.48,1.92-30a43.78,43.78,0,0,0,0-6.51,6.39,6.39,0,0,0-.9-2.51s-14.64,5.47-36.83,5.47-33.14-7.54-33.14-7.54-2.37,2.07-2.07,7,1,21.6,1.48,25.59.44,8.58.44,8.58-.74,1,.74,2.07,4.73,5.77,5.92,6.21,4.44,3,5.18,2.81l.74-.15s4.66,2.59,21.3,2.66,22.49-3.4,22.49-3.4l7.69-3.55L86,193.87Z"/></g>
<g class="st-elem-detail"><path class="st--elem" d="M8.06,178.63a23.82,23.82,0,0,0,.41,5.55,39.31,39.31,0,0,0,2.87,7.43s4.64,19,39.4,19c36.83,0,40.68-16,40.68-16a42,42,0,0,0,3.33-8.43,25.28,25.28,0,0,0,.92-7.15l-6.39,15.43s-12.43,5.62-38.91,5.62-32.15-3.4-35.08-8S8.06,178.63,8.06,178.63Z"/></g>
<g class="st-elem-detail"><path class="st--elem" d="M13.46,195.34a5.22,5.22,0,0,1-1-2.37c-.15-1.33,0-5,2.79-3.48s14.45,12,14.45,12,1.18,1.55,1,2.52-2.14,1.33-3.55.67c-3.18-1-9.87-4.94-11.39-6.66Z"/></g>
<g class="st-elem-detail"><path class="st--elem" d="M90.43,195.34a5.28,5.28,0,0,0,.95-2.37c.14-1.33,0-5-2.74-3.48s-14.2,12-14.2,12-1.16,1.55-1,2.52,2.11,1.33,3.49.67c3.12-1,9.7-4.94,11.19-6.66Z"/></g>
<g class="st-elem-detail"><path class="st--elem" d="M15.3,148.21a4.72,4.72,0,0,0,.47,1.72c.63,1.36,2.07,3.31,5.18,5.34,5.37,3.51,19.2,6.8,28.67,6.8,10.25,0,23.56-2.15,32-5.93,7.11-3.2,7.69-8.38,7.69-8.38l-7.4-33.49a125.52,125.52,0,0,1-31.36,4.14c-19.76-.19-28.18-4.66-28.18-4.66Z"/></g>
<g class="st-elem-detail"><path class="st--elem" d="M9.41,22.91,7.24,25.85s-.33-5.21,0-6.21A39.85,39.85,0,0,1,11,13.37c1.15-1.57,3.7-5.38,6.7-7.16s9.87-4.44,24-5.33a162.16,162.16,0,0,1,29.18.55c5.77.67,13.76,3.33,16.2,5.33a31.13,31.13,0,0,1,6.36,7c1.05,1.88,2.85,4.7,3.07,6.1.13.8.22,6,.22,6l-2.05-2.66a15.7,15.7,0,0,0-2.47-7.07,17.76,17.76,0,0,0-4.62-4.64c-2.58-1.74-6.72-2.57-9-3.09,0,0-5.72-1.37-9.54-1.88s-11.56-1-11.56-1-9.35.31-12.24.46-11.1.93-12.58,1.08-5.29.9-6.93,1.12A39.31,39.31,0,0,0,19.8,9.8a14.94,14.94,0,0,0-4.27,2.42,15.34,15.34,0,0,0-3,2.91A9.86,9.86,0,0,0,11,17.39a18.54,18.54,0,0,0-.9,2.39C9.91,20.44,9.41,22.91,9.41,22.91Z"/></g>
<g class="st-elem-detail"><path class="st--elem" d="M18.41,143.57"/></g>
<g class="st-elem-detail"><path class="st--elem" d="M18.47,143.59l5-24.58s.19-1.17.86-1.51a5.8,5.8,0,0,1,2.44,0l15.9,2.85,1.63,2.51,15.53.15,1.48-2.51,16.72-3a2.86,2.86,0,0,1,1.55,0c.67.26.79,1.81.79,1.81l5.31,24.26a3.64,3.64,0,0,1,0,2.44,3.76,3.76,0,0,1-1.74,1.85s-13.17,7.1-34.62,6.36-30.18-6.66-30.18-6.66A4.36,4.36,0,0,1,18,145.71,4.43,4.43,0,0,1,18.47,143.59Z"/></g>
<g class="st-elem-detail"><path class="st--elem" d="M22.29,113.78s1.77-14.72,2.4-22S27,65.38,27.21,61.1s1-30.58,1-30.58,15.77-.39,23.17-.39,24.46.39,24.46.39,2.07,54.11,3,62.61,3.11,21.15,3.11,21.15a132.43,132.43,0,0,1-30.05,4.14C33,118.6,22.29,113.78,22.29,113.78Z"/></g>
<g class="st-elem-detail"><path class="st--elem" d="M9.41,23.08a24.17,24.17,0,0,1,2.64-4.28c1-1.1,3.25-2.47,4.44-1s7,10.61,8,11.33a15.73,15.73,0,0,0,3.7,1.4L49,30.12l26.81.39a3.8,3.8,0,0,0,2.37-.36,13.65,13.65,0,0,0,2.6-1.89c.88-1.1,3.28-5,4.24-6.4s1.41-2.17,1.8-2.77,1.32-2,2.32-1.72A4.79,4.79,0,0,1,92.06,19a44.43,44.43,0,0,1,2.55,4.31,12,12,0,0,0-1.44-5.51c-1.55-3-4.6-6.39-8.32-7.7A112.86,112.86,0,0,0,68.71,6.48a81.5,81.5,0,0,0-13-.76c-6.66,0-14,.49-14,.49L31,7.24s-3.73.52-7,1.36-3.9.94-5.83,2a16.65,16.65,0,0,0-5.64,4.55,18.09,18.09,0,0,0-2.68,5.11A19.05,19.05,0,0,0,9.41,23.08Z"/></g>
<g class="st-elem-detail"><path class="st--elem" d="M8,178.63l5.54,10.63a2.08,2.08,0,0,1,1.69.24c.85.54,1.95,1.34,1.95,1.34l-1.88-33.21.11-3.67,1-2.81a5.12,5.12,0,0,1-.67-1.14,10.5,10.5,0,0,1-.48-1.68l6.68-33s2-15.34,2.65-23S26.78,68.69,27,64.1s.78-21.27.86-24,.29-9.62.29-9.62a13.41,13.41,0,0,1-2.69-.91A7.16,7.16,0,0,1,23,27.2c-.73-1.06-5.91-8.86-5.91-8.86A2.78,2.78,0,0,0,15,17a3.38,3.38,0,0,0-3,1.59,10,10,0,0,0-1.47,2.14c-.86,1.57-.25,1.25-.68,1.89C9,24,7.77,26,7.77,26V53.48l.57,9.17L9.4,143.57,8.1,149Z"/></g>
<g class="st-elem-detail"><path class="st--elem" d="M95.83,178.63l-4.71,11.1s-1.59-.54-2.41,0-2.41,1.33-2.41,1.33L88.37,158l-.13-3.48-.9-2.51a5.36,5.36,0,0,0,1-1.72,3.4,3.4,0,0,0,.33-1.85L82.27,115.6s-2.91-15.32-3.55-23S77.43,68.83,77.2,64.24s-.93-21.32-1-24-.38-9.71-.38-9.71a10.22,10.22,0,0,0,3.12-.69,7,7,0,0,0,2.4-2.4C82,26.37,87,18.57,87,18.57s.75-1.42,2-1.45A5.58,5.58,0,0,1,92.22,19a23.73,23.73,0,0,1,2.12,3.63c.88,1.34.88,1.34,2.34,3.45l.28,27-1.33,5.44-.55,85.26.63,5.47Z"/></g>
<g class="st-elem-detail"><path class="st--elem" d="M9.41,22.75s.85-6.38,4.85-9.5c3.8-3,5.84-3.7,6.36-3.7.92,0,.94,2.39,0,3.22S16,17.22,16,17.22a3,3,0,0,0-3.56.92A35.24,35.24,0,0,0,9.41,22.75Z"/></g>
<g class="st-elem-detail"><path class="st--elem" d="M94.54,23s-.59-6.6-5.15-10C85.46,10,83.71,9.76,83.18,9.76c-.94,0-1,2.39,0,3.22s4.71,4.46,4.71,4.46a3.46,3.46,0,0,1,3.53.92A24.26,24.26,0,0,1,94.54,23Z"/></g>
<g class="st-elem-detail"><path class="st--elem" d="M21.31,19.31s-2-2.51,0-3.77,5.83-5.4,22.18-5.47,27.29-.15,32.32,2,6.66,3.7,6.66,3.7,1.92,1.26,0,3.55S80,23.75,75.51,23A213.16,213.16,0,0,0,47,21.38c-9.25.22-15.38.74-17.9,1.37s-4.07,1-5,0S21.31,19.31,21.31,19.31Z"/></g>
<g class="st-elem-detail"><path class="st--elem" d="M8.44,90.61l13.85-4.88,1-38.91a5.19,5.19,0,0,0-2-5c-2.6-1.79-5.41-3.76-5.41-3.76l-.62,1.52L11,41.81S9.12,47.63,8.44,50L7.09,54.82,8,62.65Z"/></g>
<g class="st-elem-detail"><path class="st--elem" d="M8.44,90.34l.8,52.58h1.33s4.24-3.28,7.44-22.36,4.28-35.21,4.28-35.21Z"/></g>
<g class="st-elem-detail"><path class="st--elem" d="M10.57,143.68s1.94-45.17,2.34-56,2.37-48.15,2.37-48.15"/></g>
<g class="st-elem-detail"><path class="st--elem" d="M10.14,143.68s1.93-44.95,2.33-55.73,2.46-48.16,2.46-48.16"/></g>
<g class="st-elem-detail"><path class="st--elem" d="M12.71,94.23a36.32,36.32,0,0,1,4.68-3.11l4.68-2.43"/></g>
<g class="st-elem-detail"><path class="st--elem" d="M.75,130.92a5,5,0,0,0-.17.54A2.46,2.46,0,0,0,1,133.64a20.87,20.87,0,0,0,5.49,3.43,41,41,0,0,0,6,2.07l.48-4,.07-.64L.92,130.92Z"/></g>
<g class="st-elem-detail"><line class="st--elem" x1="0.58" y1="131.52" x2="12.91" y2="135.36"/></g>
<g class="st-elem-detail"><path class="st--elem" d="M13.07,84.54l4-.89c1.33-.3,5.21-.89,5.21-.89"/></g>
<g class="st-elem-detail"><line class="st--elem" x1="11.03" y1="133.07" x2="15.65" y2="131.99"/></g>
<g class="st-elem-detail"><path class="st--elem" d="M14.43,55.89s2.74-1.22,4.1-1.61,4.6-1.16,4.6-1.16"/></g>
<g class="st-elem-detail"><path class="st--elem" d="M14.43,54.56s2.74-1.22,4.1-1.61,4.6-1.16,4.6-1.16"/></g>
<g class="st-elem-detail"><rect class="st--elem" x="10.77" y="25.92" width="2" height="7" rx="0.67" ry="0.67"/></g>
<g class="st-elem-detail"><path class="st--elem" d="M95.3,88.61,81.44,83.73l-1-38.91a5.2,5.2,0,0,1,2-5c2.6-1.79,5.41-3.76,5.41-3.76l.62,1.53,4.26,2.23S94.62,45.63,95.3,48s1.35,4.78,1.35,4.78l-.92,7.83Z"/></g>
<g class="st-elem-detail"><path class="st--elem" d="M95.3,90.22l-.8,52.69H93.17s-4.24-3.39-7.44-22.47-4.28-35.21-4.28-35.21Z"/></g>
<g class="st-elem-detail"><path class="st--elem" d="M93.17,142.79s-1.94-45.17-2.34-56-2.37-48.15-2.37-48.15"/></g>
<g class="st-elem-detail"><path class="st--elem" d="M93.6,143.46s-1.93-44.95-2.33-55.73-2.46-48.16-2.46-48.16"/></g>
<g class="st-elem-detail"><path class="st--elem" d="M91,94a36.19,36.19,0,0,0-4.68-3.11l-4.68-2.43"/></g>
<g class="st-elem-detail"><path class="st--elem" d="M103,130.92a1.37,1.37,0,0,1,.17.43,2.35,2.35,0,0,1-.45,2.12,21.2,21.2,0,0,1-5.49,3.4,39.91,39.91,0,0,1-6,2.05l-.49-4.06-.07-.53,12.15-3.42Z"/></g>
<g class="st-elem-detail"><line class="st--elem" x1="103.16" y1="131.29" x2="90.83" y2="135.14"/></g>
<g class="st-elem-detail"><path class="st--elem" d="M90.67,84.32l-4-.89c-1.33-.3-5.22-.89-5.22-.89"/></g>
<g class="st-elem-detail"><line class="st--elem" x1="92.71" y1="132.84" x2="88.09" y2="131.77"/></g>
<g class="st-elem-detail"><path class="st--elem" d="M89.31,55.67s-2.74-1.22-4.1-1.61-4.6-1.17-4.6-1.17"/></g>
<g class="st-elem-detail"><path class="st--elem" d="M89.31,54.34s-2.74-1.22-4.1-1.61-4.6-1.17-4.6-1.17"/></g>
<g class="st-elem-detail"><path class="st--elem" d="M94.68,94.92c.07,0-.91-.64-.91-.28v6.66c0,.37,1,.62.91.62h-.16c-.07,0-.75-.25-.75-.62V94.64c0-.37.69.28.75.28Z"/></g>
<g class="st-elem-detail"><path class="st--elem" d="M93.68,54.92c.07,0-.91-.64-.91-.28V61.3c0,.37,1,.62.91.62h-.16c-.07,0-.75-.25-.75-.62V54.64c0-.37.69.28.75.28Z"/></g>
<g class="st-elem-detail"><path class="st--elem" d="M9.06,93.92c-.08,0,1.71-.64,1.71-.28v6.66c0,.37-1.8.62-1.71.62h.2c.08,0,1.51-.25,1.51-.62V93.64c0-.37-1.43.28-1.51.28Z"/></g>
<g class="st-elem-detail"><path class="st--elem" d="M10.34,53.92c-.08,0,1.43-.64,1.43-.28V60.3c0,.37-1.51.62-1.43.62h.2c.08,0,1.22-.25,1.22-.62V53.64c0-.37-1.14.28-1.22.28Z"/></g></svg>