<svg version="1.1" id="slide_4" xmlns="http://www.w3.org/2000/svg" xmlns:xlink="http://www.w3.org/1999/xlink" x="0px" y="0px" viewBox="0 0 228.333 223.333" enable-background="new 0 0 228.333 223.333" xml:space="preserve">
  <g class="st-elem-detail g-elem__200" data-id="g-elem__200" data-el-name="" data-wrap=".defect-list-nav-motor"><path class="st--elem" d="M140.246,105.215c0,0-0.182-0.827-0.128-1.099
    c0.047-0.243,0.312-0.684,0.477-0.867c0.249-0.276,0.856-0.781,1.222-0.845c0.513-0.089,1.556,0.286,2.014,0.535
    c0.699,0.38,1.904,1.485,2.359,2.139c0.247,0.355,0.545,1.185,0.643,1.606c0.07,0.298,0.108,0.918,0.096,1.224
    c-0.011,0.278-0.025,0.865-0.176,1.098c-0.158,0.244-0.708,0.52-0.975,0.634c-0.344,0.147-1.083,0.359-1.457,0.341
    c-0.396-0.02-1.503-0.511-1.503-0.511L140.246,105.215z"></path></g>
  <g class="st-elem-detail g-elem__201" data-id="g-elem__201" data-el-name="" data-wrap=".defect-list-nav-motor"><ellipse transform="matrix(0.8487 -0.5289 0.5289 0.8487 -44.0018 37.8591)" class="st--elem" cx="44.171" cy="95.838" rx="30.931" ry="45.021"></ellipse></g>
  <g class="st-elem-detail g-elem__202" data-id="g-elem__202" data-el-name="" data-wrap=".defect-list-nav-motor"><ellipse transform="matrix(0.8552 -0.5184 0.5184 0.8552 -44.8786 34.1678)" class="st--elem" cx="38.702" cy="97.391" rx="23.95" ry="40.573"></ellipse></g>
  <g class="st-elem-detail g-elem__203" data-id="g-elem__203" data-el-name="" data-wrap=".defect-list-nav-motor"><ellipse transform="matrix(0.8552 -0.5184 0.5184 0.8552 -44.9653 34.0926)" class="st--elem" cx="38.522" cy="97.507" rx="21.515" ry="38.024"></ellipse></g>
  <g class="st-elem-detail g-elem__204" data-id="g-elem__204" data-el-name="" data-wrap=".defect-list-nav-motor"><ellipse transform="matrix(0.8551 -0.5184 0.5184 0.8551 -44.7522 34.2475)" class="st--elem" cx="38.9" cy="97.194" rx="13.365" ry="20.42"></ellipse></g>
  <g class="st-elem-detail g-elem__205" data-id="g-elem__205" data-el-name="" data-wrap=".defect-list-nav-motor"><ellipse transform="matrix(0.8922 -0.4517 0.4517 0.8922 -39.866 27.6751)" class="st--elem" cx="38.036" cy="97.342" rx="9.079" ry="14.042"></ellipse></g>
  <g class="st-elem-detail g-elem__206" data-id="g-elem__206" data-el-name="" data-wrap=".defect-list-nav-motor"><line class="st--elem st--none" stroke-miterlimit="10" x1="52.606" y1="111.495" x2="47.374" y2="106.618"></line></g>
  <g class="st-elem-detail g-elem__207" data-id="g-elem__207" data-el-name="" data-wrap=".defect-list-nav-motor"><line class="st--elem st--none" stroke-miterlimit="10" x1="53.935" y1="107.604" x2="48.112" y2="104.221"></line></g>
  <g class="st-elem-detail g-elem__208" data-id="g-elem__208" data-el-name="" data-wrap=".defect-list-nav-motor"><line class="st--elem st--none" stroke-miterlimit="10" x1="54.471" y1="103.546" x2="48.324" y2="102.31"></line></g>
  <g class="st-elem-detail g-elem__209" data-id="g-elem__209" data-el-name="" data-wrap=".defect-list-nav-motor"><line class="st--elem st--none" stroke-miterlimit="10" x1="55.19" y1="99.475" x2="48.324" y2="99.904"></line></g>
  <g class="st-elem-detail g-elem__210" data-id="g-elem__210" data-el-name="" data-wrap=".defect-list-nav-motor"><line class="st--elem st--none" stroke-miterlimit="10" x1="27.991" y1="104.592" x2="28.807" y2="103.452"></line></g>
  <g class="st-elem-detail g-elem__211" data-id="g-elem__211" data-el-name="" data-wrap=".defect-list-nav-motor"><line class="st--elem st--none" stroke-miterlimit="10" x1="26.401" y1="101.818" x2="27.749" y2="100.721"></line></g>
  <g class="st-elem-detail g-elem__212" data-id="g-elem__212" data-el-name="" data-wrap=".defect-list-nav-motor"><line class="st--elem st--none" stroke-miterlimit="10" x1="51.1" y1="91.107" x2="57.212" y2="86.843"></line></g>
  <g class="st-elem-detail g-elem__213" data-id="g-elem__213" data-el-name="" data-wrap=".defect-list-nav-motor"><line class="st--elem st--none" stroke-miterlimit="10" x1="54.563" y1="99.475" x2="62.749" y2="99.475"></line></g>
  <g class="st-elem-detail g-elem__214" data-id="g-elem__214" data-el-name="" data-wrap=".defect-list-nav-motor"><path class="st--elem st--none" stroke-miterlimit="10" d="M42.928,115.257c0,0,0.859,6.633,1.272,8.823
    c0.542,2.871,2.356,3.273,2.356,3.273"></path></g>
  <g class="st-elem-detail g-elem__215" data-id="g-elem__215" data-el-name="" data-wrap=".defect-list-nav-motor"><path class="st--elem st--none" stroke-miterlimit="10" d="M35.9,112.472c0,0-1.376,2.518-1.964,3.514
    c-0.811,1.377-2.466,0.855-2.466,0.855"></path></g>
  <g class="st-elem-detail g-elem__216" data-id="g-elem__216" data-el-name="" data-wrap=".defect-list-nav-motor"><path class="st--elem st--none" stroke-miterlimit="10" d="M23.405,92.272c0,0-3.07-1.015-4.136-1.026
    c-1.882-0.02-2.446,1.026-2.446,1.026"></path></g>
  <g class="st-elem-detail g-elem__217" data-id="g-elem__217" data-el-name="" data-wrap=".defect-list-nav-motor"><path class="st--elem st--none" stroke-miterlimit="10" d="M15.925,77.891c0,0,0.308,1.038,1.465,2.045
    c1.428,1.241,6.36,4.104,6.36,4.104"></path></g>
  <g class="st-elem-detail g-elem__218" data-id="g-elem__218" data-el-name="" data-wrap=".defect-list-nav-motor"><line class="st--elem st--none" stroke-miterlimit="10" x1="31.696" y1="84.812" x2="29.878" y2="78.929"></line></g>
  <g class="st-elem-detail g-elem__219" data-id="g-elem__219" data-el-name="" data-wrap=".defect-list-nav-motor"><path class="st--elem st--none" stroke-miterlimit="10" d="M33.957,116.062c-3.026-3.106-5.91-6.814-8.453-11.009
    c-2.794-4.61-4.878-9.314-6.237-13.812"></path></g>
  <g class="st-elem-detail g-elem__220" data-id="g-elem__220" data-el-name="" data-wrap=".defect-list-nav-motor"><path class="st--elem st--none" stroke-miterlimit="10" d="M42.754,70.151c5.014,3.745,9.96,9.218,14.033,15.938
    c9.877,16.293,10.881,33.745,2.242,38.982c-3.996,2.42-9.352,1.806-14.934-1.167"></path></g>
  <g class="st-elem-detail g-elem__221" data-id="g-elem__221" data-el-name="" data-wrap=".defect-list-nav-motor"><path class="st--elem" d="M145.759,129.909l16.404,6.509l8.271,2.35l6.03-1.379
    c0,0-5.12,2.716-6.79,3.688c-0.454,0.264-1.278,0.963-1.783,1.107c-0.433,0.124-1.353-0.028-1.802,0
    c-0.646,0.041-1.928,0.409-2.571,0.33c-2.036-0.249-7.646-2.971-7.646-2.971s-0.521,1.675-0.819,2.173
    c-0.397,0.663-1.33,2.01-2.035,2.327c-0.522,0.235-1.729,0.104-2.29-0.013c-0.537-0.111-1.552-0.57-2.017-0.861
    c-0.469-0.294-1.332-1.016-1.671-1.453c-0.301-0.389-0.758-1.279-0.878-1.756c-0.108-0.431-0.094-1.335-0.053-1.777
    c0.044-0.481,0.148-1.483,0.41-1.89c0.414-0.642,1.922-1.271,2.452-1.821c0.143-0.148,0.465-0.679,0.465-0.679L145.759,129.909z"></path></g>
  <g class="st-elem-detail g-elem__222" data-id="g-elem__222" data-el-name="" data-wrap=".defect-list-nav-motor"><ellipse transform="matrix(0.8487 -0.5289 0.5289 0.8487 -65.2705 127.2132)" class="st--elem" cx="189.714" cy="177.689" rx="28.685" ry="41.754"></ellipse></g>
  <g class="st-elem-detail g-elem__223" data-id="g-elem__223" data-el-name="" data-wrap=".defect-list-nav-motor"><ellipse transform="matrix(0.8552 -0.5184 0.5184 0.8552 -66.1111 121.6583)" class="st--elem" cx="184.641" cy="179.129" rx="22.211" ry="37.628"></ellipse></g>
  <g class="st-elem-detail g-elem__224" data-id="g-elem__224" data-el-name="" data-wrap=".defect-list-nav-motor"><ellipse transform="matrix(0.8552 -0.5184 0.5184 0.8552 -66.191 121.5883)" class="st--elem" cx="184.475" cy="179.236" rx="19.953" ry="35.264"></ellipse></g>
  <g class="st-elem-detail g-elem__225" data-id="g-elem__225" data-el-name="" data-wrap=".defect-list-nav-motor"><ellipse transform="matrix(0.8551 -0.5184 0.5184 0.8551 -65.9917 121.7345)" class="st--elem" cx="184.825" cy="178.947" rx="12.395" ry="18.938"></ellipse></g>
  <g class="st-elem-detail g-elem__226" data-id="g-elem__226" data-el-name="" data-wrap=".defect-list-nav-motor"><ellipse transform="matrix(0.8922 -0.4517 0.4517 0.8922 -61.0446 102.4212)" class="st--elem" cx="184.024" cy="179.084" rx="8.42" ry="13.023"></ellipse></g>
  <g class="st-elem-detail g-elem__227" data-id="g-elem__227" data-el-name="" data-wrap=".defect-list-nav-motor"><path class="st--elem" d="M180.018,136.417c0,0-3.824,1.063-5.109,1.375
    c-1.112,0.271-3.33,1.005-4.474,0.975c-1.112-0.029-3.223-0.87-4.294-1.175c-0.997-0.284-3.977-1.175-3.977-1.175
    s0.435-4.567,0.133-7.626c-0.133-1.353-0.858-8.683-1.195-9.999c-0.487-1.905-1.505-5.733-2.355-7.506
    c-0.846-1.762-0.671-1.437-1.667-3.119c-0.91-1.535-4.764-6.597-5.811-8.042c-1.363-1.881-5.045-6.643-6.667-8.306
    c-1.649-1.691-6.583-6.777-6.583-6.777l0.75-2.625c0,0,14.605,11.55,18.667,16.208c3.757,4.31,9.574,14.241,12.5,19.154
    C172.645,122.331,180.018,136.417,180.018,136.417z"></path></g>
  <g class="st-elem-detail g-elem__228" data-id="g-elem__228" data-el-name="" data-wrap=".defect-list-nav-motor"><path class="st--elem" d="M189.518,135.794c1.842,0.217,4.438,1.581,6,2.581
    c2.314,1.481,6.428,5.188,8.333,7.167c0.997,1.036,3.8,3.079,3.583,4.5c-0.129,0.846-2.104,2.305-2.833,2.752
    c-1.36,0.833-4.021,1.93-5.583,2.248c-2.401,0.489-7.326-0.641-9.75-1c-1.512-0.225-7.188-2.75-7.188-2.75l-1.858,3.083
    c0,0,0.507,4.996,0.858,6.667c0.939,4.467,2.667,13.033,3.25,16.449c0.102,0.599,0.614,1.716,0.052,1.945
    c-0.458,0.188-0.64,0.5-1.114,0.357c-1.207-0.363-1.888-3.021-2.167-4.25c-0.879-3.877-2.782-9.845-3.521-13.189
    c-0.426-1.931-1.125-6.125-1.896-7.811c-0.913-1.995-2.95-4.782-2.95-4.782l-3.06-8.687l6.79-3.688l7.054-2.078
    C183.518,135.31,188.337,135.656,189.518,135.794z"></path></g>
  <g class="st-elem-detail g-elem__229" data-id="g-elem__229" data-el-name="" data-wrap=".defect-list-nav-motor"><polygon class="st--elem" points="77.268,138.042 79.643,135.776 137.393,156.667 
    133.518,171.667 127.143,169.792 108.643,160.667 94.143,150.542 "></polygon></g>
  <g class="st-elem-detail g-elem__230" data-id="g-elem__230" data-el-name="" data-wrap=".defect-list-nav-motor"><path class="st--elem" d="M97.304,117.894l41.088,39.9c0,0,1.87,1.52,2.625,1.748
    c0.987,0.299,3.129,0.269,4.125,0c0.838-0.226,2.301-1.234,3-1.748c1.569-1.152,4.219-4.049,5.75-5.252
    c1.628-1.28,5.026-3.691,6.875-4.625c0.675-0.341,2.569-0.955,3.251-1.172c0.156-0.05,0.167-0.109,0.021-0.165
    c-0.985-0.377-4.893-1.883-6.272-2.538c-0.87-0.413-3.375-1.859-3.375-1.859s-0.853,1.611-1.375,1.859
    c-0.622,0.296-2.091,0.074-2.75-0.125c-0.803-0.243-2.306-1.117-2.875-1.734c-0.523-0.567-1.187-2.017-1.375-2.766
    c-0.936-3.729,3.417-5.625,3.417-5.625l-5.833-6L97.362,117.78L97.304,117.894z"></path></g>
  <g class="st-elem-detail g-elem__231" data-id="g-elem__231" data-el-name="" data-wrap=".defect-list-nav-motor"><polygon class="st--elem" points="79.643,135.776 80.351,129.042 75.601,117.208 
    97.362,117.78 137.393,156.824 "></polygon></g>
  <g class="st-elem-detail g-elem__232" data-id="g-elem__232" data-el-name="" data-wrap=".defect-list-nav-motor"><polygon class="st--elem" points="75.601,117.208 71.518,104.792 96.684,105.126 
    97.362,117.78 "></polygon></g>
  <g class="st-elem-detail g-elem__233" data-id="g-elem__233" data-el-name="" data-wrap=".defect-list-nav-motor"><path class="st--elem" d="M142.092,127.156l-5.404-19.076l3.841-2.473
    c0,0-0.485-0.334-0.434-1.32c0.061-1.16,1.663-1.855,1.663-1.855s-7.57,3.356-9.741,3.737c-1.139,0.2-4.625,0-4.625,0l-3.5,2
    l-19.5-2l-7.708-1.042l0.678,12.654L142.092,127.156z"></path></g>
  <g class="st-elem-detail g-elem__234" data-id="g-elem__234" data-el-name="" data-wrap=".defect-list-nav-motor"><polygon class="st--elem" points="85.314,71.091 85.643,77.542 103.712,106.076 
    123.893,108.167 127.393,106.167 122.893,102.542 117.428,95.204 104.131,73.912 97.362,61.667 86.205,70.272 "></polygon></g>
  <g class="st-elem-detail g-elem__235" data-id="g-elem__235" data-el-name="" data-wrap=".defect-list-nav-motor"><path class="st--elem" d="M156.856,164.251l-11.755,8.041l-11.583-0.625l3.875-14.844
    c0,0,0.902,0.882,1.226,1.15c0.329,0.273,1.02,0.781,1.381,1.011c0.245,0.156,0.741,0.47,1.018,0.558
    c0.46,0.146,1.435,0.209,1.917,0.213c0.555,0.004,1.681-0.043,2.208-0.213c0.826-0.267,2.302-1.232,3-1.748
    c1.208-0.893,2.358-2.22,3.486-3.21c0.557-0.489,2.616-2.309,3.204-2.76c0.744-0.571,2.285-1.646,3.067-2.165
    c0.57-0.379,2.258-1.43,2.867-1.742c0.865-0.443,2.93-1.133,3.082-1.105c0.152,0.027-0.068,0.107-0.068,0.107
    s-0.384,0.7-1.546,2.055c-0.526,0.614-1.966,2.185-2.767,3.814c-1.337,2.719-2.057,6.424-1.958,5.289l-0.409,3.717L156.856,164.251z
    "></path></g>
  <g class="st-elem-detail g-elem__236" data-id="g-elem__236" data-el-name="" data-wrap=".defect-list-nav-motor"><path class="st--elem" d="M85.643,71.917v5.125l18.07,29.033l-7.028-0.95l-25.167-0.333
    L57.143,82.417c0,0-12.503-11.021-16.375-15c-6.813-7-16.607-20.57-19.438-24.375c-2.876-3.868-16.688-24.5-16.688-24.5l2.625-2.5
    l6.125,4.375l0,0l26.75,18.875l5.898,3.75c0,0,0.223,7.724,0.333,9.919c0.019,0.375,0.035,1.137,0.035,1.137l34.019,23.694
    c0,0,4.975-2.256,5.215-2.756c0.123-0.256,0-4.203,0-4.203l0,0l0,0V71.917z"></path></g>
  <g class="st-elem-detail g-elem__237" data-id="g-elem__237" data-el-name="" data-wrap=".defect-list-nav-motor"><path class="st--elem" d="M34.768,6.542l-4.25-3.625L7.268,16.042l6.125,4.375l26.75,18.875
    l5.898,3.75c0,0-0.147-1.906,0.102-2.875c0.177-0.691,1.148-1.503,1.765-1.861c0.804-0.467,20.274-12.555,22.259-13.788
    c0.107-0.066,0.116-0.179,0.116-0.179l-3.918-3.084l-1.222-2.213l-28-13.625L34.768,6.542z"></path></g>
  <g class="st-elem-detail g-elem__238" data-id="g-elem__238" data-el-name="" data-wrap=".defect-list-nav-motor"><polygon class="st--elem" points="17.995,16.295 34.768,6.542 37.143,5.417 64.992,18.969 
    65.027,19.114 42.684,32.959 17.926,16.424 "></polygon></g>
  <g class="st-elem-detail g-elem__239" data-id="g-elem__239" data-el-name="" data-wrap=".defect-list-nav-motor"><polygon class="st--elem" points="66.365,21.255 42.101,37.043 17.101,19.543 17.833,16.469 
    18.013,16.483 42.684,32.959 64.906,19.189 65.305,19.336 "></polygon></g>
  <g class="st-elem-detail g-elem__240" data-id="g-elem__240" data-el-name="" data-wrap=".defect-list-nav-motor"><polygon class="st--elem" points="76.935,36.209 96.316,62.465 82.893,72.989 81.018,74.459 
    48.782,53.117 48.918,52.806 "></polygon></g>
  <g class="st-elem-detail g-elem__241" data-id="g-elem__241" data-el-name="" data-wrap=".defect-list-nav-motor"><path class="st--elem" d="M48.845,52.962l-0.265-9.814c0,0-0.226-1.559,0.958-2.918
    c0.75-0.86,1.96-1.342,1.96-1.342s17.481-10.947,19.105-11.721c1.313-0.625,4.881,4.89,5.601,6.875
    c0.277,0.764,0.729,2.167,0.729,2.167L48.845,52.962z"></path></g>
  <g class="st-elem-detail g-elem__242" data-id="g-elem__242" data-el-name="" data-wrap=".defect-list-nav-motor"><path class="st--elem" d="M46.408,54.098l-0.367-12.056c0,0-0.063-0.961,0-1.273
    c0.077-0.379,0.375-1.112,0.6-1.426c0.17-0.237,0.869-0.773,0.869-0.773l22.657-14.051l0.205,0.093l0.536,2.508
    c0,0-20.722,12.267-21.703,13.36c-0.417,0.464-0.625,2.875-0.625,2.875l0.265,9.607l32.173,21.497l4.625-3.626
    c0,0,0.277,2.662,0,4.203c-0.098,0.546-5.215,2.756-5.215,2.756L46.408,54.098z"></path></g>
  <g class="st-elem-detail g-elem__243" data-id="g-elem__243" data-el-name="" data-wrap=".defect-list-nav-motor"><path class="st--elem" d="M139.518,73.792c0,0,6.195-8.412,14.409-12.78
    c7.466-3.97,13.466-2.595,13.466-2.595s14.625,12.25,18.375,16.875s5.383,7.497,6.25,9.625c0.956,2.347,0.775,4.694,0.625,6
    c-0.221,1.922-2.569,5.322-4,6.625c-1.488,1.355-4.066,3.193-6,3.75c-1.904,0.548-4.829,1.331-6.729,0.771
    c-3.813-1.122-12.055-7.147-15.146-9.646C155.275,87.975,139.518,73.792,139.518,73.792z"></path></g>
  <g class="st-elem-detail g-elem__244" data-id="g-elem__244" data-el-name="" data-wrap=".defect-list-nav-motor"><path class="st--elem" d="M185.851,117.208c-0.541-0.126-1.778-0.029-2.333,0
    c-0.816,0.045-2.784,1.313-3.417,1.829c-1.073,0.876-2.333,3.505-2.333,3.505s-8.507-8.937-10.669-12.41
    c-0.337-0.542-0.94-1.71-1.002-2.345c-0.043-0.441,0.123-1.365,0.367-1.734c0.462-0.697,1.999-1.53,2.742-1.913
    c0.747-0.384,2.363-0.873,3.165-1.123c0.876-0.273,2.631-0.86,3.544-0.953c0.794-0.081,2.393,0.273,3.188,0.192
    c0.749-0.076,2.2-0.527,2.907-0.785c0.995-0.362,2.943-1.225,3.843-1.782c0.879-0.544,2.514-1.839,3.23-2.585
    c0.687-0.716,1.865-2.333,2.349-3.2c0.393-0.704,0.713-2.354,1.212-2.987c0.45-0.572,1.706-1.388,2.364-1.698
    c0.329-0.155,1.06-0.48,1.407-0.371c0.667,0.209,1.461,1.523,1.812,2.128c0.709,1.224,1.502,3.972,1.912,5.327
    c0.298,0.985,0.805,2.985,0.988,3.998c0.241,1.336,0.565,4.038,0.622,5.395c0.037,0.868-0.105,3.472-0.105,3.472
    s-2.622-1.008-3.542-1c-0.827,0.007-2.858,0.76-3.501,1.279c-0.668,0.539-1.487,1.938-1.837,2.721
    c-0.441,0.986-0.846,2.96-0.912,4.039c-0.066,1.084,0.37,3.308,0.912,4.25c0.647,1.126,2.651,2.973,3.838,3.5
    c0.584,0.26,2.547,0.246,2.547,0.246s-3.451,2.224-4.59,2.983c-1.322,0.882-8.853,5.356-8.853,5.356s1.892-1.196,2.841-2.561
    c1.012-1.454,1.088-3.1,1.222-3.692c0.143-0.635,0.312-1.933,0.333-2.583c0.022-0.668-0.166-2.667-0.166-2.667s-0.658-1.498-1-1.916
    c-0.339-0.414-1.186-1.108-1.667-1.343C186.71,117.507,186.456,117.35,185.851,117.208z"></path></g>
  <g class="st-elem-detail g-elem__245" data-id="g-elem__245" data-el-name="" data-wrap=".defect-list-nav-motor"><path class="st--elem" d="M162.934,142.459c-1.751-0.317-6.667-2.5-6.667-2.5l-1.667,1.25
    l-0.208,0.974l9.389,4.735l5.205-5.157C168.986,141.761,164.656,142.772,162.934,142.459z"></path></g>
  <g class="st-elem-detail g-elem__246" data-id="g-elem__246" data-el-name="" data-wrap=".defect-list-nav-motor"><path class="st--elem" d="M145.081,67.615c0,0-13.15-5.542-17.689-6.947
    c-3.86-1.195-11.735-3.169-15.75-3.625c-1.863-0.211-5.682-0.458-7.5,0c-0.585,0.147-2.125,1.145-2.125,1.145s6.747,9.066,9,12.085
    c2.538,3.4,7.43,10.346,10.165,13.59c1.455,1.726,4.151,5.631,6.21,6.555c3.125,1.402,15.844,0,15.844,0s-3.762-3.81-4.773-5.271
    c-0.788-1.138-2.425-3.544-2.532-4.924c-0.061-0.785,0.627-2.291,0.993-2.988c0.5-0.954,1.908-2.61,2.593-3.441
    C140.84,72.189,145.081,67.615,145.081,67.615z"></path></g>
  <g class="st-elem-detail g-elem__247" data-id="g-elem__247" data-el-name="" data-wrap=".defect-list-nav-motor"><ellipse class="st--elem" cx="120.163" cy="66.021" rx="6.5" ry="4.5"></ellipse></g>
  <g class="st-elem-detail g-elem__248" data-id="g-elem__248" data-el-name="" data-wrap=".defect-list-nav-motor"><ellipse class="st--elem" cx="120.163" cy="65.146" rx="5.375" ry="3.625"></ellipse></g>
  <g class="st-elem-detail g-elem__249" data-id="g-elem__249" data-el-name="" data-wrap=".defect-list-nav-motor"><path class="st--elem" d="M97.362,61.667l4.656-3.48c0,0,9.03,12.217,12.063,16.272
    c1.765,2.359,7.101,9.403,7.101,9.403s4.137,5.663,6.21,6.555c3.639,1.565,15.844,0,15.844,0l5.031,5.773v3.143
    c0,0-12.705,6.329-16.25,6.834c-0.646,0.092-2.407,0.588-4.218-0.096c-2.177-0.823-4.429-2.906-4.907-3.529
    c-0.854-1.112-1.14-1.618-2.253-2.935c-1.888-2.232-6.381-9.159-8.056-11.556C108.358,82.003,97.362,61.667,97.362,61.667z"></path></g>
  <g class="st-elem-detail g-elem__250" data-id="g-elem__250" data-el-name="" data-wrap=".defect-list-nav-motor"><path class="st--elem" d="M180.018,136.417c0,0-3.676-6.385-5.109-8.375
    c-1.816-2.521-5.846-7.275-8.016-9.5c-2.071-2.123-6.665-4.966-8.147-7.256c-11.888-18.375-17.878-23.738-20.728-26.244
    c0,0-1.967,2.964-2.766,3.716c-1.938,1.823-5.003,2.977-6.546,3.534c-1.754,0.632-4.929,1.15-6.625,0.375
    c-1.813-0.829-3.139-3.323-3.313-4.125c-0.192-0.89,0.421-2.798,1-3.5c1.36-1.65,5.566-3.298,7.625-3.875
    c3.375-0.946,8.539-0.946,8.539-0.946s0.83-3.007,1.461-3.929c0.463-0.677,2.125-2.5,2.125-2.5s7.874,7.045,10.517,9.373
    c2.007,1.769,6.009,5.32,8.068,7.027c1.658,1.374,5.024,4.068,6.767,5.334c1.517,1.102,4.61,3.229,6.233,4.167
    c1.161,0.67,4.811,2.37,4.811,2.37s-7.614,1.721-9.223,3.602c-0.416,0.487-0.725,1.885-0.551,2.502
    c0.674,2.382,2.662,3.746,6.003,7.875c3.34,4.129,5.625,6.5,5.625,6.5s-0.607,2.623-0.5,3.5c0.191,1.572,1.241,4.769,2.375,5.875
    c0.765,0.745,2.935,1.582,4,1.5c1.335-0.104,3.33-1.576,5.054-2.66c1.937-1.217,3.595-2.094,4.85-2.922
    c2.588-1.708,7.987-4.506,9.589-7.161c0.674-1.117,0.863-4.394,0.757-5.694c-0.25-3.063-2.284-5.279-2.284-5.279
    s0.615-4.928-0.757-10.659c-0.833-3.48-1.996-7.264-3.336-9.364c-0.232-0.364-1.03-0.91-1.461-0.922
    c-0.687-0.02-3.411,2.161-3.411,2.161s0.203-3.431-0.109-4.282c-0.393-1.071-1.191-3.217-1.739-4.218
    c-0.983-1.797-3.355-5.166-4.698-6.714c-3.635-4.191-12.06-11.474-16.202-15.164c-0.612-0.545-2.502-2.122-2.502-2.122
    s2.442,0.448,3.25,0.625c0.566,0.124,2.958,0.708,2.958,0.708s-0.166-1.958,0.822-3.613c0.941-1.576,3.721-3.885,5.136-5.054
    c1.224-1.011,3.517-2.501,4.958-3.167c0.612-0.283,1.429-0.83,2.083-0.667c1.052,0.263,3.209,2.001,3.792,2.917
    c0.473,0.742,1.322,1.634,1.167,2.5c-0.11,0.616-0.75,2.833-1.959,4.5c-1.155,1.592-3.159,3.51-4.833,4.542
    c-1.078,0.664-4.125,1.168-5.375,1.168c-0.853,0-3.032,0.252-3.032,0.252s10.6,10.855,14.032,14.664
    c2.333,2.589,7.004,7.81,8.875,10.75c1.486,2.335,4.002,7.335,4.75,10c0.815,2.904,1.244,8.984,1.25,12
    c0.006,2.827,0.181,8.743-1.125,11.25c-1.485,2.85-7.085,6.579-9.75,8.375c-1.866,1.257-5.926,3.251-8,4.125
    C184.845,134.945,180.018,136.417,180.018,136.417z"></path></g>
  <g class="st-elem-detail g-elem__251" data-id="g-elem__251" data-el-name="" data-wrap=".defect-list-nav-motor"><ellipse class="st--elem" cx="184.056" cy="125.25" rx="7.122" ry="8.542"></ellipse></g>
  <g class="st-elem-detail g-elem__252" data-id="g-elem__252" data-el-name="" data-wrap=".defect-list-nav-motor"><ellipse class="st--elem" cx="197.994" cy="116.191" rx="6.156" ry="8.023"></ellipse></g>
  <g class="st-elem-detail g-elem__253" data-id="g-elem__253" data-el-name="" data-wrap=".defect-list-nav-motor"><path class="st--elem" d="M193.094,121.048c0,0-0.25-3.881,3.899-6.943
    s6.476-1.581,6.476-1.581"></path></g>
  <g class="st-elem-detail g-elem__254" data-id="g-elem__254" data-el-name="" data-wrap=".defect-list-nav-motor"><path class="st--elem" d="M190.828,122.606c0,0-2.425-2.438-7.435-0.251
    c-5.01,2.188-5.813,5.812-5.813,5.812"></path></g>
  <g class="st-elem-detail g-elem__255" data-id="g-elem__255" data-el-name="" data-wrap=".defect-list-nav-motor"><path class="st--elem" d="M141.294,105.114l-11.693,7.528c0,0-1.166,0.443,0,2.505
    c1.167,2.062,1.917,1.562,1.917,1.562l13.109-8.446c0,0-0.167-1.584-1.333-2.5C142.127,104.846,141.294,105.114,141.294,105.114z"></path></g>
  <g class="st-elem-detail g-elem__256" data-id="g-elem__256" data-el-name="" data-wrap=".defect-list-nav-motor"><path class="st--elem" d="M138.018,112.666l3.872,14.587l1.711,0.539l1.828,1.985
    l16.734,6.64c0,0,0.294-4.881,0.234-6.509c-0.09-2.474-0.607-7.411-1.076-9.842c-0.388-2.013-1.386-6.02-2.203-7.901
    c-0.529-1.219-4.97-7.591-4.97-7.591l-3.553,2.181l-3.844,2.25c0,0-2.125,1.915-3.824,0.39l1.699-1.132L138.018,112.666z"></path></g>
  <g class="st-elem-detail g-elem__257" data-id="g-elem__257" data-el-name="" data-wrap=".defect-list-nav-motor"><path class="st--elem" d="M146.752,109.005l3.844-2.25l3.553-2.181l-0.642-1.112l-0.99-1.648
    l-4.25-5.624v3.143l-6.374,3.141c0,0,2.046-0.157,3.858,2C147.564,106.63,146.752,109.005,146.752,109.005z"></path></g>
  <g class="st-elem-detail g-elem__258" data-id="g-elem__258" data-el-name="" data-wrap=".defect-list-nav-motor"><path class="st--elem" d="M163.263,146.282c0,0,2.113,5.792,2.826,7.44
    c0.171,0.396,0.602,1.24,1.002,1.404c0.902,0.371,3.001-0.177,3.844-0.667c0.962-0.56,2.358-1.387,2.469-2.495
    c0.044-0.441-3.729-10.889-3.729-10.889s-2.781,1.668-3.585,2.363C165.299,144.121,163.263,146.282,163.263,146.282z"></path></g>
  <g class="st-elem-detail g-elem__259" data-id="g-elem__259" data-el-name="" data-wrap=".defect-list-nav-motor"><path class="st--elem" d="M177.58,169.793l-5.17-16.312c0,0-0.421,0.498-2.393,1.331
    c-1.699,0.718-2.927,0.313-2.927,0.313l5.245,16.541l2.341,7.416c0,0,1.542,0.693,3.379,0.139s2.166-1.73,2.166-1.73L177.58,169.793
    z"></path></g>
  <g class="st-elem-detail g-elem__260" data-id="g-elem__260" data-el-name="" data-wrap=".defect-list-nav-motor"><path class="st--elem st--none" stroke-miterlimit="10" d="M171.903,170.303c0,0,0.797,0.432,2.79-0.206s2.373-1.928,2.373-1.928
    "></path></g>
  <g class="st-elem-detail g-elem__261" data-id="g-elem__261" data-el-name="" data-wrap=".defect-list-nav-motor"><ellipse transform="matrix(0.9753 -0.2211 0.2211 0.9753 -35.2831 44.991)" class="st--elem" cx="183.342" cy="180.112" rx="3.801" ry="5.059"></ellipse></g>
  <g class="st-elem-detail g-elem__262" data-id="g-elem__262" data-el-name="" data-wrap=".defect-list-nav-motor"><path class="st--elem" d="M179.917,178.03c0,0,1.934-0.405,2.976,1.783
    c1.042,2.188-0.056,3.823-0.056,3.823l-4.738,1.867l-2.164-5.69L179.917,178.03z"></path></g>
  <g class="st-elem-detail g-elem__263" data-id="g-elem__263" data-el-name="" data-wrap=".defect-list-nav-motor"><ellipse transform="matrix(0.9732 -0.2298 0.2298 0.9732 -37.2509 45.514)" class="st--elem" cx="176.804" cy="182.706" rx="2.265" ry="3.141"></ellipse></g>
  <g class="st-elem-detail g-elem__264" data-id="g-elem__264" data-el-name="" data-wrap=".defect-list-nav-motor"><line class="st--elem st--none" stroke-miterlimit="10" x1="196.139" y1="173.301" x2="201.808" y2="169.346"></line></g>
  <g class="st-elem-detail g-elem__265" data-id="g-elem__265" data-el-name="" data-wrap=".defect-list-nav-motor"><line class="st--elem st--none" stroke-miterlimit="10" x1="198.833" y1="181.062" x2="206.943" y2="181.062"></line></g>
  <g class="st-elem-detail g-elem__266" data-id="g-elem__266" data-el-name="" data-wrap=".defect-list-nav-motor"><path class="st--elem st--none" stroke-miterlimit="10" d="M188.636,196.279c0,0,0.721,5.571,1.104,7.603
    c0.503,2.661,2.185,3.036,2.185,3.036"></path></g>
  <g class="st-elem-detail g-elem__267" data-id="g-elem__267" data-el-name="" data-wrap=".defect-list-nav-motor"><path class="st--elem st--none" stroke-miterlimit="10" d="M182.043,193.115c0,0-1.276,2.335-1.821,3.26
    c-0.753,1.276-2.287,0.793-2.287,0.793"></path></g>
  <g class="st-elem-detail g-elem__268" data-id="g-elem__268" data-el-name="" data-wrap=".defect-list-nav-motor"><path class="st--elem st--none" stroke-miterlimit="10" d="M170.456,174.382c0,0-2.848-0.941-3.836-0.952
    c-1.745-0.019-2.269,0.952-2.269,0.952"></path></g>
  <g class="st-elem-detail g-elem__269" data-id="g-elem__269" data-el-name="" data-wrap=".defect-list-nav-motor"><path class="st--elem st--none" stroke-miterlimit="10" d="M163.518,161.044c0,0,0.285,0.963,1.359,1.896
    c1.324,1.151,5.899,3.807,5.899,3.807"></path></g>
  <g class="st-elem-detail g-elem__270" data-id="g-elem__270" data-el-name="" data-wrap=".defect-list-nav-motor"><path class="st--elem st--none" stroke-miterlimit="10" d="M180.241,196.444c-2.807-2.88-5.481-6.319-7.839-10.209
    c-2.591-4.275-4.525-8.638-5.784-12.81"></path></g>
  <g class="st-elem-detail g-elem__271" data-id="g-elem__271" data-el-name="" data-wrap=".defect-list-nav-motor"><path class="st--elem st--none" stroke-miterlimit="10" d="M188.4,153.867c4.649,3.473,9.237,8.549,13.015,14.781
    c9.159,15.11,10.09,31.295,2.079,36.151c-3.705,2.247-8.673,1.677-13.85-1.08"></path></g>
  <g class="st-elem-detail g-elem__272" data-id="g-elem__272" data-el-name="" data-wrap=".defect-list-nav-motor"><path class="st--elem st--none" stroke-miterlimit="10" d="M164.876,162.981c-0.042-3.352,0.513-6.317,1.679-8.67"></path></g>
  <g class="st-elem-detail g-elem__273" data-id="g-elem__273" data-el-name="" data-wrap=".defect-list-nav-motor"><path class="st--elem" d="M194.382,76.041c-1.026,0.071-3.142,2.641-3.142,2.641l2.116,2.278
    c0,0,2.891-1.865,2.929-2.893C196.314,77.291,195.158,75.988,194.382,76.041z"></path></g>
  <g class="st-elem-detail g-elem__274" data-id="g-elem__274" data-el-name="" data-wrap=".defect-list-nav-motor"><ellipse transform="matrix(0.6437 -0.7653 0.7653 0.6437 -53.1226 166.6639)" class="st--elem" cx="152.42" cy="140.381" rx="4.089" ry="2.916"></ellipse></g>
  <g class="st-elem-detail g-elem__275" data-id="g-elem__275" data-el-name="" data-wrap=".defect-list-nav-motor"><line class="st--elem st--none" stroke-miterlimit="10" x1="149.434" y1="134.126" x2="155.052" y2="137.252"></line></g>
  <g class="st-elem-detail g-elem__276" data-id="g-elem__276" data-el-name="" data-wrap=".defect-list-nav-motor"><polygon class="st--elem" points="67.396,98.377 48.343,96.19 51.934,100.126 
    52.052,101.978 50.601,103.167 55.101,108.167 64.934,108.167 70.604,111.286 73.456,110.684 71.518,104.792 "></polygon></g>
  <g class="st-elem-detail g-elem__277" data-id="g-elem__277" data-el-name="" data-wrap=".defect-list-nav-motor"><path class="st--elem" d="M59.064,123.472c2.141-1.25,11.66-7.147,11.66-7.147l-0.121-1.178
    l3.965-1.077l-1.113-3.386l-4.854,2.196l-0.682-0.438c0,0-7.895,4.898-11.76,7.335c-0.519,0.327-0.882,0.599-0.7,1.185
    c0.229,0.738,0.412,1.288,0.902,1.887C56.814,123.402,58.534,123.783,59.064,123.472z"></path></g>
  <g class="st-elem-detail g-elem__278" data-id="g-elem__278" data-el-name="" data-wrap=".defect-list-nav-motor"><line class="st--elem st--none" stroke-miterlimit="10" x1="68.601" y1="112.88" x2="70.604" y2="115.147"></line></g>
  <g class="st-elem-detail g-elem__279" data-id="g-elem__279" data-el-name="" data-wrap=".defect-list-nav-motor"><path class="st--elem" d="M50.101,108.959l-12.333,1.201l-11.834-6.422l2.167-5.279
    l6.5-1.167l9.203,9.91c0.382,0.224,1.287,0.494,1.724,0.417c0.563-0.099,1.907-1.262,1.907-1.262L50.101,108.959z"></path></g>
  <g class="st-elem-detail g-elem__280" data-id="g-elem__280" data-el-name="" data-wrap=".defect-list-nav-motor"><path class="st--elem" d="M11.112,72.391l32.446,34.561l1.969,0.668l1.907-1.262l2.667,2.602
    l5.157,3.921l3.843,2.267l2.644,0.719l4.4-2.596l-3.856-0.948c0,0-2.753-0.538-3.632-1.036c-0.961-0.544-3.555-3.119-3.555-3.119
    l-4.5-5l1.451-1.189l-0.118-1.852L20.205,65.355c0,0-2.017-0.552-2.771-0.313c-1.653,0.524-4.797,2.499-5.666,4
    C11.34,69.78,11.112,72.391,11.112,72.391z"></path></g>
  <g class="st-elem-detail g-elem__281" data-id="g-elem__281" data-el-name="" data-wrap=".defect-list-nav-motor"><path class="st--elem" d="M51.953,100.421c0,0-1.498-0.712-4.998,2.121
    c-3.083,2.496-2.354,4.763-2.354,4.763"></path></g>
  <g class="st-elem-detail g-elem__282" data-id="g-elem__282" data-el-name="" data-wrap=".defect-list-nav-motor"><path class="st--elem" d="M50.601,103.167c0,0-1.404,0.356-1.833,0.571
    c-1.667,0.832-1.333,2.619-1.333,2.619"></path></g>
  <g class="st-elem-detail g-elem__283" data-id="g-elem__283" data-el-name="" data-wrap=".defect-list-nav-motor"><line class="st--elem st--none" stroke-miterlimit="10" x1="45.998" y1="84.156" x2="51.024" y2="78.114"></line></g>
  <g class="st-elem-detail g-elem__284" data-id="g-elem__284" data-el-name="" data-wrap=".defect-list-nav-motor"><path class="st--elem st--none" stroke-miterlimit="10" d="M23.322,68.77c2.612-3.215,11.732-3.431,15.201-1.6"></path></g>
  <g class="st-elem-detail g-elem__285" data-id="g-elem__285" data-el-name="" data-wrap=".defect-list-nav-motor"><path class="st--elem st--none" stroke-miterlimit="10" d="M69.813,114.252"></path></g>
  <g class="st-elem-detail g-elem__286" data-id="g-elem__286" data-el-name="" data-wrap=".defect-list-nav-motor"><path class="st--elem st--none" stroke-miterlimit="10" d="M58.174,120.962"></path></g>
  <g class="st-elem-detail g-elem__287" data-id="g-elem__287" data-el-name="" data-wrap=".defect-list-nav-motor"><path class="st--elem" d="M59.064,120.962c0.543,0.983,0.685,2.087,0,2.51
    c-0.685,0.422-2.621-0.172-3.211-1.129c-0.59-0.955-0.513-2.074,0.172-2.496C56.711,119.424,58.174,119.349,59.064,120.962z"></path></g>
</svg>