<svg version="1.1" id="side_1" xmlns="http://www.w3.org/2000/svg" xmlns:xlink="http://www.w3.org/1999/xlink" x="0px" y="0px" viewBox="0 0 86 196.7" style="enable-background:new 0 0 86 196.7;" xml:space="preserve">
  <g class="st-elem-detail g-elem__163" data-id="g-elem__163" data-el-name="Back Door" data-wrap=".defect-list-nav-car"><path class="st--elem" d="M7.4,92.5c0,0,0-5.2,0-7c0-3.7,0-11,0-14.7c0-3.2,0-13,0-13s1.2-3.3,1.9-4.3c0.5-0.7,1.9-1.7,2.6-2.3
    c0.2-0.2,0.7-0.5,0.9-0.7c0.2-0.1,0.5-0.3,0.7-0.3c0.2,0,0.5,0.5,0.6,0.7c0.7,1,1.6,3.4,2,4.5c0.5,1.3,1.4,3.9,1.8,5.3
    c0.3,0.9,0.7,2.7,0.9,3.6c0.2,0.9,0.4,2.7,0.5,3.6c0.1,0.9,0.2,2.6,0.2,3.5c0,1.4,0,4.3,0,5.7c0,2.3,0.1,6.8,0,9.1
    c0,0.4-0.2,1.6-0.2,1.6s-5.3,1.5-7,2.2c-0.7,0.3-2,0.9-2.7,1.2C9.1,91.5,7.4,92.5,7.4,92.5z"></path></g>
  <g class="st-elem-detail g-elem__164" data-id="g-elem__164" data-el-name="Front Door" data-wrap=".defect-list-nav-car"><path class="st--elem" d="M19.4,87.8c0,0-6.4,1.9-8.4,2.8c-0.9,0.4-3.5,2-3.5,2l0.2,23l0,21.9c0,0,1.4-0.5,1.8-0.8c0.4-0.3,0.9-1,1.1-1.4
    c0.4-0.6,1-1.8,1.2-2.4c0.8-2.1,1.6-6.5,2.1-8.6c0.8-3.2,2.3-9.5,2.9-12.7c0.5-2.6,1.5-7.8,1.8-10.4c0.2-1.8,0.6-5.5,0.7-7.3
    C19.4,92.3,19.4,87.8,19.4,87.8z"></path></g>
  <g class="st-elem-detail g-elem__165" data-id="g-elem__165" data-el-name="Window" data-wrap=".defect-list-nav-car"><path class="st--elem" d="M19.5,86.3l-7.7,1.2c0,0,0.2-10.4,0.3-13.9c0.1-3.4,0.4-10.2,0.5-13.6c0.1-2.3,0.3-9.3,0.3-9.3s0.5-0.3,0.7-0.3
    c0.3,0.1,0.7,0.8,0.8,1.1c0.6,1,1.4,3,1.8,4.1c0.6,1.6,1.8,5,2.2,6.7c0.3,1,0.7,3,0.8,4c0.1,1,0.3,2.9,0.3,3.9c0.1,2.1,0,6.3,0,8.4
    C19.5,80.5,19.5,86.3,19.5,86.3z"></path></g>
  <g class="st-elem-detail g-elem__166" data-id="g-elem__166" data-el-name="Window" data-wrap=".defect-list-nav-car"><path class="st--elem" d="M19.4,89.7c0,0-3.1,1.2-4,1.7c-0.9,0.5-3.6,2.1-3.6,2.1s0,9.4,0,12.5c0,5.1,0,20.3,0,20.3l2-1.8
    c0,0,1.5-6.5,2-8.6c0.5-2.1,1.4-6.3,1.8-8.5c0.3-1.7,0.9-5.2,1.1-6.9c0.2-1.6,0.5-5.2,0.6-6.8C19.4,92.7,19.4,89.7,19.4,89.7z"></path></g>
  <g class="st-elem-detail g-elem__167" data-id="g-elem__167" data-el-name="" data-wrap="defect-list-nav-car"><line class="st--elem" x1="11.8" y1="93.6" x2="11.8" y2="90.3"></line></g>
  <g class="st-elem-detail g-elem__168" data-id="g-elem__168" data-el-name="" data-wrap="defect-list-nav-car"><line class="st--elem" x1="11.8" y1="87.5" x2="11.8" y2="90.3"></line></g>
  <g class="st-elem-detail g-elem__169" data-id="g-elem__169" data-el-name="" data-wrap="defect-list-nav-car"><polygon class="st--elem" points="18.1,61.3 17.8,60.5 12.6,61.4 12.6,62.1 "></polygon></g>
  <g class="st-elem-detail g-elem__170" data-id="g-elem__170" data-el-name="Back Door" data-wrap=".defect-list-nav-car"><path class="st--elem" d="M78.7,92.5c0,0,0-5.2,0-7c0-3.7,0-11,0-14.7c0-3.2,0-13,0-13s-1.2-3.3-1.9-4.3c-0.5-0.7-1.9-1.7-2.6-2.3
    c-0.2-0.2-0.7-0.5-0.9-0.7c-0.2-0.1-0.5-0.3-0.7-0.3c-0.2,0-0.5,0.5-0.6,0.7c-0.7,1-1.6,3.4-2,4.5c-0.5,1.3-1.4,3.9-1.8,5.3
    c-0.3,0.9-0.7,2.7-0.9,3.6c-0.2,0.9-0.4,2.7-0.5,3.6c-0.1,0.9-0.2,2.6-0.2,3.5c0,1.4,0,4.3,0,5.7c0,2.3-0.1,6.8,0,9.1
    c0,0.4,0.2,1.6,0.2,1.6s5.3,1.5,7,2.2c0.7,0.3,2,0.9,2.7,1.2C77,91.5,78.7,92.5,78.7,92.5z"></path></g>
  <g class="st-elem-detail g-elem__171" data-id="g-elem__171" data-el-name="Front Door" data-wrap=".defect-list-nav-car"><path class="st--elem" d="M66.7,87.8c0,0,6.4,1.9,8.4,2.8c0.9,0.4,3.5,2,3.5,2l-0.2,23l0,21.9c0,0-1.4-0.5-1.8-0.8
    c-0.4-0.3-0.9-1-1.1-1.4c-0.4-0.6-1-1.8-1.2-2.4c-0.8-2.1-1.6-6.5-2.1-8.6c-0.8-3.2-2.3-9.5-2.9-12.7c-0.5-2.6-1.5-7.8-1.8-10.4
    c-0.2-1.8-0.6-5.5-0.7-7.3C66.7,92.3,66.7,87.8,66.7,87.8z"></path></g>
  <g class="st-elem-detail g-elem__172" data-id="g-elem__172" data-el-name="" data-wrap=".defect-list-nav-car"><path class="st--elem" d="M75,17c-0.1-0.1-0.6-0.7-0.7-0.9c-0.2-0.3-0.6-0.9-0.9-1.2c-0.5-0.6-1.4-2-2-2.5c-0.6-0.6-1.8-1.7-2.5-2.1
    c-0.7-0.4-2.2-0.9-2.9-1.2c-0.9-0.3-2.8-0.9-3.8-1c-0.7-0.1-2.7-0.2-2.7-0.2l-0.7,6.9H27.2L26.3,8c0,0-5.8,0.8-6.9,1.2
    c-0.8,0.3-2.4,1.2-3.1,1.7c-0.6,0.4-1.8,1.5-2.3,2.1c-0.6,0.7-1.3,2.4-1.9,3c-0.2,0.2-1,0.7-1,0.7s0.3-1.5,0.4-2
    c0.2-0.6,0.4-1.9,0.7-2.5c0.3-0.7,1.2-1.9,1.7-2.5c0.5-0.6,1.8-1.6,2.5-2C17.4,7,19.8,6.1,21,5.8c1.5-0.5,4.5-1.1,6-1.4
    c1.7-0.3,5-0.9,6.7-1.1c1.7-0.2,5-0.4,6.7-0.4c1.5,0,4.5-0.1,6.1,0c2,0.1,5.9,0.5,7.8,0.8c1.9,0.3,5.5,0.9,7.4,1.3
    c1.6,0.4,4.8,1.2,6.3,1.9c0.8,0.3,2.4,1.1,3,1.7c0.7,0.5,1.8,1.8,2.2,2.5c0.4,0.7,0.9,2.3,1.2,3.1C74.6,14.8,75,16.8,75,17
    C75.1,17.1,75,17,75,17z"></path></g>
  <g class="st-elem-detail g-elem__173" data-id="g-elem__173" data-el-name="" data-wrap="defect-list-nav-car"><polygon class="st--elem" points="78.3,166.9 78,169 77.1,171.6 76.3,174.1 75.4,177.5 74.5,180.7 73.1,183.1 71.4,184.7 66.8,187.3 
    53.7,191.9 50.8,192.9 45.3,193.4 40.6,193.4 35.6,192.9 32.1,192.1 27.2,190.4 19.9,187.6 15.8,185.6 13.3,183.6 11.6,181.2 
    10.4,177.7 9.1,173 7.7,166.9 77.5,166.7 "></polygon></g>
  <g class="st-elem-detail g-elem__174" data-id="g-elem__174" data-el-name="Windshield" data-wrap=".defect-list-nav-car"><path class="st--elem" d="M14.2,142.4c0,0-0.3-2.1-0.3-2.9c-0.1-1,0-4,0-4s1.3-5.6,1.8-7.5c0.7-2.9,2.2-8.6,2.9-11.5
    c0.5-1.7,1.9-6.9,1.9-6.9s1.5,0.5,2,0.6c1.7,0.5,5.1,1.4,6.9,1.8c1.4,0.3,4.1,0.8,5.5,1c1.6,0.2,4.7,0.4,6.3,0.4
    c1.5,0,4.5,0,6.1-0.1c1.5-0.1,4.4-0.5,5.8-0.7c1.5-0.2,4.6-0.7,6.1-1.1c1.7-0.4,6.5-1.9,6.5-1.9s3,11.3,4,15.1
    c0.7,2.7,2.6,10.8,2.6,10.8s0,3.5-0.1,4.7c0,0.6-0.3,2.2-0.3,2.2s-2,1.6-2.7,2c-1.3,0.8-4.1,2-5.5,2.6c-1.4,0.5-4.3,1.4-5.8,1.8
    c-1.2,0.3-3.8,0.7-5.1,0.8c-1.4,0.2-4.1,0.5-5.4,0.6c-1.4,0.1-4.3,0.2-5.7,0.2c-1.5,0-4.5-0.2-6-0.3c-1.5-0.2-4.4-0.6-5.8-1
    c-1.6-0.4-4.8-1.2-6.4-1.8c-1-0.4-3.1-1.2-4.1-1.7c-0.7-0.3-1.9-1-2.5-1.4C16.1,143.8,14.2,142.4,14.2,142.4z"></path></g>
  <g class="st-elem-detail g-elem__175" data-id="g-elem__175" data-el-name="Roof" data-wrap=".defect-list-nav-car"><path class="st--elem" d="M20.3,109.5c0,0,1.1-4.9,1.3-6.5c0.6-4.9,1-14.9,1.3-19.9c0.4-7.2,1-28.6,1-28.6s5.3-1.2,7.1-1.5
    c2.1-0.3,6.4-0.8,8.5-0.9c2.3-0.1,7-0.2,9.4,0c1.8,0.1,5.4,0.7,7.2,1c1.6,0.3,6.2,1.4,6.2,1.4s0.6,22,0.9,27.5
    c0.2,4.5,1.1,19.7,1.4,22.1c0.2,1.5,1.1,5.5,1.1,5.5s-4.9,1.6-6.5,1.9c-2.9,0.6-8.6,1.5-11.6,1.7c-2.5,0.2-7.6,0.2-10.2,0
    c-2-0.2-6.1-0.9-8.1-1.3C27,111.4,20.3,109.5,20.3,109.5z"></path></g>
  <g class="st-elem-detail g-elem__176" data-id="g-elem__176" data-el-name="Sliding Sunroof" data-wrap=".defect-list-nav-car"><path class="st--elem" d="M58.4,88.2c2.5,0,2.8,2.2,2.8,2.8v11.4c0,0.6-0.3,2.8-2.8,2.8c-2.5,0-29,0-31.1,0c-2.1,0-2.8-2.2-2.8-2.8V91.1
    c0-0.6,1.1-2.8,2.8-2.8C29,88.2,55.9,88.2,58.4,88.2z"></path></g>
  <g class="st-elem-detail g-elem__177" data-id="g-elem__177" data-el-name="Windshield" data-wrap=".defect-list-nav-car"><path class="st--elem" d="M17.6,33.6c0.2-0.6,1.1-1.5,1.7-1.9c1.2-0.9,3.9-2.1,5.2-2.6c1.6-0.6,4.8-1.4,6.4-1.7c1.6-0.3,4.9-0.6,6.5-0.7
    c2.2-0.2,6.5-0.4,8.6-0.4c1.6,0,4.8,0.3,6.3,0.6c2.2,0.4,6.7,1.3,8.8,2c1.2,0.4,3.4,1.5,4.4,2.2c0.7,0.5,2.3,1.6,2.7,2.5
    c0.2,0.5,0,1.3,0.1,2.2c0,7.1-3.9,16.1-4.7,17.9c-0.1,0.2-0.5,0.6-0.7,0.7c-0.2,0.1-0.5,0-0.6,0c-1.1-0.1-3.4-0.8-4.5-1
    c-2.2-0.4-6.6-1.2-8.9-1.4c-2-0.2-6-0.2-8-0.1c-1.6,0.1-4.8,0.4-6.4,0.6c-1.4,0.2-4.3,0.6-5.7,0.9c-1.2,0.3-3.6,1.2-4.9,1.4
    c-0.2,0-0.6,0.1-0.8,0c-0.1,0-0.3-0.2-0.5-0.4c-0.6-0.6-2.8-6.8-4-11.5c-1-4-0.9-6.6-1-7.2C17.6,35.3,17.4,34.2,17.6,33.6z"></path></g>
  <g class="st-elem-detail g-elem__178" data-id="g-elem__178" data-el-name="Bonned" data-wrap=".defect-list-nav-car"><path class="st--elem" d="M71.8,142.4l-1.6,6c0,0-6.3,23.4-8.8,31.1c-0.3,1-0.9,2.9-1.4,3.8c-0.7,1.1-2.6,3.1-3.7,3.7
    c-1.2,0.7-3.8,1.1-5.1,1.4c-1.8,0.4-4.9,1-6.8,1.2c-0.8,0.1-2.3,0.1-3.1,0c-1.4-0.1-4.8-0.8-6.2-1.1c-1.4-0.3-4.1-1-5.3-1.7
    c-0.8-0.4-2-1.5-2.7-2.1c-0.4-0.4-1.1-1.3-1.4-1.8c-0.6-1-1.2-3.1-1.5-4.2c-2.3-7.7-8.8-30.8-8.8-30.8l-1.2-5.7c0,0,0,0,0,0
    c0.4,0.3,2.4,2,3.3,2.6c1.6,0.9,5,2.3,6.7,2.8c1.4,0.5,4.1,1.2,5.5,1.5c1.4,0.3,4.4,0.8,5.8,1c1.4,0.2,4.3,0.3,5.7,0.3
    c1.2,0,3.5,0,4.6,0c1.4-0.1,4.1-0.4,5.5-0.6c1.4-0.2,4.2-0.5,5.6-0.8c1.1-0.2,3.4-0.8,4.5-1.2c1-0.3,3-1.1,3.9-1.5
    c0.9-0.4,2.8-1.3,3.7-1.8C69.7,144,71.3,142.7,71.8,142.4C71.8,142.3,71.8,142.4,71.8,142.4z"></path></g>
  <g class="st-elem-detail g-elem__179" data-id="g-elem__179" data-el-name="Front Wing" data-wrap=".defect-list-nav-car"><path class="st--elem" d="M72.2,135.4c0,0,0.8-0.6,1.1-0.8c0.3-0.4,1.1-1.8,1.1-1.8s0.7,1.7,1,2.2c0.3,0.5,1,1.4,1.4,1.7
    c0.3,0.3,1.6,0.7,1.6,0.7s0.3,8.4,0.3,11.2c0,4.6-0.4,18.3-0.4,18.3l-3.6,7.4l0-4.5c0,0-0.2-0.4-0.3-0.4c-0.2,0-0.5,0.4-0.5,0.4
    s-0.8,2.3-1.1,3.1c-0.5,1-1.7,3-2.5,3.9c-0.8,0.9-2.7,2.5-3.7,3.2c-0.9,0.6-2.8,1.8-3.8,2.2c-0.7,0.3-2.8,1.1-2.8,1.1
    s0.6-1.3,0.7-1.7c0.3-0.8,0.8-2.4,1.1-3.3c0.2-0.8,0.7-2.3,1-3.1c0.3-1,0.9-3,1.2-4c0.3-1.2,1-3.5,1.3-4.7c0.4-1.6,1.3-4.8,1.8-6.4
    c0.5-1.9,1.6-5.7,2.1-7.6c0.6-2.3,2.5-9.1,2.5-9.1l0.3-1.1c0,0,0.2-1.7,0.3-2.2C72.1,138.9,72.2,135.4,72.2,135.4z"></path></g>
  <g class="st-elem-detail g-elem__180" data-id="g-elem__180" data-el-name="Front Wing" data-wrap=".defect-list-nav-car"><path class="st--elem" d="M13.9,135.4c0,0-0.9-0.6-1.1-0.8c-0.3-0.4-1.1-1.8-1.1-1.8s-0.7,1.7-1,2.2c-0.3,0.5-1,1.4-1.4,1.7
    c-0.3,0.3-1.6,0.7-1.6,0.7s-0.3,8.4-0.3,11.2c0,4.6,0.4,18.3,0.4,18.3l3.6,7.4c0,0-0.1-1.3-0.1-1.6c0-0.8,0.1-2.8,0.1-2.8
    s0.2-0.4,0.3-0.4c0.2,0,0.5,0.4,0.5,0.4s0.8,2.3,1.1,3.1c0.5,1,1.7,3,2.5,3.9c0.8,0.9,2.7,2.5,3.7,3.2c0.9,0.6,2.8,1.8,3.8,2.2
    c0.7,0.3,2.8,1.1,2.8,1.1s-0.6-1.3-0.7-1.7c-0.3-0.8-0.8-2.4-1.1-3.3c-0.2-0.8-0.7-2.3-1-3.1c-0.3-1-0.9-3-1.2-4
    c-0.3-1.2-1-3.5-1.3-4.7c-0.4-1.6-1.3-4.8-1.8-6.4c-0.5-1.9-1.6-5.7-2.1-7.6c-0.6-2.3-2.5-9.1-2.5-9.1l-0.3-1.1c0,0-0.2-1.7-0.3-2.2
    C13.9,138.9,13.9,135.4,13.9,135.4z"></path></g>
  <g class="st-elem-detail g-elem__181" data-id="g-elem__181" data-el-name="" data-wrap=".defect-list-nav-car"><path class="st--elem" d="M72.2,135.4c0,0-1.7-7.1-2.2-9.4c-0.5-2.1-1.6-6.3-2.1-8.4c-0.5-2-2.2-8.1-2.2-8.1s-0.7-3.4-0.9-4.5
    c-0.2-1.2-0.5-3.7-0.6-5c-0.1-1.3-0.3-4-0.3-5.3c-0.1-1.7-0.3-5.1-0.4-6.8c-0.1-1.6-0.3-4.9-0.3-6.5c-0.1-1.9-0.2-5.8-0.3-7.7
    c-0.1-2.8-0.3-8.4-0.3-11.3c-0.1-2-0.2-7.8-0.2-7.8l0.6-0.2c0,0,0.5-0.4,0.6-0.6c0.3-0.5,0.8-1.5,1-2.1c0.5-1.1,1.3-3.4,1.7-4.5
    c0.4-1.2,1.1-3.7,1.4-4.9c0.2-0.9,0.6-2.8,0.7-3.8c0.1-1,0.1-3.1,0.1-4.2c0-1.3,0.1-3.8,0-5.1c-0.1-3.5-1-10.5-1.1-14
    c0-0.6,0-2.3,0-2.3s1,0.8,1.2,1.1c0.4,0.5,1,1.6,1.2,2.2c0.7,2,1.3,6.3,1.7,8.4c0.5,2.6,1.2,7.9,1.5,10.6c0.5,4,1.3,16.1,1.3,16.1
    s-1.1-1-1.6-1c-0.5,0.1-1.7,2.8-1.9,3.3c-0.8,1.9-1.4,3.7-2,5.5c-0.4,1.1-1.1,3.4-1.4,4.6c-0.3,1.4-0.6,4.2-0.7,5.6
    c-0.4,7.1,0,21.4,0.5,28.4c0.1,1.4,0.5,4.2,0.7,5.6c0.3,1.7,0.9,5.1,1.2,6.8c0.7,3.4,2.3,10.1,3.1,13.5c0.5,2.3,2.2,9.2,2.2,9.2
    s-0.6,1.2-0.9,1.5C73.1,134.7,72.2,135.4,72.2,135.4z"></path></g>
  <g class="st-elem-detail g-elem__182" data-id="g-elem__182" data-el-name="" data-wrap=".defect-list-nav-car"><path class="st--elem" d="M13.9,135.4c0,0,1.7-7.1,2.2-9.4c0.5-2.1,1.6-6.3,2.1-8.4c0.5-2,2.2-8.1,2.2-8.1s0.7-3.4,0.9-4.5
    c0.2-1.2,0.5-3.7,0.6-5c0.1-1.3,0.3-4,0.3-5.3c0.1-1.7,0.3-5.1,0.4-6.8c0.1-1.6,0.3-4.9,0.3-6.5c0.1-1.9,0.2-5.8,0.3-7.7
    c0.1-2.8,0.3-8.4,0.3-11.3c0.1-2,0.2-7.8,0.2-7.8l-0.6-0.2c0,0-0.5-0.4-0.6-0.6c-0.3-0.5-0.8-1.5-1-2.1c-0.5-1.1-1.3-3.4-1.7-4.5
    c-0.4-1.2-1.1-3.7-1.4-4.9c-0.2-0.9-0.6-2.8-0.7-3.8c-0.1-1-0.1-3.1-0.1-4.2c0-1.3-0.1-3.8,0-5.1c0.1-3.5,1-10.5,1.1-14
    c0-0.6,0-2.3,0-2.3s-0.9,0.8-1.2,1.1c-0.4,0.5-1,1.6-1.2,2.2c-0.7,2-1.3,6.3-1.7,8.4c-0.5,2.6-1.2,7.9-1.5,10.6
    c-0.5,4-1.3,16.1-1.3,16.1s1.1-1,1.6-1c0.5,0.1,1.7,2.8,1.9,3.3c0.8,1.9,1.4,3.7,2,5.5c0.4,1.1,1.1,3.4,1.4,4.6
    c0.3,1.4,0.6,4.2,0.7,5.6c0.4,7.1,0,21.4-0.5,28.4c-0.1,1.4-0.5,4.2-0.7,5.6c-0.3,1.7-0.9,5.1-1.2,6.8c-0.7,3.4-2.3,10.1-3.1,13.5
    c-0.5,2.3-2.2,9.2-2.2,9.2s0.6,1.2,0.9,1.5C12.9,134.7,13.9,135.4,13.9,135.4z"></path></g>
  <g class="st-elem-detail g-elem__183" data-id="g-elem__183" data-el-name="Trunk" data-wrap=".defect-list-nav-car"><path class="st--elem" d="M17.8,33.4c0,0,0.9-1.2,1.3-1.5c0.7-0.6,2.3-1.4,3.1-1.8c0.7-0.4,2.3-1,3.1-1.2c1.4-0.5,4.3-1.2,5.8-1.4
      c1-0.2,3-0.4,4-0.5c0.9-0.1,2.7-0.2,3.6-0.3c1.1-0.1,3.3-0.3,4.4-0.3c0.8,0,2.3,0,3.1,0c0.8,0,2.5,0.1,3.4,0.2
      c1,0.1,3.1,0.4,4.1,0.5c1.1,0.2,3.3,0.7,4.4,0.9c0.8,0.2,2.5,0.6,3.3,0.9c0.9,0.4,2.8,1.2,3.6,1.7c0.5,0.3,2,1.5,2,1.5l1.4,1.5
      c0,0,0.1-1.4,0.1-1.9c0-0.9,0-2.6-0.1-3.4c-0.1-1.1-0.3-3.2-0.3-4.2c-0.1-1.6-0.5-4.7-0.6-6.3c-0.1-0.7-0.2-2.2-0.2-2.9
      c0-0.5,0-1.9,0-1.9s-2.4-2-3.3-2.6c-1.1-0.7-4.4-2.5-4.4-2.5s-4.1-2.2-16.3-2.2S26.1,8,26.1,8S23,9.6,22,10.3
      c-0.9,0.6-3.1,2.7-3.1,2.7s0,2.1,0,2.8c-0.1,1.3-0.3,4-0.4,5.4c-0.1,1-0.3,3-0.4,4c-0.1,1.4-0.2,4.1-0.3,5.4
      C17.7,31.3,17.8,33.4,17.8,33.4z"></path></g>
  <g class="st-elem-detail g-elem__184" data-id="g-elem__184" data-el-name="" data-wrap=".defect-list-nav-car"><path class="st--elem" d="M18.8,15.7c0,0,3.2-2.3,4.4-2.8c3.2-1.3,10.2-2.6,13.7-3c3.3-0.4,10.1-0.4,13.4,0c3.3,0.4,9.8,1.8,12.8,3.2
      c1.2,0.6,4.2,3.2,4.2,3.2"></path></g>
  <g class="st-elem-detail g-elem__185" data-id="g-elem__185" data-el-name="Headlight" data-wrap=".defect-list-nav-car"><path class="st--elem" d="M11.4,174.7c0.1,0.9,0.5,1.9,0.7,2.7c0.3,0.9,1,2.3,1.5,3.1c0.6,0.8,2,2.3,2.8,2.9c1,0.7,2.9,1.7,3.9,2.2
    c1.2,0.6,3.6,1.6,4.8,2.1c0.6,0.3,3,1.1,3,1.1s-0.8-1.9-1-2.5c-0.3-0.8-1-2.9-1-2.9l-3.6-1.5c0,0-2.3-1.3-3-1.9
    c-0.7-0.5-2.2-1.6-2.8-2.3c-0.7-0.7-2-2.3-2.5-3.2c-0.4-0.6-1-1.8-1.3-2.5c-0.2-0.5-0.8-2.2-0.8-2.2l-0.5-0.4c0,0-0.2-0.2-0.3,0.4
    c-0.1,0.6,0,1.9-0.1,2.5C11.2,172.9,11.2,173.3,11.4,174.7z"></path></g>
  <g class="st-elem-detail g-elem__186" data-id="g-elem__186" data-el-name="Headlight" data-wrap=".defect-list-nav-car"><path class="st--elem" d="M74.7,174.7c-0.1,0.9-0.5,1.9-0.7,2.7c-0.3,0.9-1,2.3-1.5,3.1c-0.6,0.8-2,2.3-2.8,2.9c-1,0.7-2.9,1.7-3.9,2.2
    c-1.2,0.6-3.6,1.6-4.8,2.1c-0.6,0.3-3,1.1-3,1.1s0.8-1.9,1-2.5c0.3-0.8,1-2.9,1-2.9l3.6-1.5c0,0,2.3-1.3,3-1.9
    c0.7-0.5,2.2-1.6,2.8-2.3c0.7-0.7,2-2.3,2.5-3.2c0.4-0.6,1-1.8,1.3-2.5c0.2-0.5,0.8-2.2,0.8-2.2l0.5-0.4c0,0,0.2-0.2,0.3,0.4
    c0.1,0.6,0,1.9,0.1,2.5C74.9,172.9,74.9,173.3,74.7,174.7z"></path></g>
  <g class="st-elem-detail g-elem__187" data-id="g-elem__187" data-el-name="Grille" data-wrap=".defect-list-nav-car"><path class="st--elem" d="M29,186.3c0,0,1.8,3.1,2.7,3.9c0.5,0.4,1.8,1,2.4,1.2c0.8,0.3,2.4,0.8,3.2,1c1.3,0.3,4.1,1,5.4,1
    c1.2,0,3.6-0.5,4.8-0.7c0.9-0.2,2.8-0.5,3.7-0.9c0.9-0.4,2.6-1.3,3.2-2c0.6-0.6,1.8-2.9,1.8-2.9s-1.6,0.6-2.1,0.7
    c-1.7,0.5-5.3,1.2-7.1,1.4c-1,0.2-3,0.4-4,0.4c-1.2,0-3.5-0.3-4.6-0.5c-1-0.2-3.1-0.6-4.1-0.8c-0.7-0.2-2.2-0.5-2.9-0.8
    C30.8,187.2,29,186.3,29,186.3z"></path></g>
  <g class="st-elem-detail g-elem__188" data-id="g-elem__188" data-el-name="" data-wrap=".defect-list-nav-car"><path class="st--elem" d="M73.9,22.9c0,0-1.4-3.4-1.9-4.5c-0.4-0.8-1.1-2.5-1.7-3.2c-0.4-0.5-0.8-0.7-1.4-1.1c-0.5-0.3-1.7-1.1-1.7-1.1
    s-1.6-1.4-2.4-2c-0.3-0.2-1.8-1.2-2.9-1.8c-1.4-0.8-2.4-1.3-2.4-1.3s2.1,0,3.9,0.5c1,0.3,2,0.6,3,0.9c0.6,0.2,1.9,0.7,2.4,1
    c0.8,0.5,2.2,1.7,2.8,2.4c0.6,0.7,2,2.4,2.3,3.3C74.5,17.6,73.9,22.9,73.9,22.9L73.9,22.9z"></path></g>
  <g class="st-elem-detail g-elem__189" data-id="g-elem__189" data-el-name="" data-wrap=".defect-list-nav-car"><path class="st--elem" d="M12.3,22.9c0,0,1.2-3.4,1.7-4.5c0.4-0.8,1.1-2.5,1.7-3.2c0.4-0.5,0.8-0.7,1.4-1.1c0.5-0.3,1.7-1.1,1.7-1.1
    s1.6-1.4,2.4-2c0.3-0.2,1.8-1.2,2.9-1.8c1.4-0.8,2.4-1.3,2.4-1.3s-2.1,0-3.9,0.5c-1,0.3-2,0.6-3,0.9c-0.6,0.2-1.9,0.7-2.4,1
    c-0.8,0.5-2.2,1.7-2.8,2.4c-0.6,0.7-2,2.4-2.3,3.3c-0.6,1.7,0,7,0,7H12.3z"></path></g>
  <g class="st-elem-detail g-elem__190" data-id="g-elem__190" data-el-name="" data-wrap=".defect-list-nav-car"><path class="st--elem" d="M78.6,57.9c0,0-0.6-1.7-0.9-2.3c-0.2-0.5-0.7-1.6-1-2c-0.5-0.5-2.6-2.3-2.6-2.3l0,0c0,0-0.4-5.7-0.6-7.6
    c-0.2-2.1-0.5-6.4-0.8-8.5c-0.2-2.1-0.9-6.4-1.2-8.5c-0.2-1.5-0.7-4.4-1-5.9c-0.1-0.8-0.4-2.4-0.6-3.1c-0.2-0.6-0.6-1.8-0.9-2.4
    c-0.2-0.4-0.8-1.7-0.8-1.7s1.5,1,1.9,1.5c0.1,0.2,0.4,0.5,0.5,0.7c0.4,0.8,1.1,2.4,1.5,3.1c0.4,1,1.7,3.9,1.7,3.9s0.1-1.1,0.1-1.5
    c0.1-0.9,0.2-2.6,0.1-3.4c0-0.5-0.3-2-0.3-2L75,17c0,0,0.8,4,1,5.3c0.3,1.7,0.9,5.1,1.2,6.7c0.3,1.7,0.5,2.2,1,6.7
    c0.2,2.3,0.4,6.8,0.5,9.1c0,2.4,0,7.2,0,9.5C78.6,55.3,78.6,57.9,78.6,57.9z"></path></g>
  <g class="st-elem-detail g-elem__191" data-id="g-elem__191" data-el-name="Fuel door" data-wrap=".defect-list-nav-car"><path class="st--elem" d="M75.1,31.7c-0.6,0-1.1,0.5-1.1,1.1l0.5,5.5c0,0.6,0.5,1.1,1.1,1.1l0,0c0.6,0,1.1-0.5,1.1-1.1l-0.5-5.5
    C76.2,32.2,75.7,31.7,75.1,31.7L75.1,31.7z"></path></g>
  <g class="st-elem-detail g-elem__192" data-id="g-elem__192" data-el-name="" data-wrap=".defect-list-nav-car"><path class="st--elem" d="M7.5,57.9c0,0,0.6-1.7,0.9-2.3c0.2-0.5,0.7-1.6,1-2c0.5-0.5,2.6-2.3,2.6-2.3l0,0c0,0,0.4-5.7,0.6-7.6
    c0.2-2.1,0.5-6.4,0.8-8.5c0.2-2.1,0.9-6.4,1.2-8.5c0.2-1.5,0.7-4.4,1-5.9c0.1-0.8,0.4-2.4,0.6-3.1c0.2-0.6,0.6-1.8,0.9-2.4
    c0.2-0.4,0.8-1.7,0.8-1.7s-1.5,1-1.9,1.5c-0.1,0.2-0.4,0.5-0.5,0.7c-0.4,0.8-1.1,2.4-1.5,3.1c-0.4,1-1.7,3.9-1.7,3.9
    s-0.1-1.1-0.1-1.5c-0.1-0.9-0.2-2.6-0.1-3.4c0-0.5,0.3-2,0.3-2L11.1,17c0,0-0.8,4-1,5.3c-0.3,1.7-0.9,5.1-1.2,6.7
    c-0.3,1.7-0.5,2.2-1,6.7c-0.2,2.3-0.4,6.8-0.5,9.1c0,2.4,0,7.2,0,9.5C7.5,55.3,7.5,57.9,7.5,57.9z"></path></g>
  <g class="st-elem-detail g-elem__193" data-id="g-elem__193" data-el-name="Side Mirror" data-wrap=".defect-list-nav-car"><path class="st--elem" d="M72.3,124.6l2,1.8l1.6-0.2l0.2-1.6l6.7-2.8c0,0,0.6-0.1,0.8,0c0.2,0.1,0.3,0.5,0.3,0.6c0.1,0.3,0.1,1,0,1.3
    c-0.1,0.5-0.4,1.4-0.7,1.8c-0.5,0.7-2,1.7-2.7,2.1c-1,0.6-4.3,2.2-4.3,2.2l-1-0.5l-1.3,1.7L72.3,124.6z"></path></g>
  <g class="st-elem-detail g-elem__194" data-id="g-elem__194" data-el-name="" data-wrap=".defect-list-nav-car"><path class="st--elem" d="M76,127.4c0,0.2,0,0.5,0,0.7c-0.1,0.3-0.7,1.2-0.7,1.2s-0.4-0.5-0.5-0.7c-0.1-0.2-0.3-0.7-0.4-1
    c0-0.3,0-1.1,0-1.1l1.6-0.2C75.9,126.3,75.9,127.1,76,127.4z"></path></g>
  <g class="st-elem-detail g-elem__195" data-id="g-elem__195" data-el-name="Side Mirror" data-wrap=".defect-list-nav-car"><path class="st--elem" d="M13.5,124.6l-2,1.8l-1.6-0.2l-0.2-1.6l-6.7-2.8c0,0-0.6-0.1-0.8,0C2.1,122,2,122.3,2,122.5
    c-0.1,0.3-0.1,1,0,1.3c0.1,0.5,0.4,1.4,0.7,1.8c0.5,0.7,2,1.7,2.7,2.1c1,0.6,4.3,2.2,4.3,2.2l1-0.5l1.3,1.7L13.5,124.6z"></path></g>
  <g class="st-elem-detail g-elem__196" data-id="g-elem__196" data-el-name="" data-wrap=".defect-list-nav-car"><path class="st--elem" d="M9.9,127.4c0,0.2,0,0.5,0,0.7c0.1,0.3,0.7,1.2,0.7,1.2s0.4-0.5,0.6-0.7c0.1-0.2,0.3-0.7,0.4-1
    c0-0.3,0-1.1,0-1.1l-1.6-0.2C10,126.3,9.9,127.1,9.9,127.4z"></path></g>
  <g class="st-elem-detail g-elem__197" data-id="g-elem__197" data-el-name="Window" data-wrap=".defect-list-nav-car"><path class="st--elem" d="M66.6,86.3l7.7,1.2c0,0-0.2-10.4-0.3-13.9c-0.1-3.4-0.4-10.2-0.5-13.6c-0.1-2.3-0.3-9.3-0.3-9.3
    s-0.5-0.3-0.7-0.3c-0.3,0.1-0.7,0.8-0.8,1.1c-0.6,1-1.4,3-1.8,4.1c-0.6,1.6-1.8,5-2.2,6.7c-0.3,1-0.7,3-0.8,4
    c-0.1,1-0.3,2.9-0.3,3.9c-0.1,2.1,0,6.3,0,8.4C66.6,80.5,66.6,86.3,66.6,86.3z"></path></g>
  <g class="st-elem-detail g-elem__198" data-id="g-elem__198" data-el-name="Window" data-wrap=".defect-list-nav-car"><path class="st--elem" d="M66.7,89.7c0,0,3.1,1.2,4,1.7c0.9,0.5,3.6,2.1,3.6,2.1s0,9.4,0,12.5c0,5.1,0,20.3,0,20.3l-2-1.8
    c0,0-1.5-6.5-2-8.6c-0.5-2.1-1.4-6.3-1.8-8.5c-0.3-1.7-0.9-5.2-1.1-6.9c-0.2-1.6-0.5-5.2-0.6-6.8C66.7,92.7,66.7,89.7,66.7,89.7z"></path></g>
  <g class="st-elem-detail g-elem__199" data-id="g-elem__199" data-el-name="" data-wrap="defect-list-nav-car"><line class="st--elem" x1="74.3" y1="93.6" x2="74.3" y2="90.3"></line></g>
  <g class="st-elem-detail g-elem__200" data-id="g-elem__200" data-el-name="" data-wrap="defect-list-nav-car"><line class="st--elem" x1="74.3" y1="87.5" x2="74.3" y2="90.3"></line></g>
  <g class="st-elem-detail g-elem__201" data-id="g-elem__201" data-el-name="" data-wrap="defect-list-nav-car"><polygon class="st--elem" points="68,61.3 68.3,60.5 73.5,61.4 73.5,62.1 "></polygon></g>
</svg>