<svg xmlns="http://www.w3.org/2000/svg" id="side_3" viewBox="0 0 233 174" style="enable-background:new 0 0 233 174;" class="svg inlined-svg" role="img" aria-labelledby="title"><title></title>
    <g class="st-elem-detail g-elem__54" data-id="g-elem__54" data-el-name=""><rect x="29.9" y="33.6" class="st--elem" width="38.8" height="28"></rect></g>
    <g class="st-elem-detail g-elem__55" data-id="g-elem__55" data-el-name="" data-wrap=".defect-list-nav-car"><path class="st--elem" d="M199.1,35.6h-38.5v26H193c0,0,0.9-0.1,2.8-1c1.9-0.9,3.3-1.9,3.3-1.9V35.6z"></path></g>
    <g class="st-elem-detail g-elem__56" data-id="g-elem__56" data-el-name="" data-wrap="defect-list-nav-car"><circle class="st--elem" cx="49" cy="54.3" r="15.6"></circle></g>
    <g class="st-elem-detail g-elem__57" data-id="g-elem__57" data-el-name="" data-wrap="defect-list-nav-car"><circle class="st--elem" cx="49" cy="54.3" r="11.1"></circle></g>
    <g class="st-elem-detail g-elem__58" data-id="g-elem__58" data-el-name="" data-wrap=".defect-list-nav-car"><path class="st--elem" d="M41.7,45.9c2.8-2.3,5.7-2.6,5.7-2.6l-0.2,6.9c0,0,0,0.9-0.5,1.2c-0.5,0.3-1.4,0.1-1.4,0.1l-6.3-1.9     C39.1,49.6,39.7,47.6,41.7,45.9z"></path></g>
    <g class="st-elem-detail g-elem__59" data-id="g-elem__59" data-el-name="" data-wrap=".defect-list-nav-car"><path class="st--elem" d="M56.3,45.9c-2.8-2.3-5.7-2.6-5.7-2.6l0.2,6.6c0,0,0,0.9,0.5,1.2c0.5,0.3,1.4,0.1,1.4,0.1l6.3-1.7     C59,49.6,58.3,47.6,56.3,45.9z"></path></g>
    <g class="st-elem-detail g-elem__60" data-id="g-elem__60" data-el-name="" data-wrap=".defect-list-nav-car"><path class="st--elem" d="M48.4,65.4c3.7,0.1,6.8-1.9,6.8-1.9l-4.7-4.8c0,0-0.5-0.7-1.1-0.7c-0.6,0.1-1.2,0.8-1.2,0.8L44,64.1     C44,64.1,45.8,65.4,48.4,65.4z"></path></g>
    <g class="st-elem-detail g-elem__61" data-id="g-elem__61" data-el-name="" data-wrap=".defect-list-nav-car"><path class="st--elem" d="M59.9,56.9c-1,3.5-2.5,4.7-2.5,4.7L53,56.5c0,0-0.6-0.7-0.3-1.3c0.3-0.6,1.1-0.9,1.1-0.9l6.1-2     C59.9,52.4,60.6,54.4,59.9,56.9z"></path></g>
    <g class="st-elem-detail g-elem__62" data-id="g-elem__62" data-el-name="" data-wrap=".defect-list-nav-car"><path class="st--elem" d="M38.2,56.9c1,3.5,3.2,5.4,3.2,5.4l3.6-5.2c0,0,0.6-0.7,0.3-1.3c-0.3-0.6-1.1-0.9-1.1-0.9l-6.1-2.6     C38.2,52.4,37.5,54.4,38.2,56.9z"></path></g>
    <g class="st-elem-detail g-elem__63" data-id="g-elem__63" data-el-name="" data-wrap="defect-list-nav-car"><circle class="st--elem" cx="49.2" cy="51.7" r="0.8"></circle></g>
    <g class="st-elem-detail g-elem__64" data-id="g-elem__64" data-el-name="" data-wrap="defect-list-nav-car"><circle class="st--elem" cx="51.7" cy="53.5" r="0.8"></circle></g>
    <g class="st-elem-detail g-elem__65" data-id="g-elem__65" data-el-name="" data-wrap="defect-list-nav-car"><circle class="st--elem" cx="46.6" cy="53.5" r="0.8"></circle></g>
    <g class="st-elem-detail g-elem__66" data-id="g-elem__66" data-el-name="" data-wrap="defect-list-nav-car"><circle class="st--elem" cx="47.6" cy="56.4" r="0.8"></circle></g>
    <g class="st-elem-detail g-elem__67" data-id="g-elem__67" data-el-name="" data-wrap="defect-list-nav-car"><circle class="st--elem" cx="50.6" cy="56.4" r="0.8"></circle></g>
    <g class="st-elem-detail g-elem__68" data-id="g-elem__68" data-el-name="" data-wrap="defect-list-nav-car"><circle class="st--elem" cx="49.2" cy="54.2" r="1.4"></circle></g>
    <g class="st-elem-detail g-elem__69" data-id="g-elem__69" data-el-name="" data-wrap="defect-list-nav-car"><circle class="st--elem" cx="179.3" cy="54.3" r="15.6"></circle></g>
    <g class="st-elem-detail g-elem__70" data-id="g-elem__70" data-el-name="" data-wrap="defect-list-nav-car"><circle class="st--elem" cx="179.3" cy="54.3" r="11.1"></circle></g>
    <g class="st-elem-detail g-elem__71" data-id="g-elem__71" data-el-name="" data-wrap=".defect-list-nav-car"><path class="st--elem" d="M172,45.9c2.8-2.3,5.7-2.6,5.7-2.6l-0.2,6.9c0,0,0,0.9-0.5,1.2c-0.5,0.3-1.4,0.1-1.4,0.1l-6.3-1.9     C169.4,49.6,170,47.6,172,45.9z"></path></g>
    <g class="st-elem-detail g-elem__72" data-id="g-elem__72" data-el-name="" data-wrap=".defect-list-nav-car"><path class="st--elem" d="M186.6,45.9c-2.8-2.3-5.7-2.6-5.7-2.6l0.2,6.6c0,0,0,0.9,0.5,1.2c0.5,0.3,1.4,0.1,1.4,0.1l6.3-1.7     C189.3,49.6,188.6,47.6,186.6,45.9z"></path></g>
    <g class="st-elem-detail g-elem__73" data-id="g-elem__73" data-el-name="" data-wrap=".defect-list-nav-car"><path class="st--elem" d="M178.7,65.4c3.7,0.1,6.8-1.9,6.8-1.9l-4.7-4.8c0,0-0.5-0.7-1.1-0.7c-0.6,0.1-1.2,0.8-1.2,0.8l-4.2,5.2     C174.3,64.1,176.1,65.4,178.7,65.4z"></path></g>
    <g class="st-elem-detail g-elem__74" data-id="g-elem__74" data-el-name="" data-wrap=".defect-list-nav-car"><path class="st--elem" d="M190.2,56.9c-1,3.5-2.5,4.7-2.5,4.7l-4.4-5.1c0,0-0.6-0.7-0.3-1.3c0.3-0.6,1.1-0.9,1.1-0.9l6.1-2     C190.2,52.4,190.9,54.4,190.2,56.9z"></path></g>
    <g class="st-elem-detail g-elem__75" data-id="g-elem__75" data-el-name="" data-wrap=".defect-list-nav-car"><path class="st--elem" d="M168.5,56.9c1,3.5,3.2,5.4,3.2,5.4l3.6-5.2c0,0,0.6-0.7,0.3-1.3c-0.3-0.6-1.1-0.9-1.1-0.9l-6.1-2.6     C168.5,52.4,167.8,54.4,168.5,56.9z"></path></g>
    <g class="st-elem-detail g-elem__76" data-id="g-elem__76" data-el-name="" data-wrap="defect-list-nav-car"><circle class="st--elem" cx="179.5" cy="51.7" r="0.8"></circle></g>
    <g class="st-elem-detail g-elem__77" data-id="g-elem__77" data-el-name="" data-wrap="defect-list-nav-car"><circle class="st--elem" cx="182" cy="53.5" r="0.8"></circle></g>
    <g class="st-elem-detail g-elem__78" data-id="g-elem__78" data-el-name="" data-wrap="defect-list-nav-car"><circle class="st--elem" cx="177" cy="53.5" r="0.8"></circle></g>
    <g class="st-elem-detail g-elem__79" data-id="g-elem__79" data-el-name="" data-wrap="defect-list-nav-car"><circle class="st--elem" cx="177.9" cy="56.4" r="0.8"></circle></g>
    <g class="st-elem-detail g-elem__80" data-id="g-elem__80" data-el-name="" data-wrap="defect-list-nav-car"><circle class="st--elem" cx="180.9" cy="56.4" r="0.8"></circle></g>
    <g class="st-elem-detail g-elem__81" data-id="g-elem__81" data-el-name="" data-wrap="defect-list-nav-car"><circle class="st--elem" cx="179.5" cy="54.2" r="1.4"></circle></g>
    <g class="st-elem-detail g-elem__82" data-id="g-elem__82" data-el-name="" data-wrap=".defect-list-nav-car"><path class="st--elem" d="M72.2,56.4c0,0-1.7-9.3-2-12.4c-0.2-2.2-0.7-6.7-0.4-8.9c0.1-1.1,0.8-3.2,1.2-4.2c0.4-1.2,1.8-3.3,2.6-4.2     c1-1.2,3.1-3.2,4.3-4c4.9-3.3,15.4-9,20.8-11.4c2.9-1.3,9-3.6,12.1-4.3c3.7-0.8,11.2-1.1,15-1.2c0.7,0,3,0,3,0L125.8,23     c0,0-1.6,6-1.9,7.9c-0.5,2.7-0.8,8.3-0.8,11.1c0.1,2.2,0.4,6.7,0.8,8.9c0.2,1.4,1.1,5.5,1.1,5.5H72.2z"></path></g>
    <g class="st-elem-detail g-elem__83" data-id="g-elem__83" data-el-name="" data-wrap=".defect-list-nav-car"><path class="st--elem" d="M126.7,5.7c0,0-11,0.3-14.6,1c-2.9,0.6-8.6,2.5-11.3,3.6c-3.7,1.5-10.7,5.2-14.1,7.1c-2.1,1.1-6.1,3.4-8,4.8     C77.5,23,74.4,26,74.4,26L87.3,25l35-1.2L126.7,5.7z"></path></g>
    <g class="st-elem-detail g-elem__84" data-id="g-elem__84" data-el-name="" data-wrap="defect-list-nav-car"><line class="st--elem" x1="122.3" y1="23.8" x2="125.7" y2="23.8"></line></g>
    <g class="st-elem-detail g-elem__85" data-id="g-elem__85" data-el-name="" data-wrap="defect-list-nav-car"><polygon class="st--elem" points="79,22 80.3,24.1 80.6,25.3 74.6,25.8 "></polygon></g>
    <g class="st-elem-detail g-elem__86" data-id="g-elem__86" data-el-name="" data-wrap=".defect-list-nav-car"><path class="st--elem" d="M78.8,22.5c0.2-0.7,0.9-1.1,1.5-1.5c0.8-0.5,1.6-1,2.4-1.4c1.2-0.6,2.9-0.8,4.2-0.5c1,0.2,1.6,0.7,1.7,1.8   c0.1,0.9,0,1.8-0.2,2.6c-0.3,1-0.6,1.2-1.1,1.4c-0.9,0.4-3.5,1.3-4.5,1.2c-0.3,0-0.6-0.3-0.6-0.3l-0.6-0.6l-2.3,0.1   c0,0-0.4-0.6-0.4-0.8C78.7,24,78.6,23.1,78.8,22.5C78.8,22.5,78.8,22.5,78.8,22.5z"></path></g>
    <g class="st-elem-detail g-elem__87" data-id="g-elem__87" data-el-name="" data-wrap=".defect-list-nav-car"><path class="st--elem" d="M172.6,22.2c0.1-0.3,0.5-0.9,0.6-1.2c0.2-0.5,0.4-1.7,0.2-2.2c-0.3-1.1-2.2-2.7-3.1-3.4       c-2.1-1.7-6.9-4.4-9.4-5.6c-2.2-1-5.2-2.1-7.5-2.6c-2.6-0.5-6.1-1-8.8-1.1c-2.5-0.1-11.3-0.3-13.8-0.3c-0.6,0-2.3-0.1-2.3-0.1       l-3,17.7c0,0-1.6,5.6-1.9,7.5c-0.4,2.8-0.8,8.3-0.8,11.1c0,2.2,0.8,8.9,0.8,8.9l1.1,5.5l26.3-0.3c0,0,2-0.7,2.6-1.1       c0.6-0.4,1.4-1.7,1.8-2.2c3.1-4.5,8.5-13.9,11.1-18.7c1.5-2.7,4.3-8.4,5.6-11.2C172.4,22.8,172.5,22.4,172.6,22.2z"></path></g>
    <g class="st-elem-detail g-elem__88" data-id="g-elem__88" data-el-name="" data-wrap=".defect-list-nav-car"><path class="st--elem" d="M172.6,22.2c0,0,0.5-0.9,0.6-1.2c0.2-0.5,0.4-1.7,0.2-2.2c-0.3-1.1-2.2-2.7-3.1-3.4c-2.1-1.7-6.9-4.4-9.4-5.6       c-2.2-1-5.2-2.1-7.5-2.6c-2.6-0.5-6.1-1-8.8-1.1C142.2,5.9,131,5.8,131,5.8l-1.3,17.9L172.6,22.2z"></path></g>
    <g class="st-elem-detail g-elem__89" data-id="g-elem__89" data-el-name="" data-wrap="defect-list-nav-car"><line class="st--elem" x1="129.7" y1="23.6" x2="125.6" y2="23.8"></line></g>
    <g class="st-elem-detail g-elem__90" data-id="g-elem__90" data-el-name="" data-wrap="defect-list-nav-car"><polygon class="st--elem" points="160.8,22.5 159.8,22.5 160.8,9.8 161.7,10.2   "></polygon></g>
    <g class="st-elem-detail g-elem__91" data-id="g-elem__91" data-el-name="" data-wrap=".defect-list-nav-car"><path class="st--elem" d="M190.4,39.1c0,0,2.5,2.4,3.2,3.3c1,1.4,2.8,4.4,3.5,6c0.5,1.3,1.2,3.9,1.4,5.3c0.2,1.2,0.6,4.9,0.6,4.9   s1.5,0.8,2,0.8c2.4,0.3,15.7-2.1,15.7-2.1l1.2-1.2l2.1-0.1l0.4-1.2l1.3-0.2c0,0,2.9-3.3,4.2-4c0.3-0.2,0.8-0.3,1.1-0.2   c0.6,0.1,0.7,0.8,0.8,1.1c0.2,1.3-0.8,2.8-0.8,2.8h1.4l0.2-2.1c0,0,1.5-1.2,1.8-1.9c0.2-0.4,0.1-1.4,0-1.8c-0.1-0.3-0.4-0.8-0.4-1.2   c-0.1-0.5,0-1.5,0.1-1.9c0.1-0.7,0.6-2,0.8-2.6c1.3-4.1-2.1-5.3-2.5-5.4c-0.5-0.2-2-0.6-2-0.6l-1.4-0.9l-7.5-1.4l-4.5,4.3   L190.4,39.1z"></path></g>
    <g class="st-elem-detail g-elem__92" data-id="g-elem__92" data-el-name="" data-wrap=".defect-list-nav-car"><path class="st--elem" d="M225.6,36.1c0,0-0.5-1.8-0.8-2.4c-0.6-1.4-1.9-4.1-2.7-5.4c-0.6-0.9-1.9-2.5-2.7-3.1c-0.3-0.2-0.9-0.3-0.9-0.3   l-2.9,0.2c0,0-2.5,0.2-3.5,0.3c-0.6,0.1-1.8,0.2-2.4,0.3c-0.6,0.2-1.8,0.5-2.2,1c-0.2,0.2-0.3,0.8-0.2,1.1c0.1,0.3,0.5,0.7,0.6,0.9   c0.6,0.6,1.9,1.6,2.5,2.2c0.5,0.4,2.6,2,3.6,2.5c0.8,0.4,3.3,1.2,3.3,1.2L225.6,36.1z"></path></g>
    <g class="st-elem-detail g-elem__93" data-id="g-elem__93" data-el-name="" data-wrap=".defect-list-nav-car"><path class="st--elem" d="M161.7,61.6c0,0-0.4-1.6-0.4-2.2c-0.1-0.8-0.1-2.4-0.1-3.2c0-0.9,0.1-3.5,0.1-3.5h-5.6c0,0-1,1.5-1.5,1.9   c-0.3,0.3-1.1,0.7-1.5,0.9c-0.3,0.2-1.1,0.5-1.4,0.5c-0.3,0-1,0-1,0l-82,0.3l0.4,5.2L161.7,61.6z"></path></g>
    <g class="st-elem-detail g-elem__94" data-id="g-elem__94" data-el-name="" data-wrap=".defect-list-nav-car"><path class="st--elem" d="M72,21.5l4.3,2.4c0,0-1.2,1-1.5,1.4c-0.4,0.4-1.1,1.1-1.4,1.5c-0.3,0.4-1,1.4-1.3,1.9c-0.3,0.5-0.9,1.6-1.2,2.2   c-0.2,0.6-0.6,1.7-0.8,2.3c-0.1,0.5-0.4,1.4-0.4,1.8c-0.1,0.4-0.1,1.2-0.1,1.6c0,0.6,0,1.7,0.1,2.2c0,0.6,0.1,1.9,0.2,2.5   c0.1,1,0.3,2.9,0.4,3.9c0.1,0.8,0.4,2.4,0.5,3.2c0.2,1.1,0.5,3.4,0.7,4.5c0.1,0.8,0.6,3.4,0.6,3.4l-3.9,0c0,0-0.6-3.8-0.8-5   c-0.2-1-0.7-3-1.1-4c-0.5-1.3-1.6-3.8-2.4-4.9c-0.7-1-2.5-2.7-3.4-3.5c-0.8-0.7-2.7-1.7-3.7-2.1c-1.1-0.5-3.5-1.2-4.7-1.4   c-1.2-0.2-3.5-0.1-4.7,0c-1.1,0.1-3.3,0.4-4.3,0.7c-1.1,0.3-3.2,1.3-4.2,2c-0.4,0.3-1.6,1.4-1.6,1.4l-10.6,0.2l-0.9-1.1   c0,0,1.6-1.3,2.1-1.7c0.9-0.8,2.2-2.2,3.3-3.2C32,33,29.6,33,29.6,33l-6.4,0l-0.7,0c0,0,3.4-1.4,4.5-1.7c3.9-1.2,11.8-3.1,15.8-3.9   c2.4-0.5,7.2-1.4,9.6-1.7c2.1-0.3,6.4-0.8,8.5-1.1c1.5-0.2,4.5-0.5,5.9-0.9C68.3,23.3,72,21.5,72,21.5z"></path></g>
    <g class="st-elem-detail g-elem__95" data-id="g-elem__95" data-el-name="" data-wrap=".defect-list-nav-car"><path class="st--elem" d="M10.7,36.5h3.8c0,0-3.3,2.4-4.3,3.3c-0.5,0.4-1.7,1.2-1.6,1.8c0,0.1,0.4,0.3,0.4,0.3s2.1-0.2,2.9-0.2   c2.5-0.2,7.4-0.7,9.8-1c0.4-0.1,1.3-0.2,1.8-0.4c0.6-0.3,2.3-1.5,2.3-1.5l0.9,1.1l10.6-0.2c0,0-1.9,1.6-2.5,2.3   c-0.5,0.6-1.5,2-1.9,2.7c-0.5,0.8-1.3,2.6-1.6,3.5c-0.3,0.9-0.5,2.8-0.6,3.7c-0.1,1.1-0.5,3.9,0,6.5c0.1,0.7,0.5,2.9,0.5,2.9h-5.7   c0,0-1.6-1.4-2.3-1.4c-3.3,0-10.3-0.5-13.3-1.1c-0.7-0.2-2.1-0.8-2.7-1.1c-0.4-0.1-2.3-1.9-2.6-2.3c-0.7-1.3-1.8-2.6-2.5-5.5   c-0.3-1.1,0-4.4,0-4.4s3.1-2.6,4-3.5C7.3,40.7,10.7,36.5,10.7,36.5z"></path></g>
    <g class="st-elem-detail g-elem__96" data-id="g-elem__96" data-el-name="" data-wrap=".defect-list-nav-car"><path class="st--elem" d="M16,35.4c0.5-0.3,1.5-0.8,2-1c1-0.3,3.3-1.1,4.3-1.2c1-0.1,3-0.2,4-0.2c1,0,3-0.1,4,0.1c0.2,0,0.7,0.1,0.8,0.3   c0.1,0.1,0,0.4,0,0.5c-0.3,0.6-1.4,1.4-1.9,1.9c-1,0.9-3.1,2.7-4.2,3.5c-0.4,0.3-1.2,0.8-1.6,1c-0.3,0.1-1.2,0.3-1.2,0.3L9.6,41.8   c0,0-0.9,0-1-0.3c-0.1-0.2,0.2-0.5,0.3-0.7c0.7-0.9,3.6-3,3.6-3S15,36.1,16,35.4z"></path></g>
    <g class="st-elem-detail g-elem__97" data-id="g-elem__97" data-el-name="" data-wrap=".defect-list-nav-car"><path class="st--elem" d="M64.6,23.9c0,0-1.5-0.2-2.1-0.4c-0.2-0.1-1-0.5-1-0.5l0.4-0.3c0,0-3.5,0-4.7,0c-2.2,0.1-6.7,0.6-8.9,0.9   c-5.2,0.7-15.4,2.7-20.5,3.8c-2.4,0.5-7.2,1.7-9.5,2.4c-1.3,0.4-3.9,1.3-5.1,1.9c-0.9,0.4-2.5,1.5-3.3,2c-0.5,0.3-1.6,1-2,1.5   c-0.1,0.1-0.5,0.5-0.5,0.7c0,0.2,0.2,0.6,0.2,0.6h3.2h3.8c0,0,1.5-1,2-1.3c0.8-0.4,2.4-1,3.2-1.3c0.6-0.2,2.5-0.7,2.5-0.7l0,0   c0,0,3.8-1.6,4.9-1.9c1.4-0.5,3.9-1.1,5.3-1.5c1.6-0.4,4.8-1.2,6.4-1.5c1.9-0.4,5.6-1.2,7.5-1.6c0.8-0.2,2.4-0.4,3.2-0.6   c1.8-0.3,5.3-0.8,7.1-1c1.6-0.2,4.8-0.5,6.4-0.8C63.4,24.2,64.6,23.9,64.6,23.9z"></path></g>
    <g class="st-elem-detail g-elem__98" data-id="g-elem__98" data-el-name="" data-wrap=".defect-list-nav-car"><path class="st--elem" d="M72,21.5c3.3-1.6,8.8-4.6,13.1-6.8c6-3.1,18-8.3,18-8.3l-3.6-0.7c0,0-10.9,3.8-24.6,10.4c-6,2.9-13,6.6-13,6.6   L61.5,23c0,0,0.7,0.4,1,0.5c0.7,0.2,2.1,0.5,2.8,0.5c0.6,0,1.7-0.3,2.3-0.5C68.7,23.1,70.9,22.1,72,21.5z"></path></g>
    <g class="st-elem-detail g-elem__99" data-id="g-elem__99" data-el-name="" data-wrap=".defect-list-nav-car"><path class="st--elem" d="M219.5,25.2l-4.5-4.4l-17-1.5c0,0-2.2-0.5-2.9-0.7c-1.1-0.3-3.3-1.1-4.4-1.6c-1.3-0.6-3.9-1.9-5.3-2.6   c-1.4-0.7-4.1-2.2-5.5-2.9c-1.2-0.6-3.7-1.9-4.9-2.4c-1.1-0.5-3.3-1.6-4.5-2c-1.7-0.7-5.3-1.8-7.1-2.3c-1.3-0.3-4-0.7-5.4-0.9   c-2.3-0.3-6.9-0.8-9.2-0.9c-4.9-0.3-14.6-0.2-19.5-0.2c-1.4,0-4.2,0.1-5.6,0.2c-1.8,0.1-5.4,0.3-7.1,0.5c-1.6,0.2-4.8,0.7-6.4,1   c-0.9,0.2-2.8,0.6-3.7,0.8c-1,0.3-2.8,0.8-3.8,1.2c-2.2,0.8-6.4,2.8-8.5,3.8c-2.3,1.1-6.8,3.2-9.1,4.3c-2.5,1.2-7.3,3.9-9.8,5.1   c-0.8,0.4-3.1,1.6-3.1,1.6l4.1,2.5c0,0,1.7-1.3,2.3-1.8c1.5-1,4.5-2.8,6.1-3.7c1.6-0.9,4.9-2.7,6.6-3.6c1.8-0.9,5.5-2.8,7.4-3.6   c1.1-0.5,3.3-1.4,4.4-1.8c1-0.4,3.1-1.2,4.2-1.5c1.2-0.4,3.6-1,4.9-1.2c0.8-0.1,2.3-0.3,3.1-0.4c2.1-0.2,6.4-0.5,8.5-0.5   c2.1-0.1,6.2-0.1,8.2-0.1c2.8,0,8.4,0.2,11.3,0.3c1.2,0.1,3.7,0.2,4.9,0.4c1.3,0.1,5.1,0.8,5.1,0.8s3.8,1,5,1.5   c0.7,0.2,2.1,0.8,2.8,1.1c0.9,0.4,2.7,1.3,3.5,1.8c1.1,0.6,3.3,1.9,4.3,2.6c0.7,0.5,2.1,1.6,2.8,2.2c0.4,0.4,1.3,1.3,1.6,1.8   c0.2,0.4,0.3,1.2,0.3,1.6c0,0.3-0.2,0.8-0.3,1.1c-0.1,0.3-0.5,1.2-0.5,1.2s9-0.3,12-0.3c5.9,0,17.6,0.2,23.5,0.5   c1.2,0.1,3.6,0.3,4.8,0.5c0.6,0.1,1.7,0.3,2.3,0.5c0.6,0.2,1.8,0.8,2.5,1.1C218.3,24.7,219.5,25.2,219.5,25.2z"></path></g>
    <g class="st-elem-detail g-elem__100" data-id="g-elem__100" data-el-name="" data-wrap=".defect-list-nav-car"><path class="st--elem" d="M196,18.8l5.4-0.8c0,0,8.3,0.7,11.1,0.9c2.5,0.2,9.9,0.7,9.9,0.7l4.1,6.9h-2.1l1.9,10.1l-0.8-0.4   c-0.3-0.6-0.6-1.8-0.8-2.4c-0.3-0.8-1.1-2.4-1.5-3.2c-0.4-0.7-1.2-2.2-1.7-2.9c-0.6-0.8-1.9-2.1-2.6-2.8c-1-1-3.7-3.8-4.1-4   c-0.6-0.4-12.4-0.9-16.5-1.5C196.7,19.2,196,18.8,196,18.8z"></path></g>
    <g class="st-elem-detail g-elem__101" data-id="g-elem__101" data-el-name="" data-wrap=".defect-list-nav-car"><path class="st--elem" d="M215,20.9c0,0,1.9,0,4.1-0.5c2.2-0.5,3.3-0.9,3.3-0.9"></path></g>
    <g class="st-elem-detail g-elem__102" data-id="g-elem__102" data-el-name="" data-wrap=".defect-list-nav-car"><path class="st--elem" d="M169.2,6.6l3.3-1.2c0,0,9.5,3.7,12.7,5c4,1.7,16,7.4,16,7.4l-5.2,0.8c0,0-1.8-0.4-2.3-0.6   c-1.8-0.6-5.3-2.3-7.1-3.1c-1.6-0.8-4.6-2.4-6.1-3.2c-1.4-0.7-4.1-2.1-5.5-2.7C173.6,8.5,169.2,6.6,169.2,6.6z"></path></g>
    <g class="st-elem-detail g-elem__103" data-id="g-elem__103" data-el-name="" data-wrap=".defect-list-nav-car"><path class="st--elem" d="M99.9,5.6c0,0,5-1.4,6.6-1.7c2.5-0.6,7.1-1.5,9.7-1.8c3.4-0.4,10.8-0.5,14.2-0.5c5.1-0.1,15.2,0.1,20.3,0.4   c2.7,0.2,7.9,0.6,10.5,1c2.9,0.5,11.3,2.5,11.3,2.5l-3,1.3c0,0-3.5-1.2-4.6-1.5c-1.7-0.4-5.3-1-7-1.3c-2.5-0.4-7.2-0.8-9.8-0.9   c-4.4-0.2-13.5-0.3-17.9-0.2c-2.4,0.1-7.3,0.2-9.7,0.4c-1.5,0.1-4.4,0.4-5.9,0.6c-1.2,0.2-3.7,0.6-5,0.8c-0.8,0.2-2.5,0.5-3.3,0.8   c-0.8,0.2-3.1,1-3.1,1L99.9,5.6z"></path></g>
    <g class="st-elem-detail g-elem__104" data-id="g-elem__104" data-el-name="" data-wrap=".defect-list-nav-car"><path class="st--elem" d="M218,56.1l5.6,0.3c0,0,1.9-0.1,3-1.4c2.1-2.4,1.2-4.6,0.3-4.6c-0.6,0-1,0.3-1.3,0.5c-0.4,0.3-1.3,1.1-1.7,1.5   c-0.6,0.5-2.1,2.2-2.1,2.2l-1.3,0.2l-0.4,1.2L218,56.1z"></path></g>
    <g class="st-elem-detail g-elem__105" data-id="g-elem__105" data-el-name="" data-wrap=".defect-list-nav-car"><path class="st--elem" d="M226.1,50.6c0,0-2.7,1.2-2.9,3.9c-0.1,1.1,0.9,1.7,0.9,1.7"></path></g>
    <g class="st-elem-detail g-elem__106" data-id="g-elem__106" data-el-name="" data-wrap=".defect-list-nav-car"><path class="st--elem" d="M2.1,45.5c0,0,0.4-2.3,1.8-4.8c1.4-2.6,3.5-4.8,3.5-4.8l0,0.6h3.4L6,42l-4,3.7V45.5z"></path></g>
    <g class="st-elem-detail g-elem__107" data-id="g-elem__107" data-el-name="" data-wrap=".defect-list-nav-car"><path class="st--elem" d="M161.2,52.8c0,0,1.5-5.6,2.5-7.3c0.9-1.6,3.1-4.5,4.5-5.6c1.6-1.3,5.5-2.9,7.5-3.3c2.1-0.4,6.5-0.4,8.7,0   c1.6,0.3,6,2.5,6,2.5l22.8-0.4l4.5-4.2c0,0-2.7-0.8-3.6-1.3c-1.8-0.9-5.9-4.3-6.7-5.2c-0.2-0.3-0.2-1.1,0.1-1.3   c1.3-1.2,4.6-1.3,6.3-1.5c1.8-0.2,4.8-0.3,4.8-0.3s-2.3-1.1-3-1.4c-1.7-0.6-5.1-0.9-6.9-1c-3.1-0.2-9.2-0.5-12.3-0.5   c-5.9-0.1-23.8,0.2-23.8,0.2s-1.8,4-2.4,5.3c-1.3,2.6-4.1,7.8-5.5,10.4c-1.3,2.3-4,6.9-5.4,9.2c-0.9,1.5-3.7,5.8-3.7,5.8H161.2z"></path></g>
    <g class="st-elem-detail g-elem__108" data-id="g-elem__108" data-el-name="" data-wrap=".defect-list-nav-car"><path class="st--elem" d="M196.4,29.7c0,0.8-0.6,1.4-1.4,1.4h-6.8c-0.8,0-1.4-0.6-1.4-1.4v-3.7c0-0.8,0.6-1.4,1.4-1.4h6.8   c0.8,0,1.4,0.6,1.4,1.4V29.7z"></path></g>
    <path class="st2 st--1" d="M60.8,53.7c0,0.7,0,2.2-0.6,3.9c-1,3-3,4.8-3.8,5.5c-0.8,0.7-3.9,3.3-8.6,3.4c-5.8,0-9.3-3.8-9.9-4.4c-0.7-0.8-3.8-4.5-3.4-9.9c0.1-0.6,0.6-5.9,5.2-9.4c0.6-0.4,3.2-2.3,7.1-2.6c1-0.1,4.2-0.2,7.4,1.7c0.3,0.2,1.8,1.1,3.2,2.8c0.5,0.6,1.8,2.2,2.7,4.8C60.8,51.4,60.8,53,60.8,53.7z"></path>
    <path class="st2 st--1" d="M191.2,53.8c0,0.7,0,2.2-0.6,3.9c-1,3-3,4.8-3.8,5.5c-0.8,0.7-3.9,3.3-8.6,3.4c-5.8,0-9.3-3.8-9.9-4.4c-0.7-0.8-3.8-4.5-3.4-9.9c0.1-0.6,0.6-5.9,5.2-9.4c0.6-0.4,3.2-2.3,7.1-2.6c1-0.1,4.2-0.2,7.4,1.7c0.3,0.2,1.8,1.1,3.2,2.8c0.5,0.6,1.8,2.2,2.7,4.8C191.1,51.4,191.2,53.1,191.2,53.8z"></path>
    <g class="st-elem-detail g-elem__109" data-id="g-elem__109" data-el-name=""><rect x="164.5" y="136" class="st--elem" width="38.8" height="28"></rect></g>
    <g class="st-elem-detail g-elem__110" data-id="g-elem__110" data-el-name="" data-wrap=".defect-list-nav-car"><path class="st--elem" d="M34.1,138h38.5v26H40.2c0,0-0.9-0.1-2.8-1c-1.9-0.9-3.3-1.9-3.3-1.9V138z"></path></g>
    <g class="st-elem-detail g-elem__111" data-id="g-elem__111" data-el-name="" data-wrap="defect-list-nav-car"><circle class="st--elem" cx="184.2" cy="156.7" r="15.6"></circle></g>
    <g class="st-elem-detail g-elem__112" data-id="g-elem__112" data-el-name="" data-wrap="defect-list-nav-car"><circle class="st--elem" cx="184.2" cy="156.7" r="11.1"></circle></g>
    <g class="st-elem-detail g-elem__113" data-id="g-elem__113" data-el-name="" data-wrap=".defect-list-nav-car"><path class="st--elem" d="M191.4,148.3c-2.8-2.3-5.7-2.6-5.7-2.6l0.2,6.9c0,0,0,0.9,0.5,1.2c0.5,0.3,1.4,0.1,1.4,0.1l6.3-1.9     C194.1,152,193.4,150,191.4,148.3z"></path></g>
    <g class="st-elem-detail g-elem__114" data-id="g-elem__114" data-el-name="" data-wrap=".defect-list-nav-car"><path class="st--elem" d="M176.8,148.3c2.8-2.3,5.7-2.6,5.7-2.6l-0.2,6.6c0,0,0,0.9-0.5,1.2c-0.5,0.3-1.4,0.1-1.4,0.1l-6.3-1.7     C174.2,152,174.8,150,176.8,148.3z"></path></g>
    <g class="st-elem-detail g-elem__115" data-id="g-elem__115" data-el-name="" data-wrap=".defect-list-nav-car"><path class="st--elem" d="M184.8,167.8c-3.7,0.1-6.8-1.9-6.8-1.9l4.7-4.8c0,0,0.5-0.7,1.1-0.7c0.6,0.1,1.2,0.8,1.2,0.8l4.2,5.2     C189.2,166.5,187.4,167.8,184.8,167.8z"></path></g>
    <g class="st-elem-detail g-elem__116" data-id="g-elem__116" data-el-name="" data-wrap=".defect-list-nav-car"><path class="st--elem" d="M173.3,159.3c1,3.5,2.5,4.7,2.5,4.7l4.4-5.1c0,0,0.6-0.7,0.3-1.3c-0.3-0.6-1.1-0.9-1.1-0.9l-6.1-2     C173.3,154.8,172.6,156.8,173.3,159.3z"></path></g>
    <g class="st-elem-detail g-elem__117" data-id="g-elem__117" data-el-name="" data-wrap=".defect-list-nav-car"><path class="st--elem" d="M195,159.3c-1,3.5-3.2,5.4-3.2,5.4l-3.6-5.2c0,0-0.6-0.7-0.3-1.3c0.3-0.6,1.1-0.9,1.1-0.9l6.1-2.6     C195,154.8,195.7,156.8,195,159.3z"></path></g>
    <g class="st-elem-detail g-elem__118" data-id="g-elem__118" data-el-name="" data-wrap="defect-list-nav-car"><circle class="st--elem" cx="184" cy="154.1" r="0.8"></circle></g>
    <g class="st-elem-detail g-elem__119" data-id="g-elem__119" data-el-name="" data-wrap="defect-list-nav-car"><circle class="st--elem" cx="181.5" cy="155.9" r="0.8"></circle></g>
    <g class="st-elem-detail g-elem__120" data-id="g-elem__120" data-el-name="" data-wrap="defect-list-nav-car"><circle class="st--elem" cx="186.5" cy="155.9" r="0.8"></circle></g>
    <g class="st-elem-detail g-elem__121" data-id="g-elem__121" data-el-name="" data-wrap="defect-list-nav-car"><circle class="st--elem" cx="185.6" cy="158.8" r="0.8"></circle></g>
    <g class="st-elem-detail g-elem__122" data-id="g-elem__122" data-el-name="" data-wrap="defect-list-nav-car"><circle class="st--elem" cx="182.5" cy="158.8" r="0.8"></circle></g>
    <g class="st-elem-detail g-elem__123" data-id="g-elem__123" data-el-name="" data-wrap="defect-list-nav-car"><circle class="st--elem" cx="184" cy="156.6" r="1.4"></circle></g>
    <g class="st-elem-detail g-elem__124" data-id="g-elem__124" data-el-name="" data-wrap="defect-list-nav-car"><circle class="st--elem" cx="53.9" cy="156.7" r="15.6"></circle></g>
    <g class="st-elem-detail g-elem__125" data-id="g-elem__125" data-el-name="" data-wrap="defect-list-nav-car"><circle class="st--elem" cx="53.9" cy="156.7" r="11.1"></circle></g>
    <g class="st-elem-detail g-elem__126" data-id="g-elem__126" data-el-name="" data-wrap=".defect-list-nav-car"><path class="st--elem" d="M61.1,148.3c-2.8-2.3-5.7-2.6-5.7-2.6l0.2,6.9c0,0,0,0.9,0.5,1.2c0.5,0.3,1.4,0.1,1.4,0.1l6.3-1.9     C63.8,152,63.1,150,61.1,148.3z"></path></g>
    <g class="st-elem-detail g-elem__127" data-id="g-elem__127" data-el-name="" data-wrap=".defect-list-nav-car"><path class="st--elem" d="M46.5,148.3c2.8-2.3,5.7-2.6,5.7-2.6l-0.2,6.6c0,0,0,0.9-0.5,1.2c-0.5,0.3-1.4,0.1-1.4,0.1l-6.3-1.7     C43.9,152,44.5,150,46.5,148.3z"></path></g>
    <g class="st-elem-detail g-elem__128" data-id="g-elem__128" data-el-name="" data-wrap=".defect-list-nav-car"><path class="st--elem" d="M54.5,167.8c-3.7,0.1-6.8-1.9-6.8-1.9l4.7-4.8c0,0,0.5-0.7,1.1-0.7c0.6,0.1,1.2,0.8,1.2,0.8l4.2,5.2     C58.9,166.5,57.1,167.8,54.5,167.8z"></path></g>
    <g class="st-elem-detail g-elem__129" data-id="g-elem__129" data-el-name="" data-wrap=".defect-list-nav-car"><path class="st--elem" d="M43,159.3c1,3.5,2.5,4.7,2.5,4.7l4.4-5.1c0,0,0.6-0.7,0.3-1.3c-0.3-0.6-1.1-0.9-1.1-0.9l-6.1-2     C42.9,154.8,42.3,156.8,43,159.3z"></path></g>
    <g class="st-elem-detail g-elem__130" data-id="g-elem__130" data-el-name="" data-wrap=".defect-list-nav-car"><path class="st--elem" d="M64.7,159.3c-1,3.5-3.2,5.4-3.2,5.4l-3.6-5.2c0,0-0.6-0.7-0.3-1.3c0.3-0.6,1.1-0.9,1.1-0.9l6.1-2.6     C64.7,154.8,65.4,156.8,64.7,159.3z"></path></g>
    <g class="st-elem-detail g-elem__131" data-id="g-elem__131" data-el-name="" data-wrap="defect-list-nav-car"><circle class="st--elem" cx="53.7" cy="154.1" r="0.8"></circle></g>
    <g class="st-elem-detail g-elem__132" data-id="g-elem__132" data-el-name="" data-wrap="defect-list-nav-car"><circle class="st--elem" cx="51.2" cy="155.9" r="0.8"></circle></g>
    <g class="st-elem-detail g-elem__133" data-id="g-elem__133" data-el-name="" data-wrap="defect-list-nav-car"><circle class="st--elem" cx="56.2" cy="155.9" r="0.8"></circle></g>
    <g class="st-elem-detail g-elem__134" data-id="g-elem__134" data-el-name="" data-wrap="defect-list-nav-car"><circle class="st--elem" cx="55.3" cy="158.8" r="0.8"></circle></g>
    <g class="st-elem-detail g-elem__135" data-id="g-elem__135" data-el-name="" data-wrap="defect-list-nav-car"><circle class="st--elem" cx="52.2" cy="158.8" r="0.8"></circle></g>
    <g class="st-elem-detail g-elem__136" data-id="g-elem__136" data-el-name="" data-wrap="defect-list-nav-car"><circle class="st--elem" cx="53.7" cy="156.6" r="1.4"></circle></g>
    <g class="st-elem-detail g-elem__137" data-id="g-elem__137" data-el-name="" data-wrap=".defect-list-nav-car"><path class="st--elem" d="M161,158.8c0,0,1.7-9.3,2-12.4c0.2-2.2,0.7-6.7,0.4-8.9c-0.1-1.1-0.8-3.2-1.2-4.2c-0.4-1.2-1.8-3.3-2.6-4.2     c-1-1.2-3.1-3.2-4.3-4c-4.9-3.3-15.4-9-20.8-11.4c-2.9-1.3-9-3.6-12.1-4.3c-3.7-0.8-11.2-1.1-15-1.2c-0.7,0-3,0-3,0l2.9,17.3     c0,0,1.6,6,1.9,7.9c0.5,2.7,0.8,8.3,0.8,11.1c-0.1,2.2-0.4,6.7-0.8,8.9c-0.2,1.4-1.1,5.5-1.1,5.5H161z"></path></g>
    <g class="st-elem-detail g-elem__138" data-id="g-elem__138" data-el-name="" data-wrap=".defect-list-nav-car"><path class="st--elem" d="M106.5,108.1c0,0,11,0.3,14.6,1c2.9,0.6,8.6,2.5,11.3,3.6c3.7,1.5,10.7,5.2,14.1,7.1c2.1,1.1,6.1,3.4,8,4.8     c1.2,0.8,4.2,3.8,4.2,3.8l-12.9-0.9l-35-1.2L106.5,108.1z"></path></g>
    <g class="st-elem-detail g-elem__139" data-id="g-elem__139" data-el-name="" data-wrap="defect-list-nav-car"><line class="st--elem" x1="110.9" y1="126.2" x2="107.5" y2="126.2"></line></g>

    <g class="st-elem-detail g-elem__140" data-id="g-elem__140" data-el-name="" data-wrap="defect-list-nav-car"><polygon class="st--elem" points="154.2,124.4 152.9,126.5 152.6,127.7 158.6,128.2 "></polygon></g>
    <g class="st-elem-detail g-elem__141" data-id="g-elem__141" data-el-name="" data-wrap=".defect-list-nav-car"><path class="st--elem" d="M154.4,124.9c-0.2-0.7-0.9-1.1-1.5-1.5c-0.8-0.5-1.6-1-2.4-1.4c-1.2-0.6-2.9-0.8-4.2-0.5   c-1,0.2-1.6,0.7-1.7,1.8c-0.1,0.9,0,1.8,0.2,2.6c0.3,1,0.6,1.2,1.1,1.4c0.9,0.4,3.5,1.3,4.5,1.2c0.3,0,0.6-0.3,0.6-0.3l0.6-0.6   l2.3,0.1c0,0,0.4-0.6,0.4-0.8C154.5,126.4,154.6,125.5,154.4,124.9C154.4,124.9,154.4,124.9,154.4,124.9z"></path></g>
    <g class="st-elem-detail g-elem__142" data-id="g-elem__142" data-el-name="" data-wrap=".defect-list-nav-car"><path class="st--elem" d="M60.6,124.6c-0.1-0.3-0.5-0.9-0.6-1.2c-0.2-0.5-0.4-1.7-0.2-2.2c0.3-1.1,2.2-2.7,3.1-3.4       c2.1-1.7,6.9-4.4,9.4-5.6c2.2-1,5.2-2.1,7.5-2.6c2.6-0.5,6.1-1,8.8-1.1c2.5-0.1,11.3-0.3,13.8-0.3c0.6,0,2.3-0.1,2.3-0.1l3,17.7       c0,0,1.6,5.6,1.9,7.5c0.4,2.8,0.8,8.3,0.8,11.1c0,2.2-0.8,8.9-0.8,8.9l-1.1,5.5l-26.3-0.3c0,0-2-0.7-2.6-1.1       c-0.6-0.4-1.4-1.7-1.8-2.2c-3.1-4.5-8.5-13.9-11.1-18.7c-1.5-2.7-4.3-8.4-5.6-11.2C60.8,125.2,60.6,124.8,60.6,124.6z"></path></g>
    <g class="st-elem-detail g-elem__143" data-id="g-elem__143" data-el-name="" data-wrap=".defect-list-nav-car"><path class="st--elem" d="M60.6,124.6c0,0-0.5-0.9-0.6-1.2c-0.2-0.5-0.4-1.7-0.2-2.2c0.3-1.1,2.2-2.7,3.1-3.4c2.1-1.7,6.9-4.4,9.4-5.6       c2.2-1,5.2-2.1,7.5-2.6c2.6-0.5,6.1-1,8.8-1.1c2.5-0.1,13.8-0.3,13.8-0.3l1.3,17.9L60.6,124.6z"></path></g>
    <g class="st-elem-detail g-elem__144" data-id="g-elem__144" data-el-name="" data-wrap="defect-list-nav-car"><line class="st--elem" x1="103.5" y1="126" x2="107.6" y2="126.2"></line></g>
    
    <g class="st-elem-detail g-elem__145" data-id="g-elem__145" data-el-name="" data-wrap="defect-list-nav-car"><polygon class="st--elem" points="72.4,124.9 73.3,124.9 72.4,112.2 71.5,112.6  "></polygon></g>
    <g class="st-elem-detail g-elem__146" data-id="g-elem__146" data-el-name="" data-wrap=".defect-list-nav-car"><path class="st--elem" d="M42.8,141.5c0,0-2.5,2.4-3.2,3.3c-1,1.4-2.8,4.4-3.5,6c-0.5,1.3-1.2,3.9-1.4,5.3c-0.2,1.2-0.6,4.9-0.6,4.9   s-1.5,0.8-2,0.8c-2.4,0.3-15.7-2.1-15.7-2.1l-1.2-1.2l-2.1-0.1l-0.4-1.2l-1.3-0.2c0,0-2.9-3.3-4.2-4c-0.3-0.2-0.8-0.3-1.1-0.2   c-0.6,0.1-0.7,0.8-0.8,1.1c-0.2,1.3,0.8,2.8,0.8,2.8H4.6l-0.2-2.1c0,0-1.5-1.2-1.8-1.9c-0.2-0.4-0.1-1.4,0-1.8   c0.1-0.3,0.4-0.8,0.4-1.2c0.1-0.5,0-1.5-0.1-1.9c-0.1-0.7-0.6-2-0.8-2.6c-1.3-4.1,2.1-5.3,2.5-5.4c0.5-0.2,2-0.6,2-0.6l1.4-0.9   l7.5-1.4l4.5,4.3L42.8,141.5z"></path></g>
    <g class="st-elem-detail g-elem__147" data-id="g-elem__147" data-el-name="" data-wrap=".defect-list-nav-car"><path class="st--elem" d="M7.6,138.5c0,0,0.5-1.8,0.8-2.4c0.6-1.4,1.9-4.1,2.7-5.4c0.6-0.9,1.9-2.5,2.7-3.1c0.3-0.2,0.9-0.3,0.9-0.3   l2.9,0.2c0,0,2.5,0.2,3.5,0.3c0.6,0.1,1.8,0.2,2.4,0.3c0.6,0.2,1.8,0.5,2.2,1c0.2,0.2,0.3,0.8,0.2,1.1c-0.1,0.3-0.5,0.7-0.6,0.9   c-0.6,0.6-1.9,1.6-2.5,2.2c-0.5,0.4-2.6,2-3.6,2.5c-0.8,0.4-3.3,1.2-3.3,1.2L7.6,138.5z"></path></g>
    <g class="st-elem-detail g-elem__148" data-id="g-elem__148" data-el-name="" data-wrap=".defect-list-nav-car"><path class="st--elem" d="M71.5,164c0,0,0.4-1.6,0.4-2.2c0.1-0.8,0.1-2.4,0.1-3.2c0-0.9-0.1-3.5-0.1-3.5h5.6c0,0,1,1.5,1.5,1.9   c0.3,0.3,1.1,0.7,1.5,0.9c0.3,0.2,1.1,0.5,1.4,0.5c0.3,0,1,0,1,0l82,0.3l-0.4,5.2L71.5,164z"></path></g>
    <g class="st-elem-detail g-elem__149" data-id="g-elem__149" data-el-name="" data-wrap=".defect-list-nav-car"><path class="st--elem" d="M161.1,123.9l-4.3,2.4c0,0,1.2,1,1.5,1.4c0.4,0.4,1.1,1.1,1.4,1.5c0.3,0.4,1,1.4,1.3,1.9   c0.3,0.5,0.9,1.6,1.2,2.2c0.2,0.6,0.6,1.7,0.8,2.3c0.1,0.5,0.4,1.4,0.4,1.8c0.1,0.4,0.1,1.2,0.1,1.6c0,0.6,0,1.7-0.1,2.2   c0,0.6-0.1,1.9-0.2,2.5c-0.1,1-0.3,2.9-0.4,3.9c-0.1,0.8-0.4,2.4-0.5,3.2c-0.2,1.1-0.6,3.4-0.7,4.5c-0.1,0.8-0.6,3.4-0.6,3.4l3.9,0   c0,0,0.6-3.8,0.8-5c0.2-1,0.7-3,1.1-4c0.5-1.3,1.6-3.8,2.4-4.9c0.7-1,2.5-2.7,3.4-3.5c0.8-0.7,2.7-1.7,3.7-2.1   c1.1-0.5,3.5-1.2,4.7-1.4c1.2-0.2,3.5-0.1,4.7,0c1.1,0.1,3.3,0.4,4.3,0.7c1.1,0.3,3.2,1.3,4.2,2c0.4,0.3,1.6,1.4,1.6,1.4l10.6,0.2   l0.9-1.1c0,0-1.6-1.3-2.1-1.7c-0.9-0.8-2.2-2.2-3.3-3.2c-0.8-0.8,1.6-0.9,1.6-0.9l6.4,0l0.7,0c0,0-3.4-1.4-4.5-1.7   c-3.9-1.2-11.8-3.1-15.8-3.9c-2.4-0.5-7.2-1.4-9.6-1.7c-2.1-0.3-6.4-0.8-8.5-1.1c-1.5-0.2-4.5-0.5-5.9-0.9   C164.9,125.7,161.1,123.9,161.1,123.9z"></path></g>
    <g class="st-elem-detail g-elem__150" data-id="g-elem__150" data-el-name="" data-wrap=".defect-list-nav-car"><path class="st--elem" d="M222.4,138.9h-3.8c0,0,3.3,2.4,4.3,3.3c0.5,0.4,1.7,1.2,1.6,1.8c0,0.1-0.4,0.3-0.4,0.3s-2.1-0.2-2.9-0.2   c-2.5-0.2-7.4-0.7-9.8-1c-0.4-0.1-1.3-0.2-1.8-0.4c-0.6-0.3-2.3-1.5-2.3-1.5l-0.9,1.1l-10.6-0.2c0,0,1.9,1.6,2.5,2.3   c0.5,0.6,1.5,2,1.9,2.7c0.5,0.8,1.3,2.6,1.6,3.5c0.3,0.9,0.5,2.8,0.6,3.7c0.1,1.1,0.5,3.9,0,6.5c-0.1,0.7-0.5,2.9-0.5,2.9h5.7   c0,0,1.6-1.4,2.3-1.4c3.3,0,10.3-0.5,13.3-1.1c0.7-0.2,2.1-0.8,2.7-1.1c0.4-0.1,2.3-1.9,2.6-2.3c0.7-1.3,1.8-2.6,2.5-5.5   c0.3-1.1,0-4.4,0-4.4s-3.1-2.6-4-3.5C225.9,143.1,222.4,138.9,222.4,138.9z"></path></g>
    <g class="st-elem-detail g-elem__151" data-id="g-elem__151" data-el-name="" data-wrap=".defect-list-nav-car"><path class="st--elem" d="M217.2,137.8c-0.5-0.3-1.5-0.8-2-1c-1-0.3-3.3-1.1-4.3-1.2c-1-0.1-3-0.2-4-0.2c-1,0-3-0.1-4,0.1   c-0.2,0-0.7,0.1-0.8,0.3c-0.1,0.1,0,0.4,0,0.5c0.3,0.6,1.4,1.4,1.9,1.9c1,0.9,3.1,2.7,4.2,3.5c0.4,0.3,1.2,0.8,1.6,1   c0.3,0.1,1.2,0.3,1.2,0.3l12.6,1.3c0,0,0.9,0,1-0.3c0.1-0.2-0.2-0.5-0.3-0.7c-0.7-0.9-3.6-3-3.6-3S218.2,138.5,217.2,137.8z"></path></g>
    <g class="st-elem-detail g-elem__152" data-id="g-elem__152" data-el-name="" data-wrap=".defect-list-nav-car"><path class="st--elem" d="M168.6,126.3c0,0,1.5-0.2,2.1-0.4c0.2-0.1,1-0.5,1-0.5l-0.4-0.3c0,0,3.5,0,4.7,0c2.2,0.1,6.7,0.6,8.9,0.9   c5.2,0.7,15.4,2.7,20.5,3.8c2.4,0.5,7.2,1.7,9.5,2.4c1.3,0.4,3.9,1.3,5.1,1.9c0.9,0.4,2.5,1.5,3.3,2c0.5,0.3,1.6,1,2,1.5   c0.1,0.1,0.5,0.5,0.5,0.7c0,0.2-0.2,0.6-0.2,0.6h-3.2h-3.8c0,0-1.5-1-2-1.3c-0.8-0.4-2.4-1-3.2-1.3c-0.6-0.2-2.5-0.7-2.5-0.7l0,0   c0,0-3.8-1.6-4.9-1.9c-1.4-0.5-3.9-1.1-5.3-1.5c-1.6-0.4-4.8-1.2-6.4-1.5c-1.9-0.4-5.6-1.2-7.5-1.6c-0.8-0.2-2.4-0.4-3.2-0.6   c-1.8-0.3-5.3-0.8-7.1-1c-1.6-0.2-4.9-0.5-6.4-0.8C169.8,126.6,168.6,126.3,168.6,126.3z"></path></g>
    <g class="st-elem-detail g-elem__153" data-id="g-elem__153" data-el-name="" data-wrap=".defect-list-nav-car"><path class="st--elem" d="M161.1,123.9c-3.3-1.6-8.8-4.6-13.1-6.8c-6-3.1-18-8.3-18-8.3l3.6-0.7c0,0,10.9,3.8,24.6,10.4   c6,2.9,13,6.6,13,6.6l0.4,0.3c0,0-0.7,0.4-1,0.5c-0.7,0.2-2.1,0.5-2.8,0.5c-0.6,0-1.7-0.3-2.3-0.5   C164.5,125.5,162.2,124.5,161.1,123.9z"></path></g>
    <g class="st-elem-detail g-elem__154" data-id="g-elem__154" data-el-name="" data-wrap=".defect-list-nav-car"><path class="st--elem" d="M13.7,127.6l4.5-4.4l17-1.5c0,0,2.2-0.5,2.9-0.7c1.1-0.3,3.3-1.1,4.4-1.6c1.3-0.6,3.9-1.9,5.3-2.6   c1.4-0.7,4.1-2.2,5.5-2.9c1.2-0.6,3.7-1.9,4.9-2.4c1.1-0.5,3.3-1.6,4.5-2c1.7-0.7,5.3-1.8,7.1-2.3c1.3-0.3,4-0.7,5.4-0.9   c2.3-0.3,6.9-0.8,9.2-0.9c4.9-0.3,14.6-0.2,19.5-0.2c1.4,0,4.2,0.1,5.6,0.2c1.8,0.1,5.4,0.3,7.1,0.5c1.6,0.2,4.8,0.7,6.4,1   c0.9,0.2,2.8,0.6,3.7,0.8c1,0.3,2.8,0.8,3.8,1.2c2.2,0.8,6.4,2.8,8.5,3.8c2.3,1.1,6.8,3.2,9.1,4.3c2.5,1.2,7.3,3.9,9.8,5.1   c0.8,0.4,3.1,1.6,3.1,1.6l-4.1,2.5c0,0-1.7-1.3-2.3-1.8c-1.5-1-4.5-2.8-6.1-3.7c-1.6-0.9-4.9-2.7-6.6-3.6c-1.8-0.9-5.5-2.8-7.4-3.6   c-1.1-0.5-3.3-1.4-4.4-1.8c-1-0.4-3.1-1.2-4.2-1.5c-1.2-0.4-3.6-1-4.9-1.2c-0.8-0.1-2.3-0.3-3.1-0.4c-2.1-0.2-6.4-0.5-8.5-0.5   c-2-0.1-6.2-0.1-8.2-0.1c-2.8,0-8.4,0.2-11.3,0.3c-1.2,0.1-3.7,0.2-4.9,0.4c-1.3,0.1-5.1,0.8-5.1,0.8s-3.8,1-5,1.5   c-0.7,0.2-2.1,0.8-2.8,1.1c-0.9,0.4-2.7,1.3-3.5,1.8c-1.1,0.6-3.3,1.9-4.3,2.6c-0.7,0.5-2.1,1.6-2.8,2.2c-0.4,0.4-1.3,1.3-1.6,1.8   c-0.2,0.4-0.3,1.2-0.3,1.6c0,0.3,0.2,0.8,0.3,1.1c0.1,0.3,0.5,1.2,0.5,1.2s-9-0.3-12-0.3c-5.9,0-17.6,0.2-23.5,0.5   c-1.2,0.1-3.6,0.3-4.8,0.5c-0.6,0.1-1.7,0.3-2.3,0.5c-0.6,0.2-1.8,0.8-2.5,1.1C14.9,127.1,13.7,127.6,13.7,127.6z"></path></g>
    <g class="st-elem-detail g-elem__155" data-id="g-elem__155" data-el-name="" data-wrap=".defect-list-nav-car"><path class="st--elem" d="M37.2,121.2l-5.4-0.8c0,0-8.3,0.7-11.1,0.9c-2.5,0.2-9.9,0.7-9.9,0.7l-4.1,6.9h2.1l-1.9,10.1l0.8-0.4   c0.3-0.6,0.6-1.8,0.8-2.4c0.3-0.8,1.1-2.4,1.5-3.2c0.4-0.7,1.2-2.2,1.7-2.9c0.6-0.8,1.9-2.1,2.6-2.8c1-1,3.7-3.8,4.1-4   c0.6-0.4,12.4-0.9,16.5-1.5C36.5,121.6,37.2,121.2,37.2,121.2z"></path></g>
    <g class="st-elem-detail g-elem__156" data-id="g-elem__156" data-el-name="" data-wrap=".defect-list-nav-car"><path class="st--elem" d="M18.2,123.3c0,0-1.9,0-4.1-0.5c-2.2-0.5-3.3-0.9-3.3-0.9"></path></g>
    <g class="st-elem-detail g-elem__157" data-id="g-elem__157" data-el-name="" data-wrap=".defect-list-nav-car"><path class="st--elem" d="M63.9,109l-3.3-1.2c0,0-9.5,3.7-12.7,5c-4,1.7-16,7.4-16,7.4l5.2,0.8c0,0,1.8-0.4,2.3-0.6   c1.8-0.6,5.3-2.3,7.1-3.1c1.6-0.8,4.6-2.4,6.1-3.2c1.4-0.7,4.1-2.1,5.5-2.7C59.6,110.9,63.9,109,63.9,109z"></path></g>
    <g class="st-elem-detail g-elem__158" data-id="g-elem__158" data-el-name="" data-wrap=".defect-list-nav-car"><path class="st--elem" d="M133.3,108c0,0-5-1.4-6.6-1.7c-2.5-0.6-7.1-1.5-9.7-1.8c-3.4-0.4-10.8-0.5-14.2-0.5c-5.1-0.1-15.2,0.1-20.3,0.4   c-2.7,0.2-7.9,0.6-10.5,1c-2.9,0.5-11.3,2.5-11.3,2.5l3,1.3c0,0,3.5-1.2,4.6-1.5c1.7-0.4,5.3-1,7-1.3c2.5-0.4,7.2-0.8,9.8-0.9   c4.4-0.2,13.5-0.3,17.9-0.2c2.4,0.1,7.3,0.2,9.7,0.4c1.5,0.1,4.4,0.4,5.9,0.6c1.2,0.2,3.7,0.6,5,0.8c0.8,0.2,2.5,0.5,3.3,0.8   c0.8,0.2,3.1,1,3.1,1L133.3,108z"></path></g>
    <g class="st-elem-detail g-elem__159" data-id="g-elem__159" data-el-name="" data-wrap=".defect-list-nav-car"><path class="st--elem" d="M15.2,158.5l-5.6,0.3c0,0-1.9-0.1-3-1.4c-2.1-2.4-1.2-4.6-0.3-4.6c0.6,0,1,0.3,1.3,0.5c0.4,0.3,1.3,1.1,1.7,1.5   c0.6,0.5,2.1,2.2,2.1,2.2l1.3,0.2l0.4,1.2L15.2,158.5z"></path></g>
    <g class="st-elem-detail g-elem__160" data-id="g-elem__160" data-el-name="" data-wrap=".defect-list-nav-car"><path class="st--elem" d="M7.1,153c0,0,2.7,1.2,2.9,3.9c0.1,1.1-0.9,1.7-0.9,1.7"></path></g>
    <g class="st-elem-detail g-elem__161" data-id="g-elem__161" data-el-name="" data-wrap=".defect-list-nav-car"><path class="st--elem" d="M231.1,147.9c0,0-0.4-2.3-1.8-4.8c-1.4-2.6-3.5-4.8-3.5-4.8l0,0.6h-3.4l4.7,5.5l4,3.7V147.9z"></path></g>
    <g class="st-elem-detail g-elem__162" data-id="g-elem__162" data-el-name="" data-wrap=".defect-list-nav-car"><path class="st--elem" d="M72,155.2c0,0-1.5-5.6-2.5-7.3c-0.9-1.6-3.1-4.5-4.5-5.6c-1.6-1.3-5.5-2.9-7.5-3.3c-2.1-0.4-6.5-0.4-8.7,0   c-1.6,0.3-6,2.5-6,2.5L20,141.1l-4.5-4.2c0,0,2.7-0.8,3.6-1.3c1.8-0.9,5.9-4.3,6.7-5.2c0.2-0.3,0.2-1.1-0.1-1.3   c-1.3-1.2-4.6-1.3-6.3-1.5c-1.8-0.2-4.8-0.3-4.8-0.3s2.3-1.1,3-1.4c1.7-0.6,5.1-0.9,6.9-1c3.1-0.2,9.2-0.5,12.3-0.5   c5.9-0.1,23.8,0.2,23.8,0.2s1.8,4,2.4,5.3c1.3,2.6,4.1,7.8,5.5,10.4c1.3,2.3,4,6.9,5.4,9.2c0.9,1.5,3.7,5.8,3.7,5.8H72z"></path></g>
  <path class="st2 st--3 " d="M60.8,53.7c0,0.7,0,2.2-0.6,3.9c-1,3-3,4.8-3.8,5.5c-0.8,0.7-3.9,3.3-8.6,3.4c-5.8,0-9.3-3.8-9.9-4.4c-0.7-0.8-3.8-4.5-3.4-9.9c0.1-0.6,0.6-5.9,5.2-9.4c0.6-0.4,3.2-2.3,7.1-2.6c1-0.1,4.2-0.2,7.4,1.7c0.3,0.2,1.8,1.1,3.2,2.8c0.5,0.6,1.8,2.2,2.7,4.8C60.8,51.4,60.8,53,60.8,53.7z"></path>
    <path class="st2 st--4" d="M191.2,53.8c0,0.7,0,2.2-0.6,3.9c-1,3-3,4.8-3.8,5.5c-0.8,0.7-3.9,3.3-8.6,3.4c-5.8,0-9.3-3.8-9.9-4.4c-0.7-0.8-3.8-4.5-3.4-9.9c0.1-0.6,0.6-5.9,5.2-9.4c0.6-0.4,3.2-2.3,7.1-2.6c1-0.1,4.2-0.2,7.4,1.7c0.3,0.2,1.8,1.1,3.2,2.8c0.5,0.6,1.8,2.2,2.7,4.8C191.1,51.4,191.2,53.1,191.2,53.8z"></path>
</svg>