<svg version="1.1" xmlns="http://www.w3.org/2000/svg" xmlns:xlink="http://www.w3.org/1999/xlink" x="0px" y="0px" viewBox="0 0 226.22 186.51" style="enable-background:new 0 0 86 196.7;" xml:space="preserve">
<title>suv_left_right</title>
<g class="st-elem-detail"><path class="st--elem" d="M153.31,24.11h59.2L206,5.91s-.8-2.4-1.8-2.4-52.8-1.2-52.8-1.2h-38.8s-16.9-.2-26.5,4c-11,4.9-25.1,17-25.1,17l3.7-.1,3.1-3.1c8.6-7,12.3-9.5,18.5-12.7,8-4.2,26.2-3.9,26.2-3.9h39Z"/></g>
<g class="st-elem-detail"><path class="st--elem" d="M67,60.51h46.1s-2.1-8.6-2-12.4c.1-2.8.7-24,.7-24l.5-20.6s-12.7.4-16.9,1.1a33.72,33.72,0,0,0-9.2,2.9c-8.3,4.2-18.1,12-21.4,15.5a9.35,9.35,0,0,0-1.2,2.9,22.53,22.53,0,0,0,0,2.6c.2,3.6.1,11,.4,14.6a80.77,80.77,0,0,0,.9,8.6C65.31,53.91,67,60.51,67,60.51Z"/></g>
<g class="st-elem-detail"><polygon class="st--elem" points="99.51 31.41 101.11 33.01 104.51 33.01 105.81 31.41 99.51 31.41"/></g>
<g class="st-elem-detail"><path class="st--elem" d="M98.31,31.41h10.2c.5,0,.4-.3.3-.5a1,1,0,0,0-.8-.6,27,27,0,0,0-6.4-.3,7.39,7.39,0,0,0-3.3.5c-.2.1-.5.3-.4.6S98.31,31.41,98.31,31.41Z"/></g>
<g class="st-elem-detail"><path class="st--elem" d="M107.51,24.11,108.91,6s-8.8-.4-15,1a32.23,32.23,0,0,0-9.3,3.3c-2.1,1.1-7.7,5.3-7.7,5.3l-.5,9.1Z"/></g>
<g class="st-elem-detail"><path class="st--elem" d="M67.51,24.11c.3-.7,9.3-8.5,9.3-8.5l-.5,9.1h-7.1C68.11,24.81,67.21,24.91,67.51,24.11Z"/></g>
<g class="st-elem-detail"><path class="st--elem" d="M111.91,24.11l.5-20.6h39l1.9,20.6v35.8l-40.1.5s-2-8-2-12.4S111.91,24.11,111.91,24.11Z"/></g>
<g class="st-elem-detail"><polygon class="st--elem" points="115.81 24.11 115.81 6.11 140.91 5.71 140.91 23.71 115.81 24.11"/></g>
<g class="st-elem-detail"><rect class="st--elem" x="142.31" y="5.71" width="5.6" height="17.8"/></g>
<g class="st-elem-detail"><path class="st--elem" d="M70.31,21.91l1.8-1s.7-1.9.9-2.7c.1-.6.9-.8,1.3-.8a34.53,34.53,0,0,1,4.2.2s1.1.1,1.2,1.1c.2,1.8.2,3.5-.5,4-.5.3-6.2,1.6-7.4,1.9a1.39,1.39,0,0,1-1.6-.7v-2Z"/></g>
<g class="st-elem-detail"><polygon class="st--elem" points="141.31 31.41 142.91 33.01 146.31 33.01 147.61 31.41 141.31 31.41"/></g>
<g class="st-elem-detail"><path class="st--elem" d="M140,31.41h10.2c.5,0,.4-.3.3-.5a1,1,0,0,0-.8-.6,27,27,0,0,0-6.4-.3,7.39,7.39,0,0,0-3.3.5c-.2.1-.5.3-.4.6S140,31.41,140,31.41Z"/></g>
<g class="st-elem-detail"><path class="st--elem" d="M167,21.81h35.8A1.28,1.28,0,0,0,204,20l-3.1-11c-.6-1.8-1.3-3.1-3.3-3.1l-39.1-.7a1.21,1.21,0,0,0-1,1.9l6.3,13A4,4,0,0,0,167,21.81Z"/></g>
<g class="st-elem-detail"><path class="st--elem" d="M153.31,60h1.3s1.2-7.5,1.5-9.2a18.14,18.14,0,0,1,2-5.8c1.3-2.5,3.9-7.9,16-8.2a77.62,77.62,0,0,1,9.6.1c8,.4,10.8,4.8,10.8,4.8l24.3-.6V28.51a10.63,10.63,0,0,0-1-4.2h-64.6V60Z"/></g>
<g class="st-elem-detail"><polygon class="st--elem" points="205.91 6.01 213.81 6.01 220.31 24.11 212.51 24.11 205.91 6.01"/></g>
<g class="st-elem-detail"><polygon class="st--elem" points="211.61 8.31 214.61 8.31 219.31 21.81 216.61 21.81 211.61 8.31"/></g>
<g class="st-elem-detail"><path class="st--elem" d="M217.31,6.91h-3.1l-.3-.9H206l-1.8-2.4L202,1.91s7.2.6,9.6.9c1.2.2,3.6.6,4.6,1.6A21.54,21.54,0,0,1,217.31,6.91Z"/></g>
<g class="st-elem-detail"><path class="st--elem" d="M199.31,58.31l25.3-1.4,1.1-5.2-.8-3.4h-2.8l-.3-4.3-3-3-24.3.6a16.84,16.84,0,0,1,3.3,7.2C198.61,52.51,199.31,58.31,199.31,58.31Z"/></g>
<g class="st-elem-detail"><path class="st--elem" d="M220.31,24.11l.8,1.9.7,17.9-3-3V28.31a12.76,12.76,0,0,0-1-4.2Z"/></g>
<g class="st-elem-detail"><path class="st--elem" d="M154.21,64.31s1.4-11.6,2.2-14.8c1-4,3.1-8.7,8.4-11.2,3-1.4,6.9-1.7,12.2-1.7,3.2,0,10.2.2,13.1,1.7,6.2,3.3,6.9,7.7,7.6,10.2,1,3.7,2.5,13.6,2.5,13.6l-2.8.1-2-13s-2.1-10.6-18.4-10.6-18.1,10.6-18.1,10.6l-2.2,14.9Z"/></g>
<g class="st-elem-detail"><path class="st--elem" d="M156.71,64.21l2.2-14.9s1.7-10.6,18.1-10.6,18.4,10.6,18.4,10.6l2,13Z"/></g>
<g class="st-elem-detail"><path class="st--elem" d="M200.11,62.11s18.7-1.4,20.7-1.6,2.8-3.5,2.8-3.5l-24,1.3Z"/></g>
<g class="st-elem-detail"><path class="st--elem" d="M19.11,61.81c.5-3.6,1.4-10,1.9-12.3,1-4,3.1-8.7,8.4-11.2,3-1.4,6.9-1.7,12.2-1.7,3.2,0,10.8.2,13.7,1.8,5.9,3.3,6.3,7.6,7,10,1,3.7,2.2,12.1,2.2,12.1h-2.8L60,49.31s-.6-10.6-18.4-10.6c-16.3,0-18.1,10.6-18.1,10.6l-1.9,12.6Z"/></g>
<g class="st-elem-detail"><path class="st--elem" d="M21.61,67.61v-5.8l1.9-12.6s1.7-10.4,18.1-10.6c17.8-.3,18.4,10.6,18.4,10.6l2,13,.3,2.9Z"/></g>
<g class="st-elem-detail"><polygon class="st--elem" points="21.61 67.61 4.91 67.91 4.61 66.21 3.81 66.31 4.21 64.01 2.51 61.81 19.11 61.81 21.61 61.81 21.61 67.61"/></g>
<g class="st-elem-detail"><polygon class="st--elem" points="154.21 64.31 154.61 60.01 67.01 60.51 65.71 55.31 63.61 55.31 64.41 60.51 61.71 60.51 62.21 65.11 154.21 64.31"/></g>
<g class="st-elem-detail"><path class="st--elem" d="M63.71,25.91l-36.4,2.4-1.1,1.1a23.22,23.22,0,0,0-4.4,1,7.45,7.45,0,0,0-3.4,2.8c-1,2-2.1,8.7-2.1,8.7l8.5-.2a10.56,10.56,0,0,1,4.6-3.4c2.6-1.2,7.4-1.8,13.1-1.7,5.5.1,9.2.2,12.2,1.7a12.51,12.51,0,0,1,7,8.1l2,9h2.1l-1.3-6.1Z"/></g>
<g class="st-elem-detail"><path class="st--elem" d="M2.51,55.71l1.1-1.6c1.7-1.6,3.9-1.9,6.2-1.9h0a1.69,1.69,0,0,1,1.7,1.7v4.5A2.65,2.65,0,0,1,8.91,61H4.31a1.19,1.19,0,0,1-1.2-1Z"/></g>
<g class="st-elem-detail"><path class="st--elem" d="M2.51,61.81a43.61,43.61,0,0,1-1.9-6,47.06,47.06,0,0,1,0-5.4l7.9-8.2,7.8-.4,8.5-.2a14.41,14.41,0,0,0-3.8,7.7c-.9,4.4-1.9,12.3-1.9,12.3Z"/></g>
<g class="st-elem-detail"><path class="st--elem" d="M61,23.31l-8.1.8v-.8l-2.4-1.1-40.3,5.5a4.92,4.92,0,0,0-1.7.6l-3.1,2a1.72,1.72,0,0,0-.8,1.4h0L3.71,46l-1.1,1.1v1.3l6-6.2s.4-6.6.8-8.7a4.15,4.15,0,0,1,1.1-2.2,8.22,8.22,0,0,1,3.7-1.5l13.2-1.6,36.4-2.4.9-2.6Z"/></g>
<g class="st-elem-detail"><path class="st--elem" d="M27.31,28.21l-1.1,1.1a30.81,30.81,0,0,0-4.5,1.2,12.35,12.35,0,0,0-2.7,1.7c-.2.2-.5.7-.7.9a8.08,8.08,0,0,0-.7,2.2c-.4,1.6-1.3,6.5-1.3,6.5l-7.8.4.6-7.4.3-1.7a3.66,3.66,0,0,1,1.1-1.8,7.74,7.74,0,0,1,3.7-1.5Z"/></g>
<g class="st-elem-detail"><path class="st--elem" d="M204.11,3.51s-39.6-1-52.8-1.2c-11-.2-35.9.2-42.5.1-3.4-.1-7.4.3-15.1,1.6a29.24,29.24,0,0,0-8.5,2.7l-2.9-1s7.2-4.5,26.6-4.7c12.4-.1,31.7-.6,42.3-.5,12.7.1,50.8,1.3,50.8,1.3Z"/></g>
<g class="st-elem-detail"><path class="st--elem" d="M54.31,24l6.6-.7s5.9-5,11.6-8.9,12.7-7.7,12.7-7.7l-2.9-1a120.85,120.85,0,0,0-14.8,8.6C61,18.91,54.31,24,54.31,24Z"/></g>
<g class="st-elem-detail"><circle class="st--elem" cx="41.61" cy="61.01" r="17.3"/></g>
<g class="st-elem-detail"><circle class="st--elem" cx="41.61" cy="61.01" r="10.7"/></g>
<g class="st-elem-detail"><line class="st--elem" x1="34.11" y1="53.41" x2="49.21" y2="68.61"/></g>
<g class="st-elem-detail"><line class="st--elem" x1="34.11" y1="68.61" x2="49.21" y2="53.41"/></g>
<g class="st-elem-detail"><line class="st--elem" x1="41.61" y1="50.31" x2="41.61" y2="71.71"/></g>
<g class="st-elem-detail"><line class="st--elem" x1="31.01" y1="61.01" x2="52.31" y2="61.01"/></g>
<g class="st-elem-detail"><circle class="st--elem" cx="41.61" cy="61.01" r="3.5"/></g>
<g class="st-elem-detail"><circle class="st--elem" cx="177.01" cy="61.01" r="17.3"/></g>
<g class="st-elem-detail"><circle class="st--elem" cx="177.01" cy="61.01" r="10.7"/></g>
<g class="st-elem-detail"><line class="st--elem" x1="169.51" y1="53.41" x2="184.61" y2="68.61"/></g>
<g class="st-elem-detail"><line class="st--elem" x1="169.51" y1="68.61" x2="184.61" y2="53.41"/></g>
<g class="st-elem-detail"><line class="st--elem" x1="177.01" y1="50.31" x2="177.01" y2="71.71"/></g>
<g class="st-elem-detail"><line class="st--elem" x1="166.31" y1="61.01" x2="187.71" y2="61.01"/></g>
<g class="st-elem-detail"><circle class="st--elem" cx="177.01" cy="61.01" r="3.5"/></g>
<g class="st-elem-detail"><path class="st--elem" d="M72.91,131.81H13.71l6.5-18.2s.8-2.4,1.8-2.4,52.8-1.2,52.8-1.2h38.8s16.9-.2,26.5,4c11,4.9,25.1,17,25.1,17l-3.7-.1-3.1-3.1c-8.6-7-12.3-9.5-18.5-12.7-8-4.2-26.2-3.9-26.2-3.9h-39Z"/></g>
<g class="st-elem-detail"><path class="st--elem" d="M159.21,168.21h-46.1s2.1-8.6,2-12.4c-.1-2.8-.7-24-.7-24l-.5-20.6s12.7.4,16.9,1.1a33.72,33.72,0,0,1,9.2,2.9c8.3,4.2,18.1,12,21.4,15.5a9.35,9.35,0,0,1,1.2,2.9,22.53,22.53,0,0,1,0,2.6c-.2,3.6-.1,11-.4,14.6a80.77,80.77,0,0,1-.9,8.6C160.91,161.61,159.21,168.21,159.21,168.21Z"/></g>
<g class="st-elem-detail"><polygon class="st--elem" points="126.71 139.11 125.11 140.71 121.71 140.71 120.41 139.11 126.71 139.11"/></g>
<g class="st-elem-detail"><path class="st--elem" d="M127.91,139.11h-10.1c-.5,0-.4-.3-.3-.5a1,1,0,0,1,.8-.6,27,27,0,0,1,6.4-.3,7.39,7.39,0,0,1,3.3.5c.2.1.5.3.4.6S127.91,139.11,127.91,139.11Z"/></g>
<g class="st-elem-detail"><path class="st--elem" d="M118.71,131.81l-1.4-18.1s8.8-.4,15,1a32.23,32.23,0,0,1,9.3,3.3c2.1,1.1,7.7,5.3,7.7,5.3l.5,9.1Z"/></g>
<g class="st-elem-detail"><path class="st--elem" d="M158.71,131.81c-.3-.7-9.3-8.5-9.3-8.5l.5,9.1H157C158.11,132.41,159,132.51,158.71,131.81Z"/></g>
<g class="st-elem-detail"><path class="st--elem" d="M114.31,131.81l-.5-20.6h-39l-1.9,20.6v35.9l40.1.5s2-8,2-12.4S114.31,131.81,114.31,131.81Z"/></g>
<g class="st-elem-detail"><polygon class="st--elem" points="110.41 131.81 110.41 113.81 85.31 113.41 85.31 131.41 110.41 131.81"/></g>
<g class="st-elem-detail"><rect class="st--elem" x="78.31" y="113.41" width="5.6" height="17.8"/></g>
<g class="st-elem-detail"><path class="st--elem" d="M155.91,129.61l-1.8-1s-.7-1.9-.9-2.7c-.1-.6-.9-.8-1.3-.8a34.53,34.53,0,0,0-4.2.2s-1.1.1-1.2,1.1c-.2,1.8-.2,3.5.5,4,.5.3,6.2,1.6,7.4,1.9a1.39,1.39,0,0,0,1.6-.7v-2h-.1Z"/></g>
<g class="st-elem-detail"><polygon class="st--elem" points="84.91 139.11 83.31 140.71 79.91 140.71 78.61 139.11 84.91 139.11"/></g>
<g class="st-elem-detail"><path class="st--elem" d="M86.21,139.11H76c-.5,0-.4-.3-.3-.5a1,1,0,0,1,.8-.6,27,27,0,0,1,6.4-.3,7.39,7.39,0,0,1,3.3.5c.2.1.5.3.4.6S86.21,139.11,86.21,139.11Z"/></g>
<g class="st-elem-detail"><path class="st--elem" d="M59.21,129.51H23.41a1.28,1.28,0,0,1-1.2-1.8l3.1-11c.6-1.8,1.3-3.1,3.3-3.1l39.1-.7a1.21,1.21,0,0,1,1,1.9l-6.3,13A4,4,0,0,1,59.21,129.51Z"/></g>
<g class="st-elem-detail"><path class="st--elem" d="M72.91,167.71h-1.3s-1.2-7.5-1.5-9.2a18.14,18.14,0,0,0-2-5.8c-1.3-2.5-3.9-7.9-16-8.2a77.62,77.62,0,0,0-9.6.1c-8,.4-10.8,4.8-10.8,4.8l-24.3-.7v-12.6a10.63,10.63,0,0,1,1-4.2H73v35.8h-.1Z"/></g>
<g class="st-elem-detail"><polygon class="st--elem" points="20.31 113.61 12.41 113.61 5.91 131.81 13.71 131.81 20.31 113.61"/></g>
<g class="st-elem-detail"><polygon class="st--elem" points="14.61 116.01 11.61 116.01 6.91 129.51 9.61 129.51 14.61 116.01"/></g>
<g class="st-elem-detail"><path class="st--elem" d="M8.91,114.61H12l.3-.9h7.9l1.8-2.4,2.2-1.7s-7.2.6-9.6.9c-1.2.2-3.6.6-4.6,1.6A21.54,21.54,0,0,0,8.91,114.61Z"/></g>
<g class="st-elem-detail"><path class="st--elem" d="M26.91,166l-25.3-1.4-1.1-5.2.8-3.4h2.8l.3-4.3,3-3,24.3.6a16.84,16.84,0,0,0-3.3,7.2C27.61,160.21,26.91,166,26.91,166Z"/></g>
<g class="st-elem-detail"><path class="st--elem" d="M5.91,131.81l-.8,1.9-.7,18,3-3v-12.6a12.76,12.76,0,0,1,1-4.2l-2.5-.1Z"/></g>
<g class="st-elem-detail"><path class="st--elem" d="M72.11,172s-1.4-11.6-2.2-14.8c-1-4-3.1-8.7-8.4-11.2-3-1.4-6.9-1.7-12.2-1.7-3.2,0-10.2.2-13.1,1.7-6.2,3.3-6.9,7.7-7.6,10.2-1,3.7-2.5,13.6-2.5,13.6l2.8.1,2-13s2.1-10.6,18.4-10.6,18.1,10.6,18.1,10.6l2.2,14.9Z"/></g>
<g class="st-elem-detail"><path class="st--elem" d="M69.51,171.81l-2.2-14.9s-1.7-10.6-18.1-10.6-18.4,10.6-18.4,10.6l-2,13Z"/></g>
<g class="st-elem-detail"><path class="st--elem" d="M26.11,169.81s-18.7-1.4-20.7-1.6-2.8-3.5-2.8-3.5l24,1.3Z"/></g>
<g class="st-elem-detail"><path class="st--elem" d="M207.21,169.51c-.5-3.6-1.4-10-1.9-12.3-1-4-3.1-8.7-8.4-11.2-3-1.4-6.9-1.7-12.2-1.7-3.2,0-10.8.2-13.7,1.8-5.9,3.3-6.3,7.6-7,10-1,3.7-2.2,12.1-2.2,12.1h2.8l1.7-11.2s.6-10.6,18.4-10.6c16.3,0,18.1,10.6,18.1,10.6l1.9,12.6Z"/></g>
<g class="st-elem-detail"><path class="st--elem" d="M204.61,175.31v-5.8l-1.9-12.6s-1.7-10.4-18.1-10.6c-17.8-.3-18.4,10.6-18.4,10.6l-2,13-.3,2.9Z"/></g>
<g class="st-elem-detail"><polygon class="st--elem" points="204.61 175.31 221.31 175.61 221.61 173.91 222.41 174.01 222.01 171.71 223.71 169.51 207.21 169.51 204.61 169.51 204.61 175.31"/></g>
<g class="st-elem-detail"><polygon class="st--elem" points="72.11 172.01 71.61 167.71 159.21 168.21 160.51 163.01 162.61 163.01 161.81 168.21 164.61 168.21 164.01 172.81 72.11 172.01"/></g>
<g class="st-elem-detail"><path class="st--elem" d="M162.51,133.51l36.4,2.4L200,137a23.22,23.22,0,0,1,4.4,1,7.45,7.45,0,0,1,3.4,2.8c1,2,2.1,8.7,2.1,8.7l-8.5-.2a10.56,10.56,0,0,0-4.6-3.4c-2.6-1.2-7.4-1.8-13.1-1.7-5.5.1-9.2.2-12.2,1.7a12.51,12.51,0,0,0-7,8.1l-2,9h-2.1l1.3-6.1Z"/></g>
<g class="st-elem-detail"><path class="st--elem" d="M223.71,163.41l-1.1-1.6c-1.7-1.6-3.9-1.9-6.2-1.9h0a1.69,1.69,0,0,0-1.7,1.7v4.5a2.65,2.65,0,0,0,2.6,2.6h4.6a1.19,1.19,0,0,0,1.2-1Z"/></g>
<g class="st-elem-detail"><path class="st--elem" d="M223.71,169.51a43.61,43.61,0,0,0,1.9-6,47.06,47.06,0,0,0,0-5.4l-7.9-8.2-7.8-.4-8.5-.2a14.41,14.41,0,0,1,3.8,7.7c.9,4.4,1.9,12.3,1.9,12.3Z"/></g>
<g class="st-elem-detail"><path class="st--elem" d="M165.21,131l8.1.8V131l2.4-1.1,40.3,5.4a4.92,4.92,0,0,1,1.7.6l3.1,2a1.72,1.72,0,0,1,.8,1.4h0l.9,14.3,1.1,1.1V156l-6-6.2s-.4-6.6-.8-8.7a4.15,4.15,0,0,0-1.1-2.2,8.22,8.22,0,0,0-3.7-1.5l-13.2-1.6-36.4-2.4-.9-2.6Z"/></g>
<g class="st-elem-detail"><path class="st--elem" d="M198.91,135.91,200,137a30.81,30.81,0,0,1,4.5,1.2,12.35,12.35,0,0,1,2.7,1.7c.2.2.5.7.7.9a8.08,8.08,0,0,1,.7,2.2c.4,1.6,1.3,6.5,1.3,6.5l7.8.4-.6-7.4-.3-1.7a3.66,3.66,0,0,0-1.1-1.8,7.74,7.74,0,0,0-3.7-1.5Z"/></g>
<g class="st-elem-detail"><path class="st--elem" d="M22.11,111.21s39.6-1,52.8-1.2c11-.2,35.9.2,42.5.1,3.4-.1,7.4.3,15.1,1.6a29.24,29.24,0,0,1,8.5,2.7l2.9-1s-7.2-4.5-26.6-4.7c-12.4-.1-31.7-.6-42.3-.5-12.7.1-50.8,1.3-50.8,1.3Z"/></g>
<g class="st-elem-detail"><path class="st--elem" d="M171.91,131.71l-6.6-.7s-5.9-5-11.6-8.9a138.69,138.69,0,0,0-12.7-7.7l2.9-1a120.85,120.85,0,0,1,14.8,8.6C165.21,126.61,171.91,131.71,171.91,131.71Z"/></g>
<g class="st-elem-detail"><circle class="st--elem" cx="184.61" cy="168.71" r="17.3"/></g>
<g class="st-elem-detail"><circle class="st--elem" cx="184.61" cy="168.71" r="10.7"/></g>
<g class="st-elem-detail"><line class="st--elem" x1="192.11" y1="161.11" x2="177.01" y2="176.21"/></g>
<g class="st-elem-detail"><line class="st--elem" x1="192.11" y1="176.21" x2="177.01" y2="161.11"/></g>
<g class="st-elem-detail"><line class="st--elem" x1="184.61" y1="158.01" x2="184.61" y2="179.41"/></g>
<g class="st-elem-detail"><line class="st--elem" x1="195.31" y1="168.71" x2="173.91" y2="168.71"/></g>
<g class="st-elem-detail"><circle class="st--elem" cx="184.61" cy="168.61" r="3.5"/></g>
<g class="st-elem-detail"><circle class="st--elem" cx="49.21" cy="168.71" r="17.3"/></g>
<g class="st-elem-detail"><circle class="st--elem" cx="49.21" cy="168.71" r="10.7"/></g>
<g class="st-elem-detail"><line class="st--elem" x1="56.81" y1="161.11" x2="41.61" y2="176.21"/></g>
<g class="st-elem-detail"><line class="st--elem" x1="56.81" y1="176.21" x2="41.61" y2="161.11"/></g>
<g class="st-elem-detail"><line class="st--elem" x1="49.21" y1="158.01" x2="49.21" y2="179.41"/></g>
<g class="st-elem-detail"><line class="st--elem" x1="59.91" y1="168.71" x2="38.51" y2="168.71"/></g>
<g class="st-elem-detail"><circle class="st--elem" cx="49.21" cy="168.61" r="3.5"/></g>
<g class="st-elem-detail"><path class="st--elem" d="M18.21,141.81h-6.6a.9.9,0,0,1-.9-.9V137a.9.9,0,0,1,.9-.9h6.6a.9.9,0,0,1,.9.9v3.9A.9.9,0,0,1,18.21,141.81Z"/></g>
</svg>