<svg version="1.1" xmlns="http://www.w3.org/2000/svg" xmlns:xlink="http://www.w3.org/1999/xlink" x="0px" y="0px" viewBox="0 0 90.31 212.4" style="enable-background:new 0 0 90.31 212.4;" xml:space="preserve"><title>suv_up</title>
<g class="st-elem-detail"><path class="st--elem" d="M83.71,108.4l.1-39.9h-3.2l-7.2,2s-.2,8.3-.4,16.5,0,19.9,0,19.9l7.6.7Z"/></g>
<g class="st-elem-detail"><path class="st--elem" d="M83.81,152.3l-.1-43.9-3.1-.9-7.6-.7v11.3a180.44,180.44,0,0,0,2.5,19.7,96.46,96.46,0,0,0,3.7,14.1,5,5,0,0,0,2.3.8A5.65,5.65,0,0,0,83.81,152.3Z"/></g>
<g class="st-elem-detail"><path class="st--elem" d="M70.21,71l3.8-.5,6.6-1.9h1.1s-.3-9.3-.3-22.8S80,13.2,80,13.2h-1.3l-5.8,6.1-2.3,1.2Z"/></g>
<g class="st-elem-detail"><path class="st--elem" d="M18.71,132.9A175.73,175.73,0,0,0,45,135.3a180.12,180.12,0,0,0,26.5-2.4s-1.7-9.6-1.7-14.6.7-97.8.7-97.8a179.72,179.72,0,0,1-25.2,1.7,189.65,189.65,0,0,1-25.6-1.7s.7,92.1.7,97.5S18.71,132.9,18.71,132.9Z"/></g>
<g class="st-elem-detail"><path class="st--elem" d="M62.11,103.9v20.3a1.75,1.75,0,0,1-1.7,1.7H29.81a1.75,1.75,0,0,1-1.7-1.7V103.9a1.75,1.75,0,0,1,1.7-1.7h30.6A1.69,1.69,0,0,1,62.11,103.9Z"/></g>
<g class="st-elem-detail"><path class="st--elem" d="M72.81,19.3V15.4s-2-6.9-27.8-6.9-27.5,7.1-27.5,7.1v3.7l2.2,1.2s9.2,1.7,25.6,1.7,25.2-1.7,25.2-1.7Z"/></g>
<g class="st-elem-detail"><path class="st--elem" d="M74,9.6s-6.1-3.5-28.8-3.5-29,3.5-29,3.5l2.4,4.6s3.9-5.6,26.5-5.6c22.2,0,26.5,5.3,26.5,5.3Z"/></g>
<g class="st-elem-detail"><path class="st--elem" d="M78.61,13.2l-5.8,6.1V16.2a3.19,3.19,0,0,0-1.3-2.4l3.1-5.5a19.8,19.8,0,0,1,2.3.6,3.1,3.1,0,0,1,1.7,2.9C78.61,13.3,78.61,13.2,78.61,13.2Z"/></g>
<g class="st-elem-detail"><path class="st--elem" d="M74,65.4V25.5a2.52,2.52,0,0,1,.9-2l2.7-2.5a.3.3,0,0,1,.5.2l.3,36.3a3.74,3.74,0,0,1-.5,1.8L74,65.4C74.11,65.5,74,65.5,74,65.4Z"/></g>
<g class="st-elem-detail"><path class="st--elem" d="M83.81,68.6h-2.1s-.2-23.2-.5-30.9c-.1-6.2-1.2-24.5-1.2-24.5l1.3-.4a82.77,82.77,0,0,1,2.9,19.7C84.21,42.1,83.81,68.6,83.81,68.6Z"/></g>
<g class="st-elem-detail"><path class="st--elem" d="M75.11,6.7s4.1.8,4.9,1a1.06,1.06,0,0,1,.7.6,2,2,0,0,1,.4,1.3l.2,3.2s2.2,10.2,2.1,10-.9-11.1-1.5-15.6A2.61,2.61,0,0,0,79.81,5c-1.4-.4-4.2-1.1-4.2-1.1Z"/></g>
<g class="st-elem-detail"><path class="st--elem" d="M74.61,8.4l.5-1.7,4.9,1a2.23,2.23,0,0,1,1.2,1.8c0,1,.2,3.3.2,3.3l-1.4.4h-1.3V11.8A3.42,3.42,0,0,0,77,8.9Z"/></g>
<g class="st-elem-detail"><path class="st--elem" d="M73.51,70.6s-.5,11-.5,41.7c0,23.1,6.2,39.7,6.2,39.7a3.65,3.65,0,0,1-.5,2.3c-.2.4-1.4,1-1.4,1L71.51,133s-1.7-10-1.7-13.8c0-3.2.3-48.1.3-48.1Z"/></g>
<g class="st-elem-detail"><polygon class="st--elem" points="80.31 103.8 73.91 103.5 73.91 80.4 80.31 80.4 80.31 103.8"/></g>
<g class="st-elem-detail"><rect class="st--elem" x="73.91" y="73.8" width="6.4" height="5.2"/></g>
<g class="st-elem-detail"><path class="st--elem" d="M74,110.2l6.2,1.3v29.6l-2.9-.7s-.9-3.5-2-10.1A125.34,125.34,0,0,1,74,115.4Z"/></g>
<g class="st-elem-detail"><path class="st--elem" d="M81.51,145.3v-4.1l8.1-3.9.2,1.6s.2,1.3-1.5,3.2S81.51,145.3,81.51,145.3Z"/></g>
<g class="st-elem-detail"><path class="st--elem" d="M80.31,141.1v7.4c0,.3-.5.3-.8-.5l-2.1-7.6Z"/></g>
<g class="st-elem-detail"><path class="st--elem" d="M79.11,142.6l2.4-.6v3.3l-1.8.9c-.3.2-.5-.3-.5-.7Z"/></g>
<g class="st-elem-detail"><path class="st--elem" d="M81.91,121s1.6-.5,1.6-5.3c0-4.4-1.6-5.3-1.6-5.3v2.7s.7.3.8,2.6c0,2.9-.8,3.3-.8,3.3Z"/></g>
<g class="st-elem-detail"><path class="st--elem" d="M81.91,81.7s1.6-.5,1.6-5.3c0-4.4-1.6-5.3-1.6-5.3v2.7s.7.3.8,2.6c0,2.9-.8,3.3-.8,3.3Z"/></g>
<g class="st-elem-detail"><path class="st--elem" d="M77.41,155.2l-5,7.2s-10.2,3.1-27.2,3.1-26.6-3.2-26.6-3.2l-5.3-7.2,5.3-22.5a138.69,138.69,0,0,0,26.5,2.7,166.29,166.29,0,0,0,26.5-2.4Z"/></g>
<g class="st-elem-detail"><path class="st--elem" d="M83.81,152.3a54.87,54.87,0,0,1,.7,7.4c0,3.2-.4,24.7-.4,28.2,0,2.9-2.1,7-2.8,8.4a3,3,0,0,1-.3.4l1.1-43.9Z"/></g>
<g class="st-elem-detail"><path class="st--elem" d="M76.21,186.7l4-34.2,1.2.3h.7l-1.1,44-.8.8.1-8.6a2.14,2.14,0,0,0-2.1-2.2Z"/></g>
<g class="st-elem-detail"><path class="st--elem" d="M70.91,204.9v-.8l5.3-17.4,2.3.1s2.8.2,2.8,2.2-.2,7.7-.2,7.7-3.5,3.6-4.5,4.4C75.31,202.2,70.91,204.9,70.91,204.9Z"/></g>
<g class="st-elem-detail"><path class="st--elem" d="M83.91,190.3a16.22,16.22,0,0,1-.3,2.7c-.3,1.6-1.8,3.2-2.7,6.1-.9,3.3-4.5,5.7-4.5,5.7a34.23,34.23,0,0,1-21,7c-3,0-6.4.1-10.2.1-7.7,0-14.1-.1-19.2-1.2-6.5-1.4-12.9-5.9-14.9-8.6a28.49,28.49,0,0,1-2.4-5,34.07,34.07,0,0,1-2.1-4.4,8.1,8.1,0,0,1-.3-3.1,5.27,5.27,0,0,0,.2,1.3,21.42,21.42,0,0,0,2.6,5.7c8.7,9.4,13.4,9.2,13.4,9.2s-.7,2.3,5.7,3.6c4.4.8,8.4,1,17,1,9.7-.1,17.3-1.3,18.9-1.8.8-.3,3-.7,3.6-1.7.5-.7.1-1.1.1-1.1l3.1-1a49.89,49.89,0,0,0,6.4-4.4c1.9-1.7,3-2.9,3-2.9l.8-.8A30.53,30.53,0,0,0,83.91,190.3Z"/></g>
<g class="st-elem-detail"><path class="st--elem" d="M45.11,208a153.57,153.57,0,0,1-22.5-2s-1.7,5.1,22.7,4.6c26.1-.5,22.5-4.6,22.5-4.6A158.07,158.07,0,0,1,45.11,208Z"/></g>
<g class="st-elem-detail"><path class="st--elem" d="M6.61,108.4l-.2-39.8h3.2l7.2,2s.2,8.3.4,16.5.1,19.8.1,19.8l-7.6.7Z"/></g>
<g class="st-elem-detail"><path class="st--elem" d="M6.41,152.3l.1-43.9,3.1-.9,7.6-.7v11.3a180.44,180.44,0,0,1-2.5,19.7,90.22,90.22,0,0,1-3.6,14.2,5,5,0,0,1-2.3.8A8,8,0,0,1,6.41,152.3Z"/></g>
<g class="st-elem-detail"><path class="st--elem" d="M20.11,71l-3.8-.5-6.6-1.9H8.61s.3-9.3.3-22.8,1.4-32.6,1.4-32.6h1.3l5.8,6.1,2.3,1.2Z"/></g>
<g class="st-elem-detail"><path class="st--elem" d="M11.71,13.2l5.8,6.1V16.2a3.19,3.19,0,0,1,1.3-2.4l-3.1-5.5a19.8,19.8,0,0,0-2.3.6,3.1,3.1,0,0,0-1.7,2.9C11.71,13.3,11.71,13.2,11.71,13.2Z"/></g>
<g class="st-elem-detail"><path class="st--elem" d="M16.31,65.4V25.5a2.52,2.52,0,0,0-.9-2L12.71,21a.3.3,0,0,0-.5.2l-.3,36.3a3.74,3.74,0,0,0,.5,1.8l3.8,6.1C16.21,65.5,16.31,65.5,16.31,65.4Z"/></g>
<g class="st-elem-detail"><path class="st--elem" d="M6.41,68.6h2.1s.2-23.2.5-30.9c.2-6.1,1.3-24.5,1.3-24.5L9,12.8A79.19,79.19,0,0,0,6,32.5C6,42.2,6.41,68.6,6.41,68.6Z"/></g>
<g class="st-elem-detail"><path class="st--elem" d="M15.21,6.7s-4.1.8-4.9,1a1.34,1.34,0,0,0-.7.6,3,3,0,0,0-.5,1.3L9,12.8s-2.2,10.2-2.1,10,.9-11.1,1.5-15.6A2.72,2.72,0,0,1,10.51,5c1.4-.4,4.2-1.1,4.2-1.1Z"/></g>
<g class="st-elem-detail"><path class="st--elem" d="M15.71,8.4l-.5-1.7-4.9,1a2.23,2.23,0,0,0-1.2,1.8c0,1-.2,3.3-.2,3.3l1.3.4h1.3V11.8a3.42,3.42,0,0,1,1.7-2.9Z"/></g>
<g class="st-elem-detail"><path class="st--elem" d="M16.81,70.6s.5,11,.5,41.7c0,23.1-6.2,39.7-6.2,39.7a3.65,3.65,0,0,0,.5,2.3c.2.4,1.4,1,1.4,1l5.8-22.3s1.7-10,1.7-13.8c0-3.2-.3-48.1-.3-48.1Z"/></g>
<g class="st-elem-detail"><polygon class="st--elem" points="10.01 103.8 16.41 103.5 16.41 80.4 10.01 80.4 10.01 103.8"/></g><g class="st-elem-detail"> class="st--elem" x="10.01" y="73.8" width="6.4" height="5.2"/></g>
<g class="st-elem-detail"><path class="st--elem" d="M16.31,110.2l-6.2,1.3v29.6l2.9-.7s.9-3.5,2-10.1a126.94,126.94,0,0,0,1.3-14.9Z"/></g>
<g class="st-elem-detail"><path class="st--elem" d="M8.81,145.3v-4.1l-8.1-3.9-.2,1.6s-.2,1.3,1.5,3.2S8.81,145.3,8.81,145.3Z"/></g>
<g class="st-elem-detail"><path class="st--elem" d="M10,141.1v7.4c0,.3.5.3.8-.5l2.1-7.6Z"/></g>
<g class="st-elem-detail"><path class="st--elem" d="M11.21,142.6l-2.4-.6v3.3l1.8.9c.3.2.5-.3.5-.7Z"/></g>
<g class="st-elem-detail"><path class="st--elem" d="M8.41,121s-1.6-.5-1.6-5.3c0-4.4,1.6-5.3,1.6-5.3v2.7s-.7.3-.8,2.6c0,2.9.8,3.3.8,3.3Z"/></g>
<g class="st-elem-detail"><path class="st--elem" d="M8.41,81.7s-1.6-.5-1.6-5.3c0-4.4,1.6-5.3,1.6-5.3v2.7s-.7.3-.8,2.6c0,2.9.8,3.3.8,3.3Z"/></g>
<g class="st-elem-detail"><path class="st--elem" d="M6.41,152.3a54.87,54.87,0,0,0-.7,7.4c0,3.2.4,24.7.4,28.2,0,2.9,2.1,7,2.8,8.4a3,3,0,0,0,.3.4l-1.1-43.9Z"/></g>
<g class="st-elem-detail"><path class="st--elem" d="M14,186.7l-4-34.2-1.2.3h-.7l1.1,43.9.8.9-.1-8.6a2.14,2.14,0,0,1,2.1-2.2Z"/></g>
<g class="st-elem-detail"><path class="st--elem" d="M19.41,204.9l-.2-.8L14,186.7l-2.3.1s-2.8.4-2.8,2.4.2,7.5.2,7.5,3.6,3.5,4.5,4.4A25.27,25.27,0,0,0,19.41,204.9Z"/></g>
<g class="st-elem-detail"><path class="st--elem" d="M14.71,3.8S23.81.5,45.11.5s30.6,3.3,30.6,3.3l-.5,2.9a141.7,141.7,0,0,0-29.9-3.1,143.31,143.31,0,0,0-30,3.1Z"/></g>
<g class="st-elem-detail"><path class="st--elem" d="M16.11,9.6l-.5-1.2-.5-1.7a152,152,0,0,1,30-3.1A150.31,150.31,0,0,1,75,6.7l-.5,1.7L74,9.6s-11.2-3.5-28.8-3.5S16.11,9.6,16.11,9.6Z"/></g>
<g class="st-elem-detail"><path class="st--elem" d="M80.31,152.5l-1.1-.6-.5,2.3-1.4,1-5,7.2-4.5,1.1s-7,2-22.7,2-22.5-2-22.5-2l-4.1-1.1-5.3-7.2-1.9-1-.4-2.3-.7.7.5,11.2,3.3,23,5.3,18a8.91,8.91,0,0,0,3.2,1.1,151,151,0,0,0,22.9,2,159.62,159.62,0,0,0,22.3-2.1,15.47,15.47,0,0,0,3.1-1l.3-.9,5.1-17.3Z"/></g></svg>