<svg version="1.1" xmlns="http://www.w3.org/2000/svg" xmlns:xlink="http://www.w3.org/1999/xlink" x="0px" y="0px"	 viewBox="0 0 73.98 210.9"><title>van-2_up</title>
<g class="st-elem-detail"><path class="st--elem" d="M67,170.8l-.2,14.2s-.9,10.7-1.8,14.2a14.76,14.76,0,0,1-1.3,3.5,10.41,10.41,0,0,1-2.5,2.2,33.22,33.22,0,0,1-5.1,2.3,59,59,0,0,1-7.5,2.1,97.31,97.31,0,0,1-12,1.1,78.93,78.93,0,0,1-9.7-.6c-1.3-.2-4.4-.6-5.8-1a41.17,41.17,0,0,1-6.9-2.7,25.43,25.43,0,0,1-2.8-1.6,8.2,8.2,0,0,1-1.7-2,20.07,20.07,0,0,1-1.3-4.8c-.2-1.4-.7-4.3-.9-5.7-.1-.8-.3-3.1-.3-3.1l-.3-18.1h.4l.4.3v1.1l.5,17.3.5,3.2.4,1.5a28.53,28.53,0,0,0,.6,5.2c.6,2.9,3.9,4.6,3.9,4.6l6.5,2.7s4.6,2.9,16.5,2.7c11.5-.2,16.6-2.6,16.6-2.6l5.8-2.3a8.2,8.2,0,0,0,3.4-2.3c1.1-1.5,1.3-1.4,1.5-2.7.2-1.5.6-5.2.6-5.2l.5-2.1.4-2.6.5-18.5.4-.3Z"/></g>
<g class="st-elem-detail"><path class="st--elem" d="M66.84,140.2a4.8,4.8,0,0,0-2.3-1.3,7.11,7.11,0,0,0-2.5.1V11l4.3-2Z"/></g>
<g class="st-elem-detail"><path class="st--elem" d="M62,137.3l.7,19.7,2.1,14.7.7.6-.2,5.4-2.7,3.8s-11.2,5-27.4,5-23.5-4.7-23.5-4.7l-1.9-2.6,1.3.2s.6,1.2.9,1.3c1,.6,3.9,4.1,23,4.6a78.5,78.5,0,0,0,25.3-4s2.3-.8,2.3-2.6l-1-18.5-1.3.3-3.7-21.1H17.34l-3.5,20.9-1.6.2-1.1,18.8-1.3-.2-1-1.4-.2-5.4.7-.6,2.4-17.2c0-.1.3-3.9.3-4V137.3H62Z"/></g>
<g class="st-elem-detail"><path class="st--elem" d="M66.84,140.2a6.85,6.85,0,0,0-2.1-1.3,7.54,7.54,0,0,0-2.7,0v10.4a75.36,75.36,0,0,0,1.2,11.6c.5,3.5,1.5,10.8,1.5,10.8v-4.1l.6.5.8,1h.8Z"/></g>
<g class="st-elem-detail"><path class="st--elem" d="M58,137.3H15.84V11.8s7.1-1.8,19.4-1.8A151.25,151.25,0,0,1,58,11.8Z"/></g>
<g class="st-elem-detail"><path class="st--elem" d="M17.34,139.4l-3.5,20.9a41.23,41.23,0,0,0,14.4,3.2c8.4.4,3.9.4,12.8.4s19.3-3.5,19.3-3.5l-3.7-21H17.34Z"/></g>
<g class="st-elem-detail"><path class="st--elem" d="M61.64,160l1,18.5a2.31,2.31,0,0,1-1.1,2c-2.7,1.5-10.2,4.6-26.4,4.6-15,0-21-3.1-23-4.6a2.25,2.25,0,0,1-.9-2l1.1-18.1,1.6-.2s8.7,3.6,23,3.6,23.5-3.5,23.5-3.5Z"/></g>
<g class="st-elem-detail"><path class="st--elem" d="M11.64,181.6s3.3,15.7,5.7,21.3a8.26,8.26,0,0,0,2,3l1.5.1s9.4,1.1,15.4,1.1a135.91,135.91,0,0,0,16.7-1.3l.5,1s1-.3,2.2-2.1c2.4-3.6,6.9-23.4,6.9-23.4s-9.8,4.7-26.4,5S11.64,181.6,11.64,181.6Z"/></g>
<g class="st-elem-detail"><path class="st--elem" d="M64.74,194.3s-1.7,4.2-4,6.1c-2.5,2.1-4.8,4.1-4.8,4.1l-2.2,2.3s1.8-.6,5.5-2.2,4.8-4.2,4.9-5.1S64.74,194.3,64.74,194.3Z"/></g>
<g class="st-elem-detail"><path class="st--elem" d="M64,133.8h0c1.4-.9,2.1-1.4,2.1-3.1v-3.3l-.7-116.2c0-.2-.2-.3-.4-.2a19,19,0,0,0-2,2.2,5.63,5.63,0,0,0-.2,2.2c0,1.2.6,118.1.6,118.1C63.54,133.7,63.84,133.9,64,133.8Z"/></g>
<g class="st-elem-detail"><path class="st--elem" d="M55.84,204.5s3.6-2.9,4.7-3.9a18.5,18.5,0,0,0,2.3-2.8c.2-.2.8-1.4,1-1.6l.9-1.9s.3-1.1.4-1.5c.2-.8.5-3.2.5-3.2l.5-17.3h-.7l-.2,5.4-2.7,3.8s-1.7,7.2-3.2,12.9C57.84,199.6,55.84,204.5,55.84,204.5Z"/></g>
<g class="st-elem-detail"><path class="st--elem" d="M63.44,158.4s.8,8,1.2,9c.3.7.7.7.7.7s.3-.3.4-1.6c0-.7.1-5.7.1-5.7Z"/></g>
<g class="st-elem-detail"><path class="st--elem" d="M63.44,141.4a3.34,3.34,0,0,0-.3,1.5c0,3.2.2,14.4.2,14.4l2.4,2.5s0-13.7-.1-16.5C65.64,141.7,64,140.6,63.44,141.4Z"/></g>
<g class="st-elem-detail"><path class="st--elem" d="M66,172.3v-1.1l.4-.3H67l.1.3a.91.91,0,0,0,.8.4l1.9-.3a9.91,9.91,0,0,0,2.3-1l.9-.5.3-.3a.9.9,0,0,0-.1-1.1l-.5-.6c-.1-.2-.4-.2-.6-.2-.7.1-2.3.4-3,.5-.1,0-.5.1-.8.1a1.33,1.33,0,0,0-1.1.8l-.2.3H66l-.8-1-.6-.5v4.1l.7.6H66Z"/></g>
<g class="st-elem-detail"><polygon class="st--elem" points="62.04 137.3 62.04 10.9 59.14 11.6 58.04 11.8 58.04 137.3 62.04 137.3"/></g>
<g class="st-elem-detail"><path class="st--elem" d="M62,137.3h4.8v2.9a4.1,4.1,0,0,0-2.3-1.3,11.71,11.71,0,0,0-2.5.1Z"/></g>
<g class="st-elem-detail"><path class="st--elem" d="M66.24,8.9l-4.3,2-2.9.7V8.4l6.1-3.9.6,1.2a4.19,4.19,0,0,1,.4,1.5Z"/></g>
<g class="st-elem-detail"><polygon class="st--elem" points="56.24 8.5 56.24 7.5 58.04 7.2 62.04 4.4 62.34 2.9 65.14 4.4 59.14 8.4 56.24 8.5"/></g>
<g class="st-elem-detail"><polygon class="st--elem" points="58.04 11.8 59.14 11.6 59.14 8.4 56.24 8.5 56.24 11.5 58.04 11.8"/></g>
<g class="st-elem-detail"><path class="st--elem" d="M56.24,7.5s-4-.6-7.4-.9-11.9-.9-11.9-.9V3.9s5.4.4,12.4,1,9.8,1.7,9.8,1.7l-1,.7Z"/></g>
<g class="st-elem-detail"><path class="st--elem" d="M36.94,1.9v2s9.3.8,12.4,1c6.8.4,9.8,1.7,9.8,1.7l2.9-2a6.07,6.07,0,0,0-1.8-1.2c-3.2-.9-11.8-1.5-15.8-1.5Z"/></g>
<g class="st-elem-detail"><path class="st--elem" d="M62.34,2.9,60,2.1C55.54.9,41.54.5,41.54.5L40,1.3h-3.1v.5s14,.5,18.6.9a20.42,20.42,0,0,1,4.3.8c.6.3,2.2.9,2.2.9Z"/></g>
<g class="st-elem-detail"><path class="st--elem" d="M56.24,11.5v-4s-5.9-.7-7.9-.9c-3-.3-11.4-.9-11.4-.9s-7.3.1-8.5.2c-3.6.2-10.7,1.6-10.7,1.6l.1,4A110.76,110.76,0,0,1,37,10,146.55,146.55,0,0,1,56.24,11.5Z"/></g>
<g class="st-elem-detail"><path class="st--elem" d="M7.24,140.2a4.8,4.8,0,0,1,2.3-1.3,7.11,7.11,0,0,1,2.5.1V11L7.74,9Z"/></g>
<g class="st-elem-detail"><path class="st--elem" d="M7.24,140.2a6.85,6.85,0,0,1,2.1-1.3,7.54,7.54,0,0,1,2.7,0v10.4a75.36,75.36,0,0,1-1.2,11.6c-.5,3.5-1.5,10.8-1.5,10.8v-4.1l-.6.5-.8,1h-.8Z"/></g>
<g class="st-elem-detail"><path class="st--elem" d="M9.94,199.5c-.1-.8-.6-5.2-.6-5.2"/></g>
<g class="st-elem-detail"><path class="st--elem" d="M10,133.8h0c-1.4-.9-2.1-1.4-2.1-3.1v-3.3l.6-116.2c0-.2.2-.3.4-.2a19,19,0,0,1,2,2.2,5.63,5.63,0,0,1,.2,2.2c0,1.2-.6,118.1-.6,118.1C10.44,133.7,10.24,133.9,10,133.8Z"/></g>
<g class="st-elem-detail"><path class="st--elem" d="M18.14,204.5s-3.6-2.9-4.7-3.9a18.5,18.5,0,0,1-2.3-2.8c-.2-.2-.8-1.4-1-1.6l-.9-1.9s-.3-1.1-.4-1.5c-.2-.8-.5-3.2-.5-3.2l-.5-17.3h.7l.2,5.4,2.7,3.8s1.7,7.2,3.2,12.9C16.14,199.6,18.14,204.5,18.14,204.5Z"/></g>
<g class="st-elem-detail"><path class="st--elem" d="M10.54,158.4s-.8,8-1.2,9c-.3.7-.7.7-.7.7s-.3-.3-.4-1.6c0-.7-.1-5.7-.1-5.7Z"/></g>
<g class="st-elem-detail"><path class="st--elem" d="M10.54,141.4a3.34,3.34,0,0,1,.3,1.5c0,3.2-.2,14.4-.2,14.4l-2.4,2.5s0-13.7.1-16.5C8.44,141.7,9.94,140.6,10.54,141.4Z"/></g>
<g class="st-elem-detail"><path class="st--elem" d="M7.94,172.3v-1.1l-.4-.3h-.6l-.1.3a.91.91,0,0,1-.8.4l-1.9-.3a9.91,9.91,0,0,1-2.3-1l-.9-.5-.3-.3a.9.9,0,0,1,.1-1.1l.5-.6c.1-.2.4-.2.6-.2.7.1,2.3.4,3,.5.1,0,.5.1.8.1a1.33,1.33,0,0,1,1.1.8l.2.3h1l.8-1,.6-.5v4.1l-.7.6h-.7Z"/></g>
<g class="st-elem-detail"><polygon class="st--elem" points="12.04 137.3 12.04 10.9 14.94 11.6 15.94 11.8 15.94 137.3 12.04 137.3"/></g>
<g class="st-elem-detail"><path class="st--elem" d="M12,137.3H7.24v2.9a4.1,4.1,0,0,1,2.3-1.3,11.71,11.71,0,0,1,2.5.1Z"/></g>
<g class="st-elem-detail"><path class="st--elem" d="M7.74,8.9l4.3,2,2.9.7V8.4l-6.1-4-.6,1.2a4.19,4.19,0,0,0-.4,1.5Z"/></g>
<g class="st-elem-detail"><polygon class="st--elem" points="17.74 8.5 17.74 7.5 15.94 7.2 12.04 4.4 11.74 2.9 8.84 4.4 14.94 8.4 17.74 8.5"/></g>
<g class="st-elem-detail"><polygon class="st--elem" points="15.94 11.8 14.94 11.6 14.94 8.4 17.74 8.5 17.74 11.5 15.94 11.8"/></g>
<g class="st-elem-detail"><path class="st--elem" d="M17.74,7.5a71.94,71.94,0,0,1,7.4-1.2C28.44,6,37,5.7,37,5.7V3.9s-5.4.4-12.4,1-9.8,1.7-9.8,1.7l1,.7Z"/></g>
<g class="st-elem-detail"><path class="st--elem" d="M37,1.9v2s-9.3.8-12.4,1c-6.8.4-9.8,1.7-9.8,1.7L12,4.4a6.07,6.07,0,0,1,1.8-1.2c3.2-.8,11.8-1.4,15.8-1.4S37,1.9,37,1.9Z"/></g>
<g class="st-elem-detail"><path class="st--elem" d="M11.74,2.9,14,2.1C18.54.9,32.54.5,32.54.5l1.5.8,3,.1v.5s-14,.5-18.6.9a20.42,20.42,0,0,0-4.3.8L12,4.4Z"/></g>
<g class="st-elem-detail"><path class="st--elem" d="M9.34,194.3s1.7,4.2,4,6.1c2.5,2.1,4.8,4.1,4.8,4.1l2.2,2.3s-1.8-.6-5.5-2.2-4.8-4.2-4.9-5.1S9.34,194.3,9.34,194.3Z"/></g>
<g class="st-elem-detail"><path class="st--elem" d="M53.44,206.9s-3.1,1-4.1,1.2c-3.1.8-6.3,1.3-12.7,1.3a52.76,52.76,0,0,1-13.4-1.5,22.64,22.64,0,0,1-2.8-1.2l-.8-.8a157.86,157.86,0,0,0,16.9,1.2,132.44,132.44,0,0,0,16.4-1.3Z"/></g>
<g class="st-elem-detail"><polygon class="st--elem" points="7.44 91.5 7.24 137.3 15.94 137.3 15.94 90.4 7.44 91.5"/></g>
<g class="st-elem-detail"><path class="st--elem" d="M10,133.8h0c-1.4-.9-2.1-1.4-2.1-3.1v-3.3l.2-36,2.6-.3-.2,42.4C10.44,133.7,10.24,133.9,10,133.8Z"/></g>
<g class="st-elem-detail"><polygon class="st--elem" points="12.04 137.3 12.04 90.9 15.94 90.4 15.94 137.3 12.04 137.3"/></g>
<g class="st-elem-detail"><path class="st--elem" d="M54.34,104.5v20.3a1.75,1.75,0,0,1-1.7,1.7H22a1.75,1.75,0,0,1-1.7-1.7V104.5a1.75,1.75,0,0,1,1.7-1.7h30.6A1.69,1.69,0,0,1,54.34,104.5Z"/></g></svg>