<svg version="1.1" xmlns="http://www.w3.org/2000/svg" xmlns:xlink="http://www.w3.org/1999/xlink" x="0px" y="0px"	 viewBox="0 0 72.98 209.9"><title>van-1_up</title>
<g class="st-elem-detail"><path class="st--elem" d="M66.54,170.3l-.2,14.2s-.9,10.7-1.8,14.2a14.76,14.76,0,0,1-1.3,3.5,10.41,10.41,0,0,1-2.5,2.2,33.22,33.22,0,0,1-5.1,2.3,59,59,0,0,1-7.5,2.1,97.31,97.31,0,0,1-12,1.1,78.93,78.93,0,0,1-9.7-.6c-1.3-.2-4.4-.6-5.8-1a41.17,41.17,0,0,1-6.9-2.7,25.43,25.43,0,0,1-2.8-1.6,8.2,8.2,0,0,1-1.7-2,20.07,20.07,0,0,1-1.3-4.8c-.2-1.4-.7-4.3-.9-5.7-.1-.8-.3-3.1-.3-3.1l-.3-18.1h.4l.4.3v1.1l.5,17.3.5,3.2.4,1.5a28.53,28.53,0,0,0,.6,5.2c.6,2.9,3.9,4.6,3.9,4.6l6.5,2.7s4.6,2.9,16.5,2.7c11.5-.2,16.6-2.6,16.6-2.6l5.8-2.3a8.2,8.2,0,0,0,3.4-2.3c1.1-1.5,1.3-1.4,1.5-2.7.2-1.5.6-5.2.6-5.2l.5-2.1.4-2.6.5-18.5.4-.3Z"/></g>
<g class="st-elem-detail"><path class="st--elem" d="M66.34,139.7a4.8,4.8,0,0,0-2.3-1.3,7.11,7.11,0,0,0-2.5.1V10.5l4.3-2Z"/></g>
<g class="st-elem-detail"><path class="st--elem" d="M61.54,136.8l.7,19.7,2.1,14.7.7.6-.2,5.4-2.7,3.8s-11.2,5-27.4,5-23.5-4.7-23.5-4.7l-1.9-2.6,1.3.2s.6,1.2.9,1.3c1,.6,3.9,4.1,23,4.6a78.5,78.5,0,0,0,25.3-4s2.3-.8,2.3-2.6l-1-18.5-1.3.3-3.7-21.1H16.84l-3.5,20.9-1.6.2-1.1,18.8-1.3-.2-1-1.4-.2-5.4.7-.6,2.4-17.2c0-.1.3-3.9.3-4V136.8h50Z"/></g>
<g class="st-elem-detail"><path class="st--elem" d="M66.34,139.7a6.85,6.85,0,0,0-2.1-1.3,7.54,7.54,0,0,0-2.7,0v10.4a75.36,75.36,0,0,0,1.2,11.6c.5,3.5,1.5,10.8,1.5,10.8v-4.1l.6.5.8,1h.8Z"/></g>
<g class="st-elem-detail"><path class="st--elem" d="M57.54,136.8H15.34V11.3s7.1-1.8,19.4-1.8a151.25,151.25,0,0,1,22.8,1.8Z"/></g>
<g class="st-elem-detail"><path class="st--elem" d="M16.84,138.9l-3.5,20.9a41.23,41.23,0,0,0,14.4,3.2c8.4.4,3.9.4,12.8.4s19.3-3.5,19.3-3.5l-3.7-21H16.84Z"/></g>
<g class="st-elem-detail"><path class="st--elem" d="M61.14,159.5l1,18.5a2.31,2.31,0,0,1-1.1,2c-2.7,1.5-10.2,4.6-26.4,4.6-15,0-21-3.1-23-4.6a2.25,2.25,0,0,1-.9-2l1.1-18.1,1.6-.2s8.7,3.6,23,3.6,23.5-3.5,23.5-3.5Z"/></g>
<g class="st-elem-detail"><path class="st--elem" d="M11.14,181.1s3.3,15.7,5.7,21.3a8.26,8.26,0,0,0,2,3l1.5.1s9.4,1.1,15.4,1.1a135.91,135.91,0,0,0,16.7-1.3l.5,1s1-.3,2.2-2.1c2.4-3.6,6.9-23.4,6.9-23.4s-9.8,4.7-26.4,5S11.14,181.1,11.14,181.1Z"/></g>
<g class="st-elem-detail"><path class="st--elem" d="M64.24,193.8s-1.7,4.2-4,6.1c-2.5,2.1-4.8,4.1-4.8,4.1l-2.2,2.3s1.8-.6,5.5-2.2,4.8-4.2,4.9-5.1S64.24,193.8,64.24,193.8Z"/></g>
<g class="st-elem-detail"><path class="st--elem" d="M55.34,204s3.6-2.9,4.7-3.9a18.5,18.5,0,0,0,2.3-2.8c.2-.2.8-1.4,1-1.6l.9-1.9s.3-1.1.4-1.5c.2-.8.5-3.2.5-3.2l.5-17.3h-.7l-.2,5.4L62,181s-1.7,7.2-3.2,12.9C57.34,199.1,55.34,204,55.34,204Z"/></g>
<g class="st-elem-detail"><path class="st--elem" d="M62.94,157.9s.8,8,1.2,9c.3.7.7.7.7.7s.3-.3.4-1.6c0-.7.1-5.7.1-5.7Z"/></g>
<g class="st-elem-detail"><path class="st--elem" d="M62.94,140.9a3.34,3.34,0,0,0-.3,1.5c0,3.2.2,14.4.2,14.4l2.4,2.5s0-13.7-.1-16.5C65.14,141.2,63.54,140.1,62.94,140.9Z"/></g>
<g class="st-elem-detail"><path class="st--elem" d="M65.54,171.8v-1.1l.4-.3h.6l.1.3a.91.91,0,0,0,.8.4l1.9-.3a9.91,9.91,0,0,0,2.3-1l.9-.5.3-.3a.9.9,0,0,0-.1-1.1l-.5-.6c-.1-.2-.4-.2-.6-.2-.7.1-2.3.4-3,.5-.1,0-.5.1-.8.1a1.33,1.33,0,0,0-1.1.8l-.2.3h-1l-.8-1-.6-.5v4.1l.7.6h.7Z"/></g>
<g class="st-elem-detail"><polygon class="st--elem" points="61.54 136.8 61.54 10.4 58.64 11.1 57.54 11.3 57.54 136.8 61.54 136.8"/></g>
<g class="st-elem-detail"><path class="st--elem" d="M61.54,136.8h4.8v2.9a4.1,4.1,0,0,0-2.3-1.3,11.71,11.71,0,0,0-2.5.1Z"/></g>
<g class="st-elem-detail"><path class="st--elem" d="M65.74,8.4l-4.3,2-2.9.7V7.9L64.64,4l.6,1.2a4.19,4.19,0,0,1,.4,1.5Z"/></g>
<g class="st-elem-detail"><polygon class="st--elem" points="55.74 8 55.74 7 57.54 6.7 61.54 3.9 61.84 2.4 64.64 3.9 58.64 7.9 55.74 8"/></g>
<g class="st-elem-detail"><polygon class="st--elem" points="57.54 11.3 58.64 11.1 58.64 7.9 55.74 8 55.74 11 57.54 11.3"/></g>
<g class="st-elem-detail"><path class="st--elem" d="M55.74,7s-4-.6-7.4-.9-11.9-.9-11.9-.9V3.4s5.4.4,12.4,1,9.8,1.7,9.8,1.7l-1,.7Z"/></g>
<g class="st-elem-detail"><path class="st--elem" d="M36.44,1.4v2s9.3.8,12.4,1c6.8.4,9.8,1.7,9.8,1.7l2.9-2a6.07,6.07,0,0,0-1.8-1.2c-3.2-.9-11.8-1.5-15.8-1.5Z"/></g>
<g class="st-elem-detail"><path class="st--elem" d="M61.84,2.4l-2.3-.8C55,.4,41,0,41,0l-1.5.8h-3.1v.5s14,.5,18.6.9a20.42,20.42,0,0,1,4.3.8c.6.3,2.2.9,2.2.9Z"/></g>
<g class="st-elem-detail"><path class="st--elem" d="M55.74,11V7s-5.9-.7-7.9-.9c-3-.3-11.4-.9-11.4-.9s-7.3.1-8.5.2c-3.6.2-10.7,1.6-10.7,1.6l.1,4a110.76,110.76,0,0,1,19.2-1.5A146.55,146.55,0,0,1,55.74,11Z"/></g>
<g class="st-elem-detail"><path class="st--elem" d="M6.74,139.7A4.8,4.8,0,0,1,9,138.4a7.11,7.11,0,0,1,2.5.1V10.5l-4.3-2Z"/></g>
<g class="st-elem-detail"><path class="st--elem" d="M6.74,139.7a6.85,6.85,0,0,1,2.1-1.3,7.54,7.54,0,0,1,2.7,0v10.4a75.36,75.36,0,0,1-1.2,11.6c-.5,3.5-1.5,10.8-1.5,10.8v-4.1l-.6.5-.8,1h-.8Z"/></g>
<g class="st-elem-detail"><path class="st--elem" d="M9.44,199c-.1-.8-.6-5.2-.6-5.2"/></g>
<g class="st-elem-detail"><path class="st--elem" d="M17.64,204s-3.6-2.9-4.7-3.9a18.5,18.5,0,0,1-2.3-2.8c-.2-.2-.8-1.4-1-1.6l-.9-1.9s-.3-1.1-.4-1.5c-.2-.8-.5-3.2-.5-3.2l-.5-17.3H8l.2,5.4,2.7,3.8s1.7,7.2,3.2,12.9C15.64,199.1,17.64,204,17.64,204Z"/></g>
<g class="st-elem-detail"><path class="st--elem" d="M10,157.9s-.8,8-1.2,9c-.3.7-.7.7-.7.7s-.3-.3-.4-1.6c0-.7-.1-5.7-.1-5.7Z"/></g>
<g class="st-elem-detail"><path class="st--elem" d="M10,140.9a3.34,3.34,0,0,1,.3,1.5c0,3.2-.2,14.4-.2,14.4l-2.4,2.5s0-13.7.1-16.5C7.94,141.2,9.44,140.1,10,140.9Z"/></g>
<g class="st-elem-detail"><path class="st--elem" d="M7.44,171.8v-1.1l-.4-.3h-.6l-.1.3a.91.91,0,0,1-.8.4l-1.9-.3a9.91,9.91,0,0,1-2.3-1l-.9-.5-.3-.3a.9.9,0,0,1,.1-1.1l.5-.6c.1-.2.4-.2.6-.2.7.1,2.3.4,3,.5.1,0,.5.1.8.1a1.33,1.33,0,0,1,1.1.8l.2.3h1l.8-1,.6-.5v4.1l-.7.6h-.7Z"/></g>
<g class="st-elem-detail"><polygon class="st--elem" points="11.54 136.8 11.54 10.4 14.44 11.1 15.44 11.3 15.44 136.8 11.54 136.8"/></g>
<g class="st-elem-detail"><path class="st--elem" d="M11.54,136.8H6.74v2.9A4.1,4.1,0,0,1,9,138.4a11.71,11.71,0,0,1,2.5.1Z"/></g>
<g class="st-elem-detail"><path class="st--elem" d="M7.24,8.4l4.3,2,2.9.7V7.9l-6.1-4-.6,1.2a4.19,4.19,0,0,0-.4,1.5Z"/></g>
<g class="st-elem-detail"><polygon class="st--elem" points="17.24 8 17.24 7 15.44 6.7 11.54 3.9 11.24 2.4 8.34 3.9 14.44 7.9 17.24 8"/></g>
<g class="st-elem-detail"><polygon class="st--elem" points="15.44 11.3 14.44 11.1 14.44 7.9 17.24 8 17.24 11 15.44 11.3"/></g>
<g class="st-elem-detail"><path class="st--elem" d="M17.24,7a71.94,71.94,0,0,1,7.4-1.2c3.3-.3,11.9-.6,11.9-.6V3.4s-5.4.4-12.4,1-9.8,1.7-9.8,1.7l1,.7Z"/></g>
<g class="st-elem-detail"><path class="st--elem" d="M36.54,1.4v2s-9.3.8-12.4,1c-6.8.4-9.8,1.7-9.8,1.7l-2.8-2.2a6.07,6.07,0,0,1,1.8-1.2c3.2-.8,11.8-1.4,15.8-1.4S36.54,1.4,36.54,1.4Z"/></g>
<g class="st-elem-detail"><path class="st--elem" d="M11.24,2.4l2.3-.8C18,.4,32,0,32,0l1.5.8,3,.1v.5s-14,.5-18.6.9a20.42,20.42,0,0,0-4.3.8l-2.1.8Z"/></g>
<g class="st-elem-detail"><path class="st--elem" d="M8.84,193.8s1.7,4.2,4,6.1c2.5,2.1,4.8,4.1,4.8,4.1l2.2,2.3s-1.8-.6-5.5-2.2-4.8-4.2-4.9-5.1S8.84,193.8,8.84,193.8Z"/></g>
<g class="st-elem-detail"><path class="st--elem" d="M52.94,206.4s-3.1,1-4.1,1.2c-3.1.8-6.3,1.3-12.7,1.3a52.76,52.76,0,0,1-13.4-1.5,22.64,22.64,0,0,1-2.8-1.2l-.8-.8A157.86,157.86,0,0,0,36,206.6a132.44,132.44,0,0,0,16.4-1.3Z"/></g>
<g class="st-elem-detail"><polygon class="st--elem" points="6.94 91 6.74 136.8 15.44 136.8 15.44 89.9 6.94 91"/></g>
<g class="st-elem-detail"><polygon class="st--elem" points="11.54 136.8 11.54 90.4 15.44 89.9 15.44 136.8 11.54 136.8"/></g>
<g class="st-elem-detail"><path class="st--elem" d="M53.84,102v20.3a1.75,1.75,0,0,1-1.7,1.7H21.54a1.75,1.75,0,0,1-1.7-1.7V102a1.75,1.75,0,0,1,1.7-1.7h30.6A1.69,1.69,0,0,1,53.84,102Z"/></g></svg>