<svg version="1.1" xmlns="http://www.w3.org/2000/svg" xmlns:xlink="http://www.w3.org/1999/xlink" x="0px" y="0px"	 viewBox="0 0 375 308" style="enable-background:new 0 0 375 308;" xml:space="preserve">
<style type="text/css">
	.st--elem{fill:#fff;}
	.st1--fill{fill:#000;}
</style>
<g class="st-elem-detail">
		<path class="st--elem" d="M41.6,114l3.1,2.8h56.2l3-2.8l-6.3-34.8l-24.9-9.4L56.6,72c0,0-6.8,8.5-8.5,9.7C46.4,82.8,39,96.1,39,96.1
			L41.6,114z"/>
		<path class="st1--fill" d="M101.2,117.5H44.5l-3.5-3.1L38.3,96l0.1-0.2c1.3-2.2,7.6-13.5,9.3-14.7c1.3-0.9,6.5-7.2,8.4-9.5l0.2-0.2
			l16.7-2.2l0.2,0.1l25.3,9.5l6.4,35.6L101.2,117.5z M45,116.1h55.6l2.6-2.3l-6.1-34l-24.4-9.2L57,72.7c-1.2,1.5-6.9,8.5-8.5,9.6
			c-1.1,0.8-5.9,8.9-8.8,14l2.6,17.4L45,116.1z"/>
	</g>
	<g class="st-elem-detail">
		<path class="st--elem" d="M313.2,108.3l-4.1,5.6l-61.3,1.1v-3.4c0,0-2.1-25.1-0.1-27.4c2.1-2.3,30.9-16.6,31.7-16
			c0.8,0.6,22.3,0.1,22.6,1.5c0.3,1.4,11.2,20.1,11.2,20.1V108.3z"/>
		<path class="st1--fill" d="M247.1,115.7v-4.1c-0.4-4.2-2-25.5,0.1-27.9c1.5-1.7,14-8,16.5-9.2c15.1-7.6,15.7-7.1,16.1-6.9
			c0.4,0.1,4.2,0.2,7.5,0.2c13.3,0.3,15.1,0.6,15.3,1.7c0.3,1.1,7,12.8,11.1,19.9l0.1,0.2v18.9l-4.4,6.1l-0.3,0L247.1,115.7z
			 M279.3,68.9c-2.4,0.5-29.1,13.6-31,15.8c-1.2,1.3-0.8,14.7,0.2,26.9l0,2.7l60.3-1l3.7-5.2V90c-1.9-3.3-10.2-17.5-11.1-19.9
			c-1.3-0.6-9.3-0.7-14.1-0.8C281.6,69.2,279.9,69.1,279.3,68.9z"/>
	</g>
	<g class="st-elem-detail">
		<path class="st--elem" d="M291.3,78.6c0,0,8.2,3.6,12.1,11c3.8,7,4.1,12.7,4.6,15.6c0.4,2.8,0,6.3,0,6.3s31.7-5,35.1-5.6
			c3.5-0.6,10.6-5.7,10.6-5.7l1.4,1.1l2.9-2.7c0,0-1.2-5,0-7.7c1.2-2.7,1.2-2.7,1.2-2.7s-0.6-2.7-1.2-3.1c-0.7-0.4-4.5-2.9-4.5-2.9
			s-10.6-7.8-11.1-8.1c-0.6-0.3-7.7-5.8-8.3-5.8c-0.6,0-11.3,3.9-12.2,4.3c-0.8,0.4-16.6,0.9-18.8,1.1c-2.2,0.3-8.4,1.9-8.4,1.9
			L291.3,78.6z"/>
		<path class="st1--fill" d="M307.2,112.3l0.1-0.9c0,0,0.4-3.4,0-6.1c-0.1-0.3-0.1-0.7-0.2-1.1c-0.4-3-1.1-8.1-4.3-14.2
			c-3.8-7.1-11.7-10.7-11.8-10.7l-1-0.4l4.3-4l0.2,0c0.3-0.1,6.3-1.6,8.5-1.9c0.9-0.1,4-0.3,7.6-0.4c4.4-0.2,10.4-0.5,11.1-0.7
			c0.5-0.3,11.6-4.3,12.4-4.3c0.4,0,1,0.3,6.2,4.2c1.1,0.8,2.2,1.7,2.4,1.8c0.6,0.3,8.7,6.3,11.2,8.2l0,0c0,0,3.7,2.4,4.4,2.8
			c0.8,0.5,1.3,2.5,1.6,3.6l0,0.2l-1.3,2.9c-1.1,2.5,0,7.2,0,7.2l0.1,0.4l-3.6,3.4l-1.4-1.2c-1.6,1.1-7.4,5-10.5,5.5
			c-3.4,0.6-34.8,5.5-35.1,5.6L307.2,112.3z M292.5,78.5c2.3,1.2,8.2,4.7,11.5,10.9c3.4,6.3,4.1,11.6,4.5,14.7
			c0.1,0.4,0.1,0.8,0.2,1.1c0.3,2,0.2,4.3,0.1,5.6c5.2-0.8,31.1-4.9,34.2-5.4c3.3-0.5,10.3-5.5,10.4-5.6l0.4-0.3l1.3,1.1l2.2-2
			c-0.3-1.3-1-5.3,0.1-7.8l1.1-2.5c-0.3-1.2-0.7-2.3-0.9-2.5c-0.7-0.4-4.5-2.9-4.5-2.9c-4.2-3.1-10.6-7.8-11.1-8.1
			c-0.2-0.1-0.9-0.6-2.6-1.9c-1.7-1.2-4.7-3.5-5.4-3.9c-1.2,0.3-10.9,3.7-11.8,4.2c-0.5,0.3-3.4,0.4-11.6,0.8
			c-3.4,0.2-6.6,0.3-7.5,0.4c-1.9,0.3-7.2,1.5-8.2,1.8L292.5,78.5z"/>
	</g>
	<g class="st-elem-detail">
		<path class="st--elem" d="M177.4,20c0,0-11.2,0.7-16.6,3.7c-5.4,3-42.3,24.7-42.3,24.7s-2.5,1.9-3,2.3c-0.6,0.4-1.2,1.7-0.7,1.9
			c0.6,0.1,7.5,0,7.5,0L159,36.3l17.8-10.4l3.9-3.4L177.4,20z"/>
		<path class="st1--fill" d="M117.1,53.3c-1.3,0-2.3,0-2.6-0.1c-0.4-0.1-0.6-0.4-0.7-0.7c-0.2-0.8,0.7-2,1.1-2.3c0.6-0.4,3.1-2.3,3.1-2.3
			c0.4-0.3,37.1-21.8,42.4-24.7c5.5-3,16.5-3.8,16.9-3.8l0.3,0l4.2,3.1l-4.5,4l-18,10.5l-37,16.3l-0.1,0
			C120.8,53.3,118.7,53.3,117.1,53.3z M115.4,51.9c1.2,0,4.4,0,6.7,0l36.7-16.2l17.8-10.4l3.1-2.8l-2.4-1.8
			c-1.7,0.1-11.3,1-16.1,3.6c-5.3,3-41.9,24.4-42.3,24.7c0,0-2.4,1.8-3,2.2C115.7,51.4,115.5,51.7,115.4,51.9z"/>
	</g>
	<g class="st-elem-detail">
		<path class="st--elem" d="M103.9,52.3c0,0,4.7-1.5,6-1.6c1.2-0.1,6.4-0.7,6.4-0.7h1.6l6.3,1.7c0,0-4.4,4.5-6.2,4.3
			c-1.7-0.2-7-0.6-7.4-0.6C110,55.4,103.9,52.3,103.9,52.3z"/>
		<path class="st1--fill" d="M118,56.6c-0.1,0-0.1,0-0.2,0c-1.7-0.2-7-0.6-7.3-0.6c-0.2,0-0.6,0-6.9-3.2l-1.5-0.8l1.6-0.5
			c0.5-0.2,4.8-1.5,6.1-1.6c1.2-0.1,6.4-0.7,6.4-0.7l1.7,0l7.5,2l-0.8,0.9C123.5,53.2,119.9,56.6,118,56.6z M110.6,54.7
			c0.5,0,5.7,0.3,7.4,0.6c0.7,0.1,2.8-1.5,4.7-3.2l-5-1.3h-1.5c0,0-5,0.5-6.3,0.6c-0.7,0.1-2.6,0.6-4.2,1.1
			C108.1,53.6,110.2,54.6,110.6,54.7C110.6,54.7,110.6,54.7,110.6,54.7z"/>
	</g>
	<g class="st-elem-detail">
		<path class="st--elem" d="M117.8,53.6c0,0,3.7-1.1,8-3.7c4.2-2.7,17.8-11.3,27.5-17.5c10.3-6.6,18.4-10.8,24.2-12.4
			c5.7-1.5,34.5-4.3,73-4.2c0,0,20.3-0.6,32.8,0.8c12.5,1.3,20.7,3,26.4,4.4c5.7,1.3,10,1.3,13,1.3c3,0,7.2,0.6,7.2,0.6v3.7
			c0,0,5.3,5.4,9.2,10.2c3.9,4.8,7,9.7,7,9.7s1.7,3.6,3.4,5.1c1.7,1.5,3.6,7.6,3.6,7.6s1.4,15.6,1.3,18.3c-0.2,2.7-1.7,7-1.7,7
			s-3.9-6.5-10.4-8.2c-5-1.3-7.3-4.9-7.3-4.9s-1.7,3-7,4.2c-5.3,1.1-16.4,2.5-24,2.9c-7.6,0.4-12.2,0.4-12.2,0.4s-16-9.4-31.7,5.9
			c-9.6,9.3-9.4,28.4-9.4,28.4l-0.2,2.3H101.7c0,0,2.1-13.3-6.2-27.7c-8.7-15-25.6-11.9-29.4-10.8c-3.9,1.2-5.8,1.9-5.8,1.9
			l-8.1-4.1l-2.6-3.9l4.8-3.8l47.8-6.7l10.9-4.2L117.8,53.6z"/>
		<path class="st1--fill" d="M251.1,116.1H100.9l0.1-0.8c0-0.1,2-13.3-6.1-27.3c-9.3-16.2-28.4-10.5-28.6-10.4c-3.8,1.2-5.8,1.9-5.8,1.9
			l-0.3,0.1l-8.6-4.3l-3-4.5l5.4-4.3l0.2,0l47.7-6.7l10.8-4.2l4.8-2.6c0,0,3.7-1.1,7.8-3.7c3.6-2.3,17.3-10.9,27.5-17.5
			c10.5-6.7,18.7-10.9,24.4-12.4c5.6-1.5,33.7-4.4,73.2-4.2c0.2,0,20.5-0.6,32.9,0.8c12.3,1.3,20.3,3,26.5,4.4
			c5.6,1.3,9.9,1.3,12.8,1.3c3,0,7.2,0.6,7.3,0.6l0.6,0.1v4c1,1,5.6,5.8,9,10c3.9,4.7,7,9.7,7,9.8c0.1,0.1,1.7,3.6,3.3,5
			c1.7,1.6,3.6,7.3,3.8,7.9l0,0.2c0.1,0.6,1.5,15.7,1.3,18.4c-0.2,2.7-1.6,7-1.7,7.2l-0.5,1.4l-0.8-1.3c0-0.1-3.9-6.3-10-7.9
			c-3.8-1-6.1-3.2-7.1-4.4c-0.9,1.1-3,2.9-6.9,3.7c-5.5,1.2-16.5,2.5-24.1,2.9c-7.5,0.4-12.2,0.4-12.2,0.4h-0.2l-0.2-0.1
			c-0.6-0.4-15.7-9-30.9,5.8c-9.2,9-9.2,27.7-9.2,27.9L251.1,116.1z M102.5,114.7h147.3l0.1-1.7c0-0.7-0.1-19.4,9.6-28.8
			c15.1-14.6,30.6-7.1,32.4-6.1c0.9,0,5.3,0,12-0.4c7.4-0.4,18.5-1.7,23.9-2.8c4.9-1.1,6.5-3.8,6.5-3.8l0.6-1l0.6,1
			c0,0,2.2,3.4,6.9,4.6c5,1.3,8.5,5.3,10,7.3c0.4-1.5,1.1-3.9,1.2-5.5c0.2-2.5-1.1-16.9-1.3-18.1c-0.6-1.7-2.2-6.1-3.4-7.2
			c-1.7-1.6-3.5-5.2-3.5-5.3l0,0c0,0-3.1-4.9-6.9-9.6c-3.8-4.7-9.1-10.1-9.2-10.1l-0.2-0.2v-3.4c-1.3-0.2-4.3-0.5-6.5-0.5
			c-2.9,0-7.3,0-13.1-1.4c-6.1-1.4-14-3.1-26.3-4.4c-12.3-1.3-32.5-0.8-32.7-0.8c-37.5-0.1-67,2.6-72.9,4.2
			c-5.6,1.5-13.6,5.6-24,12.3c-10.2,6.6-23.9,15.2-27.5,17.5c-4,2.5-7.5,3.6-8.1,3.8l-4.7,2.6L102.3,61l-47.6,6.6L50.6,71l2.1,3.2
			l7.7,3.9c0.7-0.2,2.6-0.9,5.6-1.8c0.2-0.1,20.3-6,30.2,11.1C103.4,99.9,102.9,111.6,102.5,114.7z"/>
	</g>
	<g class="st-elem-detail">
		<path class="st--elem" d="M24.7,85.8c0,0,2.4-7.5,3.1-10.9c0.7-3.4,1.7-4.4-0.1-4.9c-1.8-0.4-4.5-1.1-4.5-1.1s11.9-7,35.5-10.7
			c23.6-3.7,46.5-6.1,46.5-6.1s1.1-0.9,2.5,0c1.4,0.9,6.4,1.7,7.6,1.6c1.2-0.1,2.6,0,2.6,0l-5.9,7c0,0-17.3,2.3-29,3.6
			c-11.6,1.3-30.8,4.4-30.8,4.4L50.6,72c0,0-0.9,2.7-6.1,6.5c-5.2,3.8-12.1,7-15,7.4c-2.9,0.4-5.7,1.9-5.7,1.9v-2.7L24.7,85.8z"/>
		<path class="st1--fill" d="M23.1,88.9v-5.3l1.3,1c0.7-2.1,2.2-7.2,2.7-9.8c0.2-1,0.4-1.8,0.6-2.4c0.2-0.6,0.4-1.3,0.3-1.5l0,0
			c0,0-0.1-0.1-0.5-0.2c-1.8-0.4-4.5-1.1-4.5-1.1l-1.6-0.4l1.4-0.8c0.1-0.1,12.3-7.1,35.8-10.8c22.3-3.5,44.2-5.9,46.3-6.1
			c0.5-0.3,1.7-0.8,3.1,0.1c1.2,0.8,6,1.6,7.2,1.5c1.3-0.1,2.7,0,2.7,0l1.3,0.1l-6.9,8.3l-0.3,0c-0.2,0-17.5,2.3-29,3.6
			c-10.6,1.2-27.8,4-30.4,4.4l-1.5,2.9c0,0-1,2.8-6.3,6.7c-4.9,3.6-12,7.1-15.3,7.5c-2.8,0.4-5.4,1.8-5.5,1.8L23.1,88.9z M24.5,86.6
			L24.5,86.6C24.5,86.6,24.5,86.6,24.5,86.6L24.5,86.6z M25.1,68.7c0.9,0.2,1.9,0.5,2.7,0.7c0.4,0.1,1,0.3,1.3,0.8
			c0.4,0.6,0.2,1.4-0.2,2.5c-0.2,0.6-0.4,1.4-0.6,2.3c-0.7,3.4-3,10.7-3.1,11l-0.1,0.2c1.1-0.4,2.6-0.9,4.1-1.1
			c2.8-0.4,9.5-3.4,14.7-7.3c4.9-3.6,5.8-6.1,5.8-6.1l1.9-3.6l0.3-0.1c0.2,0,19.3-3.1,30.8-4.5c10.7-1.2,26.4-3.3,28.7-3.6l4.8-5.8
			c-0.3,0-0.7,0-1.1,0.1c-1.4,0.1-6.5-0.7-8.1-1.7c-0.9-0.6-1.6-0.1-1.7,0l-0.2,0.1l-0.2,0c-0.2,0-23.1,2.5-46.4,6.1
			C40.4,61.8,29,66.8,25.1,68.7z"/>
	</g>
	<g class="st-elem-detail">
		<path class="st--elem" d="M17.4,94.6l-1.7,2.9l0.9,10.7l3.7,0.4l5.5-3.7l-1.3-8.2c0,0-1.4-3-1.8-3C22.2,93.7,17.4,94.6,17.4,94.6z"/>
		<path class="st1--fill" d="M20.4,109.4l-4.5-0.5L15,97.4l2-3.4l0.3-0.1c1.4-0.3,4.8-0.9,5.3-0.9c0.4,0,0.9,0,2.5,3.4l0.1,0.2l1.3,8.6
			L20.4,109.4z M17.2,107.6l2.8,0.3l4.9-3.3L23.8,97c-0.5-1-1.1-2.1-1.4-2.5c-0.7,0.1-2.7,0.4-4.6,0.8l-1.5,2.5L17.2,107.6z"/>
	</g>
	<g class="st-elem-detail">
		<path class="st--elem" d="M23.2,69c0,0-2.5,1.4-3.1,3.8c-0.6,2.4-1.8,8.5-2,10.2c-0.3,1.7-0.6,5.2-0.6,5.2l1.5,1.8l7-1.7
			c0,0,2.6-7.4,2.7-8.7c0.1-1.4,1.4-5.8,1.4-6.1c0-0.3-0.7-4.9-1.6-5C27.6,68.1,23.2,69,23.2,69z"/>
		<path class="st1--fill" d="M18.7,90.6l-2-2.3l0-0.3c0-0.1,0.3-3.5,0.6-5.2c0.3-1.6,1.4-7.8,2-10.3c0.7-2.6,3.3-4.1,3.5-4.2l0.2-0.1
			c0.8-0.1,4.6-0.8,5.5-0.7c1.6,0.2,2.2,5.7,2.2,5.7c0,0.2,0,0.4-0.4,1.7c-0.4,1.4-0.9,3.7-1,4.5c-0.1,1.4-2.4,8.1-2.7,8.9l-0.1,0.4
			L18.7,90.6z M18.2,87.8l1,1.2l6.2-1.5c1-2.8,2.5-7.3,2.5-8.2c0.1-0.9,0.6-3.1,1-4.7c0.2-0.7,0.3-1.2,0.3-1.4
			c0-0.5-0.6-3.6-1.1-4.3c-0.7,0-2.9,0.3-4.8,0.7c-0.4,0.3-2.2,1.5-2.7,3.3c-0.7,2.4-1.8,8.6-2,10.1C18.5,84.4,18.2,87,18.2,87.8z
			 M28.4,68.9L28.4,68.9L28.4,68.9z"/>
	</g>
	<g class="st-elem-detail">
		<path class="st--elem" d="M17.4,88.1c0,0,3.8-0.5,6.1-1.8c2.4-1.3,6.8-2.8,9.8-4.3c3.6-1.7,3.3-1.6,3.3-1.6s4.1-1.6,6.4-3.1
			c2.2-1.6,7.5-5.3,7.5-5.3s1.2,1.6,5.4,3.1c4.1,1.6,5.6,3.1,5.6,3.1s-10.3,3.4-13.9,14.1c-2.8,7.4-2.6,20.4-2.6,20.4l-1.1,1.1
			l-16.7-1.6c0,0-5-0.7-6.5-1.5c-1.7-0.8-3.5-1.3-3.2-2.7c0.3-1.4,6.4-3,6.4-3l-1.2-8.1c0,0-0.1-1.2-0.6-1c-0.6,0.1-2.4,0-2.4,0v2.8
			h-2.8v-9.3l0.7-0.1L17.4,88.1z"/>
		<path class="st1--fill" d="M44.2,114.6l-17-1.7c-0.2,0-5.1-0.8-6.7-1.5c-0.3-0.1-0.5-0.3-0.8-0.4c-1.5-0.6-3.1-1.4-2.8-3.1
			c0.3-1.5,3.8-2.7,6.3-3.4L21.9,97c0-0.1,0-0.3-0.1-0.4c-0.4,0.1-1.1,0-1.6,0v2.7h-4.2V88.8l0.7-0.1l-0.1-1.2l0.6-0.1
			c0,0,3.7-0.5,5.9-1.7c1.3-0.7,3.2-1.5,5.2-2.3c1.6-0.7,3.3-1.4,4.7-2c2.8-1.3,3.2-1.5,3.2-1.6l0.3,0.6v0l-0.3-0.6l0.6-0.3l0,0
			c1.2-0.5,4-1.7,5.6-2.8c2.2-1.6,7.5-5.3,7.5-5.3l0.5-0.4l0.4,0.5c0,0,1.2,1.5,5.1,2.9c4.2,1.6,5.8,3.2,5.9,3.3l0.8,0.8l-1,0.3
			c-0.1,0-10,3.5-13.5,13.7c-2.7,7.2-2.6,20-2.6,20.2l0,0.3L44.2,114.6z M22.1,95.2c0.2,0,0.4,0.1,0.6,0.2c0.5,0.4,0.6,1.2,0.6,1.5
			l1.3,8.7l-0.6,0.2c-2.9,0.7-5.6,1.9-5.9,2.5c-0.1,0.5,0.4,0.9,2,1.6c0.3,0.1,0.6,0.2,0.8,0.4c1.2,0.6,5,1.2,6.3,1.4l16.3,1.6
			l0.7-0.7c0-2,0-13.5,2.7-20.4c3-8.9,10.4-12.8,13.2-14.1c-0.8-0.6-2.3-1.4-4.5-2.3c-3-1.1-4.5-2.3-5.2-2.9
			c-1.4,0.9-5.2,3.7-7.1,4.9c-2.3,1.6-6.3,3.2-6.5,3.2l0,0c-0.5,0.3-1.5,0.8-3.2,1.6c-1.4,0.7-3.1,1.4-4.7,2.1
			c-2,0.8-3.8,1.6-5.1,2.3c-1.9,1-4.5,1.6-5.7,1.8l0.1,1.1l-0.7,0.1V98h1.4v-2.8l0.8,0.1c0.8,0.1,1.9,0.1,2.2,0
			C21.9,95.2,22,95.2,22.1,95.2z M22.2,96.6C22.2,96.6,22.2,96.6,22.2,96.6C22.2,96.6,22.2,96.6,22.2,96.6z"/>
	</g>
	<g class="st-elem-detail">
		<path class="st--elem" d="M52.2,68.8c0,0-4.6-1.2-11.7,1c-7.1,2.1-9.9,3.2-11,5.4c-1,2.2-4.4,9.6-3.7,10.1c0.7,0.5,13.2-4.5,17.7-7.5
			c4.5-3,6.6-5,7.3-6.4C51.7,69.9,52.2,68.8,52.2,68.8z"/>
		<path class="st1--fill" d="M25.9,85.9c-0.2,0-0.3,0-0.4-0.1c-0.5-0.3-1.4-0.9,3.4-11c1.2-2.5,4.4-3.7,11.4-5.7c7.2-2.1,11.9-1,12.1-1
			l0.9,0.2l-1.7,3.3c-0.9,1.7-3.4,3.9-7.6,6.7C40.8,80.4,28.7,85.9,25.9,85.9z M48.7,69.2c-2,0-4.7,0.3-8,1.2c-7,2.1-9.6,3.2-10.5,5
			c-1.6,3.5-3.4,7.6-3.7,9c2.6-0.6,12.7-4.7,16.7-7.3c4.9-3.3,6.6-5.2,7.1-6.2l0.9-1.6C50.6,69.2,49.8,69.2,48.7,69.2z"/>
	</g>
	<g class="st-elem-detail">
		<g class="st-elem-detail">
			<ellipse class="st--elem" cx="279.4" cy="103.5" rx="24" ry="24.8"/>
			<path class="st1--fill" d="M279.4,129c-13.6,0-24.7-11.4-24.7-25.5c0-14.1,11.1-25.5,24.7-25.5s24.7,11.4,24.7,25.5
				C304.1,117.5,293,129,279.4,129z M279.4,79.4c-12.9,0-23.3,10.8-23.3,24.1c0,13.3,10.5,24.1,23.3,24.1
				c12.9,0,23.3-10.8,23.3-24.1C302.7,90.2,292.2,79.4,279.4,79.4z"/>
		</g>
		<g class="st-elem-detail">
			<ellipse class="st--elem" cx="279.4" cy="103.5" rx="17.1" ry="17.6"/>
			<path class="st1--fill" d="M279.4,121.8c-9.8,0-17.8-8.2-17.8-18.3c0-10.1,8-18.3,17.8-18.3s17.8,8.2,17.8,18.3
				C297.2,113.6,289.2,121.8,279.4,121.8z M279.4,86.5c-9,0-16.4,7.6-16.4,16.9s7.4,16.9,16.4,16.9c9,0,16.4-7.6,16.4-16.9
				S288.4,86.5,279.4,86.5z"/>
		</g>
		<g class="st-elem-detail">
			<path class="st--elem" d="M268.2,90.1c4.4-3.7,8.8-4.1,8.8-4.1l-0.2,10.9c0,0,0.1,1.4-0.8,1.9c-0.8,0.5-2.1,0.2-2.1,0.2l-9.7-3
				C264.2,96,265.2,92.7,268.2,90.1z"/>
			<path class="st1--fill" d="M274.8,99.8c-0.6,0-1-0.1-1.1-0.1l-10.4-3.2l0.2-0.7c0-0.1,1.1-3.5,4.3-6.2c4.5-3.8,9-4.2,9.2-4.3l0.8-0.1
				l-0.3,11.7c0,0.1,0.1,1.8-1.1,2.5C275.9,99.7,275.3,99.8,274.8,99.8z M265.1,95.6l9,2.8c0.2,0.1,1.1,0.2,1.6-0.1
				c0.3-0.2,0.4-0.9,0.4-1.3l0.2-10.1c-1.4,0.3-4.5,1.2-7.6,3.8l0,0C266.6,92.4,265.5,94.5,265.1,95.6z"/>
		</g>
		<g class="st-elem-detail">
			<path class="st--elem" d="M290.7,90.1c-4.4-3.7-8.8-4.1-8.8-4.1l0.2,10.6c0,0-0.1,1.4,0.8,1.9c0.8,0.5,2.1,0.2,2.1,0.2l9.7-2.7
				C294.8,96,293.8,92.7,290.7,90.1z"/>
			<path class="st1--fill" d="M284.1,99.5c-0.5,0-1.1-0.1-1.5-0.4c-1.2-0.7-1.1-2.4-1.1-2.6l-0.3-11.3l0.8,0.1c0.2,0,4.7,0.4,9.2,4.3l0,0
				c3.2,2.7,4.2,6.1,4.3,6.2l0.2,0.7l-10.4,2.8C285.1,99.4,284.7,99.5,284.1,99.5z M282.6,86.8l0.2,9.7c0,0.4,0.1,1.1,0.4,1.4
				c0.5,0.3,1.3,0.1,1.6,0.1l9-2.4c-0.4-1-1.5-3.1-3.6-4.9l0,0C287.1,88,284,87.1,282.6,86.8z"/>
		</g>
		<g class="st-elem-detail">
			<path class="st--elem" d="M278.4,121.1c5.7,0.1,10.5-3,10.5-3l-7.3-7.6c0,0-0.8-1.2-1.7-1c-0.9,0.1-1.8,1.2-1.8,1.2l-6.4,8.3
				C271.7,119,274.4,121,278.4,121.1z"/>
			<path class="st1--fill" d="M278.8,121.8c-0.1,0-0.3,0-0.4,0c-4.2-0.1-7-2.1-7.1-2.2l-0.6-0.4l6.8-8.9c0.1-0.1,1-1.3,2.2-1.5
				c1.4-0.2,2.3,1.2,2.4,1.3l7.8,8.1l-0.7,0.5C289.1,118.8,284.4,121.8,278.8,121.8z M272.7,118.8c1,0.5,3.1,1.5,5.7,1.6l0,0
				c4.1,0.1,7.8-1.6,9.4-2.5l-6.7-6.9c-0.3-0.3-0.8-0.9-1.1-0.8c-0.5,0.1-1.1,0.7-1.3,1L272.7,118.8z"/>
		</g>
		<g class="st-elem-detail">
			<path class="st--elem" d="M296.2,107.6c-1.5,5.6-3.8,7.4-3.8,7.4l-6.8-8.1c0,0-0.9-1.1-0.5-2c0.4-0.9,1.7-1.4,1.7-1.4l9.4-3.1
				C296.2,100.4,297.2,103.6,296.2,107.6z"/>
			<path class="st1--fill" d="M292.3,116l-7.2-8.6c-0.1-0.2-1.1-1.5-0.6-2.8c0.5-1.1,1.9-1.7,2-1.7l10.1-3.4l0.2,0.7
				c0,0.1,1.1,3.5-0.1,7.6v0c-1.6,5.8-3.9,7.7-4,7.8L292.3,116z M295.7,101.3l-8.7,2.9c-0.2,0.1-1,0.5-1.3,1
				c-0.2,0.4,0.2,1.1,0.4,1.3l6.2,7.5c0.7-0.8,2.1-2.8,3.1-6.6C296.2,104.7,295.9,102.4,295.7,101.3z"/>
		</g>
		<g class="st-elem-detail">
			<path class="st--elem" d="M262.8,107.6c1.5,5.6,4.9,8.5,4.9,8.5l5.6-8.3c0,0,0.9-1.1,0.5-2c-0.4-0.9-1.7-1.4-1.7-1.4l-9.4-4.1
				C262.7,100.4,261.7,103.6,262.8,107.6z"/>
			<path class="st1--fill" d="M267.8,117.2l-0.6-0.5c-0.1-0.1-3.6-3.1-5.1-8.9l0,0c-1.1-4.1-0.1-7.5-0.1-7.6l0.2-0.7l10.1,4.4
				c0.1,0.1,1.5,0.6,2,1.7c0.6,1.2-0.4,2.6-0.5,2.7L267.8,117.2z M263.2,101.3c-0.2,1.1-0.5,3.5,0.2,6.1l0,0c1.1,4,3.2,6.6,4.1,7.6
				l5.1-7.6c0.2-0.3,0.6-1,0.4-1.3c-0.2-0.5-1-0.9-1.3-1L263.2,101.3z"/>
		</g>
		<g class="st-elem-detail">
			<path class="st--elem" d="M281.9,103.3c0,1.2-1,2.2-2.1,2.2c-1.2,0-2.2-1-2.2-2.2c0-1.2,1-2.2,2.2-2.2
				C280.9,101.1,281.9,102.1,281.9,103.3z"/>
			<path class="st1--fill" d="M279.7,106.2c-1.6,0-2.8-1.3-2.8-2.9c0-1.6,1.3-2.9,2.8-2.9c1.6,0,2.8,1.3,2.8,2.9
				C282.6,104.9,281.3,106.2,279.7,106.2z M279.7,101.8c-0.8,0-1.5,0.7-1.5,1.5c0,0.8,0.7,1.5,1.5,1.5c0.8,0,1.5-0.7,1.5-1.5
				C281.2,102.5,280.5,101.8,279.7,101.8z"/>
		</g>
	</g>
	<g class="st-elem-detail">
		<g class="st-elem-detail">
			<ellipse class="st--elem" cx="73.7" cy="103.5" rx="24" ry="24.8"/>
			<path class="st1--fill" d="M73.7,129c-13.6,0-24.7-11.4-24.7-25.5C48.9,89.4,60,78,73.7,78c13.6,0,24.7,11.4,24.7,25.5
				C98.4,117.5,87.3,129,73.7,129z M73.7,79.4c-12.9,0-23.3,10.8-23.3,24.1c0,13.3,10.5,24.1,23.3,24.1S97,116.8,97,103.5
				C97,90.2,86.5,79.4,73.7,79.4z"/>
		</g>
		<g class="st-elem-detail">
			<ellipse class="st--elem" cx="73.7" cy="103.5" rx="17.1" ry="17.6"/>
			<path class="st1--fill" d="M73.7,121.8c-9.8,0-17.8-8.2-17.8-18.3c0-10.1,8-18.3,17.8-18.3c9.8,0,17.8,8.2,17.8,18.3
				C91.5,113.6,83.5,121.8,73.7,121.8z M73.7,86.5c-9,0-16.4,7.6-16.4,16.9s7.4,16.9,16.4,16.9c9,0,16.4-7.6,16.4-16.9
				S82.7,86.5,73.7,86.5z"/>
		</g>
		<g class="st-elem-detail">
			<path class="st--elem" d="M62.5,90.1c4.4-3.7,8.8-4.1,8.8-4.1l-0.2,10.9c0,0,0.1,1.4-0.8,1.9c-0.8,0.5-2.1,0.2-2.1,0.2l-9.7-3
				C58.5,96,59.4,92.7,62.5,90.1z"/>
			<path class="st1--fill" d="M69.1,99.8c-0.6,0-1-0.1-1.1-0.1l-10.4-3.2l0.2-0.7c0-0.1,1.1-3.5,4.3-6.2l0,0c4.5-3.8,9-4.2,9.2-4.3
				l0.8-0.1l-0.3,11.7c0,0.1,0.1,1.8-1.1,2.5C70.2,99.7,69.6,99.8,69.1,99.8z M59.4,95.6l9,2.8c0.2,0.1,1.1,0.2,1.6-0.1
				c0.3-0.2,0.4-0.9,0.4-1.3l0.2-10.1c-1.4,0.3-4.5,1.2-7.6,3.8l0,0C60.9,92.4,59.8,94.5,59.4,95.6z"/>
		</g>
		<g class="st-elem-detail">
			<path class="st--elem" d="M85,90.1c-4.4-3.7-8.8-4.1-8.8-4.1l0.2,10.6c0,0-0.1,1.4,0.8,1.9c0.8,0.5,2.1,0.2,2.1,0.2L89,96
				C89,96,88.1,92.7,85,90.1z"/>
			<path class="st1--fill" d="M78.4,99.5c-0.5,0-1.1-0.1-1.5-0.4c-1.1-0.7-1.1-2.4-1.1-2.6l-0.3-11.3l0.8,0.1c0.2,0,4.7,0.4,9.2,4.3
				c3.2,2.7,4.2,6.1,4.3,6.2l0.2,0.7l-10.4,2.8C79.4,99.4,79,99.5,78.4,99.5z M76.9,86.8l0.2,9.7c0,0.4,0.1,1.1,0.4,1.4
				c0.5,0.3,1.3,0.1,1.6,0.1l9-2.4c-0.4-1-1.5-3.1-3.6-4.9l0,0C81.4,88,78.3,87.1,76.9,86.8z"/>
		</g>
		<g class="st-elem-detail">
			<path class="st--elem" d="M72.7,121.1c5.7,0.1,10.5-3,10.5-3l-7.3-7.6c0,0-0.8-1.2-1.7-1c-0.9,0.1-1.8,1.2-1.8,1.2L66,119
				C66,119,68.7,121,72.7,121.1z"/>
			<path class="st1--fill" d="M73.1,121.8c-0.1,0-0.3,0-0.4,0c-4.2-0.1-7-2.1-7.1-2.2l-0.6-0.4l6.8-8.9c0.1-0.1,1-1.3,2.2-1.5
				c1.3-0.2,2.3,1.2,2.4,1.3l7.8,8.1l-0.7,0.5C83.4,118.8,78.7,121.8,73.1,121.8z M67,118.8c1,0.5,3.1,1.5,5.7,1.6l0,0
				c4.1,0.1,7.8-1.6,9.4-2.5l-6.7-6.9c-0.3-0.3-0.8-0.9-1.1-0.8c-0.5,0.1-1.2,0.7-1.3,1L67,118.8z"/>
		</g>
		<g class="st-elem-detail">
			<path class="st--elem" d="M90.5,107.6c-1.5,5.6-3.8,7.4-3.8,7.4l-6.8-8.1c0,0-0.9-1.1-0.5-2c0.4-0.9,1.7-1.4,1.7-1.4l9.4-3.1
				C90.5,100.4,91.5,103.6,90.5,107.6z"/>
			<path class="st1--fill" d="M86.6,116l-7.2-8.6c-0.1-0.2-1.1-1.5-0.6-2.8c0.5-1.1,1.9-1.7,2-1.7L91,99.5l0.2,0.7c0,0.1,1.1,3.5-0.1,7.6
				l0,0c-1.6,5.8-3.9,7.7-4,7.8L86.6,116z M90,101.3l-8.7,2.9c-0.2,0.1-1,0.5-1.3,1c-0.2,0.4,0.2,1.1,0.4,1.3l6.2,7.5
				c0.7-0.8,2.1-2.8,3.1-6.6C90.5,104.7,90.2,102.4,90,101.3z"/>
		</g>
		<g class="st-elem-detail">
			<path class="st--elem" d="M57.1,107.6c1.5,5.6,4.9,8.5,4.9,8.5l5.6-8.3c0,0,0.9-1.1,0.5-2c-0.4-0.9-1.7-1.4-1.7-1.4l-9.4-4.1
				C57,100.4,56,103.6,57.1,107.6z"/>
			<path class="st1--fill" d="M62.1,117.2l-0.6-0.5c-0.1-0.1-3.6-3.1-5.1-8.9l0,0c-1.1-4.1-0.1-7.5-0.1-7.6l0.2-0.7l10.1,4.4
				c0.1,0.1,1.5,0.6,2,1.7c0.6,1.2-0.4,2.6-0.5,2.7L62.1,117.2z M57.7,107.4c1.1,4,3.2,6.6,4.1,7.6l5.1-7.6c0.2-0.3,0.6-1,0.4-1.4
				c-0.2-0.5-1-0.9-1.3-1l-8.6-3.7C57.3,102.5,57,104.8,57.7,107.4L57.7,107.4z"/>
		</g>
		<g class="st-elem-detail">
			<path class="st--elem" d="M76.2,103.3c0,1.2-1,2.2-2.1,2.2c-1.2,0-2.2-1-2.2-2.2c0-1.2,1-2.2,2.2-2.2
				C75.2,101.1,76.2,102.1,76.2,103.3z"/>
			<path class="st1--fill" d="M74,106.2c-1.6,0-2.8-1.3-2.8-2.9c0-1.6,1.3-2.9,2.8-2.9c1.6,0,2.8,1.3,2.8,2.9
				C76.9,104.9,75.6,106.2,74,106.2z M74,101.8c-0.8,0-1.5,0.7-1.5,1.5c0,0.8,0.7,1.5,1.5,1.5c0.8,0,1.5-0.7,1.5-1.5
				C75.5,102.5,74.8,101.8,74,101.8z"/>
		</g>
	</g>
	<g class="st-elem-detail">
		<path class="st--elem" d="M312.5,21.5c0,0,3.6,1,5.4,2.5c1.8,1.5,3.6,3.3,3.6,3.3l8.5-0.8v-3.7c0,0-6.7-0.7-9.3-0.8
			C317.9,22,312.5,21.5,312.5,21.5z"/>
		<path class="st1--fill" d="M321.1,28.1l-0.2-0.2c0,0-1.8-1.8-3.5-3.2c-1.7-1.4-5.1-2.4-5.1-2.4l0.3-1.4c0.1,0,5.5,0.5,8.1,0.5
			c2.6,0.1,9.1,0.8,9.3,0.8l0.6,0.1v5L321.1,28.1z M316.8,22.6c0.5,0.3,1,0.6,1.5,1c1.4,1.2,2.8,2.6,3.4,3.1l7.5-0.7v-2.5
			c-1.7-0.2-6.5-0.7-8.6-0.7C319.6,22.7,318.2,22.7,316.8,22.6z"/>
	</g>
	<g class="st-elem-detail">
		<path class="st--elem" d="M353,59.2c0,0,1.6,17,1.2,19.5c-0.4,2.5-0.6,3.5-0.6,3.5l-0.9,2.3l-9.1-9.6l-0.7-11.6l1.5-3.1l1.7-2.4
			L353,59.2z"/>
		<path class="st1--fill" d="M352.9,85.8l-10-10.5l-0.7-12l1.6-3.3l2.1-2.8l7.8,1.5l0,0.5c0.1,0.7,1.6,17.1,1.2,19.7
			c-0.4,2.5-0.6,3.6-0.6,3.6L352.9,85.8z M344.3,74.7l8.1,8.6l0.5-1.3l0,0c0,0,0.2-1,0.6-3.4c0.3-1.9-0.7-13.7-1.1-18.8l-5.9-1.1
			l-1.5,2l-1.4,2.9L344.3,74.7z"/>
	</g>
	<g class="st-elem-detail">
		<path class="st--elem" d="M329,26.6l-8,0.8c0,0,12.4,16.1,16.3,20.6c3.8,4.4,5.9,6.5,6.8,8.6c0.8,2.1,1.4,3.1,1.4,3.1l7.6-0.4
			c0,0-1.2-3.9-3.3-7.1c-2-3.2-8.6-12.6-11.9-16.2C334.6,32.2,329,26.6,329,26.6z"/>
		<path class="st1--fill" d="M345,60.3l-0.2-0.4c0,0-0.6-1-1.4-3.2c-0.6-1.5-2-3.1-4.3-5.7c-0.7-0.8-1.5-1.7-2.4-2.7
			c-3.8-4.4-16.2-20.4-16.3-20.6l-0.8-1l9.6-0.9l0.2,0.2c0.1,0.1,5.7,5.7,8.9,9.3c3.3,3.7,9.9,13.1,11.9,16.3
			c2.1,3.2,3.3,7.1,3.3,7.3l0.3,0.9L345,60.3z M322.3,27.9c2.8,3.6,12.3,15.8,15.5,19.5c0.9,1,1.7,1.9,2.4,2.7
			c2.4,2.7,3.8,4.4,4.5,6.1c0.5,1.3,0.9,2.2,1.1,2.6l6.3-0.3c-0.5-1.3-1.5-3.9-2.9-6.1c-2-3.1-8.5-12.5-11.8-16.1
			c-2.8-3.2-7.5-7.9-8.6-9L322.3,27.9z"/>
	</g>
	<g class="st-elem-detail">
		<path class="st--elem" d="M345.5,59.6c0,0-7.4-1.3-12.8,0c-5.4,1.3-6.4,2.3-5.6,3.7c0.7,1.4,1.2,6,10.7,11.4c9.6,5.4,12.6,7.4,12.6,7.4
			s-0.2-9.7-1.8-15c-1.6-5.3-3.3-7.5-3.3-7.5"/>
		<path class="st1--fill" d="M351.1,83.4l-1.1-0.7c0,0-3.2-2-12.6-7.4c-8.4-4.8-10-9-10.7-11c-0.1-0.3-0.2-0.5-0.3-0.7
			c-0.3-0.7-0.4-1.2-0.1-1.8c0.5-1.1,2.2-1.9,6.2-2.9c5.5-1.4,12.8-0.1,13.1,0l-0.1,0.5l0.3-0.2c0.1,0.1,1.7,2.3,3.4,7.7
			c1.7,5.3,1.8,14.8,1.9,15.2L351.1,83.4z M338.4,59.7c-1.9,0-3.8,0.1-5.6,0.6c-3.2,0.8-5,1.5-5.3,2.1c0,0.1-0.1,0.2,0.1,0.6
			c0.1,0.2,0.2,0.5,0.3,0.8c0.7,1.9,2.1,5.7,10.1,10.3c6.4,3.6,9.9,5.7,11.5,6.7c-0.1-2.8-0.5-9.5-1.8-13.6c-1.3-4.2-2.6-6.4-3-7.1
			C343.9,60.1,341.3,59.7,338.4,59.7z"/>
	</g>
	<g class="st-elem-detail">
		<path class="st--elem" d="M208.8,21.5c0,0,13.3-0.4,28.4,0c15.1,0.4,20.5,0.9,25.1,1.3c4.6,0.4,6.8,1.2,6.8,1.2s3.7,4.5,7.2,12.2
			c3.5,7.7,5.6,13.8,5.6,13.8l-11,24.4c0,0-10.7,4.7-15.5,11.5c-4.5,6.4-6.3,17.3-6.3,17.3l-48,0.6l-3.5-2.8c0,0,2.9-46.4,3.5-54.2
			c0.6-7.8,3.7-17.5,4.3-20.3C205.8,23.8,208.8,21.5,208.8,21.5z"/>
		<path class="st1--fill" d="M200.8,104.6l-4-3.2l0-0.4c0-0.5,2.9-46.5,3.5-54.2c0.4-5.8,2.3-12.8,3.4-17c0.4-1.5,0.7-2.7,0.9-3.4
			c0.6-3,3.6-5.4,3.8-5.5l0.2-0.1l0.2,0c0.1,0,13.5-0.4,28.4,0c13.5,0.3,19.4,0.8,23.6,1.2l1.5,0.1c4.6,0.4,6.9,1.2,7,1.3l0.2,0.1
			l0.1,0.1c0.2,0.2,3.8,4.7,7.3,12.4c3.5,7.6,5.6,13.8,5.7,13.9l0.1,0.3L271.4,75l-0.2,0.1c-0.1,0-10.6,4.7-15.3,11.3
			c-4.4,6.2-6.1,16.9-6.2,17l-0.1,0.6L200.8,104.6z M198.3,100.8l3,2.4l47.2-0.6c0.4-2.4,2.3-11.3,6.3-17
			c4.5-6.4,13.9-10.9,15.6-11.6l10.8-23.9c-0.4-1.2-2.5-6.8-5.5-13.5c-3.1-6.7-6.3-11.1-7-11.9c-0.6-0.2-2.7-0.8-6.4-1.1l-1.5-0.1
			c-4.2-0.4-10.1-0.9-23.5-1.2c-13.8-0.3-26.3-0.1-28.1,0c-0.6,0.5-2.7,2.4-3.1,4.5c-0.1,0.7-0.5,1.9-0.9,3.4
			c-1.1,4.1-3,11-3.4,16.7C201.2,54.2,198.5,96.4,198.3,100.8z"/>
	</g>
	<g class="st-elem-detail">
		<path class="st--elem" d="M208.8,21.5c0,0-25.3,0.3-38.5,6.7C157,34.6,142.6,42.6,135,48.4c-7.6,5.7-13.1,10.3-15.1,14.3s-2.6,22-2,29
			c0.6,7,2.4,13.9,2.4,13.9l80.8-1.6c0,0-2.8-32.4,0.9-46.6C205.3,44.7,208.8,21.5,208.8,21.5z"/>
		<path class="st1--fill" d="M119.7,106.2l-0.1-0.5c0-0.1-1.9-7.1-2.4-14c-0.5-6.5-0.1-25,2.1-29.4c2-4,7.2-8.3,15.3-14.5
			c7.3-5.5,21.1-13.4,35.3-20.2c13.3-6.4,37.8-6.7,38.8-6.7l0.8,0l-0.1,0.8c0,0.2-3.5,23.3-6.8,35.8c-3.6,13.9-1,46-0.9,46.3
			l0.1,0.7L119.7,106.2z M208,22.2c-4.4,0.1-25.8,1-37.4,6.6c-13.9,6.7-28,14.8-35.1,20.1c-7.8,5.9-13,10.3-14.9,14
			c-1.9,3.8-2.5,21.8-2,28.6c0.5,5.7,1.8,11.5,2.2,13.2l79.5-1.6c-0.4-5-2.4-33,1-46.1C204.2,46,207.3,26.5,208,22.2z"/>
	</g>
	<path class="st1--fill" d="M112.1,61.4l-0.2-1.4c0.6-0.1,56.6-6.6,99.8-8.1c42.9-1.6,80.2-2,93-1.8c12,0.2,35.8,1.1,36,1.1l-0.1,1.4
		c-0.2,0-24-0.9-36-1.1c-12.8-0.2-50,0.2-92.9,1.8C168.6,54.9,112.6,61.4,112.1,61.4z"/>
	<g class="st-elem-detail">
		<path class="st--elem" d="M208.8,23.6c0,0,32.1-0.1,41.9,0.5c9.8,0.6,15.2,1.6,15.2,1.6s3.4,6.6,5.8,11.3c2.4,4.7,4.7,10.1,4.7,10.1
			s1,0.7,0,2.3c-1,1.6-2.5,1.6-2.5,1.6l-70.8,1.6c0,0,2.8-14,3.5-18.2C207.3,30.3,208.8,23.6,208.8,23.6z"/>
		<path class="st1--fill" d="M202.3,53.3l0.2-0.8c0-0.1,2.8-14.1,3.5-18.2c0.7-4.1,2.2-10.8,2.2-10.9l0.1-0.5l0.6,0c0.3,0,32.2-0.1,42,0.5
			C260.5,24,266,25,266,25l0.3,0.1l0.2,0.3c0,0.1,3.5,6.6,5.8,11.3c2.1,4.3,4.3,9.2,4.7,10c0.5,0.5,0.9,1.6,0,3.1
			c-1.1,1.9-3,1.9-3.1,1.9L202.3,53.3z M209.3,24.3c-0.4,1.7-1.5,6.9-2.1,10.3c-0.6,3.5-2.7,14.2-3.3,17.4l69.9-1.6
			c0.1,0,1.2-0.1,2-1.3c0.6-1,0.2-1.3,0.2-1.4l-0.2-0.3c0-0.1-2.4-5.5-4.7-10.1c-2-4.1-4.9-9.6-5.6-11c-1.3-0.2-6.5-1-14.8-1.6
			C241.7,24.2,213.7,24.3,209.3,24.3z"/>
	</g>
	<g class="st-elem-detail">
		<line class="st--elem" x1="213.6" y1="23.6" x2="210.7" y2="52.4"/>
		
			<rect x="197.7" y="37.3" transform="matrix(9.969727e-02 -0.995 0.995 9.969727e-02 153.2194 245.3325)" class="st1--fill" width="29" height="1.4"/>
	</g>
	<g class="st-elem-detail">
		<line class="st--elem" x1="253.9" y1="24.3" x2="250.8" y2="51.3"/>
		
			<rect x="238.8" y="37.1" transform="matrix(0.1132 -0.9936 0.9936 0.1132 186.2571 284.2508)" class="st1--fill" width="27.1" height="1.4"/>
	</g>
	<g class="st-elem-detail">
		<line class="st--elem" x1="257.6" y1="24.6" x2="255.4" y2="51.3"/>
		
			<rect x="243.1" y="37.3" transform="matrix(8.401563e-02 -0.9965 0.9965 8.401563e-02 197.1167 290.3331)" class="st1--fill" width="26.7" height="1.4"/>
	</g>
	<g class="st-elem-detail">
		<path class="st--elem" d="M208.8,23.6c0,0-21.7,1.1-29.5,3.1c-9.4,2.4-26.6,12-29.3,13.7c-2.8,1.7-14.1,8.7-18.5,12.6
			c-3.5,3.1-7.4,6.3-7.4,6.3l40.1-3.8l32.1-2.3L203,53L208.8,23.6z"/>
		<path class="st1--fill" d="M121.9,60.3l1.7-1.4c0,0,4-3.3,7.4-6.3c2.9-2.6,9.1-6.8,18.4-12.5l0.3-0.2c2-1.3,19.7-11.2,29.5-13.8
			c7.8-2,28.7-3.1,29.6-3.2l0.9,0l-6,30.8l-7.4,0.4l-32.1,2.3L121.9,60.3z M207.9,24.3c-4.2,0.2-21.7,1.3-28.4,3.1
			c-9.7,2.5-27.1,12.4-29.1,13.6l-0.3,0.2c-9.2,5.7-15.4,9.9-18.2,12.4c-2,1.8-4.2,3.7-5.7,4.9l37.8-3.6l32.1-2.3l6.3-0.3
			L207.9,24.3z"/>
	</g>
	<g class="st-elem-detail">
		<g class="st-elem-detail">
			<path class="st--elem" d="M149.3,54.5c-2.1,0.7-2.7,2.4-4.3,2.1c-1.7-0.4-3.1-1.6-4.2-1.6c-1.1,0.1-2.7-2.2-2.7-2.2h-1.6
				c0,0,1-5.3,3.8-7.4c2.9-2.1,8.1-3,9.3-1c1.2,2,0.4,5,0.4,5.6c0,0.6,0.3,2.5,0.3,2.5v1.9L149.3,54.5z"/>
			<path class="st1--fill" d="M145.4,57.3c-0.2,0-0.4,0-0.6-0.1c-0.9-0.2-1.6-0.6-2.3-0.9c-0.6-0.3-1.3-0.7-1.7-0.6
				c-1.2,0.1-2.5-1.4-3.1-2.2h-2l0.2-0.8c0-0.2,1.1-5.6,4.1-7.8c2.3-1.6,5.8-2.6,8.1-2.1c1,0.2,1.8,0.7,2.2,1.3
				c1.1,1.8,0.8,4.3,0.6,5.5c0,0.2-0.1,0.4-0.1,0.5c0,0.5,0.2,1.9,0.2,2.4l0,2.8l-1.7-0.1c-0.7,0.3-1.2,0.7-1.7,1.1
				C147,56.8,146.3,57.3,145.4,57.3z M140.9,54.3c0.7,0,1.5,0.4,2.2,0.8c0.6,0.3,1.3,0.7,2,0.8c0.6,0.1,1-0.1,1.7-0.7
				c0.6-0.4,1.3-1,2.3-1.3l0.1,0l0.5,0v-1.2c0-0.1-0.3-1.9-0.3-2.5c0-0.1,0-0.4,0.1-0.7c0.2-1.1,0.5-3.1-0.4-4.5
				c-0.3-0.4-0.8-0.6-1.3-0.7c-1.9-0.4-5.1,0.5-7,1.9c-2,1.4-3,4.6-3.4,6.1h1.1l0.2,0.3c0.7,1,1.6,2,2,1.9
				C140.8,54.3,140.8,54.3,140.9,54.3z"/>
		</g>
		<g class="st-elem-detail">
			<path class="st--elem" d="M140,54.3c0,0,3.3-1.7,5.7-1.7c1.3,0,4.1,1.4,4.1,1.4"/>
			<path class="st1--fill" d="M140.3,55l-0.6-1.2c0.1-0.1,3.5-1.8,6-1.8c0,0,0,0,0,0c1.4,0,4.1,1.3,4.4,1.5l-0.6,1.2
				c-1-0.5-2.9-1.3-3.7-1.3h0C143.5,53.3,140.4,54.9,140.3,55z"/>
		</g>
	</g>
	<g class="st-elem-detail">
		<path class="st--elem" d="M269.6,24.1c0,0,26.4,1.6,34.3,4.8c13.7,5.6,26.7,22.7,26.7,22.7l-48.5-0.8l0.4-0.6c0,0-2.9-8.2-5.6-13.8
			C274.5,31.5,269.6,24.1,269.6,24.1z"/>
		<path class="st1--fill" d="M332.1,52.2l-51.3-0.9l0.9-1.3c-0.6-1.6-3.1-8.5-5.5-13.4c-2.3-4.7-7.1-12.1-7.2-12.2l-0.8-1.2l1.4,0.1
			c1.1,0.1,26.6,1.6,34.5,4.8c13.7,5.6,26.4,22.2,27,22.9L332.1,52.2z M283.2,50l46,0.8c-3.2-3.9-14.2-16.6-25.5-21.3
			c-6.7-2.7-27.2-4.3-32.7-4.7c1.5,2.3,4.7,7.5,6.5,11.1c2.7,5.6,5.6,13.8,5.7,13.9L283.2,50z"/>
	</g>
	<g class="st-elem-detail">
		<path class="st--elem" d="M276.3,27.4c0,0,20.4,0,32.1,7.8c9.5,6.3,15.4,14,15.4,14l-35.4-0.9L276.3,27.4z"/>
		<path class="st1--fill" d="M325.2,49.8l-37.2-0.9l-12.8-22.3h1.2c0.8,0,20.7,0.1,32.5,7.9c9.5,6.3,15.5,14.1,15.5,14.1L325.2,49.8z
			 M288.7,47.6l33.5,0.8c-2-2.4-7.1-7.9-14.2-12.7c-9.8-6.5-25.9-7.5-30.5-7.6L288.7,47.6z"/>
	</g>
	<g class="st-elem-detail">
		<path class="st--elem" d="M331.1,30.5h-4.2c0,0-1.9-0.7-0.7,0.8c1.2,1.4,13.8,17.3,13.8,17.3h7.1c0,0-7.4-9.4-10.1-12.6
			C334.2,32.9,331.1,30.5,331.1,30.5z"/>
		<path class="st1--fill" d="M348.5,49.3h-8.8l-0.2-0.3c-0.1-0.2-12.6-15.9-13.8-17.3c-0.2-0.3-0.9-1-0.4-1.7c0.4-0.5,1.1-0.5,1.8-0.3h4.3
			l0.2,0.1c0.1,0.1,3.3,2.4,6,5.6c2.7,3.1,10.1,12.5,10.1,12.6L348.5,49.3z M340.4,47.9h5.3c-2-2.6-7.1-9-9.2-11.4
			c-2.3-2.6-4.9-4.7-5.6-5.3h-3.8C329.2,33.8,338.8,45.9,340.4,47.9z"/>
	</g>
	<g class="st-elem-detail">
		<path class="st--elem" d="M194.1,66.7c0.1,1.1-3.6,2.3-8.1,2.6c-4.6,0.3-8.3-0.3-8.4-1.4c-0.1-1.1,3.6-2.3,8.1-2.6
			C190.2,65,194,65.6,194.1,66.7z"/>
		<path class="st1--fill" d="M183.5,70.1c-2.6,0-5.2-0.3-6.2-1.2c-0.4-0.3-0.5-0.7-0.5-0.9c-0.2-2.6,7.9-3.3,8.8-3.3
			c3.1-0.2,7.3-0.1,8.7,1.1c0.4,0.3,0.5,0.7,0.5,0.9v0c0.2,2.6-7.9,3.3-8.8,3.3C185.2,70,184.3,70.1,183.5,70.1z M178.2,67.9
			c0.5,0.5,3.3,1.1,7.6,0.7c4.3-0.3,7-1.3,7.5-1.8c-0.5-0.5-3.3-1.1-7.6-0.7C181.4,66.3,178.7,67.3,178.2,67.9z"/>
	</g>
	<g class="st-elem-detail">
		<path class="st--elem" d="M265.7,63.1c0.1,1.1-3.6,2.3-8.1,2.6c-4.6,0.3-8.3-0.3-8.4-1.4c-0.1-1.1,3.6-2.3,8.1-2.6
			C261.8,61.4,265.6,62,265.7,63.1z"/>
		<path class="st1--fill" d="M255.1,66.5c-2.6,0-5.2-0.3-6.2-1.2c-0.4-0.3-0.5-0.7-0.5-0.9c-0.2-2.6,7.9-3.3,8.8-3.3
			c3.1-0.2,7.3-0.1,8.7,1.1c0.4,0.3,0.5,0.7,0.5,0.9l0,0c0.2,2.6-7.9,3.3-8.8,3.3C256.8,66.4,255.9,66.5,255.1,66.5z M249.8,64.2
			c0.5,0.5,3.3,1.1,7.6,0.7c4.3-0.3,7-1.3,7.5-1.8c-0.5-0.5-3.3-1.1-7.6-0.7C253,62.7,250.3,63.7,249.8,64.2z"/>
	</g>
	<g class="st-elem-detail">
		<path class="st--elem" d="M303.4,69c0,0.5-0.3,1.9-0.7,1.9H290c-0.5,0-0.5-1.4-0.5-1.9v-7.4c0-0.5,0-0.4,0.5-0.4h12.7
			c0.5,0,0.7-0.1,0.7,0.4V69z"/>
		<path class="st1--fill" d="M302.7,71.6H290c-1.2,0-1.2-1.8-1.2-2.6v-7.4c0-0.3,0-0.6,0.3-0.9c0.3-0.2,0.5-0.2,0.8-0.2l0.1,0l12.9,0
			c0.3,0,0.7,0,1,0.3c0.3,0.3,0.3,0.7,0.3,0.8V69C304.1,69,304,71.6,302.7,71.6z M290.3,70.2h12.2c0.1-0.3,0.3-0.9,0.3-1.2l0-7.1
			h-12.5V69C290.2,69.6,290.3,70,290.3,70.2z"/>
	</g>
<g class="st-elem-detail">
	<path class="st--elem" d="M333.4,278.5l-3.1,3.2h-56.2l-3-3.2l6.3-34.9l24.9-9.5l16.2,2.1c0,0,6.8,8.5,8.5,9.6
		c1.7,1.1,9.1,14.6,9.1,14.6L333.4,278.5z"/>
	<path class="st1--fill" d="M330.5,282.4h-56.7l-3.5-3.6l6.4-35.6l25.4-9.7l0.2,0l16.5,2.1l0.2,0.2c1.9,2.3,7.1,8.6,8.4,9.5
		c1.7,1.2,8,12.5,9.3,14.8l0.1,0.2l-2.7,18.5L330.5,282.4z M274.4,281H330l2.7-2.8l2.6-17.6c-2.9-5.2-7.7-13.4-8.8-14.1
		c-1.6-1.1-7.2-8-8.5-9.5l-15.8-2.1l-24.4,9.3l-6.1,34.2L274.4,281z"/>
</g>
<g class="st-elem-detail">
	<path class="st--elem" d="M62.5,272.4l3.9,5.6l61.2,1.1v-3.4c0,0,1.9-25-0.2-27.3c-2.1-2.3-31-16.5-31.8-15.9c-0.8,0.6-22,0.1-22.3,1.5
		c-0.3,1.3-10.9,20-10.9,20V272.4z"/>
	<path class="st1--fill" d="M128.3,279.8l-62.3-1.1l-4.3-6.1v-18.8l0.1-0.2c4-7.1,10.6-18.8,10.8-19.9c0.2-1.1,2-1.4,15.2-1.7
		c3.3-0.1,7-0.1,7.5-0.3c0.2-0.2,0.8-0.6,16,6.9c2.5,1.2,15.1,7.5,16.6,9.2c2.2,2.4,0.7,23.6,0.3,27.8L128.3,279.8z M66.8,277.3
		l60.1,1v-2.7c0.9-12.2,1.2-25.5,0-26.8c-2-2.2-28.7-15.2-31.1-15.7c-0.6,0.2-2.3,0.3-7.9,0.4c-4.7,0.1-12.6,0.3-13.9,0.8
		c-0.9,2.4-8.9,16.5-10.8,19.8v18L66.8,277.3z"/>
</g>
<g class="st-elem-detail">
	<path class="st--elem" d="M83.7,242.9c0,0-8.2,3.6-12.1,11c-3.7,7-4.1,12.6-4.6,15.5c-0.4,2.8,0,6.3,0,6.3s-31.7-5-35.1-5.5
		c-3.5-0.6-10.7-5.7-10.7-5.7l-1.4,1.1l-2.9-2.7c0,0,1.2-5,0-7.7c-1.2-2.7-1.2-2.7-1.2-2.7s0.6-2.7,1.2-3.1c0.7-0.4,4.5-2.9,4.5-2.9
		s10.6-7.8,11.1-8.1c0.6-0.3,7.7-5.8,8.3-5.8c0.6,0,11.3,3.8,12.2,4.3c0.8,0.4,16.6,0.9,18.8,1.1c2.2,0.3,8.4,1.9,8.4,1.9
		L83.7,242.9z"/>
	<path class="st1--fill" d="M67.8,276.4l-0.9-0.1c-0.3-0.1-31.7-5-35.1-5.5c-3.1-0.5-8.9-4.4-10.5-5.5l-1.4,1.2l-3.6-3.4l0.1-0.4
		c0,0,1.2-4.8,0-7.2l-1.3-2.9l0-0.2c0.2-1.1,0.7-3.1,1.6-3.6c0.7-0.4,4.5-2.9,4.5-2.9c2.5-1.8,10.6-7.8,11.2-8.1
		c0.2-0.1,1.3-0.9,2.4-1.8c5.2-3.8,5.8-4.1,6.2-4.1c0.8,0,11.9,4,12.5,4.3c0.6,0.2,6.6,0.5,11,0.7c3.6,0.2,6.7,0.3,7.6,0.4
		c2.2,0.3,8.3,1.8,8.5,1.9l0.2,0l4.3,3.9l-1,0.4c-0.1,0-8,3.6-11.8,10.7c-3.3,6.1-3.9,11.1-4.3,14.2c-0.1,0.4-0.1,0.8-0.2,1.1
		c-0.4,2.7,0,6,0,6.1L67.8,276.4z M21.2,263.5l0.4,0.3c0.1,0.1,7.1,5,10.4,5.6c3.1,0.5,29.1,4.6,34.2,5.4c-0.1-1.2-0.2-3.5,0.1-5.5
		c0-0.3,0.1-0.7,0.1-1.1c0.4-3.1,1.1-8.3,4.5-14.6c3.3-6.1,9.2-9.6,11.5-10.8l-2.5-2.3c-1-0.3-6.2-1.5-8.2-1.8
		c-0.9-0.1-4.1-0.3-7.5-0.4c-8.2-0.4-11-0.5-11.6-0.8c-0.9-0.4-10.4-3.8-11.8-4.2c-0.8,0.4-3.8,2.6-5.4,3.9
		c-1.8,1.3-2.4,1.8-2.6,1.9c-0.5,0.3-6.9,5-11.1,8c0,0-3.8,2.5-4.5,2.9c-0.2,0.2-0.6,1.3-0.9,2.5l1.1,2.5c1.1,2.5,0.4,6.4,0.1,7.7
		l2.2,2L21.2,263.5z"/>
</g>
<g class="st-elem-detail">
	<path class="st--elem" d="M197.6,184.4c0,0,11.2,0.7,16.6,3.7c5.4,3,42.3,24.6,42.3,24.6s2.5,1.8,3,2.3c0.6,0.4,1.2,1.7,0.7,1.8
		c-0.6,0.1-7.5,0-7.5,0L216,200.7l-17.8-10.4l-3.9-3.4L197.6,184.4z"/>
	<path class="st1--fill" d="M257.9,217.6c-1.6,0-3.6,0-5.1-0.1l-0.3-0.1l-36.8-16.2l-17.9-10.4l-4.6-4.1l4.2-3.1l0.3,0
		c0.5,0,11.5,0.8,16.9,3.8c5.3,3,42,24.4,42.3,24.6c0.1,0,2.6,1.9,3.1,2.3c0.6,0.4,1.3,1.6,1.1,2.3c-0.1,0.4-0.3,0.6-0.7,0.7
		C260.2,217.6,259.2,217.6,257.9,217.6z M252.9,216.2c2.3,0,5.5,0.1,6.7,0c-0.1-0.2-0.3-0.5-0.5-0.7c-0.6-0.4-3-2.3-3-2.3
		c-0.3-0.2-36.9-21.6-42.2-24.5c-4.8-2.6-14.4-3.5-16.1-3.6l-2.4,1.8l3.2,2.8l17.7,10.3L252.9,216.2z"/>
</g>
<g class="st-elem-detail">
	<path class="st--elem" d="M271.1,216.6c0,0-4.7-1.1-6-1.2c-1.2-0.1-6.4-0.2-6.4-0.2h-1.6l-6.3,1.3c0,0,4.4,4.3,6.2,4
		c1.7-0.2,7-0.7,7.4-0.7C265,219.8,271.1,216.6,271.1,216.6z"/>
	<path class="st1--fill" d="M257,221.1c-2,0-5.5-3.2-6.5-4.2l-1-0.9l7.6-1.5l1.7,0c0.2,0,5.2,0.1,6.4,0.2c1.3,0.1,5.8,1.2,6,1.2l1.8,0.4
		l-1.7,0.9c-6.3,3.3-6.7,3.3-6.9,3.3c-0.4,0-5.6,0.4-7.3,0.7C257.1,221.1,257.1,221.1,257,221.1z M252.4,216.8
		c1.8,1.6,3.9,3,4.6,2.9c1.8-0.2,7.1-0.7,7.5-0.7c0.3-0.1,2.3-1.1,4.5-2.2c-1.5-0.3-3.3-0.7-4-0.8c-1.2-0.1-6.2-0.2-6.3-0.2h-1.5
		L252.4,216.8z"/>
</g>
<g class="st-elem-detail">
	<path class="st--elem" d="M257.2,217.9c0,0-3.7-1.1-8-3.7c-4.2-2.7-17.8-11.2-27.5-17.4c-10.3-6.6-18.5-10.8-24.2-12.3
		c-5.7-1.5-34.5-4.3-73-4.2c0,0-20.3-0.6-32.8,0.8c-12.5,1.3-20.7,3-26.4,4.4c-5.7,1.3-9.6,1.3-12.6,1.3c-3,0-6.9,0.6-6.9,0.6v3.7
		c0,0-5.7,5.4-9.6,10.1c-3.9,4.7-7.2,9.7-7.2,9.7s-1.8,3.6-3.5,5.1c-1.7,1.5-3.7,7.6-3.7,7.6s-1.5,15.5-1.3,18.2
		c0.2,2.7,1.7,7,1.7,7s3.9-6.5,10.4-8.2c5-1.3,7.3-4.9,7.3-4.9s1.7,3,7,4.2c5.3,1.1,16.4,2.5,24,2.8c7.6,0.4,12.2,0.4,12.2,0.4
		s16-9.4,31.7,5.9c9.6,9.3,9.4,28.7,9.4,28.7l0.2,2.7h148.7c0,0-2.1-13.7,6.2-28.1c8.7-15,25.6-12.1,29.4-10.9
		c3.9,1.2,5.8,1.8,5.8,1.8l8.1-4.1l2.6-3.9l-4.8-3.8l-47.8-6.7l-10.9-4.2L257.2,217.9z"/>
	<path class="st1--fill" d="M274.1,281H123.9l-0.2-3.4c0-0.2,0-19.3-9.2-28.2c-15.2-14.7-30.7-5.9-30.9-5.8l-0.2,0.1h-0.2
		c0,0-4.7,0-12.2-0.4c-7.6-0.4-18.6-1.7-24.1-2.9c-3.9-0.8-6-2.6-6.9-3.7c-1,1.2-3.3,3.4-7.1,4.4c-6.1,1.6-9.9,7.8-10,7.9l-0.8,1.3
		l-0.5-1.4c-0.1-0.2-1.5-4.5-1.7-7.2c-0.2-2.7,1.2-17.7,1.3-18.3l0-0.2c0.2-0.6,2.1-6.3,3.9-7.9c1.5-1.4,3.3-4.9,3.3-4.9
		c0.1-0.1,3.4-5.1,7.2-9.8c3.4-4.2,8.3-9,9.4-10v-4l0.6-0.1c0.2,0,4-0.6,7-0.6c2.9,0,6.8,0,12.4-1.3c6.2-1.4,14.2-3.1,26.5-4.4
		c12.4-1.3,32.7-0.8,32.9-0.8c39.5-0.2,67.6,2.7,73.2,4.2c5.7,1.5,13.9,5.7,24.4,12.4c9.3,5.9,22.7,14.4,27.5,17.4
		c4.1,2.6,7.8,3.6,7.8,3.7l0.1,0.1l4.7,2.6L273,224l47.9,6.7l5.4,4.3l-3,4.5l-8.5,4.3l-6.1-1.9c-0.2-0.1-19.1-5.7-28.6,10.6
		c-8.1,14-6.1,27.5-6.1,27.6L274.1,281z M125.2,279.6h147.3c-0.3-3.2-0.9-15.1,6.4-27.7c10-17.2,30-11.3,30.2-11.2l5.6,1.7l7.7-3.9
		l2.1-3.2l-4.1-3.3l-47.7-6.7l-10.9-4.2l-4.7-2.6c-0.6-0.2-4.1-1.3-8.1-3.8c-4.8-3-18.2-11.5-27.5-17.4c-10.3-6.6-18.4-10.7-24-12.2
		c-5.9-1.6-35.3-4.3-72.9-4.1c-0.2,0-20.4-0.5-32.8,0.8c-12.2,1.3-20.2,2.9-26.3,4.3c-5.8,1.3-9.8,1.3-12.8,1.3
		c-2.2,0-5,0.3-6.2,0.5v3.4l-0.2,0.2c-0.1,0.1-5.7,5.4-9.5,10.1c-3.8,4.7-7.1,9.6-7.1,9.6c0,0.1-1.9,3.7-3.6,5.2
		c-1.2,1.1-2.9,5.5-3.5,7.2c-0.1,1.2-1.4,15.5-1.3,18c0.1,1.7,0.8,4,1.2,5.5c1.5-2,5-6,10-7.3c4.7-1.2,6.9-4.6,6.9-4.6l0.6-1l0.6,1
		c0,0,1.6,2.8,6.5,3.8c5.3,1.1,16.5,2.5,23.9,2.8c6.6,0.3,11,0.4,12,0.4c1.8-1,17.3-8.5,32.4,6.1c9.7,9.4,9.6,28.4,9.6,29.2
		L125.2,279.6z"/>
</g>
<g class="st-elem-detail">
	<path class="st--elem" d="M351.5,250c0,0-3-7.4-3.7-10.9c-0.7-3.4-2-4.4-0.2-4.8c1.8-0.4,4.3-1.1,4.3-1.1s-11.9-7-35.6-10.7
		c-23.7-3.7-46.5-6.1-46.5-6.1s-1.1-0.9-2.5,0c-1.4,0.9-6.4,1.7-7.6,1.6c-1.2-0.1-2.6,0-2.6,0l5.9,7c0,0,17.3,2.3,29,3.6
		c11.6,1.3,30.8,4.4,30.8,4.4l1.7,3.2c0,0,0.9,2.6,6.1,6.4c5.2,3.8,13.3,7,16.2,7.4c3,0.4,6.9,1.9,6.9,1.9v-2.7L351.5,250z"/>
	<path class="st1--fill" d="M354.3,252.9l-0.9-0.4c0,0-3.9-1.5-6.7-1.9c-3-0.4-11.2-3.6-16.5-7.5c-5.3-3.9-6.3-6.7-6.3-6.8l-1.5-2.8
		c-2.6-0.4-19.8-3.2-30.4-4.4c-11.5-1.3-28.8-3.6-29-3.6l-0.3,0l-6.9-8.2l1.3-0.1c0.1,0,1.4-0.2,2.7,0c1.1,0.1,6-0.7,7.2-1.5
		c1.4-0.9,2.7-0.3,3.1-0.1c2.1,0.2,24,2.6,46.4,6.1c23.5,3.7,35.7,10.7,35.8,10.8l1.4,0.8l-1.6,0.4c0,0-2.6,0.7-4.3,1.1
		c-0.3,0.1-0.4,0.1-0.4,0.1c0,0.1,0.2,0.7,0.3,1.1c0.2,0.7,0.6,1.6,0.8,2.8c0.6,2.7,2.7,8.3,3.4,10.1l2.4-0.9V252.9z M351.9,250.6
		c0.4,0.1,0.7,0.2,1,0.3v-0.7L351.9,250.6z M263.4,224.4c2.2,0.3,18,2.3,28.7,3.6c11.5,1.3,30.6,4.4,30.8,4.4l0.3,0.1l1.8,3.5
		c0,0.1,1,2.6,5.9,6.2c5,3.7,13,6.9,15.9,7.3c1.3,0.2,2.8,0.5,4,0.9c-0.2-0.5-3-7.6-3.7-11c-0.2-1.1-0.5-1.9-0.7-2.6
		c-0.3-0.9-0.6-1.6-0.2-2.2c0.3-0.5,0.9-0.7,1.3-0.8c0.8-0.2,1.8-0.4,2.6-0.7c-3.9-1.9-15.3-6.9-33.8-9.8
		c-23.4-3.7-46.2-6.1-46.5-6.1l-0.2,0l-0.2-0.1c-0.1-0.1-0.8-0.5-1.7,0c-1.5,0.9-6.6,1.8-8.1,1.7c-0.4,0-0.7-0.1-1.1-0.1
		L263.4,224.4z"/>
</g>
<g class="st-elem-detail">
	<path class="st--elem" d="M357.6,258.8l1.7,2.9l-0.9,10.7l-3.7,0.4l-5.5-3.7l1.3-8.2c0,0,1.4-3,1.8-3
		C352.8,257.9,357.6,258.8,357.6,258.8z"/>
	<path class="st1--fill" d="M354.6,273.5l-6.1-4.1l1.4-8.8c1.6-3.4,2.1-3.4,2.5-3.4c0.5,0,4.2,0.7,5.3,0.9l0.3,0.1l2,3.4l-0.9,11.4
		L354.6,273.5z M350,268.8l4.9,3.3l2.8-0.3l0.8-9.9l-1.5-2.5c-1.9-0.3-3.9-0.7-4.6-0.8c-0.3,0.4-0.9,1.5-1.4,2.5L350,268.8z"/>
</g>
<g class="st-elem-detail">
	<path class="st--elem" d="M351.8,233.2c0,0,2.5,1.4,3.1,3.7c0.6,2.4,1.8,8.4,2,10.1c0.3,1.7,0.6,5.2,0.6,5.2l-1.5,1.8l-7-1.7
		c0,0-2.6-7.3-2.7-8.7c-0.1-1.4-1.4-5.8-1.4-6.1c0-0.3,0.7-4.9,1.6-5C347.4,232.4,351.8,233.2,351.8,233.2z"/>
	<path class="st1--fill" d="M356.3,254.8l-7.8-1.9l-0.1-0.4c-0.3-0.8-2.6-7.5-2.7-8.9c-0.1-0.8-0.6-3.1-1-4.5c-0.3-1.3-0.4-1.5-0.4-1.7
		c0-0.1,0.5-5.5,2.2-5.7c0.9-0.1,4.7,0.6,5.5,0.7l0.2,0.1c0.1,0.1,2.7,1.5,3.5,4.2c0.7,2.4,1.8,8.7,2,10.2c0.3,1.7,0.6,5.1,0.6,5.2
		l0,0.3L356.3,254.8z M349.6,251.7l6.2,1.5l1-1.2c-0.1-0.9-0.3-3.4-0.5-4.8c-0.2-1.5-1.4-7.7-2-10.1c-0.5-1.8-2.3-3-2.7-3.3
		c-1.9-0.3-4.1-0.7-4.8-0.7c-0.5,0.7-1,3.6-1.1,4.4c0,0.1,0.2,0.6,0.3,1.3c0.4,1.6,1,3.8,1,4.7C347.1,244.4,348.6,248.9,349.6,251.7
		z M346.7,233.2C346.7,233.2,346.7,233.2,346.7,233.2C346.7,233.2,346.7,233.2,346.7,233.2z"/>
</g>
<g class="st-elem-detail">
	<path class="st--elem" d="M357.6,252.3c0,0-3.8-0.5-6.1-1.8c-2.4-1.3-6.8-2.8-9.8-4.3c-3.6-1.7-3.3-1.6-3.3-1.6s-4.2-1.6-6.4-3.1
		c-2.2-1.6-7.5-5.3-7.5-5.3s-1.2,1.6-5.4,3.1c-4.2,1.6-5.6,3.1-5.6,3.1s10.3,3.4,13.9,14.1c2.8,7.3,2.6,20.3,2.6,20.3l1.1,1.1
		l16.8-1.9c0,0,3.3-0.7,5.5-1.5c2.2-0.8,4.4-1,4.1-2.4c-0.3-1.4-6.4-3-6.4-3l1.2-8.1c0,0,0.6-1.2,1.1-1c0.6,0.1,2.9,0,2.9,0v2.2h1.4
		v-8.7l-0.5-0.1L357.6,252.3z"/>
	<path class="st1--fill" d="M330.8,278.7l-1.5-1.6l0-0.3c0-0.1,0.1-12.9-2.6-20.1c-3.5-10.2-13.4-13.6-13.5-13.7l-1-0.3l0.8-0.8
		c0.1-0.1,1.6-1.7,5.9-3.3c3.9-1.5,5.1-2.9,5.1-2.9l0.4-0.5l0.5,0.4c0,0,5.3,3.7,7.5,5.3c1.6,1.1,4.4,2.3,5.6,2.8l0,0l0.6,0.3
		l-0.2,0.5l0.3-0.5c0.1,0,0.5,0.2,3.2,1.6c1.4,0.7,3,1.3,4.7,2c2,0.8,3.9,1.6,5.2,2.3c2.2,1.2,5.8,1.7,5.9,1.7l0.8,0.1l-0.3,1.2
		l0.3,0.1v10h-2.8v-2.2c-0.7,0-1.8,0.1-2.3,0c-0.1,0.1-0.3,0.3-0.4,0.5l-1.1,7.4c2.5,0.7,6,1.9,6.3,3.4c0.3,1.7-1.5,2.3-3.2,2.8
		c-0.4,0.1-0.9,0.3-1.4,0.4c-2.2,0.7-5.4,1.5-5.5,1.5L330.8,278.7z M330.7,276.6l0.7,0.7l16.5-1.9l0,0c0,0,3.2-0.7,5.3-1.4
		c0.5-0.2,1-0.3,1.4-0.4c1.4-0.4,2.4-0.7,2.3-1.2c-0.2-0.6-3-1.7-5.9-2.4l-0.6-0.2l1.4-8.9c0.2-0.4,0.9-1.6,1.9-1.4
		c0.3,0.1,1.6,0,2.7,0l0.7,0v2.3v-7.5l-0.6-0.2l0.3-1c-1.3-0.2-3.8-0.8-5.6-1.7c-1.2-0.7-3.1-1.4-5.1-2.2c-1.6-0.7-3.3-1.4-4.7-2
		c-1.7-0.8-2.7-1.3-3.2-1.6l0,0c-0.2-0.1-4.3-1.6-6.5-3.2c-1.8-1.3-5.7-4-7.1-4.9c-0.7,0.6-2.3,1.8-5.2,2.9
		c-2.3,0.9-3.7,1.7-4.5,2.3c2.9,1.2,10.2,5.2,13.2,14.1C330.6,263.1,330.7,274.6,330.7,276.6z M338.1,245.2L338.1,245.2L338.1,245.2
		z"/>
</g>
<g class="st-elem-detail">
	<path class="st--elem" d="M322.8,233c0,0,4.6-1.2,11.7,1c7.1,2.1,9.9,3.2,11,5.4c1,2.1,4.4,9.6,3.7,10c-0.7,0.5-13.2-4.5-17.7-7.5
		c-4.5-3-6.6-5-7.3-6.4C323.4,234.1,322.8,233,322.8,233z"/>
	<path class="st1--fill" d="M349.1,250.1c-2.7,0-14.9-5.5-18-7.6c-4.2-2.8-6.7-5-7.6-6.7l-1.7-3.3l0.9-0.2c0.2,0,4.9-1.2,12.1,1
		c7,2.1,10.2,3.3,11.4,5.7c4.8,10.1,4,10.6,3.4,10.9C349.4,250,349.3,250.1,349.1,250.1z M323.8,233.6l0.9,1.6
		c0.5,1,2.2,2.9,7.1,6.1c4,2.7,14.1,6.7,16.7,7.3c-0.3-1.5-2-5.6-3.7-9c-0.9-1.8-3.5-2.9-10.5-5
		C329.2,233.2,325.5,233.4,323.8,233.6z"/>
</g>
<g class="st-elem-detail">
		<ellipse class="st--elem" cx="95.6" cy="267.6" rx="24" ry="24.7"/>
		<path class="st1--fill" d="M95.6,293c-13.6,0-24.7-11.4-24.7-25.4c0-14,11.1-25.4,24.7-25.4s24.7,11.4,24.7,25.4
			C120.3,281.6,109.3,293,95.6,293z M95.6,243.6c-12.9,0-23.3,10.8-23.3,24c0,13.2,10.5,24,23.3,24s23.3-10.8,23.3-24
			C119,254.4,108.5,243.6,95.6,243.6z"/>
	</g>
	<g class="st-elem-detail">
		<ellipse class="st--elem" cx="95.6" cy="267.6" rx="17.1" ry="17.6"/>
		<path class="st1--fill" d="M95.6,285.9c-9.8,0-17.8-8.2-17.8-18.3c0-10.1,8-18.3,17.8-18.3s17.8,8.2,17.8,18.3
			C113.4,277.7,105.4,285.9,95.6,285.9z M95.6,250.7c-9,0-16.4,7.6-16.4,16.9c0,9.3,7.4,16.9,16.4,16.9c9,0,16.4-7.6,16.4-16.9
			C112,258.3,104.7,250.7,95.6,250.7z"/>
	</g>
	<g class="st-elem-detail">
		<path class="st--elem" d="M106.8,254.3c-4.4-3.7-8.8-4.1-8.8-4.1l0.2,10.9c0,0-0.1,1.4,0.8,1.9c0.8,0.5,2.1,0.2,2.1,0.2l9.7-3
			C110.8,260.2,109.8,256.9,106.8,254.3z"/>
		<path class="st1--fill" d="M100.2,263.9c-0.5,0-1.1-0.1-1.5-0.4c-1.2-0.7-1.1-2.4-1.1-2.6l-0.3-11.6l0.8,0.1c0.2,0,4.7,0.4,9.2,4.2
			c3.2,2.7,4.2,6.1,4.3,6.2l0.2,0.7l-10.4,3.2C101.2,263.8,100.7,263.9,100.2,263.9z M98.7,251l0.2,10c0,0.4,0.1,1.1,0.4,1.3
			c0.4,0.3,1.3,0.2,1.6,0.1l9-2.8c-0.4-1-1.5-3.1-3.6-4.9l0,0C103.2,252.2,100.1,251.3,98.7,251z"/>
	</g>
	<g class="st-elem-detail">
		<path class="st--elem" d="M84.3,254.3c4.4-3.7,8.8-4.1,8.8-4.1l-0.2,10.5c0,0,0.1,1.4-0.8,1.9c-0.8,0.5-2.1,0.2-2.1,0.2l-9.7-2.6
			C80.2,260.2,81.2,256.9,84.3,254.3z"/>
		<path class="st1--fill" d="M90.9,263.6c-0.6,0-1-0.1-1.1-0.1l-10.4-2.8l0.2-0.7c0-0.1,1.1-3.5,4.3-6.2c4.5-3.8,9-4.2,9.2-4.2l0.8-0.1
			l-0.3,11.3c0,0.1,0.1,1.8-1.1,2.5C92,263.5,91.4,263.6,90.9,263.6z M81.2,259.7l9,2.4c0.3,0.1,1.1,0.2,1.6-0.1
			c0.3-0.2,0.4-0.9,0.4-1.3l0.2-9.7c-1.4,0.3-4.5,1.2-7.6,3.8l0,0C82.7,256.6,81.6,258.6,81.2,259.7z"/>
	</g>
	<g class="st-elem-detail">
		<path class="st--elem" d="M96.6,285.2c-5.7,0.1-10.5-3-10.5-3l7.3-7.6c0,0,0.8-1.2,1.7-1c0.9,0.1,1.8,1.2,1.8,1.2l6.4,8.3
			C103.3,283.1,100.6,285.1,96.6,285.2z"/>
		<path class="st1--fill" d="M96.2,285.9c-5.6,0-10.3-3-10.5-3.1l-0.7-0.5l7.9-8.2c0-0.1,1-1.4,2.3-1.2c1.2,0.2,2.1,1.4,2.2,1.5l6.9,8.9
			l-0.6,0.4c-0.1,0.1-2.9,2.1-7.1,2.2C96.4,285.9,96.3,285.9,96.2,285.9z M87.2,282c1.5,0.8,5.3,2.6,9.4,2.5l0,0
			c2.7-0.1,4.7-1,5.7-1.6l-5.9-7.7c-0.2-0.2-0.8-0.9-1.3-1c-0.4-0.1-0.9,0.5-1.1,0.7L87.2,282z"/>
	</g>
	<g class="st-elem-detail">
		<path class="st--elem" d="M78.8,271.7c1.5,5.6,3.8,7.4,3.8,7.4l6.8-8.1c0,0,0.9-1.1,0.5-2c-0.4-0.9-1.7-1.4-1.7-1.4l-9.4-3.1
			C78.8,264.5,77.8,267.7,78.8,271.7z"/>
		<path class="st1--fill" d="M82.7,280.1l-0.5-0.4c-0.1-0.1-2.5-2-4-7.8c-1.1-4.1-0.1-7.5-0.1-7.6l0.2-0.7l10.1,3.3
			c0.2,0.1,1.6,0.6,2.1,1.8c0.6,1.2-0.4,2.6-0.5,2.7L82.7,280.1z M79.3,265.4c-0.2,1.1-0.5,3.5,0.2,6.1l0,0c1,3.7,2.4,5.7,3.1,6.5
			l6.3-7.5c0.2-0.2,0.5-0.9,0.4-1.3c-0.2-0.5-1-0.9-1.3-1L79.3,265.4z"/>
	</g>
	<g class="st-elem-detail">
		<path class="st--elem" d="M112.2,271.7c-1.5,5.6-4.9,8.5-4.9,8.5l-5.6-8.3c0,0-0.9-1.1-0.5-2c0.4-0.9,1.7-1.4,1.7-1.4l9.4-4
			C112.3,264.5,113.3,267.7,112.2,271.7z"/>
		<path class="st1--fill" d="M107.2,281.2l-6-8.9c-0.1-0.1-1.1-1.5-0.5-2.7c0.5-1.1,1.9-1.7,2-1.7l10.1-4.3l0.2,0.7c0,0.1,1.1,3.5-0.1,7.6
			l0,0c-1.6,5.7-5,8.7-5.1,8.8L107.2,281.2z M111.8,265.5l-8.6,3.7c-0.3,0.1-1.1,0.5-1.3,1c-0.2,0.4,0.2,1.1,0.4,1.3l5.2,7.6
			c1-1.1,3.1-3.6,4.2-7.6l0,0C112.3,268.9,112,266.6,111.8,265.5z"/>
	</g>
	<g class="st-elem-detail">
		<ellipse class="st--elem" cx="95.2" cy="267.4" rx="2.2" ry="2.2"/>
		<path class="st1--fill" d="M95.2,270.3c-1.6,0-2.8-1.3-2.8-2.9c0-1.6,1.3-2.9,2.8-2.9c1.6,0,2.8,1.3,2.8,2.9
			C98.1,269,96.8,270.3,95.2,270.3z M95.2,265.9c-0.8,0-1.5,0.7-1.5,1.5c0,0.8,0.7,1.5,1.5,1.5c0.8,0,1.5-0.7,1.5-1.5
			C96.7,266.6,96.1,265.9,95.2,265.9z"/>
	</g>

	<g class="st-elem-detail">
		<ellipse class="st--elem" cx="301.3" cy="267.6" rx="24" ry="24.7"/>
		<path class="st1--fill" d="M301.3,293c-13.6,0-24.7-11.4-24.7-25.4c0-14,11.1-25.4,24.7-25.4c13.6,0,24.7,11.4,24.7,25.4
			C326.1,281.6,315,293,301.3,293z M301.3,243.6c-12.9,0-23.3,10.8-23.3,24c0,13.2,10.5,24,23.3,24c12.9,0,23.3-10.8,23.3-24
			C324.7,254.4,314.2,243.6,301.3,243.6z"/>
	</g>
	<g class="st-elem-detail">
		<ellipse class="st--elem" cx="301.3" cy="267.6" rx="17.1" ry="17.6"/>
		<path class="st1--fill" d="M301.3,285.9c-9.8,0-17.8-8.2-17.8-18.3c0-10.1,8-18.3,17.8-18.3s17.8,8.2,17.8,18.3
			C319.1,277.7,311.1,285.9,301.3,285.9z M301.3,250.7c-9,0-16.4,7.6-16.4,16.9c0,9.3,7.4,16.9,16.4,16.9s16.4-7.6,16.4-16.9
			C317.7,258.3,310.4,250.7,301.3,250.7z"/>
	</g>
	<g class="st-elem-detail">
		<path class="st--elem" d="M312.5,254.3c-4.4-3.7-8.8-4.1-8.8-4.1l0.2,10.9c0,0-0.1,1.4,0.8,1.9c0.8,0.5,2.1,0.2,2.1,0.2l9.7-3
			C316.5,260.2,315.6,256.9,312.5,254.3z"/>
		<path class="st1--fill" d="M305.9,263.9c-0.5,0-1.1-0.1-1.5-0.4c-1.2-0.7-1.1-2.4-1.1-2.6l-0.3-11.6l0.8,0.1c0.2,0,4.7,0.4,9.2,4.2l0,0
			c3.2,2.7,4.2,6.1,4.3,6.2l0.2,0.7l-10.4,3.2C306.9,263.8,306.5,263.9,305.9,263.9z M304.4,251l0.2,10c0,0.4,0.1,1.1,0.4,1.3
			c0.5,0.3,1.3,0.1,1.6,0.1l9-2.8c-0.4-1-1.5-3.1-3.6-4.9C308.9,252.2,305.8,251.3,304.4,251z"/>
	</g>
	<g class="st-elem-detail">
		<path class="st--elem" d="M290,254.3c4.4-3.7,8.8-4.1,8.8-4.1l-0.2,10.5c0,0,0.1,1.4-0.7,1.9c-0.8,0.5-2.1,0.2-2.1,0.2l-9.7-2.6
			C286,260.2,286.9,256.9,290,254.3z"/>
		<path class="st1--fill" d="M296.6,263.6c-0.6,0-1-0.1-1.1-0.1l-10.4-2.8l0.2-0.7c0-0.1,1.1-3.5,4.3-6.2l0,0c4.5-3.8,9-4.2,9.2-4.2
			l0.8-0.1l-0.3,11.3c0,0.1,0.1,1.8-1.1,2.5C297.7,263.5,297.1,263.6,296.6,263.6z M286.9,259.7l9,2.4c0.3,0.1,1.1,0.2,1.6-0.1
			c0.3-0.2,0.4-0.9,0.4-1.3l0.2-9.7c-1.4,0.3-4.5,1.2-7.6,3.8l0,0C288.4,256.6,287.3,258.6,286.9,259.7z"/>
	</g>
	<g class="st-elem-detail">
		<path class="st--elem" d="M302.3,285.2c-5.7,0.1-10.5-3-10.5-3l7.3-7.6c0,0,0.8-1.2,1.7-1c0.9,0.1,1.8,1.2,1.8,1.2l6.4,8.3
			C309,283.1,306.3,285.1,302.3,285.2z"/>
		<path class="st1--fill" d="M301.9,285.9c-5.6,0-10.3-3-10.5-3.1l-0.7-0.5l7.9-8.2c0-0.1,1-1.4,2.3-1.2c1.2,0.2,2.1,1.4,2.2,1.5l6.8,8.9
			l-0.6,0.4c-0.1,0.1-2.9,2.1-7.1,2.2C302.2,285.9,302,285.9,301.9,285.9z M292.9,282c1.5,0.8,5.3,2.6,9.4,2.5l0,0
			c2.7-0.1,4.7-1,5.7-1.6l-5.9-7.7c-0.2-0.2-0.8-0.9-1.3-1c-0.4-0.1-0.9,0.5-1.1,0.7L292.9,282z"/>
	</g>
	<g class="st-elem-detail">
		<path class="st--elem" d="M284.5,271.7c1.5,5.6,3.8,7.4,3.8,7.4l6.8-8.1c0,0,0.9-1.1,0.5-2c-0.4-0.9-1.7-1.4-1.7-1.4l-9.4-3.1
			C284.5,264.5,283.5,267.7,284.5,271.7z"/>
		<path class="st1--fill" d="M288.4,280.1l-0.5-0.4c-0.1-0.1-2.5-2-4-7.8l0,0c-1.1-4.1-0.1-7.5-0.1-7.6l0.2-0.7l10.1,3.3
			c0.2,0.1,1.6,0.6,2.1,1.8c0.6,1.2-0.4,2.6-0.5,2.7L288.4,280.1z M285.2,271.5c1,3.7,2.4,5.7,3.1,6.5l6.3-7.5
			c0.2-0.2,0.5-0.9,0.4-1.3c-0.2-0.5-1-0.9-1.3-1l-8.6-2.9C284.8,266.5,284.5,268.9,285.2,271.5L285.2,271.5z"/>
	</g>
	<g class="st-elem-detail">
		<path class="st--elem" d="M317.9,271.7c-1.5,5.6-4.9,8.5-4.9,8.5l-5.6-8.3c0,0-0.9-1.1-0.5-2c0.4-0.9,1.7-1.4,1.7-1.4l9.4-4
			C318,264.5,319,267.7,317.9,271.7z"/>
		<path class="st1--fill" d="M312.9,281.2l-6-8.9c-0.1-0.1-1.1-1.5-0.5-2.7c0.5-1.1,1.9-1.7,2-1.7l10.1-4.3l0.2,0.7c0,0.1,1.1,3.5-0.1,7.6
			l0,0c-1.6,5.7-5,8.7-5.1,8.8L312.9,281.2z M317.5,265.5l-8.6,3.7c-0.3,0.1-1.1,0.5-1.3,1c-0.2,0.4,0.2,1.1,0.4,1.3l5.2,7.6
			c1-1.1,3.1-3.6,4.1-7.6l0,0C318,268.9,317.7,266.6,317.5,265.5z"/>
	</g>
	<g class="st-elem-detail">
		<ellipse class="st--elem" cx="301" cy="267.4" rx="2.1" ry="2.2"/>
		<path class="st1--fill" d="M301,270.3c-1.6,0-2.8-1.3-2.8-2.9c0-1.6,1.3-2.9,2.8-2.9c1.6,0,2.8,1.3,2.8,2.9
			C303.8,269,302.5,270.3,301,270.3z M301,265.9c-0.8,0-1.5,0.7-1.5,1.5c0,0.8,0.7,1.5,1.5,1.5c0.8,0,1.5-0.7,1.5-1.5
			C302.4,266.6,301.8,265.9,301,265.9z"/>
	</g>
<g class="st-elem-detail">
	<path class="st--elem" d="M62.5,186c0,0-3.6,1-5.4,2.5c-1.8,1.5-3.2,3.3-3.2,3.3l-8.1-0.8v-3.7c0,0,6.3-0.7,8.9-0.8
		C57.4,186.4,62.5,186,62.5,186z"/>
	<path class="st1--fill" d="M54.3,192.5l-9.1-0.9v-4.9l0.6-0.1c0.3,0,6.4-0.7,9-0.8c2.6-0.1,7.7-0.5,7.7-0.5l0.3,1.4c0,0-3.5,1-5.1,2.4
		c-1.7,1.4-3.1,3.1-3.1,3.2L54.3,192.5z M46.6,190.4l7.1,0.7c0.5-0.6,1.6-1.9,3-3.1c0.4-0.3,0.9-0.7,1.4-0.9
		c-1.2,0.1-2.4,0.2-3.3,0.2c-2.1,0.1-6.6,0.5-8.3,0.7V190.4z"/>
</g>
<g class="st-elem-detail">
	<path class="st--elem" d="M22,223.5c0,0-1.6,16.9-1.2,19.4c0.4,2.5,0.6,3.5,0.6,3.5l0.9,2.3l9.1-9.5l0.7-11.5l-1.5-3.1l-1.7-2.3
		L22,223.5z"/>
	<path class="st1--fill" d="M22.1,250l-1.3-3.3c0-0.1-0.2-1.1-0.7-3.7c-0.4-2.6,1.1-18.9,1.2-19.6l0-0.5l7.8-1.5l2,2.7l1.7,3.4l-0.7,11.9
		L22.1,250z M22.6,224.1c-0.5,5-1.4,16.8-1.1,18.7c0.4,2.5,0.6,3.5,0.6,3.5l0.5,1.2l8.1-8.6l0.7-11.1l-1.4-3l-1.4-1.9L22.6,224.1z"
		/>
</g>
<g class="st-elem-detail">
	<path class="st--elem" d="M46,191l8,0.8c0,0-12.4,16.1-16.3,20.5c-3.8,4.4-5.9,6.5-6.8,8.6c-0.8,2.1-1.4,3-1.4,3l-7.6-0.4
		c0,0,1.2-3.9,3.3-7.1c2-3.2,8.6-12.6,11.9-16.2C40.4,196.6,46,191,46,191z"/>
	<path class="st1--fill" d="M30,224.6l-8.9-0.5l0.3-0.9c0.1-0.2,1.3-4.1,3.3-7.3c2-3.2,8.6-12.6,11.9-16.3c3.2-3.6,8.9-9.2,8.9-9.3
		l0.2-0.2l9.6,0.9l-0.8,1c-0.1,0.2-12.5,16.1-16.3,20.5c-0.9,1-1.7,1.9-2.4,2.7c-2.3,2.6-3.7,4.2-4.3,5.7c-0.8,2.2-1.4,3.1-1.4,3.2
		L30,224.6z M22.9,222.8l6.3,0.3c0.2-0.4,0.6-1.3,1.1-2.6c0.7-1.8,2.1-3.4,4.5-6.1c0.7-0.8,1.5-1.7,2.4-2.7
		c3.2-3.7,12.7-15.9,15.5-19.5l-6.4-0.6c-1.1,1.1-5.8,5.9-8.6,9c-3.2,3.6-9.8,12.9-11.8,16.1C24.4,219,23.4,221.5,22.9,222.8z"/>
</g>
<g class="st-elem-detail">
	<path class="st--elem" d="M29.5,223.9c0,0,7.4-1.3,12.8,0c5.4,1.3,6.4,2.3,5.7,3.7c-0.7,1.4-1.2,6-10.7,11.4c-9.6,5.4-12.6,7.3-12.6,7.3
		s0.2-9.7,1.8-15c1.6-5.3,3.3-7.5,3.3-7.5"/>
	<path class="st1--fill" d="M23.9,247.6l0-1.3c0-0.4,0.2-9.8,1.9-15.2c1.7-5.3,3.3-7.6,3.4-7.7l0.3,0.2l-0.1-0.5c0.3-0.1,7.6-1.3,13.1,0
		c4,1,5.7,1.8,6.2,2.9c0.2,0.5,0.2,1.1-0.1,1.8c-0.1,0.2-0.2,0.4-0.3,0.7c-0.7,2-2.3,6.2-10.7,11c-9.4,5.3-12.6,7.3-12.6,7.3
		L23.9,247.6z M30.1,224.5c-0.4,0.7-1.7,2.9-3,7c-1.2,4-1.6,10.7-1.8,13.5c1.6-1,5.1-3,11.5-6.7c8-4.5,9.4-8.4,10.1-10.3
		c0.1-0.3,0.2-0.6,0.3-0.8c0.2-0.4,0.1-0.5,0.1-0.6c-0.3-0.6-2.1-1.3-5.3-2.1C37.7,223.5,31.8,224.3,30.1,224.5z"/>
</g>
<g class="st-elem-detail">
	<path class="st--elem" d="M166.2,186c0,0-13.3-0.4-28.4,0c-15.1,0.4-20.5,0.9-25.1,1.3c-4.6,0.4-6.8,1.2-6.8,1.2s-3.7,4.5-7.2,12.2
		c-3.5,7.7-5.6,13.8-5.6,13.8l11,24.3c0,0,10.7,4.7,15.5,11.5c4.5,6.4,6.3,17.2,6.3,17.2L174,268l3.5-2.8c0,0-2.9-46.3-3.5-54
		c-0.6-7.8-3.7-17.4-4.3-20.2C169.2,188.2,166.2,186,166.2,186z"/>
	<path class="st1--fill" d="M174.2,268.7l-48.9-0.6l-0.1-0.6c0-0.1-1.8-10.8-6.2-16.9c-4.7-6.6-15.1-11.2-15.3-11.2l-0.2-0.1l-11.3-24.8
		l0.1-0.3c0-0.1,2.2-6.2,5.7-13.8c3.5-7.6,7.1-12.1,7.3-12.3l0.1-0.1l0.2-0.1c0.1,0,2.4-0.9,7-1.3l1.5-0.1
		c4.3-0.4,10.1-0.9,23.6-1.2c15-0.4,28.3,0,28.4,0l0.2,0l0.2,0.1c0.1,0.1,3.2,2.5,3.8,5.4c0.1,0.7,0.5,1.9,0.9,3.3
		c1.1,4.2,3,11.1,3.4,16.9c0.6,7.7,3.5,53.6,3.5,54l0,0.4L174.2,268.7z M126.5,266.7l47.2,0.6l3-2.4c-0.3-4.3-2.9-46.4-3.5-53.7
		c-0.4-5.7-2.3-12.6-3.4-16.7c-0.4-1.5-0.7-2.7-0.9-3.4c-0.4-2.1-2.5-4-3.1-4.5c-1.8,0-14.3-0.3-28.1,0c-13.5,0.3-19.3,0.8-23.5,1.2
		l-1.5,0.1c-3.7,0.3-5.8,0.9-6.4,1.1c-0.7,0.8-3.9,5.2-7,11.9c-3,6.7-5.1,12.2-5.5,13.4l10.8,23.8c1.7,0.8,11.1,5.2,15.6,11.6
		C124.2,255.5,126.1,264.4,126.5,266.7z"/>
</g>
<g class="st-elem-detail">
	<path class="st--elem" d="M166.2,186c0,0,25.3,0.3,38.5,6.6c13.3,6.4,27.7,14.4,35.2,20.1c7.6,5.7,13.1,10.2,15.1,14.2
		c2,4,2.6,21.9,2,28.9c-0.6,6.9-2.4,13.8-2.4,13.8L174,268c0,0,2.8-32.3-0.9-46.4C169.7,209,166.2,186,166.2,186z"/>
	<path class="st1--fill" d="M255.3,270.3l-82-1.7l0.1-0.7c0-0.3,2.7-32.4-0.9-46.2c-3.3-12.5-6.8-35.5-6.8-35.7l-0.1-0.8l0.8,0
		c1,0,25.6,0.4,38.8,6.7c14.2,6.8,28.1,14.7,35.3,20.2c8.2,6.1,13.3,10.5,15.3,14.5c2.2,4.4,2.6,22.8,2.1,29.3
		c-0.6,6.9-2.4,13.9-2.4,14L255.3,270.3z M174.7,267.3l79.5,1.6c0.4-1.7,1.8-7.5,2.2-13.2c0.5-6.8,0-24.7-2-28.5
		c-1.9-3.7-7.1-8.1-14.9-14c-7.2-5.4-21-13.3-35.1-20c-11.7-5.6-33-6.4-37.4-6.5c0.7,4.2,3.8,23.7,6.7,34.7
		C177.1,234.4,175.1,262.3,174.7,267.3z"/>
</g>
<path class="st1--fill" d="M262.9,225.7c-0.6-0.1-56.5-6.5-99.7-8.1c-42.9-1.6-80.2-2-92.9-1.8c-12,0.2-35.8,1.1-36,1.1l-0.1-1.4
	c0.2,0,24-0.9,36-1.1c12.8-0.2,50,0.2,93,1.8c43.2,1.6,99.3,8,99.8,8.1L262.9,225.7z"/>
<g class="st-elem-detail">
	<path class="st--elem" d="M166.2,188c0,0-32.1-0.1-41.9,0.5c-9.8,0.6-15.2,1.6-15.2,1.6s-3.4,6.5-5.8,11.2c-2.4,4.7-4.7,10.1-4.7,10.1
		s-1,0.7,0,2.3c1,1.6,2.5,1.6,2.5,1.6l70.8,1.6c0,0-2.8-14-3.5-18.1C167.7,194.7,166.2,188,166.2,188z"/>
	<path class="st1--fill" d="M172.7,217.6l-71.6-1.6c-0.1,0-2-0.1-3.1-1.9c-0.9-1.5-0.5-2.6,0-3.1c0.4-0.9,2.5-5.8,4.7-10
		c2.3-4.6,5.8-11.2,5.8-11.2l0.2-0.3l0.3-0.1c0.1,0,5.5-1,15.3-1.6c9.7-0.6,41.6-0.5,42-0.5l0.6,0l0.1,0.5c0,0.1,1.5,6.8,2.2,10.8
		c0.7,4.1,3.4,18,3.5,18.1L172.7,217.6z M109.5,190.8c-0.7,1.3-3.6,6.9-5.6,10.9c-2.3,4.6-4.7,10-4.7,10.1l-0.1,0.2L99,212
		c0,0-0.4,0.4,0.2,1.4c0.7,1.2,2,1.3,2,1.3l69.9,1.6c-0.6-3.1-2.7-13.8-3.3-17.3c-0.6-3.4-1.7-8.6-2.1-10.2
		c-4.3,0-32.3-0.1-41.3,0.5C116,189.7,110.9,190.5,109.5,190.8z"/>
</g>
<g class="st-elem-detail">
	<line class="st--elem" x1="161.4" y1="188" x2="164.3" y2="216.7"/>
	
		<rect x="162.1" y="187.9" transform="matrix(0.9949 -0.1004 0.1004 0.9949 -19.4936 17.3684)" class="st1--fill" width="1.4" height="28.9"/>
</g>
<g class="st-elem-detail">
	<line class="st--elem" x1="121.1" y1="188.7" x2="124.2" y2="215.6"/>
	
		<rect x="121.9" y="188.6" transform="matrix(0.9936 -0.1133 0.1133 0.9936 -22.1144 15.1958)" class="st1--fill" width="1.4" height="27"/>
</g>
<g class="st-elem-detail">
	<line class="st--elem" x1="117.4" y1="189.1" x2="119.6" y2="215.6"/>
	
		<rect x="117.8" y="189" transform="matrix(0.9964 -8.488040e-02 8.488040e-02 0.9964 -16.7451 10.79)" class="st1--fill" width="1.4" height="26.6"/>
</g>
<g class="st-elem-detail">
	<path class="st--elem" d="M166.2,188c0,0,21.7,1.1,29.5,3.1c9.4,2.4,26.6,11.9,29.3,13.6c2.8,1.7,14.1,8.7,18.5,12.6
		c3.5,3.1,7.4,6.3,7.4,6.3l-40.1-3.8l-32.1-2.3l-6.8-0.4L166.2,188z"/>
	<path class="st1--fill" d="M253.1,224.6l-42.3-4l-32.1-2.3l-7.4-0.4l-6-30.7l0.9,0c0.9,0,21.8,1.1,29.6,3.2c9.8,2.5,27.5,12.5,29.5,13.7
		l0.2,0.1c9.3,5.7,15.5,10,18.4,12.5c3.4,3,7.4,6.3,7.4,6.3L253.1,224.6z M172.5,216.6l6.3,0.3l32.1,2.3l37.9,3.6
		c-1.5-1.2-3.7-3.1-5.7-4.9c-2.8-2.5-9-6.7-18.2-12.4l-0.2-0.1c-3.4-2.1-20.1-11.2-29.1-13.6c-6.8-1.7-24.3-2.8-28.4-3.1
		L172.5,216.6z"/>
</g>
<g class="st-elem-detail">
		<path class="st--elem" d="M225.7,218.8c2.1,0.7,2.7,2.4,4.3,2.1c1.7-0.4,3.1-0.5,4.2-0.5c1.1,0.1,2.6-1.1,2.6-1.1h1.6
			c0,0-1-6.3-3.9-8.4c-2.9-2.1-8.1-3.5-9.3-1.5c-1.2,2-0.4,4.7-0.4,5.3s-0.2,2.2-0.2,2.2v1.9L225.7,218.8z"/>
		<path class="st1--fill" d="M229.6,221.6c-0.9,0-1.6-0.5-2.3-1.1c-0.5-0.4-1-0.8-1.7-1.1l-1.6,0.1v-2.7c0.1-0.5,0.2-1.8,0.2-2.2
			c0-0.1,0-0.3-0.1-0.5c-0.2-1.2-0.6-3.4,0.5-5.2c0.4-0.6,1-1,1.9-1.2c2.4-0.5,6.2,0.9,8.4,2.5c3.1,2.2,4.1,8.6,4.1,8.9l0.1,0.8
			h-2.1c-0.5,0.4-1.8,1.2-2.9,1.1c-1-0.1-2.3,0.1-4,0.4C230,221.6,229.8,221.6,229.6,221.6z M225.8,218.1l0.1,0
			c1,0.3,1.7,0.9,2.3,1.3c0.7,0.6,1.1,0.8,1.7,0.7c1.8-0.4,3.3-0.5,4.4-0.5c0.7,0,1.7-0.6,2.2-1l0.2-0.1h1c-0.4-1.7-1.4-5.7-3.4-7.2
			c-2.2-1.6-5.6-2.6-7.3-2.3c-0.5,0.1-0.8,0.3-1,0.6c-0.8,1.4-0.5,3.2-0.4,4.2c0.1,0.3,0.1,0.6,0.1,0.8c0,0.7-0.2,2.2-0.2,2.3l0,1.1
			L225.8,218.1z"/>
	</g>
	<g class="st-elem-detail">
		<path class="st--elem" d="M235.1,220.3c0,0-4.2-2.4-5.5-2.5c-1.3-0.1-3.9,1-3.9,1"/>
		<path class="st1--fill" d="M234.8,220.9c-1.7-1-4.4-2.3-5.2-2.4c-0.9,0-2.9,0.7-3.6,0.9l-0.5-1.3c0.3-0.1,2.8-1.1,4.2-1
			c1.4,0.1,5.1,2.1,5.8,2.6L234.8,220.9z"/>
	</g>
<g class="st-elem-detail">
	<path class="st--elem" d="M105.3,188.5c0,0-26.4,1.5-34.3,4.8c-13.7,5.6-26.7,22.6-26.7,22.6l48.5-0.8l-0.4-0.6c0,0,2.9-8.2,5.6-13.8
		C100.5,195.9,105.3,188.5,105.3,188.5z"/>
	<path class="st1--fill" d="M42.9,216.6l0.9-1.1c0.5-0.7,13.2-17.2,27-22.8c7.9-3.2,33.4-4.8,34.5-4.8l1.4-0.1l-0.8,1.2
		c0,0.1-4.9,7.4-7.1,12.1c-2.4,4.9-4.9,11.8-5.5,13.4l0.9,1.3L42.9,216.6z M104,189.3c-5.5,0.4-26.1,1.9-32.7,4.6
		C60,198.6,49,211.2,45.8,215.1l46-0.8l0-0.1c0-0.1,2.9-8.3,5.7-13.8C99.3,196.8,102.6,191.6,104,189.3z"/>
</g>
<g class="st-elem-detail">
	<path class="st--elem" d="M98.7,191.8c0,0-20.4,0-32.1,7.7c-9.5,6.3-15.4,13.9-15.4,13.9l35.4-0.9L98.7,191.8z"/>
	<path class="st1--fill" d="M49.8,214.2l0.9-1.1c0.1-0.1,6-7.8,15.5-14.1c11.8-7.8,31.6-7.9,32.5-7.9h1.2l-12.8,22.2L49.8,214.2z
		 M97.5,192.5c-4.5,0.2-20.7,1.1-30.5,7.6c-7.1,4.7-12.2,10.3-14.2,12.6l33.5-0.8L97.5,192.5z"/>
</g>
<g class="st-elem-detail">
	<path class="st--elem" d="M43.9,194.4h4.1c0,0,1.9-0.7,0.7,0.8c-1.2,1.4-13.8,17.3-13.8,17.3h-7.1c0,0,7.4-9.4,10.1-12.5
		C40.8,196.7,43.9,194.4,43.9,194.4z"/>
	<path class="st1--fill" d="M35.3,213.1h-8.8l0.9-1.1c0.1-0.1,7.4-9.4,10.1-12.6c2.8-3.2,5.9-5.5,6-5.6l0.2-0.1H48
		c0.6-0.2,1.4-0.3,1.8,0.3c0.4,0.7-0.2,1.4-0.4,1.7c-1.2,1.4-13.7,17.1-13.8,17.2L35.3,213.1z M29.3,211.7h5.3
		c1.6-2,11.2-14,13.3-16.6h-3.8c-0.7,0.5-3.3,2.6-5.6,5.2C36.4,202.7,31.4,209.1,29.3,211.7z"/>
</g>
<g class="st-elem-detail">
	<path class="st--elem" d="M180.9,231c-0.1,1.1,3.6,2.2,8.1,2.6c4.6,0.3,8.3-0.3,8.4-1.4c0.1-1.1-3.6-2.2-8.1-2.6
		C184.8,229.3,181,229.9,180.9,231z"/>
	<path class="st1--fill" d="M191.5,234.3c-0.8,0-1.7,0-2.5-0.1c-0.9-0.1-9-0.7-8.8-3.3l0,0c0-0.2,0.1-0.6,0.5-0.9c1.4-1.2,5.5-1.3,8.7-1.1
		c0.9,0.1,9,0.7,8.8,3.3c0,0.2-0.1,0.6-0.5,0.9C196.7,234,194.1,234.3,191.5,234.3z M181.7,231c0.5,0.5,3.1,1.5,7.5,1.8
		c4.3,0.3,7.1-0.3,7.6-0.7c-0.5-0.5-3.1-1.5-7.5-1.8C185,230,182.2,230.6,181.7,231z"/>
</g>
<g class="st-elem-detail">
	<path class="st--elem" d="M109.3,227.4c-0.1,1.1,3.6,2.2,8.1,2.6c4.6,0.3,8.3-0.3,8.4-1.4c0.1-1.1-3.6-2.2-8.1-2.6
		C113.2,225.7,109.4,226.3,109.3,227.4z"/>
	<path class="st1--fill" d="M119.9,230.7c-0.8,0-1.7,0-2.5-0.1c-0.9-0.1-9-0.7-8.8-3.3v0c0-0.2,0.1-0.6,0.5-0.9c1.4-1.2,5.5-1.3,8.7-1.1
		c0.9,0.1,9,0.7,8.8,3.3c0,0.2-0.1,0.6-0.5,0.9C125.1,230.4,122.5,230.7,119.9,230.7z M110.1,227.4c0.5,0.5,3.1,1.5,7.5,1.8
		c4.3,0.3,7.1-0.3,7.6-0.7c-0.5-0.5-3.1-1.5-7.5-1.8C113.4,226.4,110.6,227,110.1,227.4z"/>
</g>
</svg>
