<svg version="1.1" xmlns="http://www.w3.org/2000/svg" xmlns:xlink="http://www.w3.org/1999/xlink" x="0px" y="0px"	 viewBox="0 0 125.22 188.92"><title>wagon_front_back</title>
<g class="st-elem-detail"><path class="st--elem" d="M109.84,27l5.4,4s.94,1.3.6,1.93a3.22,3.22,0,0,1-.6.85l.68,1.3s1,0,1.28.67-.57,1.82-.57,1.82a24.72,24.72,0,0,1,.62,5.83c.05,3.85,0,15.17,0,15.17l-2.44.4L108,35.36l.62-4.87,1-1.5Z"/></g>
<g class="st-elem-detail"><path class="st--elem" d="M16.14,27l-5.58,4s-1,1.3-.62,1.93a3.26,3.26,0,0,0,.62.85l-.7,1.3s-1,0-1.33.67.58,1.82.58,1.82a23.94,23.94,0,0,0-.64,5.83c-.06,3.85,0,15.17,0,15.17L11,59l7-23.67-.64-4.87-1-1.5Z"/></g>
<g class="st-elem-detail"><path class="st--elem" d="M21.39,79.42H35.15l4.08-4H87.45l3.45,4h13.27l-.83-4s-6-5.42-7.1-5.72S76,68.33,74.36,68.26s-24.61.23-24.61.23-16.44,1.36-16.9,1.36S21.39,70.9,21.39,70.9Z"/></g>
<g class="st-elem-detail"><path class="st--elem" d="M116.39,87.17c0,.44.07,1.25-.27,1.25H103c-.34,0-.61-.81-.61-1.25V50.76c0-.44.27-.33.61-.33h13.11c.34,0,.27-.1.27.33Z"/></g>
<g class="st-elem-detail"><path class="st--elem" d="M22.39,87.28c0,.34.31,1.15,0,1.15h-13c-.33,0,0-.81,0-1.15V50.66c0-.34-.37-.24,0-.24h13c.33,0,0-.1,0,.24Z"/></g>
<g class="st-elem-detail"><path class="st--elem" d="M111.7,40.45l5,4.15s-2,21.29-3.84,25.82-2,6.11-5.09,6.34-17.35.19-17.35.19l-2.69-2.52h-49L35.33,77,16.07,76.4S11.77,67.52,10.75,62,9.39,44.39,9.39,44.39L14.94,40l11.33-2.64s43.15.11,43.94,0,23.67-.57,23.67-.57l13.25.79Z"/></g>
<g class="st-elem-detail"><path class="st--elem" d="M62.84,28.4c-17,.23-31.37.68-36.24.79a79.11,79.11,0,0,0-8.72.68,12.42,12.42,0,0,1-1.81,1.47,5.59,5.59,0,0,0-1.81,3.28l.91,7.13s-.34,1.13,4.42,1.59,11.1,1.81,11.1,1.81.11-.45.45,1.24a19.46,19.46,0,0,0,2.6,5.32,24.64,24.64,0,0,0,2.83,2.94,211,211,0,0,0,26.27,1.81c12.34-.11,25.37-.91,27.41-1.81s3.28-5.55,6.23-7.13,7.93-4.3,8.95-4.3,6-.79,6-.79a27.94,27.94,0,0,0,.57-5.89,16.3,16.3,0,0,0-.57-2.83s-1.13-2.6-1.92-3.06-1-1-2.38-1S62.84,28.4,62.84,28.4Z"/></g>
<g class="st-elem-detail"><path class="st--elem" d="M111.43,33.64l-7.93-1.21h-34c-.79,0-26.5-.37-28.08-.48S29.55,32,28,32s-10.87.85-10.87.85l-2.83,1.79A30.39,30.39,0,0,1,16,27.49c1.13-2.38,5.66-13,7.81-17.21a62.31,62.31,0,0,1,4.76-7.7,16.52,16.52,0,0,1,5-1.36C35.78,1.11,45.74.31,62.84.54s30.69.79,30.69.79,3.28.11,4.3,1.59A93.63,93.63,0,0,1,106,17.57c2.49,6.08,4.08,10.11,4.42,11.47S111.43,33.64,111.43,33.64Z"/></g>
<g class="st-elem-detail"><path class="st--elem" d="M111.24,42.48s-.68-1.47-3.44-1.25-8.31,1.28-11.51,3.51S90.48,52.07,90.1,53s.29,1.43,2.3,1.47A84.27,84.27,0,0,0,105.46,53c3.21-.83,5.21-2,5.7-3.66a13.18,13.18,0,0,0,.57-4.64A5.51,5.51,0,0,0,111.24,42.48Z"/></g>
<g class="st-elem-detail"><path class="st--elem" d="M14.8,42.48s.7-1.47,3.53-1.25,8.54,1.28,11.85,3.51A11.26,11.26,0,0,1,31.71,46a26.62,26.62,0,0,1,4.83,7c.39.91-.3,1.43-2.37,1.47A89.11,89.11,0,0,1,20.74,53c-3.3-.83-5.36-2-5.87-3.66a12.83,12.83,0,0,1-.58-4.64A5.38,5.38,0,0,1,14.8,42.48Z"/></g>
<g class="st-elem-detail"><path class="st--elem" d="M63.6,41.76c-10.16,0-17.06.45-20.69.79s-6.3.11-5.81,2.38,1.73,6.91,3.32,7.81S53.49,55,63.6,55a103.25,103.25,0,0,0,20-1.92c1.47-.34,3.55-.55,4.68-2.81a48.93,48.93,0,0,0,2.2-5.57s-.2-2-2.92-2.38S63.6,41.76,63.6,41.76Z"/></g>
<g class="st-elem-detail"><path class="st--elem" d="M96.59,6.83s2.49,4.78,4.76,10,3.74,10.39,3.17,11.59-23.89,0-40,0S22.08,29,22.08,29s-1.61.23-1.27-1.21,2.8-7.89,4.67-12.34a61.2,61.2,0,0,1,2.89-6.22l1.19-2.38S47,5.63,61.6,5.75,96.59,6.83,96.59,6.83Z"/></g>
<g class="st-elem-detail"><line class="st--elem" x1="96.82" y1="6.77" x2="99.68" y2="5.74"/></g>
<g class="st-elem-detail"><line class="st--elem" x1="29.36" y1="6.77" x2="26.71" y2="5.74"/></g>
<g class="st-elem-detail"><path class="st--elem" d="M10.38,59.4S36.23,62.3,63.75,62.3A475.77,475.77,0,0,0,115,59.4"/></g>
<g class="st-elem-detail"><path class="st--elem" d="M109.85,27.32l1.91,1.3a52.21,52.21,0,0,1,.28-6c.27-.85,1.32-.79,1.32-.79a57.86,57.86,0,0,1,8.21.45c2.55.51,2.72,2.72,3.06,4.81s-.23,2.83-.62,2.83-.54.11-1.9.34-9.71,2-9.71,2v3.17l-.57.39a24.61,24.61,0,0,1-.72-3.34,45.11,45.11,0,0,0-1.26-4.9"/></g>
<g class="st-elem-detail"><path class="st--elem" d="M124.41,25.84"/></g>
<g class="st-elem-detail"><path class="st--elem" d="M114.6,26.76"/></g>
<g class="st-elem-detail"><path class="st--elem" d="M114.82,21.83"/></g>
<g class="st-elem-detail"><path class="st--elem" d="M124,24.3"/></g>
<g class="st-elem-detail"><path class="st--elem" d="M111.76,28.63s-.13,1.87.28,1.87,12.69-2.6,12.69-2.6"/></g>
<g class="st-elem-detail"><path class="st--elem" d="M15.86,27.57a45.54,45.54,0,0,0-1.24,4.9,26,26,0,0,1-.68,3.34l-.55-.39V32.25s-8.2-1.76-9.53-2S2.4,29.93,2,29.93s-1-.74-.62-2.83.5-4.3,3-4.81a55.6,55.6,0,0,1,8-.45s1-.06,1.29.79a53.35,53.35,0,0,1,.27,6l1.87-1.3"/></g>
<g class="st-elem-detail"><path class="st--elem" d="M14,28.63s.13,1.87-.27,1.87-12.44-2.6-12.44-2.6"/></g>
<g class="st-elem-detail"><line class="st--elem" x1="89.89" y1="46.42" x2="94.89" y2="46.42"/></g>
<g class="st-elem-detail"><line class="st--elem" x1="37.89" y1="46.42" x2="31.89" y2="46.42"/></g>
<g class="st-elem-detail"><path class="st--elem" d="M10.21,134.44,8.41,137.3l.83.61.15,1.46V152.3l2.06,1.47s2.34-1,2.06-1.19-2.12-12.08-2.12-12.08V136.2Z"/></g>
<g class="st-elem-detail"><path class="st--elem" d="M116.39,187.68c0,.44-.16.74-.5.74H102.78c-.34,0-.39-.31-.39-.74V151.26c0-.44,0-.84.39-.84h13.11c.34,0,.5.41.5.84Z"/></g>
<g class="st-elem-detail"><path class="st--elem" d="M22.39,187.68c0,.44.14.74-.2.74H9.08c-.34,0,.31-.31.31-.74V151.26c0-.44-.65-.84-.31-.84H22.19c.34,0,.2.41.2.84Z"/></g>
<g class="st-elem-detail"><path class="st--elem" d="M114.62,134.44l1.84,2.86-.38.61.3,1.46V152.3l-2.51,1.47s-2.62-1-2.34-1.19,1.85-12.08,1.85-12.08V136.2Z"/></g>
<g class="st-elem-detail"><polygon class="st--elem" points="21.39 176.42 103.39 176.42 103.39 171.42 52.63 171.42 21.39 172.33 21.39 176.42"/></g>
<g class="st-elem-detail"><path class="st--elem" d="M109.3,128.73l2.77-.74s-1.59-5.79.37-6.31a36.22,36.22,0,0,1,9.07.3c1.39.44,2.6,3.46,2.65,4.91.06,1.81-.07,3.32-2.42,3.74s-5.1.8-5.93.87a7.38,7.38,0,0,1-1.42,0v2.87l-.76,1.51-3.75-4.46Z"/></g>
<g class="st-elem-detail"><line class="st--elem" x1="111.46" y1="129.73" x2="114.22" y2="129.69"/></g>
<g class="st-elem-detail"><line class="st--elem" x1="114.68" y1="131.51" x2="112.31" y2="129.74"/></g>
<g class="st-elem-detail"><path class="st--elem" d="M15.17,128.73,12.45,128s1.57-5.79-.37-6.31a35.27,35.27,0,0,0-9,.3c-1.37.44-2.56,3.46-2.61,4.91-.06,1.81.07,3.32,2.39,3.74s5.15.8,6,.87a8.73,8.73,0,0,0,1.52,0v2.87l.64,1.51,3.64-4.46Z"/></g>
<g class="st-elem-detail"><line class="st--elem" x1="13.04" y1="129.73" x2="10.32" y2="129.69"/></g>
<g class="st-elem-detail"><line class="st--elem" x1="9.87" y1="131.51" x2="12.2" y2="129.74"/></g>
<g class="st-elem-detail"><path class="st--elem" d="M27.85,103.07s-5.23,7.14-7.1,11.23-5,13.07-5,13.07l1.93.64,3.95-2.2,5.88-14.09s2.42-6.4,2.39-6.57-.87-2.72-.87-2.72Z"/></g>
<g class="st-elem-detail"><path class="st--elem" d="M96.72,102.76s5.39,7.45,7.25,11.54,5,13.07,5,13.07l-1.92.64-3.92-2.2L97.3,111.71s-2.4-6.4-2.38-6.57.87-2.72.87-2.72Z"/></g>
<g class="st-elem-detail"><path class="st--elem" d="M12.87,156.84l-2.5,3.78s1,6.09,2.5,8.7a29.92,29.92,0,0,0,5.27,5.79s23.37-1.36,43.9-1.36,32.9.68,37.1,1,7.83.34,7.83.34,3.63-3.74,4.65-6.24a64.17,64.17,0,0,0,2.16-8.24l-1.32-2.87s-16.75-4.31-17.25-4.54-39.4,0-39.4,0l-18.38-.1-13.23,1Z"/></g>
<g class="st-elem-detail"><path class="st--elem" d="M27,104.11s1.52.65,1.07,1.86-3.62,8.38-4.68,11.56-3.93,9.89-3.93,9.89H16.1s-5,4.71-5.44,6.83.45,5.25,0,6,.19,3.61-.13,5.57a10.94,10.94,0,0,0,0,3.47s.77,4.68.77,6.2a33.57,33.57,0,0,1-.89,5.14,16.88,16.88,0,0,1,10-3c6.2,0,21.18-.3,45.68-.45s39.16.3,41.73.61,6.64,2.87,6.64,2.87v-5.37s.31-5.82.33-6c0,0-.46-1.06-.16-5.29s.53-5.6-.08-8.32-3.37-6-4.58-7.11-4.25-1.51-4.25-1.51-2.73-8-4.25-11.5-4.32-8.7-4.32-9.75a2.42,2.42,0,0,1,.68-1.68,5,5,0,0,0-3.93-2.63c-2.87-.3-17-.72-29.38-.72,0,0-8.36-.27-18.94,0s-12.45.61-14,.72A5.89,5.89,0,0,0,27,104.11Z"/></g>
<g class="st-elem-detail"><path class="st--elem" d="M22.78,127.59s18.64-.1,39.78,0,40,0,40,0"/></g>
<g class="st-elem-detail"><path class="st--elem" d="M29.85,108.87s16.34.13,32.72,0,33.05.1,33.05.1"/></g>
<g class="st-elem-detail"><path class="st--elem" d="M22.65,130s-3.59.12-4.72.77c-2.83,1.65-6.5,4.17-6,11.6.5,7.25,1.13,10.28,12.13,11.87s15.6,1,38.16,1.11,33.1-.12,38-1.15,10.54-3,11.46-6.36,1-11.46,0-13a11.16,11.16,0,0,0-5.39-3.86,12.56,12.56,0,0,0-4.11-.56H21.89"/></g>
<g class="st-elem-detail"><path class="st--elem" d="M100.72,134.35s-26.33.11-38,0-37.64,0-37.64,0"/></g>
<g class="st-elem-detail"><path class="st--elem" d="M100.72,134.35,95.2,150.89s8.24-.18,11.49-1.54,4.91-2.72,4.84-7.49.08-7.19-2.8-7.11S100.72,134.35,100.72,134.35Z"/></g>
<g class="st-elem-detail"><path class="st--elem" d="M24.13,134.35l5.39,16.55s-8.05-.18-11.23-1.54-4.8-2.72-4.73-7.49-.07-7.19,2.73-7.11S24.13,134.35,24.13,134.35Z"/></g>
<g class="st-elem-detail"><path class="st--elem" d="M11.93,167.73a9.2,9.2,0,0,1,5.15-3c3.26-.61,24.42-1.66,45.6-1.66s37.82.62,41.45,1.07a32.21,32.21,0,0,1,8.19,2.66"/></g>
<g class="st-elem-detail"><path class="st--elem" d="M28.46,111.3c.79-1.7,3.29-6,6.47-6.27s12.85-.92,27.64-.92,21.82.22,25.23.79,6.69,1.7,7.83,4.08,5.22,13,6.13,15.2a8.41,8.41,0,0,1,.34,6.46c-.79,2.61-7,20.3-7,20.3s-.79,2.49-4.65,2.49H33.79a3.59,3.59,0,0,1-4-2.32c-1-2.84-7.26-21.58-7.26-21.58a18,18,0,0,1,.79-4.55C24.15,122.25,28.46,111.3,28.46,111.3Z"/></g>
<g class="st-elem-detail"><path class="st--elem" d="M102,130.44H62.88c-25.8,0-40.23-.38-40.23-.38"/></g>
<g class="st-elem-detail"><line class="st--elem" x1="29.88" y1="108.83" x2="95.62" y2="108.97"/></g>
<g class="st-elem-detail"><path class="st--elem" d="M39.69,110.42h47s3.1.24,4.31,2.81,4.24,10.63,4.24,10.63.75,1.56-2.42,1.56H31.53s-3,.6-1.65-2.57,4.67-11,4.67-11,.76-1.61,2.12-1.57S39.69,110.42,39.69,110.42Z"/></g>
<g class="st-elem-detail"><path class="st--elem" d="M53.56,140.42l1.76,4.52s.4,1.41,1.52,1.44,4.5,0,7.68,0H71A2.12,2.12,0,0,0,73,145c.66-1.51,1.59-4.59,1.59-4.59Z"/></g></svg>