<svg xmlns="http://www.w3.org/2000/svg" viewBox="0 0 138.21 118.55"><defs><style>.cls-1{fill:#006eac;}.cls-2{fill:#91c800;}</style></defs><title>favicon_1</title><g id="Layer_2" data-name="Layer 2"><g id="Layer_1-2" data-name="Layer 1"><path class="cls-1" d="M58.75,38S4.57,50,.42,80.34c-5,36.56,35.77,51.38,70.33,24.33,30.67-24,17.58-66.15,10.67-77C71.75,12.51,59.5,4.06,56.75,4c-1.17,0,13,15.5,8.17,34-.82,3.15-4,13.07-9.57,18.2-9.15,8.43-10.94,8.89-20.93,13S21.1,72,32.84,61.76c3.69-3.23,9.68-7.47,12.26-9.75C56.07,42.31,58.75,38,58.75,38Z"/><path class="cls-2" d="M108,15.68c-22.25-9.17-25.45-5-25.45-5s31.51,11.94,31.51,45c0,17.48-9.34,22.83-9.34,22.83a64.94,64.94,0,0,0,1.79-12.45c.53-13-.59-18.57-5.27-28.42-4.75-10-10.37-18.82-20.52-26S55.75,0,55.75,0a39.92,39.92,0,0,1,9,5.34c20.58,12.82,28.5,32.17,29.76,56a45.16,45.16,0,0,1,.08,8.17,49.41,49.41,0,0,1-1.67,9.17c-3.81,12.55-8.83,21-23.31,32.66,10.83.46,45.33-.23,61-26.07C149.49,54.09,129.9,24.69,108,15.68Z"/></g></g></svg>